<svg width="201" height="70" viewBox="0 0 201 70" fill="none" xmlns="http://www.w3.org/2000/svg">
<g filter="url(#filter0_d_1190_12047)">
<rect x="6.23877" width="194.807" height="43.2297" rx="12.5859" transform="rotate(6.96054 6.23877 0)" fill="white" fill-opacity="0.94"/>
<rect x="6.23877" width="194.807" height="43.2297" rx="12.5859" transform="rotate(6.96054 6.23877 0)" fill="white" fill-opacity="0.94"/>
<rect x="13.1138" y="6.90332" width="30.0967" height="30.6439" rx="7.66097" transform="rotate(6.96054 13.1138 6.90332)" fill="#F88C3D"/>
<g clip-path="url(#clip0_1190_12047)">
<path d="M32.6242 28.4647L19.95 26.9174L21.1105 17.4118L29.1111 18.3885C29.0854 18.0718 29.0759 17.4918 29.3045 16.8042L21.3039 15.8275C20.4326 15.7211 19.6326 16.347 19.5263 17.2183L17.7855 31.4768L21.3409 28.6951L32.4308 30.049C33.3021 30.1554 34.1021 29.5295 34.2085 28.6581L35.0808 21.5131C34.5788 21.8055 34.0082 22.0012 33.4075 22.0484L32.6242 28.4647Z" fill="white"/>
<path d="M32.7991 20.4467C34.1116 20.6069 35.3054 19.6728 35.4657 18.3604C35.6259 17.0479 34.6919 15.8541 33.3794 15.6938C32.0669 15.5336 30.8731 16.4677 30.7129 17.7801C30.5526 19.0926 31.4867 20.2864 32.7991 20.4467Z" fill="white"/>
<path d="M28.2582 24.7159L21.9211 23.9423L21.7277 25.5265L28.0648 26.3002L28.2582 24.7159Z" fill="white"/>
<path d="M31.7169 22.7264L22.2113 21.5659L22.0178 23.1501L31.5235 24.3106L31.7169 22.7264Z" fill="white"/>
<path d="M22.308 20.7737L31.8136 21.9342L31.8233 21.855C30.889 21.54 30.1328 20.8849 29.6544 20.0627L22.5014 19.1895L22.308 20.7737Z" fill="white"/>
</g>
<path d="M56.3963 19.2095L55.773 24.3149L54.9362 24.2127L55.3388 20.9151C55.3549 20.7833 55.3794 20.6417 55.4122 20.4904L53.5154 23.2008C53.4255 23.3307 53.3052 23.3865 53.1545 23.3681L53.0204 23.3517C52.8697 23.3333 52.7664 23.2503 52.7104 23.1025L51.505 20.0027C51.5026 20.0812 51.4991 20.1584 51.4947 20.2343C51.4902 20.3102 51.484 20.38 51.4763 20.4435L51.0737 23.7412L50.2369 23.639L50.8602 18.5337L51.5769 18.6212C51.6193 18.6263 51.6556 18.632 51.686 18.638C51.7163 18.6441 51.7426 18.6533 51.765 18.6656C51.7897 18.6782 51.8102 18.6962 51.8265 18.7197C51.8451 18.7435 51.8616 18.7742 51.8762 18.8118L53.0588 21.8335C53.0896 21.9137 53.1166 21.9959 53.1398 22.0799C53.1653 22.1643 53.1894 22.2508 53.212 22.3396C53.2556 22.2565 53.2999 22.1771 53.345 22.1014C53.3904 22.0233 53.4377 21.9491 53.4869 21.8786L55.3397 19.2346C55.3629 19.2016 55.3863 19.1758 55.4101 19.1572C55.4339 19.1386 55.4581 19.126 55.4828 19.1195C55.5098 19.1132 55.5388 19.1108 55.5697 19.1122C55.6006 19.1136 55.6372 19.1169 55.6796 19.122L56.3963 19.2095ZM60.2758 21.1881L59.8336 24.8106L59.3005 24.7455C59.1851 24.7314 59.1186 24.6696 59.101 24.5599L59.0763 24.2631C58.9096 24.3956 58.7311 24.498 58.5407 24.5703C58.3506 24.6403 58.1343 24.6605 57.8919 24.6309C57.6942 24.6067 57.5228 24.5524 57.3779 24.4678C57.2356 24.3812 57.1201 24.2703 57.0315 24.1353C56.9429 24.0002 56.8817 23.8458 56.848 23.6721C56.8169 23.4963 56.8137 23.3072 56.8384 23.1048L57.1194 20.8028L57.9915 20.9093L57.7105 23.2113C57.6835 23.4325 57.7131 23.6105 57.7994 23.7453C57.8883 23.878 58.0351 23.9568 58.2399 23.9818C58.3905 24.0002 58.5358 23.9845 58.6756 23.9347C58.8158 23.8825 58.9519 23.8048 59.0839 23.7014L59.4038 21.0817L60.2758 21.1881ZM61.9722 21.7894C62.1296 21.6748 62.298 21.5867 62.4775 21.525C62.657 21.4633 62.861 21.4464 63.0893 21.4743C63.287 21.4984 63.4582 21.554 63.6029 21.6409C63.7478 21.7255 63.8634 21.8352 63.9497 21.9699C64.0386 22.1026 64.0986 22.2568 64.1297 22.4326C64.1634 22.6064 64.1679 22.7944 64.1432 22.9969L63.8618 25.3024L62.9897 25.1959L63.2711 22.8904C63.2982 22.6691 63.2684 22.4923 63.1818 22.3599C63.0956 22.2252 62.9489 22.1451 62.7417 22.1199C62.5911 22.1015 62.4457 22.1184 62.3055 22.1705C62.1654 22.2227 62.0293 22.3004 61.8972 22.4037L61.5774 25.0235L60.7053 24.917L61.3459 19.6705L62.2179 19.7769L61.9722 21.7894ZM66.8006 24.0917C66.5473 24.0727 66.3327 24.0692 66.1569 24.0812C65.9813 24.0908 65.8388 24.114 65.7292 24.1508C65.6196 24.1876 65.5384 24.2362 65.4856 24.2966C65.4328 24.3571 65.4017 24.4262 65.3922 24.5038C65.3735 24.6568 65.4049 24.7717 65.4863 24.8486C65.5701 24.9257 65.6849 24.9731 65.8308 24.991C66.0097 25.0128 66.1678 24.9998 66.305 24.9521C66.4448 24.9023 66.5852 24.8191 66.726 24.7025L66.8006 24.0917ZM64.9941 22.2766C65.4572 21.9461 65.9819 21.8167 66.568 21.8882C66.7798 21.9141 66.965 21.9725 67.1235 22.0636C67.2822 22.1522 67.4117 22.266 67.5118 22.4048C67.6122 22.5413 67.6813 22.699 67.7192 22.878C67.7594 23.0573 67.767 23.2494 67.742 23.4541L67.4627 25.742L67.0673 25.6937C66.9849 25.6837 66.9228 25.6641 66.8809 25.6351C66.8394 25.6038 66.8102 25.5489 66.7935 25.4704L66.7478 25.1996C66.6459 25.2708 66.5475 25.3329 66.4527 25.3858C66.3581 25.4364 66.2612 25.4771 66.1619 25.5079C66.0625 25.5388 65.9575 25.5582 65.8466 25.5662C65.7378 25.5768 65.6187 25.5742 65.4892 25.5584C65.3362 25.5397 65.1974 25.5025 65.0729 25.4467C64.9486 25.3885 64.8444 25.3125 64.7603 25.2186C64.6762 25.1247 64.6157 25.0134 64.5789 24.8847C64.5421 24.756 64.5336 24.6104 64.5534 24.448C64.5646 24.3562 64.591 24.2675 64.6325 24.1817C64.6743 24.0937 64.7343 24.0126 64.8127 23.9386C64.8933 23.8648 64.9934 23.7982 65.113 23.7387C65.2325 23.6793 65.3756 23.6323 65.5423 23.5977C65.7113 23.5634 65.9049 23.5428 66.1231 23.536C66.3416 23.5268 66.589 23.5355 66.8653 23.5621L66.8911 23.3503C66.9207 23.1078 66.8908 22.9226 66.8013 22.7946C66.7121 22.6643 66.5698 22.5872 66.3745 22.5634C66.2332 22.5461 66.1135 22.5482 66.0153 22.5697C65.9195 22.5914 65.8337 22.6192 65.7579 22.6529C65.6824 22.6843 65.6133 22.7129 65.5504 22.7387C65.4899 22.7647 65.4243 22.7734 65.3537 22.7648C65.2925 22.7573 65.2426 22.7357 65.204 22.7C65.1656 22.6618 65.1361 22.62 65.1154 22.5745L64.9941 22.2766ZM68.2911 25.8431L68.7333 22.2207L69.2665 22.2858C69.3794 22.2996 69.4471 22.3616 69.4695 22.4718L69.4932 22.747C69.5654 22.6842 69.6392 22.6275 69.7147 22.577C69.7924 22.5268 69.8728 22.4852 69.9556 22.4523C70.0408 22.4197 70.1296 22.3971 70.2219 22.3845C70.3169 22.3698 70.4185 22.3691 70.5267 22.3823C70.7551 22.4102 70.9346 22.4954 71.0653 22.638C71.1986 22.7785 71.2893 22.9556 71.3372 23.1692C71.4084 23.0561 71.4915 22.9623 71.5866 22.8879C71.6819 22.8112 71.7835 22.7519 71.8914 22.7101C71.9992 22.6684 72.1112 22.6414 72.2273 22.6293C72.3458 22.6175 72.4627 22.6187 72.5781 22.6327C72.7781 22.6572 72.9521 22.7095 73.1 22.7896C73.2479 22.8698 73.3676 22.9752 73.4591 23.1058C73.5507 23.2364 73.6132 23.3898 73.6466 23.5658C73.6824 23.7422 73.687 23.9399 73.6602 24.1588L73.3788 26.4643L72.5067 26.3578L72.7882 24.0523C72.8163 23.8216 72.7868 23.6424 72.6997 23.5147C72.6129 23.3847 72.4718 23.3077 72.2764 23.2839C72.187 23.273 72.1015 23.2781 72.0201 23.2992C71.9411 23.3206 71.8685 23.3571 71.8025 23.4088C71.7391 23.4584 71.6856 23.5247 71.642 23.6078C71.5984 23.6908 71.5698 23.7889 71.556 23.9019L71.2745 26.2074L70.3989 26.1005L70.6804 23.795C70.71 23.5525 70.6821 23.3699 70.5967 23.2472C70.5137 23.1248 70.3781 23.0521 70.1898 23.0292C70.0627 23.0136 69.9399 23.0309 69.8215 23.0809C69.7058 23.1289 69.5942 23.2013 69.4869 23.2981L69.1632 25.9496L68.2911 25.8431ZM74.2148 26.5663L74.657 22.9439L75.1901 23.009C75.3031 23.0228 75.3708 23.0848 75.3932 23.195L75.4169 23.4702C75.4891 23.4074 75.5629 23.3507 75.6383 23.3002C75.7161 23.25 75.7965 23.2084 75.8793 23.1755C75.9645 23.1429 76.0533 23.1203 76.1456 23.1077C76.2405 23.093 76.3421 23.0923 76.4504 23.1055C76.6787 23.1334 76.8582 23.2186 76.989 23.3612C77.1223 23.5017 77.213 23.6787 77.2609 23.8924C77.3321 23.7793 77.4152 23.6855 77.5103 23.6111C77.6056 23.5344 77.7072 23.4751 77.815 23.4333C77.9229 23.3916 78.0348 23.3646 78.151 23.3525C78.2695 23.3407 78.3864 23.3418 78.5017 23.3559C78.7018 23.3804 78.8758 23.4327 79.0237 23.5128C79.1715 23.593 79.2913 23.6984 79.3828 23.829C79.4744 23.9596 79.5369 24.113 79.5703 24.289C79.6061 24.4654 79.6106 24.663 79.5839 24.8819L79.3024 27.1875L78.4304 27.081L78.7118 24.7755C78.74 24.5448 78.7105 24.3656 78.6234 24.2379C78.5365 24.1079 78.3954 24.0309 78.2001 24.0071C78.1106 23.9962 78.0252 24.0013 77.9438 24.0224C77.8647 24.0438 77.7922 24.0803 77.7262 24.132C77.6628 24.1816 77.6093 24.2479 77.5657 24.331C77.5221 24.414 77.4934 24.5121 77.4796 24.625L77.1982 26.9306L76.3226 26.8237L76.604 24.5181C76.6336 24.2757 76.6058 24.0931 76.5204 23.9704C76.4374 23.848 76.3018 23.7753 76.1135 23.7523C75.9864 23.7368 75.8636 23.7541 75.7452 23.8041C75.6295 23.8521 75.5179 23.9245 75.4105 24.0213L75.0868 26.6728L74.2148 26.5663ZM82.2409 25.9767C81.9876 25.9577 81.773 25.9542 81.5971 25.9662C81.4216 25.9758 81.279 25.999 81.1694 26.0358C81.0598 26.0726 80.9786 26.1212 80.9259 26.1817C80.8731 26.2421 80.842 26.3112 80.8325 26.3889C80.8138 26.5419 80.8452 26.6568 80.9266 26.7336C81.0103 26.8107 81.1251 26.8582 81.2711 26.876C81.45 26.8978 81.608 26.8849 81.7452 26.8371C81.8851 26.7873 82.0254 26.7041 82.1663 26.5875L82.2409 25.9767ZM80.4343 24.1616C80.8975 23.8312 81.4221 23.7017 82.0082 23.7733C82.22 23.7991 82.4052 23.8576 82.5637 23.9486C82.7225 24.0372 82.8519 24.151 82.952 24.2898C83.0524 24.4263 83.1216 24.584 83.1594 24.7631C83.1997 24.9424 83.2073 25.1344 83.1823 25.3392L82.903 27.627L82.5075 27.5788C82.4251 27.5687 82.363 27.5492 82.3212 27.5202C82.2796 27.4888 82.2505 27.4339 82.2338 27.3554L82.188 27.0847C82.0862 27.1559 81.9878 27.2179 81.893 27.2708C81.7984 27.3214 81.7014 27.3621 81.6021 27.393C81.5028 27.4239 81.3977 27.4433 81.2869 27.4512C81.1781 27.4618 81.0589 27.4592 80.9295 27.4434C80.7765 27.4248 80.6377 27.3875 80.5131 27.3317C80.3888 27.2735 80.2846 27.1975 80.2006 27.1036C80.1165 27.0097 80.056 26.8984 80.0192 26.7697C79.9823 26.641 79.9738 26.4954 79.9936 26.333C80.0048 26.2412 80.0312 26.1525 80.0727 26.0668C80.1145 25.9787 80.1746 25.8977 80.2529 25.8236C80.3336 25.7498 80.4337 25.6832 80.5532 25.6238C80.6728 25.5643 80.8159 25.5173 80.9825 25.4827C81.1515 25.4484 81.3452 25.4278 81.5634 25.421C81.7819 25.4119 82.0293 25.4206 82.3055 25.4471L82.3314 25.2353C82.361 24.9928 82.331 24.8076 82.2415 24.6797C82.1523 24.5493 82.0101 24.4722 81.8147 24.4484C81.6735 24.4311 81.5538 24.4333 81.4556 24.4547C81.3598 24.4765 81.274 24.5042 81.1982 24.538C81.1227 24.5693 81.0535 24.5979 80.9906 24.6237C80.9301 24.6498 80.8646 24.6585 80.794 24.6498C80.7328 24.6424 80.6828 24.6208 80.6442 24.585C80.6059 24.5469 80.5763 24.505 80.5556 24.4595L80.4343 24.1616ZM86.3344 25.3083C86.2502 25.1762 86.1523 25.0783 86.0406 25.0145C85.9313 24.951 85.8096 24.911 85.6754 24.8946C85.5436 24.8785 85.4217 24.8888 85.3098 24.9252C85.1978 24.9617 85.098 25.026 85.0103 25.118C84.9229 25.2077 84.8497 25.3277 84.7908 25.4782C84.7321 25.6263 84.6899 25.8051 84.6644 26.0146C84.6385 26.2264 84.633 26.4085 84.6478 26.5608C84.6653 26.7111 84.7001 26.8372 84.7522 26.9391C84.8045 27.0386 84.874 27.1152 84.9606 27.1688C85.0475 27.22 85.1475 27.2525 85.2605 27.2663C85.4417 27.2884 85.6005 27.2696 85.7368 27.2098C85.8731 27.15 86.0062 27.0575 86.1361 26.9324L86.3344 25.3083ZM87.5177 22.8657L86.8772 28.1122L86.344 28.0471C86.2287 28.0331 86.1622 27.9712 86.1445 27.8615L86.113 27.503C85.9467 27.6523 85.7619 27.7671 85.5586 27.8473C85.3576 27.9279 85.1312 27.9528 84.8794 27.9221C84.6817 27.8979 84.5055 27.8346 84.3508 27.7321C84.1961 27.6296 84.0682 27.4934 83.9671 27.3234C83.8686 27.1513 83.8006 26.9459 83.7628 26.7072C83.7274 26.4688 83.7278 26.2013 83.764 25.9047C83.7968 25.6364 83.8637 25.3913 83.9649 25.1696C84.066 24.9478 84.1952 24.7605 84.3524 24.6077C84.5096 24.4549 84.6893 24.3431 84.8914 24.2722C85.0939 24.199 85.3139 24.1769 85.5517 24.2059C85.7541 24.2306 85.9232 24.2835 86.059 24.3646C86.1949 24.4456 86.3127 24.5472 86.4124 24.6693L86.6456 22.7592L87.5177 22.8657ZM91.091 24.2121L90.9065 25.7232L92.8201 25.9568L92.7275 26.7159L90.8138 26.4823L90.56 28.5619L89.6067 28.4455L90.23 23.3401L93.4499 23.7332L93.3577 24.4888L91.091 24.2121ZM94.8148 25.4049L94.3726 29.0273L93.497 28.9204L93.9392 25.298L94.8148 25.4049ZM95.0638 24.3638C95.0546 24.4392 95.0306 24.5079 94.992 24.5701C94.9534 24.6322 94.9051 24.6849 94.8473 24.728C94.7918 24.7714 94.7281 24.8042 94.6561 24.8265C94.5844 24.8464 94.5097 24.8516 94.432 24.8421C94.3567 24.8329 94.2867 24.81 94.2218 24.7735C94.1597 24.7348 94.1069 24.6878 94.0635 24.6323C94.0201 24.5768 93.9871 24.5143 93.9646 24.4446C93.9444 24.3753 93.9389 24.303 93.9481 24.2276C93.9576 24.15 93.9806 24.0787 94.0172 24.0139C94.0561 23.9494 94.1033 23.8954 94.1588 23.852C94.2142 23.8086 94.2766 23.7768 94.346 23.7566C94.418 23.7344 94.4916 23.7278 94.567 23.737C94.6446 23.7465 94.7157 23.7707 94.7803 23.8097C94.8451 23.8462 94.8992 23.8923 94.9426 23.9477C94.9883 24.0035 95.0223 24.0673 95.0446 24.1393C95.0669 24.2113 95.0732 24.2862 95.0638 24.3638ZM96.7813 23.9966L96.4145 27.0012L96.5769 27.021C96.6358 27.0282 96.6825 27.0268 96.7172 27.0167C96.7545 27.0045 96.7937 26.977 96.8347 26.9343L97.8708 25.932C97.9145 25.8872 97.9603 25.8546 98.0082 25.8341C98.0585 25.814 98.1201 25.8084 98.193 25.8173L98.9909 25.9147L97.7004 27.1224C97.6075 27.2185 97.5105 27.2891 97.4094 27.3341C97.4545 27.3754 97.4931 27.4219 97.525 27.4736C97.5592 27.5256 97.5907 27.5808 97.6194 27.6392L98.6123 29.5449L97.8249 29.4488C97.7567 29.4405 97.6991 29.4227 97.6523 29.3955C97.6057 29.3659 97.5695 29.3197 97.5438 29.2568L96.7864 27.7704C96.7601 27.7123 96.7303 27.6728 96.697 27.652C96.6637 27.6312 96.6117 27.6165 96.5411 27.6079L96.3434 27.5838L96.1408 29.2432L95.2687 29.1367L95.9092 23.8902L96.7813 23.9966ZM100.236 26.7045C100.375 26.5018 100.53 26.3487 100.701 26.2452C100.871 26.1395 101.062 26.0995 101.274 26.1254C101.441 26.1458 101.571 26.1986 101.663 26.284L101.527 26.9302C101.51 26.9712 101.489 26.9996 101.463 27.0156C101.44 27.0294 101.409 27.0341 101.372 27.0295C101.336 27.0252 101.284 27.0128 101.215 26.9924C101.148 26.9723 101.082 26.9583 101.016 26.9502C100.919 26.9384 100.832 26.9421 100.753 26.9611C100.674 26.9802 100.601 27.013 100.533 27.0597C100.468 27.1043 100.407 27.1614 100.351 27.231C100.297 27.3008 100.244 27.3816 100.192 27.4732L99.9199 29.7046L99.0478 29.5981L99.49 25.9756L100.002 26.0381C100.091 26.0491 100.152 26.0731 100.183 26.1104C100.215 26.1453 100.231 26.2047 100.233 26.2885L100.236 26.7045ZM103.035 26.4084L102.593 30.0309L101.717 29.924L102.16 26.3015L103.035 26.4084ZM103.284 25.3674C103.275 25.4427 103.251 25.5115 103.212 25.5737C103.174 25.6358 103.125 25.6885 103.068 25.7316C103.012 25.775 102.948 25.8078 102.876 25.8301C102.805 25.85 102.73 25.8552 102.652 25.8457C102.577 25.8365 102.507 25.8136 102.442 25.777C102.38 25.7384 102.327 25.6913 102.284 25.6359C102.24 25.5804 102.207 25.5179 102.185 25.4482C102.165 25.3789 102.159 25.3065 102.168 25.2312C102.178 25.1535 102.201 25.0823 102.237 25.0175C102.276 24.953 102.324 24.899 102.379 24.8556C102.435 24.8122 102.497 24.7804 102.566 24.7602C102.638 24.738 102.712 24.7314 102.787 24.7406C102.865 24.7501 102.936 24.7743 103.001 24.8132C103.065 24.8498 103.119 24.8958 103.163 24.9513C103.209 25.0071 103.243 25.0709 103.265 25.1429C103.287 25.2149 103.294 25.2897 103.284 25.3674ZM105.145 29.8551C105.154 29.7821 105.175 29.7143 105.209 29.6515C105.245 29.5891 105.29 29.5372 105.343 29.4959C105.395 29.4545 105.457 29.4238 105.526 29.4036C105.595 29.3834 105.668 29.3779 105.743 29.3871C105.818 29.3963 105.886 29.4189 105.946 29.4549C106.008 29.4912 106.06 29.5357 106.102 29.5885C106.145 29.6416 106.177 29.7029 106.198 29.7722C106.218 29.8416 106.223 29.9127 106.214 29.9857C106.205 30.061 106.183 30.1299 106.146 30.1924C106.11 30.2525 106.065 30.3031 106.009 30.3441C105.957 30.3854 105.896 30.415 105.827 30.4329C105.76 30.4533 105.688 30.459 105.613 30.4498C105.538 30.4406 105.469 30.4179 105.406 30.3816C105.344 30.3476 105.292 30.3042 105.25 30.2514C105.209 30.1986 105.178 30.1387 105.158 30.0717C105.14 30.0026 105.135 29.9304 105.145 29.8551ZM109.966 28.9746L109.552 27.2005C109.531 27.1214 109.51 27.0281 109.49 26.9205C109.469 26.8129 109.45 26.6971 109.432 26.5731C109.387 26.6894 109.341 26.7985 109.295 26.9004C109.25 26.9999 109.207 27.0866 109.167 27.1606L108.342 28.7763L109.966 28.9746ZM111.408 31.1071L110.674 31.0174C110.591 31.0074 110.527 30.9792 110.48 30.9329C110.433 30.8842 110.401 30.8276 110.382 30.7633L110.128 29.6752L108.013 29.417L107.505 30.412C107.479 30.4638 107.437 30.5088 107.377 30.5469C107.318 30.585 107.248 30.5992 107.168 30.5894L106.426 30.4989L109.059 25.6388L110.026 25.7569L111.408 31.1071Z" fill="black"/>
<path d="M51.9438 31.8148C51.9183 31.8475 51.8915 31.8717 51.8633 31.8874C51.8378 31.901 51.8073 31.9056 51.772 31.9013C51.732 31.8965 51.6874 31.8707 51.6381 31.8241C51.5889 31.7775 51.5259 31.7256 51.4493 31.6684C51.3753 31.6092 51.2831 31.5526 51.1726 31.4985C51.0645 31.4447 50.9293 31.4079 50.7669 31.388C50.6139 31.3694 50.476 31.374 50.3531 31.402C50.2329 31.428 50.1284 31.4713 50.0398 31.5322C49.9535 31.5933 49.8844 31.6697 49.8327 31.7613C49.7811 31.8506 49.7486 31.9505 49.7351 32.0612C49.7179 32.2024 49.7377 32.3242 49.7944 32.4267C49.8538 32.5271 49.936 32.6172 50.0409 32.6969C50.1482 32.7769 50.2706 32.8504 50.4082 32.9173C50.5484 32.9822 50.6906 33.0497 50.8349 33.1199C50.9816 33.1904 51.1227 33.2673 51.2583 33.3508C51.3964 33.4321 51.516 33.5291 51.6169 33.6418C51.7201 33.7547 51.7971 33.8872 51.8479 34.0391C51.901 34.1913 51.9147 34.3721 51.8891 34.5816C51.8621 34.8029 51.799 35.0066 51.6999 35.1927C51.601 35.3765 51.4698 35.5313 51.3063 35.6571C51.1452 35.7832 50.9537 35.8744 50.7318 35.931C50.5123 35.9878 50.2684 35.9998 50 35.967C49.6705 35.9268 49.3787 35.8315 49.1248 35.681C48.8711 35.5282 48.6613 35.339 48.4954 35.1133L48.7327 34.8126C48.7547 34.789 48.7797 34.7705 48.8076 34.7572C48.8381 34.7418 48.8699 34.7362 48.9028 34.7402C48.9334 34.7439 48.966 34.761 49.0005 34.7915C49.0376 34.8199 49.0786 34.856 49.1234 34.8997C49.1683 34.9434 49.2197 34.9915 49.2778 35.044C49.3359 35.0964 49.4027 35.1464 49.4781 35.1938C49.5559 35.2415 49.645 35.2847 49.7454 35.3232C49.8461 35.3594 49.9611 35.3854 50.0906 35.4012C50.253 35.421 50.4005 35.4163 50.5331 35.3871C50.6656 35.3579 50.7803 35.3086 50.8772 35.2392C50.9767 35.1678 51.0569 35.0784 51.1178 34.9712C51.1786 34.8639 51.2175 34.7409 51.2345 34.602C51.2532 34.449 51.2331 34.32 51.1743 34.2148C51.1181 34.1076 51.0375 34.0142 50.9326 33.9345C50.8276 33.8548 50.7049 33.7837 50.5645 33.7211C50.4243 33.6562 50.2817 33.5911 50.1368 33.5256C49.9922 33.4578 49.8508 33.3832 49.7127 33.3018C49.5745 33.2204 49.4551 33.1223 49.3545 33.0073C49.2538 32.8922 49.1774 32.7551 49.1252 32.5959C49.0756 32.4345 49.0645 32.2421 49.0918 32.0184C49.1136 31.8396 49.1689 31.6707 49.2575 31.5119C49.3485 31.3534 49.4679 31.2175 49.6155 31.1041C49.7654 30.9911 49.9417 30.9075 50.1442 30.8534C50.349 30.7995 50.5774 30.788 50.8292 30.8187C51.1117 30.8532 51.3628 30.9293 51.5825 31.0469C51.8046 31.1648 51.9936 31.3192 52.1494 31.5103L51.9438 31.8148ZM55.1666 34.3296C55.1845 34.1836 55.1795 34.0481 55.1518 33.9229C55.1267 33.7956 55.0795 33.6835 55.0101 33.5866C54.9433 33.4877 54.8564 33.4078 54.7491 33.3469C54.6422 33.2837 54.5169 33.2434 54.3733 33.2258C54.072 33.189 53.8224 33.2481 53.6243 33.4031C53.4288 33.556 53.291 33.7853 53.2107 34.0908L55.1666 34.3296ZM55.4703 36.0687C55.3811 36.1534 55.2781 36.2244 55.1612 36.2818C55.0446 36.3368 54.9212 36.3791 54.791 36.4086C54.6631 36.4384 54.532 36.4558 54.3976 36.4609C54.2629 36.4684 54.1309 36.4642 54.0014 36.4484C53.7543 36.4182 53.531 36.3491 53.3315 36.2412C53.1348 36.1312 52.9696 35.9868 52.8362 35.808C52.7054 35.6272 52.6121 35.4128 52.5564 35.1647C52.5007 34.9166 52.4916 34.6384 52.5293 34.3301C52.5597 34.0806 52.6259 33.8522 52.7276 33.6448C52.8317 33.4377 52.9652 33.2641 53.128 33.124C53.2912 32.9814 53.4817 32.8781 53.6998 32.8139C53.9181 32.7474 54.1568 32.73 54.4157 32.7616C54.6299 32.7877 54.8231 32.8484 54.9955 32.9434C55.1704 33.0365 55.3155 33.1593 55.4306 33.3119C55.5484 33.4624 55.6328 33.6424 55.6837 33.8516C55.7348 34.0585 55.7449 34.2891 55.7139 34.5433C55.7018 34.6422 55.6832 34.7068 55.658 34.7371C55.6328 34.7675 55.5907 34.7791 55.5319 34.7719L53.1416 34.4801C53.1211 34.7069 53.1277 34.9072 53.1614 35.0809C53.1975 35.2549 53.2581 35.4045 53.3432 35.5295C53.4285 35.6522 53.536 35.7501 53.6656 35.8233C53.7955 35.8941 53.9452 35.9399 54.1147 35.9605C54.2724 35.9798 54.4099 35.9787 54.5272 35.9572C54.6471 35.9336 54.7509 35.9056 54.8384 35.8733C54.926 35.841 54.999 35.8105 55.0574 35.7818C55.1185 35.751 55.1691 35.7381 55.2091 35.743C55.2609 35.7493 55.2984 35.7742 55.3218 35.8177L55.4703 36.0687ZM57.5115 31.5486L57.1378 34.6096L57.3002 34.6295C57.3473 34.6352 57.3868 34.6341 57.4189 34.626C57.4536 34.6159 57.491 34.593 57.5312 34.5573L58.8088 33.4843C58.8467 33.4483 58.8846 33.4218 58.9224 33.405C58.963 33.386 59.0138 33.3803 59.075 33.3878L59.6435 33.4572L58.1554 34.698C58.0821 34.7703 58.0062 34.8244 57.9278 34.8602C57.9667 34.8936 58.0004 34.9311 58.0287 34.9728C58.0597 35.0124 58.0876 35.0577 58.1125 35.1085L59.2951 37.0445L58.7337 36.976C58.6796 36.9693 58.6335 36.9554 58.5955 36.934C58.5602 36.9106 58.5312 36.8736 58.5087 36.8231L57.5119 35.2143C57.4826 35.1606 57.4512 35.1245 57.4176 35.106C57.3867 35.0856 57.3359 35.071 57.2653 35.0624L57.0852 35.0404L56.8766 36.7492L56.2446 36.6721L56.8795 31.4714L57.5115 31.5486ZM62.7424 37.5227C62.46 37.4882 62.2519 37.3828 62.1181 37.2064C61.9867 37.0303 61.9391 36.794 61.9753 36.4974L62.2426 34.3084L61.8118 34.2558C61.7742 34.2512 61.7437 34.2367 61.7204 34.2124C61.6974 34.1857 61.6887 34.1488 61.6945 34.1017L61.7251 33.851L62.3202 33.8484L62.5999 32.761C62.6113 32.7266 62.63 32.7002 62.6562 32.6819C62.6849 32.6615 62.7193 32.6538 62.7593 32.6587L63.0771 32.6974L62.9267 33.9296L63.9611 34.0559L63.9055 34.5114L62.871 34.3851L62.609 36.5317C62.5906 36.6824 62.6134 36.7986 62.6775 36.8805C62.7415 36.9624 62.8312 37.0104 62.9466 37.0245C63.0125 37.0325 63.07 37.0312 63.1191 37.0204C63.1708 37.0076 63.2156 36.9928 63.2535 36.9759C63.2914 36.9591 63.3231 36.9438 63.3486 36.9302C63.3768 36.9145 63.4003 36.9079 63.4192 36.9102C63.4521 36.9142 63.4791 36.9378 63.5001 36.981L63.6471 37.3035C63.5264 37.3915 63.386 37.4555 63.2259 37.4957C63.066 37.5335 62.9048 37.5425 62.7424 37.5227ZM66.324 36.2686C66.0333 36.2427 65.7833 36.2361 65.5739 36.2487C65.3672 36.2593 65.1955 36.2861 65.0589 36.3292C64.9246 36.3725 64.8231 36.4306 64.7545 36.5034C64.6882 36.5766 64.6491 36.6626 64.637 36.7614C64.6255 36.8556 64.6309 36.9386 64.6532 37.0106C64.6754 37.0826 64.7097 37.1442 64.756 37.1952C64.805 37.2442 64.8635 37.2836 64.9315 37.3134C65.0022 37.3411 65.0787 37.36 65.1611 37.3701C65.2717 37.3836 65.3742 37.3853 65.4686 37.3754C65.5633 37.363 65.6532 37.3406 65.7384 37.308C65.826 37.2757 65.9098 37.2345 65.99 37.1846C66.0725 37.135 66.1537 37.0768 66.2335 37.0101L66.324 36.2686ZM64.4723 34.5591C64.6933 34.3926 64.9237 34.2762 65.1635 34.2099C65.4033 34.1436 65.6621 34.1274 65.9398 34.1613C66.1399 34.1858 66.3136 34.2404 66.4609 34.3253C66.6082 34.4102 66.7276 34.5179 66.8192 34.6485C66.9107 34.7792 66.9734 34.9313 67.0071 35.1051C67.0409 35.2788 67.0455 35.4657 67.0211 35.6658L66.7418 37.9536L66.4628 37.9196C66.4016 37.9121 66.3557 37.8969 66.3251 37.8741C66.2947 37.8489 66.2737 37.8057 66.262 37.7446L66.2328 37.397C66.128 37.4726 66.0267 37.5391 65.929 37.5964C65.8315 37.6514 65.7304 37.6964 65.6258 37.7314C65.5215 37.764 65.4114 37.7852 65.2956 37.795C65.1818 37.8074 65.0566 37.8052 64.9201 37.7886C64.7812 37.7716 64.6529 37.7368 64.5351 37.6842C64.4176 37.6293 64.3177 37.5573 64.2354 37.4685C64.1554 37.3799 64.0955 37.2734 64.0558 37.1491C64.0186 37.0228 64.01 36.8784 64.0298 36.716C64.0471 36.5747 64.1024 36.4441 64.1959 36.3242C64.2897 36.2018 64.4298 36.1007 64.6164 36.0207C64.8029 35.9408 65.0401 35.8861 65.3279 35.8568C65.6161 35.8251 65.9643 35.8294 66.3727 35.8697L66.4067 35.5907C66.4407 35.313 66.4062 35.0962 66.3034 34.9403C66.2009 34.7821 66.0343 34.6889 65.8036 34.6607C65.6483 34.6417 65.5152 34.6458 65.4044 34.6729C65.2962 34.6979 65.2003 34.7304 65.1166 34.7703C65.0355 34.8082 64.9643 34.8437 64.9029 34.8768C64.8442 34.9079 64.7878 34.9201 64.7336 34.9135C64.6912 34.9083 64.6561 34.8933 64.628 34.8684C64.6003 34.8411 64.5779 34.8097 64.5607 34.7741L64.4723 34.5591ZM68.7166 35.0486C68.8894 34.9049 69.0747 34.7961 69.2724 34.7223C69.4701 34.6485 69.6902 34.6264 69.9327 34.656C70.128 34.6798 70.2958 34.7338 70.4361 34.8178C70.579 34.8997 70.6925 35.0067 70.7767 35.1389C70.8635 35.2689 70.9227 35.4206 70.954 35.5941C70.9854 35.7675 70.9887 35.9555 70.964 36.1579L70.686 38.4352L70.054 38.358L70.332 36.0807C70.3651 35.81 70.3283 35.5929 70.2216 35.4294C70.1176 35.2638 69.9397 35.1657 69.6879 35.1349C69.5019 35.1122 69.3223 35.1357 69.1489 35.2053C68.978 35.2752 68.8149 35.3783 68.6597 35.5146L68.3381 38.1485L67.7061 38.0714L68.3411 32.8707L68.973 32.9478L68.7166 35.0486ZM71.5076 39.4026C71.4907 39.3838 71.4797 39.367 71.4743 39.352C71.469 39.337 71.4676 39.3189 71.4702 39.2977C71.4722 39.2812 71.4789 39.2653 71.4904 39.25C71.5041 39.235 71.519 39.2213 71.5348 39.2089C71.5615 39.1858 71.5951 39.1553 71.6356 39.1172C71.6784 39.0795 71.7222 39.0335 71.7671 38.9792C71.8116 38.9273 71.8535 38.8679 71.8927 38.8011C71.934 38.7368 71.9665 38.6667 71.9901 38.5908C71.9827 38.5923 71.9744 38.5924 71.9649 38.5913C71.9579 38.5904 71.9508 38.5896 71.9438 38.5887C71.8214 38.5738 71.7262 38.5215 71.6583 38.432C71.593 38.3404 71.5682 38.2311 71.5837 38.104C71.5972 37.9934 71.6463 37.9038 71.7312 37.8353C71.8183 37.7672 71.9254 37.7408 72.0525 37.7563C72.1232 37.765 72.184 37.7855 72.2349 37.818C72.2859 37.8505 72.3262 37.8925 72.3557 37.9438C72.3879 37.9932 72.4097 38.0496 72.4211 38.1131C72.4327 38.1742 72.4342 38.2401 72.4256 38.3107C72.4127 38.4166 72.3839 38.5254 72.3392 38.637C72.2972 38.7465 72.24 38.853 72.1676 38.9564C72.0973 39.0625 72.0145 39.1635 71.9192 39.2594C71.8239 39.3552 71.7178 39.4414 71.601 39.5179L71.5076 39.4026ZM76.1718 35.475L75.7351 39.0516L75.1067 38.9749L75.5433 35.3983L76.1718 35.475ZM76.443 34.3686C76.4355 34.4298 76.4156 34.4859 76.3831 34.5369C76.3532 34.5858 76.3145 34.6289 76.267 34.6661C76.2221 34.7012 76.1699 34.7271 76.1106 34.7437C76.0536 34.7606 75.9944 34.7654 75.9333 34.7579C75.8721 34.7504 75.8158 34.7316 75.7646 34.7015C75.7157 34.6716 75.6736 34.6342 75.6385 34.5893C75.6037 34.5421 75.5776 34.4911 75.5604 34.4365C75.5435 34.3795 75.5388 34.3204 75.5462 34.2592C75.5537 34.198 75.5725 34.1417 75.6027 34.0905C75.6331 34.0369 75.6708 33.9925 75.7157 33.9574C75.7608 33.9199 75.8108 33.8925 75.8654 33.8753C75.9224 33.8584 75.9815 33.8536 76.0427 33.8611C76.1039 33.8686 76.1602 33.8874 76.2114 33.9175C76.265 33.948 76.3093 33.9868 76.3441 34.0341C76.3816 34.0793 76.4087 34.1315 76.4253 34.1909C76.4446 34.2482 76.4505 34.3074 76.443 34.3686ZM78.0417 34.055L77.668 37.1161L77.8304 37.1359C77.8775 37.1417 77.917 37.1405 77.9491 37.1325C77.9838 37.1224 78.0212 37.0995 78.0614 37.0638L79.339 35.9907C79.3769 35.9547 79.4148 35.9283 79.4526 35.9114C79.4932 35.8925 79.544 35.8867 79.6052 35.8942L80.1737 35.9636L78.6856 37.2045C78.6123 37.2768 78.5364 37.3308 78.458 37.3666C78.4969 37.4 78.5306 37.4376 78.5589 37.4793C78.5899 37.5189 78.6178 37.5641 78.6427 37.6149L79.8253 39.5509L79.2639 39.4824C79.2098 39.4758 79.1637 39.4618 79.1257 39.4404C79.0904 39.417 79.0614 39.38 79.0389 39.3295L78.0421 37.7207C78.0128 37.667 77.9814 37.6309 77.9478 37.6125C77.9169 37.592 77.8661 37.5774 77.7955 37.5688L77.6154 37.5468L77.4068 39.2557L76.7748 39.1785L77.4097 33.9778L78.0417 34.055ZM81.4681 36.1216L81.0315 39.6982L80.403 39.6215L80.8396 36.0449L81.4681 36.1216ZM81.7393 35.0153C81.7319 35.0764 81.7119 35.1325 81.6794 35.1835C81.6495 35.2324 81.6108 35.2755 81.5633 35.3127C81.5184 35.3478 81.4663 35.3737 81.4069 35.3903C81.3499 35.4073 81.2908 35.412 81.2296 35.4045C81.1684 35.397 81.1121 35.3782 81.0609 35.3481C81.012 35.3182 80.97 35.2808 80.9348 35.2359C80.9 35.1887 80.874 35.1377 80.8567 35.0831C80.8398 35.0261 80.8351 34.967 80.8426 34.9058C80.85 34.8446 80.8688 34.7883 80.899 34.7371C80.9294 34.6835 80.9671 34.6391 81.012 34.604C81.0572 34.5665 81.1071 34.5391 81.1617 34.5219C81.2188 34.505 81.2779 34.5003 81.3391 34.5077C81.4003 34.5152 81.4565 34.534 81.5078 34.5641C81.5614 34.5946 81.6056 34.6334 81.6404 34.6807C81.6779 34.7259 81.705 34.7781 81.7216 34.8375C81.7409 34.8948 81.7468 34.9541 81.7393 35.0153ZM86.0198 38.6732C85.7291 38.6473 85.4791 38.6406 85.2697 38.6533C85.063 38.6639 84.8913 38.6907 84.7547 38.7338C84.6204 38.7771 84.5189 38.8352 84.4503 38.908C84.3841 38.9811 84.3449 39.0671 84.3328 39.166C84.3213 39.2601 84.3267 39.3432 84.349 39.4152C84.3712 39.4872 84.4055 39.5487 84.4519 39.5998C84.5008 39.6487 84.5593 39.6881 84.6273 39.7179C84.698 39.7457 84.7745 39.7646 84.8569 39.7746C84.9675 39.7881 85.0701 39.7899 85.1644 39.7799C85.2591 39.7676 85.349 39.7451 85.4342 39.7125C85.5218 39.6802 85.6057 39.6391 85.6858 39.5892C85.7683 39.5395 85.8495 39.4813 85.9293 39.4146L86.0198 38.6732ZM84.1681 36.9637C84.3891 36.7971 84.6195 36.6807 84.8593 36.6145C85.0991 36.5482 85.3579 36.532 85.6357 36.5659C85.8357 36.5903 86.0094 36.645 86.1567 36.7299C86.304 36.8147 86.4234 36.9225 86.515 37.0531C86.6065 37.1837 86.6692 37.3359 86.7029 37.5096C86.7367 37.6834 86.7413 37.8703 86.7169 38.0703L86.4376 40.3582L86.1586 40.3241C86.0975 40.3167 86.0515 40.3015 86.0209 40.2787C85.9905 40.2534 85.9695 40.2103 85.9579 40.1491L85.9286 39.8016C85.8238 39.8772 85.7226 39.9436 85.6248 40.001C85.5273 40.056 85.4262 40.1009 85.3216 40.136C85.2173 40.1686 85.1072 40.1898 84.9914 40.1995C84.8776 40.2119 84.7524 40.2098 84.6159 40.1931C84.477 40.1762 84.3487 40.1414 84.2309 40.0888C84.1134 40.0338 84.0135 39.9619 83.9312 39.873C83.8512 39.7844 83.7913 39.678 83.7516 39.5537C83.7144 39.4273 83.7058 39.2829 83.7256 39.1205C83.7429 38.9793 83.7982 38.8487 83.8917 38.7287C83.9855 38.6064 84.1256 38.5053 84.3122 38.4253C84.4987 38.3454 84.7359 38.2907 85.0238 38.2614C85.3119 38.2297 85.6601 38.2339 86.0685 38.2742L86.1026 37.9953C86.1365 37.7176 86.102 37.5008 85.9992 37.3449C85.8967 37.1866 85.7301 37.0934 85.4994 37.0653C85.3441 37.0463 85.211 37.0504 85.1002 37.0775C84.992 37.1025 84.8961 37.135 84.8124 37.1749C84.7313 37.2128 84.6601 37.2483 84.5987 37.2814C84.54 37.3125 84.4836 37.3247 84.4294 37.3181C84.3871 37.3129 84.3519 37.2978 84.3239 37.2729C84.2961 37.2457 84.2737 37.2142 84.2565 37.1787L84.1681 36.9637ZM88.1391 39.6916C88.2355 39.861 88.348 39.9859 88.4768 40.0661C88.6056 40.1463 88.7547 40.1967 88.9241 40.2174C89.2584 40.2582 89.5295 40.1707 89.7374 39.9548C89.9453 39.7389 90.0761 39.4109 90.1298 38.9707C90.1583 38.7377 90.1615 38.5351 90.1396 38.3628C90.1199 38.1908 90.0778 38.0471 90.013 37.9317C89.9486 37.8139 89.8629 37.7234 89.7559 37.6602C89.649 37.597 89.5237 37.5566 89.3801 37.5391C89.1754 37.5141 88.9895 37.5392 88.8227 37.6143C88.6582 37.6898 88.5007 37.8056 88.3503 37.9616L88.1391 39.6916ZM88.3711 37.527C88.5445 37.3594 88.7369 37.2312 88.9484 37.1424C89.1599 37.0535 89.3928 37.0246 89.647 37.0556C89.8541 37.0809 90.0364 37.1438 90.1937 37.2442C90.3513 37.3423 90.4795 37.4762 90.5782 37.6459C90.6772 37.8133 90.7446 38.015 90.7803 38.2511C90.8159 38.4871 90.8157 38.7535 90.7795 39.05C90.7473 39.3137 90.682 39.5553 90.5835 39.775C90.4853 39.9924 90.3589 40.1764 90.2043 40.3271C90.0524 40.4758 89.874 40.5866 89.6692 40.6596C89.4671 40.7304 89.246 40.7512 89.0059 40.7219C88.787 40.6952 88.6031 40.6357 88.4543 40.5435C88.3082 40.4492 88.1831 40.3288 88.0792 40.1824L87.8861 41.7641L87.2541 41.6869L87.8386 36.8994L88.2164 36.9455C88.3058 36.9564 88.3558 37.0067 88.3664 37.0964L88.3711 37.527ZM92.4676 37.4645L92.031 41.0411L91.4025 40.9643L91.8392 37.3878L92.4676 37.4645ZM92.7389 36.3581C92.7314 36.4193 92.7114 36.4754 92.6789 36.5264C92.649 36.5753 92.6103 36.6184 92.5628 36.6555C92.5179 36.6907 92.4658 36.7166 92.4064 36.7332C92.3494 36.7501 92.2903 36.7549 92.2291 36.7474C92.1679 36.7399 92.1117 36.7211 92.0604 36.691C92.0115 36.6611 91.9695 36.6237 91.9343 36.5788C91.8995 36.5316 91.8735 36.4806 91.8562 36.426C91.8393 36.3689 91.8346 36.3098 91.8421 36.2486C91.8495 36.1874 91.8683 36.1312 91.8985 36.08C91.9289 36.0263 91.9666 35.982 92.0115 35.9468C92.0567 35.9094 92.1066 35.882 92.1613 35.8648C92.2183 35.8479 92.2774 35.8431 92.3386 35.8506C92.3998 35.8581 92.456 35.8769 92.5073 35.907C92.5609 35.9375 92.6051 35.9763 92.64 36.0236C92.6774 36.0687 92.7045 36.121 92.7211 36.1804C92.7404 36.2377 92.7463 36.2969 92.7389 36.3581ZM94.3376 36.0445L93.9638 39.1056L94.1262 39.1254C94.1733 39.1311 94.2129 39.13 94.2449 39.122C94.2796 39.1119 94.317 39.089 94.3572 39.0533L95.6349 37.9802C95.6727 37.9442 95.7106 37.9178 95.7485 37.9009C95.789 37.8819 95.8399 37.8762 95.9011 37.8837L96.4695 37.9531L94.9814 39.194C94.9081 39.2662 94.8323 39.3203 94.7538 39.3561C94.7927 39.3895 94.8264 39.4271 94.8547 39.4687C94.8857 39.5084 94.9137 39.5536 94.9385 39.6044L96.1211 41.5404L95.5598 41.4719C95.5056 41.4653 95.4595 41.4513 95.4215 41.4299C95.3862 41.4065 95.3573 41.3695 95.3348 41.319L94.3379 39.7102C94.3087 39.6565 94.2772 39.6204 94.2436 39.602C94.2127 39.5815 94.1619 39.5669 94.0913 39.5583L93.9112 39.5363L93.7026 41.2451L93.0706 41.168L93.7056 35.9673L94.3376 36.0445ZM99.4437 38.8429C99.532 38.7653 99.624 38.6965 99.7198 38.6365C99.8155 38.5766 99.9146 38.5278 100.017 38.4901C100.122 38.4504 100.231 38.4242 100.342 38.4115C100.456 38.3968 100.577 38.3972 100.704 38.4127C100.899 38.4365 101.067 38.4905 101.207 38.5745C101.35 38.6564 101.464 38.7635 101.548 38.8956C101.635 39.0256 101.694 39.1774 101.725 39.3508C101.757 39.5242 101.76 39.7122 101.735 39.9146L101.457 42.1919L100.825 42.1147L101.103 39.8374C101.136 39.5667 101.099 39.3496 100.993 39.1861C100.889 39.0205 100.711 38.9224 100.459 38.8916C100.273 38.8689 100.093 38.8924 99.9201 38.962C99.7491 39.0319 99.586 39.135 99.4308 39.2713L99.1093 41.9052L98.4773 41.8281L98.9139 38.2515L99.2917 38.2976C99.3812 38.3085 99.4312 38.3588 99.4417 38.4485L99.4437 38.8429ZM103.882 40.7141C104.009 40.7296 104.123 40.7256 104.223 40.7021C104.324 40.6786 104.411 40.6391 104.485 40.5836C104.559 40.5281 104.617 40.4588 104.661 40.3757C104.705 40.2903 104.733 40.1946 104.746 40.0887C104.773 39.8698 104.727 39.6874 104.609 39.5416C104.493 39.396 104.309 39.3079 104.057 39.2771C103.803 39.2461 103.601 39.2871 103.451 39.4002C103.303 39.5136 103.216 39.6797 103.189 39.8986C103.176 40.0045 103.181 40.1042 103.203 40.1977C103.228 40.2891 103.269 40.3706 103.327 40.4422C103.385 40.5138 103.46 40.5731 103.553 40.6202C103.645 40.6673 103.754 40.6986 103.882 40.7141ZM104.778 42.7944C104.788 42.7073 104.772 42.6336 104.73 42.5735C104.687 42.5133 104.625 42.4627 104.544 42.4218C104.465 42.3811 104.371 42.3482 104.262 42.3229C104.153 42.2953 104.037 42.2703 103.913 42.248C103.791 42.226 103.667 42.2037 103.541 42.1811C103.415 42.1586 103.294 42.1318 103.178 42.101C103.039 42.1461 102.921 42.2106 102.825 42.2944C102.731 42.3761 102.677 42.4794 102.662 42.6041C102.652 42.6841 102.663 42.7607 102.695 42.8339C102.728 42.9096 102.785 42.9774 102.863 43.0372C102.942 43.0993 103.043 43.1523 103.166 43.196C103.292 43.2424 103.442 43.2763 103.616 43.2975C103.786 43.3182 103.939 43.3215 104.077 43.3072C104.215 43.293 104.334 43.2633 104.432 43.218C104.533 43.173 104.613 43.1147 104.672 43.043C104.731 42.9714 104.766 42.8885 104.778 42.7944ZM105.86 39.2428L105.832 39.4759C105.822 39.5535 105.767 39.5969 105.665 39.6061L105.253 39.6094C105.314 39.7746 105.333 39.9513 105.31 40.1396C105.289 40.3138 105.235 40.4685 105.149 40.6037C105.066 40.7369 104.959 40.8469 104.829 40.9338C104.699 41.0206 104.549 41.081 104.377 41.1151C104.206 41.1491 104.024 41.1543 103.831 41.1307C103.664 41.1103 103.508 41.0711 103.365 41.013C103.284 41.0508 103.22 41.0944 103.173 41.1437C103.127 41.1906 103.101 41.2411 103.094 41.2952C103.084 41.3799 103.11 41.4488 103.173 41.5019C103.238 41.5529 103.326 41.5947 103.437 41.6273C103.548 41.6599 103.674 41.6874 103.817 41.7096C103.963 41.7321 104.11 41.7585 104.259 41.7886C104.411 41.8167 104.557 41.8525 104.698 41.8959C104.84 41.9396 104.965 41.9978 105.07 42.0704C105.176 42.1431 105.257 42.2353 105.313 42.3472C105.371 42.4594 105.389 42.5979 105.369 42.7627C105.351 42.9156 105.294 43.0592 105.199 43.1933C105.106 43.3277 104.981 43.4414 104.824 43.5345C104.666 43.63 104.479 43.6979 104.261 43.7382C104.046 43.7812 103.807 43.7867 103.546 43.7548C103.285 43.7229 103.06 43.6691 102.871 43.5935C102.682 43.5179 102.528 43.4286 102.409 43.3257C102.29 43.2228 102.205 43.1097 102.153 42.9863C102.103 42.8656 102.086 42.7428 102.101 42.6181C102.123 42.4415 102.196 42.2988 102.322 42.1899C102.447 42.081 102.611 42.0019 102.813 41.9525C102.713 41.8925 102.636 41.8198 102.582 41.7343C102.53 41.6468 102.513 41.536 102.529 41.4018C102.535 41.35 102.551 41.2982 102.577 41.2464C102.602 41.1922 102.637 41.1403 102.682 41.0908C102.729 41.0392 102.783 40.9921 102.846 40.9496C102.908 40.9071 102.98 40.8716 103.06 40.8431C102.895 40.7227 102.773 40.5752 102.694 40.4008C102.616 40.2239 102.589 40.0272 102.616 39.8107C102.637 39.6365 102.689 39.4828 102.772 39.3497C102.858 39.2144 102.967 39.1047 103.099 39.0205C103.232 38.9339 103.384 38.8736 103.555 38.8396C103.729 38.8059 103.914 38.8011 104.112 38.8252C104.268 38.8442 104.41 38.8795 104.54 38.9312C104.67 38.9805 104.786 39.0449 104.889 39.1243L105.86 39.2428ZM108.702 40.8655C108.72 40.7195 108.715 40.584 108.687 40.4588C108.662 40.3315 108.615 40.2194 108.546 40.1225C108.479 40.0236 108.392 39.9437 108.285 39.8828C108.178 39.8196 108.052 39.7793 107.909 39.7617C107.607 39.7249 107.358 39.784 107.16 39.939C106.964 40.0919 106.826 40.3212 106.746 40.6267L108.702 40.8655ZM109.006 42.6046C108.917 42.6893 108.814 42.7603 108.697 42.8177C108.58 42.8727 108.457 42.915 108.326 42.9445C108.199 42.9743 108.067 42.9917 107.933 42.9968C107.798 43.0043 107.666 43.0001 107.537 42.9843C107.29 42.9541 107.066 42.885 106.867 42.7771C106.67 42.6671 106.505 42.5227 106.372 42.3439C106.241 42.1631 106.148 41.9487 106.092 41.7006C106.036 41.4525 106.027 41.1743 106.065 40.866C106.095 40.6165 106.161 40.3881 106.263 40.1807C106.367 39.9736 106.501 39.8 106.663 39.6599C106.827 39.5173 107.017 39.414 107.235 39.3498C107.454 39.2833 107.692 39.2659 107.951 39.2975C108.165 39.3236 108.359 39.3843 108.531 39.4793C108.706 39.5724 108.851 39.6952 108.966 39.8478C109.084 39.9983 109.168 40.1783 109.219 40.3875C109.27 40.5944 109.28 40.825 109.249 41.0792C109.237 41.1781 109.219 41.2427 109.193 41.273C109.168 41.3034 109.126 41.315 109.067 41.3078L106.677 41.016C106.657 41.2428 106.663 41.4431 106.697 41.6168C106.733 41.7908 106.794 41.9404 106.879 42.0654C106.964 42.1881 107.071 42.286 107.201 42.3592C107.331 42.43 107.481 42.4758 107.65 42.4964C107.808 42.5157 107.945 42.5146 108.063 42.4931C108.183 42.4695 108.286 42.4415 108.374 42.4092C108.461 42.3769 108.534 42.3464 108.593 42.3177C108.654 42.2869 108.705 42.274 108.745 42.2789C108.796 42.2852 108.834 42.3101 108.857 42.3536L109.006 42.6046ZM110.746 40.2228C110.835 40.1452 110.927 40.0764 111.023 40.0164C111.118 39.9565 111.217 39.9077 111.32 39.87C111.425 39.8303 111.533 39.8041 111.645 39.7914C111.759 39.7767 111.879 39.7771 112.007 39.7926C112.202 39.8164 112.37 39.8704 112.51 39.9544C112.653 40.0363 112.766 40.1434 112.851 40.2755C112.937 40.4055 112.997 40.5573 113.028 40.7307C113.059 40.9041 113.063 41.0921 113.038 41.2945L112.76 43.5718L112.128 43.4946L112.406 41.2173C112.439 40.9467 112.402 40.7296 112.296 40.566C112.192 40.4004 112.014 40.3023 111.762 40.2715C111.576 40.2488 111.396 40.2723 111.223 40.3419C111.052 40.4118 110.889 40.5149 110.734 40.6513L110.412 43.2851L109.78 43.208L110.217 39.6314L110.594 39.6775C110.684 39.6884 110.734 39.7387 110.744 39.8284L110.746 40.2228ZM116.384 41.8034C116.402 41.6574 116.397 41.5219 116.37 41.3966C116.344 41.2694 116.297 41.1573 116.228 41.0604C116.161 40.9615 116.074 40.8816 115.967 40.8207C115.86 40.7575 115.735 40.7171 115.591 40.6996C115.29 40.6628 115.04 40.7219 114.842 40.8769C114.647 41.0298 114.509 41.259 114.428 41.5646L116.384 41.8034ZM116.688 43.5425C116.599 43.6272 116.496 43.6982 116.379 43.7556C116.262 43.8106 116.139 43.8529 116.009 43.8824C115.881 43.9122 115.75 43.9296 115.615 43.9347C115.481 43.9422 115.349 43.938 115.219 43.9222C114.972 43.892 114.749 43.8229 114.549 43.715C114.352 43.6049 114.187 43.4606 114.054 43.2818C113.923 43.101 113.83 42.8866 113.774 42.6385C113.718 42.3904 113.709 42.1122 113.747 41.8039C113.777 41.5544 113.844 41.326 113.945 41.1186C114.049 40.9115 114.183 40.7379 114.346 40.5977C114.509 40.4552 114.699 40.3519 114.918 40.2877C115.136 40.2212 115.374 40.2038 115.633 40.2354C115.848 40.2615 116.041 40.3221 116.213 40.4172C116.388 40.5103 116.533 40.6331 116.648 40.7857C116.766 40.9362 116.85 41.1161 116.901 41.3254C116.953 41.5323 116.963 41.7629 116.932 42.0171C116.92 42.116 116.901 42.1806 116.876 42.2109C116.85 42.2413 116.808 42.2529 116.75 42.2457L114.359 41.9539C114.339 42.1807 114.345 42.381 114.379 42.5547C114.415 42.7287 114.476 42.8783 114.561 43.0033C114.646 43.126 114.754 43.2239 114.883 43.2971C115.013 43.3679 115.163 43.4137 115.332 43.4343C115.49 43.4536 115.628 43.4525 115.745 43.431C115.865 43.4074 115.969 43.3794 116.056 43.3471C116.144 43.3148 116.217 43.2843 116.275 43.2556C116.336 43.2248 116.387 43.2119 116.427 43.2168C116.479 43.2231 116.516 43.248 116.54 43.2915L116.688 43.5425ZM120.736 42.7718C120.863 42.7873 120.977 42.7833 121.078 42.7598C121.178 42.7362 121.266 42.6967 121.339 42.6412C121.413 42.5857 121.472 42.5164 121.515 42.4334C121.559 42.3479 121.588 42.2523 121.6 42.1464C121.627 41.9275 121.581 41.7451 121.463 41.5992C121.347 41.4537 121.163 41.3655 120.911 41.3348C120.657 41.3038 120.455 41.3448 120.305 41.4579C120.157 41.5712 120.07 41.7374 120.043 41.9563C120.031 42.0622 120.035 42.1619 120.057 42.2553C120.082 42.3467 120.123 42.4282 120.181 42.4998C120.239 42.5714 120.315 42.6308 120.407 42.6779C120.499 42.725 120.609 42.7563 120.736 42.7718ZM121.632 44.852C121.643 44.7649 121.627 44.6913 121.584 44.6311C121.541 44.5709 121.479 44.5204 121.398 44.4794C121.319 44.4388 121.225 44.4058 121.116 44.3805C121.007 44.3529 120.891 44.328 120.767 44.3057C120.646 44.2837 120.522 44.2614 120.395 44.2388C120.269 44.2162 120.148 44.1895 120.033 44.1587C119.893 44.2038 119.776 44.2682 119.679 44.352C119.586 44.4338 119.531 44.537 119.516 44.6618C119.506 44.7418 119.517 44.8184 119.549 44.8915C119.583 44.9673 119.639 45.0351 119.718 45.0949C119.796 45.157 119.897 45.2099 120.021 45.2537C120.146 45.3001 120.296 45.3339 120.471 45.3552C120.64 45.3759 120.794 45.3791 120.932 45.3649C121.07 45.3507 121.188 45.3209 121.287 45.2756C121.388 45.2307 121.468 45.1723 121.526 45.1007C121.585 45.0291 121.621 44.9462 121.632 44.852ZM122.714 41.3005L122.686 41.5335C122.676 41.6112 122.621 41.6546 122.519 41.6637L122.107 41.6671C122.168 41.8322 122.187 42.0089 122.164 42.1972C122.143 42.3714 122.089 42.5261 122.003 42.6614C121.92 42.7946 121.814 42.9046 121.684 42.9914C121.554 43.0783 121.403 43.1387 121.232 43.1727C121.06 43.2067 120.878 43.212 120.685 43.1884C120.518 43.168 120.363 43.1287 120.219 43.0706C120.138 43.1085 120.074 43.1521 120.028 43.2013C119.981 43.2482 119.955 43.2987 119.948 43.3529C119.938 43.4376 119.964 43.5065 120.027 43.5596C120.092 43.6105 120.18 43.6523 120.291 43.685C120.402 43.7176 120.529 43.745 120.672 43.7673C120.817 43.7898 120.964 43.8161 121.113 43.8463C121.265 43.8744 121.411 43.9101 121.552 43.9536C121.695 43.9973 121.819 44.0554 121.925 44.1281C122.03 44.2007 122.111 44.293 122.167 44.4049C122.225 44.5171 122.244 44.6555 122.224 44.8203C122.205 44.9733 122.148 45.1169 122.053 45.2509C121.96 45.3853 121.835 45.4991 121.678 45.5922C121.52 45.6876 121.333 45.7555 121.116 45.7958C120.9 45.8388 120.662 45.8444 120.4 45.8125C120.139 45.7806 119.914 45.7268 119.725 45.6512C119.536 45.5755 119.382 45.4863 119.263 45.3834C119.144 45.2805 119.059 45.1673 119.007 45.044C118.957 44.9232 118.94 44.8005 118.955 44.6757C118.977 44.4992 119.05 44.3565 119.176 44.2476C119.302 44.1387 119.465 44.0595 119.667 44.0101C119.567 43.9501 119.49 43.8774 119.436 43.792C119.384 43.7045 119.367 43.5937 119.383 43.4595C119.39 43.4077 119.406 43.3559 119.431 43.3041C119.457 43.2499 119.492 43.198 119.536 43.1485C119.583 43.0969 119.638 43.0498 119.7 43.0073C119.763 42.9647 119.834 42.9292 119.914 42.9008C119.749 42.7803 119.628 42.6329 119.549 42.4584C119.47 42.2816 119.444 42.0849 119.47 41.8683C119.491 41.6942 119.544 41.5405 119.627 41.4073C119.713 41.2721 119.821 41.1623 119.954 41.0781C120.086 40.9916 120.238 40.9313 120.409 40.8973C120.583 40.8635 120.769 40.8587 120.966 40.8829C121.122 40.9018 121.264 40.9372 121.394 40.9889C121.524 41.0382 121.641 41.1026 121.743 41.182L122.714 41.3005ZM125.087 43.4427C124.796 43.4168 124.546 43.4101 124.337 43.4228C124.13 43.4334 123.958 43.4602 123.822 43.5032C123.687 43.5466 123.586 43.6047 123.517 43.6775C123.451 43.7506 123.412 43.8366 123.4 43.9355C123.388 44.0296 123.394 44.1127 123.416 44.1847C123.438 44.2567 123.472 44.3182 123.519 44.3693C123.568 44.4182 123.626 44.4576 123.694 44.4874C123.765 44.5152 123.841 44.5341 123.924 44.5441C124.034 44.5576 124.137 44.5594 124.231 44.5494C124.326 44.5371 124.416 44.5146 124.501 44.482C124.589 44.4497 124.672 44.4086 124.753 44.3587C124.835 44.309 124.916 44.2508 124.996 44.1841L125.087 43.4427ZM123.235 41.7332C123.456 41.5666 123.686 41.4502 123.926 41.384C124.166 41.3177 124.425 41.3015 124.702 41.3354C124.903 41.3598 125.076 41.4145 125.224 41.4994C125.371 41.5842 125.49 41.692 125.582 41.8226C125.673 41.9532 125.736 42.1054 125.77 42.2791C125.803 42.4528 125.808 42.6397 125.784 42.8398L125.504 45.1277L125.225 45.0936C125.164 45.0862 125.118 45.071 125.088 45.0481C125.057 45.0229 125.036 44.9798 125.025 44.9186L124.995 44.5711C124.891 44.6467 124.789 44.7131 124.692 44.7705C124.594 44.8254 124.493 44.8704 124.388 44.9054C124.284 44.9381 124.174 44.9593 124.058 44.969C123.944 44.9814 123.819 44.9793 123.683 44.9626C123.544 44.9457 123.416 44.9109 123.298 44.8583C123.18 44.8033 123.08 44.7314 122.998 44.6425C122.918 44.5539 122.858 44.4475 122.818 44.3232C122.781 44.1968 122.773 44.0524 122.792 43.89C122.81 43.7488 122.865 43.6182 122.959 43.4982C123.052 43.3759 123.192 43.2748 123.379 43.1948C123.566 43.1149 123.803 43.0602 124.091 43.0309C124.379 42.9991 124.727 43.0034 125.135 43.0437L125.169 42.7648C125.203 42.4871 125.169 42.2703 125.066 42.1144C124.964 41.9561 124.797 41.8629 124.566 41.8348C124.411 41.8158 124.278 41.8199 124.167 41.847C124.059 41.872 123.963 41.9045 123.879 41.9444C123.798 41.9823 123.727 42.0178 123.666 42.0509C123.607 42.0819 123.55 42.0942 123.496 42.0876C123.454 42.0824 123.419 42.0673 123.391 42.0424C123.363 42.0151 123.341 41.9837 123.323 41.9482L123.235 41.7332ZM127.736 40.1219L127.362 43.183L127.524 43.2028C127.571 43.2086 127.611 43.2074 127.643 43.1994C127.678 43.1893 127.715 43.1664 127.755 43.1307L129.033 42.0576C129.071 42.0216 129.109 41.9952 129.147 41.9783C129.187 41.9594 129.238 41.9536 129.299 41.9611L129.868 42.0305L128.38 43.2714C128.306 43.3437 128.23 43.3977 128.152 43.4335C128.191 43.4669 128.225 43.5045 128.253 43.5462C128.284 43.5858 128.312 43.631 128.337 43.6818L129.519 45.6178L128.958 45.5493C128.904 45.5427 128.858 45.5287 128.82 45.5073C128.784 45.4839 128.755 45.4469 128.733 45.3964L127.736 43.7877C127.707 43.7339 127.675 43.6978 127.642 43.6794C127.611 43.6589 127.56 43.6443 127.489 43.6357L127.309 43.6137L127.101 45.3226L126.469 45.2454L127.104 40.0448L127.736 40.1219ZM134.323 43.1729C134.289 43.2212 134.242 43.2418 134.183 43.2346C134.148 43.2303 134.109 43.2125 134.068 43.1811C134.026 43.1498 133.974 43.1148 133.912 43.0761C133.853 43.0354 133.78 42.9966 133.693 42.9598C133.607 42.9207 133.503 42.8936 133.381 42.8787C133.275 42.8657 133.178 42.8682 133.09 42.8861C133.002 42.9017 132.924 42.9292 132.857 42.9688C132.793 43.0087 132.74 43.0584 132.699 43.118C132.661 43.1754 132.638 43.2406 132.629 43.3136C132.618 43.4054 132.634 43.4851 132.679 43.5526C132.725 43.6204 132.789 43.682 132.871 43.7373C132.953 43.7927 133.047 43.8448 133.153 43.8936C133.26 43.94 133.368 43.9903 133.479 44.0444C133.592 44.0964 133.701 44.1527 133.806 44.2133C133.91 44.2739 134.002 44.3448 134.081 44.4261C134.159 44.5073 134.218 44.6029 134.257 44.7128C134.299 44.8206 134.311 44.9463 134.293 45.0899C134.273 45.2546 134.225 45.404 134.149 45.5381C134.073 45.6698 133.971 45.7804 133.843 45.8698C133.716 45.957 133.565 46.0198 133.39 46.0582C133.216 46.0966 133.02 46.1025 132.801 46.0758C132.551 46.0453 132.33 45.9777 132.137 45.873C131.945 45.7659 131.786 45.6402 131.66 45.4958L131.838 45.2738C131.86 45.2455 131.886 45.2247 131.914 45.2114C131.941 45.1981 131.975 45.1939 132.015 45.1988C132.058 45.2039 132.101 45.2259 132.144 45.2646C132.187 45.3033 132.239 45.3467 132.3 45.3947C132.363 45.4431 132.441 45.4896 132.533 45.5343C132.626 45.5791 132.744 45.6102 132.888 45.6277C133.01 45.6427 133.119 45.6405 133.214 45.6211C133.31 45.5993 133.392 45.5651 133.46 45.5184C133.528 45.4718 133.58 45.4149 133.617 45.3477C133.656 45.2808 133.681 45.2074 133.69 45.1273C133.702 45.0285 133.685 44.944 133.639 44.8738C133.595 44.8016 133.533 44.7378 133.451 44.6824C133.37 44.6247 133.274 44.5725 133.165 44.5258C133.059 44.4769 132.949 44.4265 132.836 44.3745C132.726 44.3228 132.617 44.2664 132.509 44.2056C132.405 44.1426 132.313 44.0694 132.235 43.9858C132.157 43.9022 132.097 43.8041 132.056 43.6916C132.018 43.577 132.008 43.4432 132.026 43.2902C132.043 43.1537 132.087 43.0265 132.159 42.9086C132.231 42.7884 132.327 42.6879 132.447 42.6069C132.567 42.5236 132.709 42.4634 132.874 42.4261C133.038 42.3889 133.222 42.3826 133.424 42.4074C133.659 42.4361 133.866 42.4995 134.042 42.5975C134.222 42.6935 134.372 42.8145 134.492 42.9606L134.323 43.1729ZM137.597 44.3931C137.615 44.2472 137.61 44.1116 137.582 43.9864C137.557 43.8591 137.51 43.7471 137.441 43.6502C137.374 43.5513 137.287 43.4714 137.18 43.4105C137.073 43.3473 136.947 43.3069 136.804 43.2894C136.502 43.2526 136.253 43.3117 136.055 43.4667C135.859 43.6196 135.721 43.8488 135.641 44.1543L137.597 44.3931ZM137.901 46.1323C137.812 46.2169 137.709 46.288 137.592 46.3454C137.475 46.4004 137.352 46.4427 137.221 46.4722C137.094 46.5019 136.962 46.5194 136.828 46.5245C136.693 46.5319 136.561 46.5277 136.432 46.5119C136.185 46.4818 135.961 46.4127 135.762 46.3047C135.565 46.1947 135.4 46.0503 135.267 45.8716C135.136 45.6908 135.043 45.4764 134.987 45.2283C134.931 44.9802 134.922 44.702 134.96 44.3937C134.99 44.1442 135.056 43.9157 135.158 43.7084C135.262 43.5013 135.396 43.3277 135.558 43.1875C135.722 43.045 135.912 42.9416 136.13 42.8775C136.349 42.811 136.587 42.7935 136.846 42.8251C137.06 42.8513 137.254 42.9119 137.426 43.007C137.601 43.1 137.746 43.2229 137.861 43.3755C137.979 43.526 138.063 43.7059 138.114 43.9152C138.165 44.1221 138.175 44.3527 138.144 44.6069C138.132 44.7057 138.114 44.7703 138.088 44.8007C138.063 44.8311 138.021 44.8427 137.962 44.8355L135.572 44.5437C135.552 44.7705 135.558 44.9708 135.592 45.1445C135.628 45.3185 135.689 45.468 135.774 45.5931C135.859 45.7158 135.966 45.8137 136.096 45.8869C136.226 45.9577 136.376 46.0034 136.545 46.0241C136.703 46.0434 136.84 46.0422 136.958 46.0207C137.078 45.9971 137.181 45.9692 137.269 45.9369C137.356 45.9046 137.429 45.8741 137.488 45.8454C137.549 45.8146 137.6 45.8017 137.64 45.8066C137.691 45.8129 137.729 45.8378 137.752 45.8812L137.901 46.1323ZM139.686 43.7129C139.858 43.5691 140.044 43.4604 140.241 43.3866C140.439 43.3128 140.659 43.2907 140.902 43.3203C141.097 43.3441 141.265 43.398 141.405 43.482C141.548 43.564 141.661 43.671 141.746 43.8031C141.832 43.9332 141.892 44.0849 141.923 44.2584C141.954 44.4318 141.958 44.6197 141.933 44.8222L141.655 47.0994L141.023 47.0223L141.301 44.745C141.334 44.4743 141.297 44.2572 141.191 44.0937C141.087 43.9281 140.909 43.8299 140.657 43.7992C140.471 43.7765 140.291 43.7999 140.118 43.8696C139.947 43.9395 139.784 44.0426 139.629 44.1789L139.307 46.8128L138.675 46.7356L139.31 41.535L139.942 41.6121L139.686 43.7129ZM144.375 47.0373C144.382 46.9761 144.4 46.9198 144.428 46.8682C144.458 46.8169 144.494 46.7736 144.537 46.7382C144.582 46.7031 144.633 46.677 144.69 46.6601C144.747 46.6432 144.806 46.6385 144.867 46.6459C144.928 46.6534 144.984 46.6722 145.036 46.7023C145.087 46.7325 145.13 46.77 145.165 46.8149C145.2 46.8598 145.226 46.9108 145.243 46.9678C145.26 47.0248 145.265 47.0839 145.258 47.1451C145.25 47.2086 145.231 47.2661 145.201 47.3173C145.171 47.3662 145.133 47.4082 145.089 47.4434C145.044 47.4785 144.993 47.5034 144.936 47.5179C144.879 47.5349 144.82 47.5396 144.759 47.5321C144.698 47.5246 144.641 47.5058 144.59 47.4757C144.539 47.4479 144.495 47.4116 144.46 47.3667C144.427 47.322 144.402 47.2724 144.385 47.2177C144.371 47.161 144.367 47.1009 144.375 47.0373ZM146.051 47.2419C146.058 47.1807 146.076 47.1244 146.104 47.0728C146.134 47.0215 146.17 46.9782 146.213 46.9428C146.258 46.9077 146.309 46.8816 146.366 46.8647C146.423 46.8478 146.482 46.843 146.543 46.8505C146.604 46.858 146.66 46.8768 146.712 46.9069C146.763 46.9371 146.806 46.9746 146.841 47.0195C146.876 47.0644 146.902 47.1154 146.919 47.1724C146.936 47.2294 146.941 47.2885 146.933 47.3497C146.926 47.4132 146.907 47.4707 146.877 47.5219C146.847 47.5708 146.809 47.6128 146.764 47.648C146.72 47.6831 146.669 47.708 146.612 47.7225C146.555 47.7395 146.496 47.7442 146.435 47.7367C146.373 47.7292 146.317 47.7104 146.266 47.6803C146.214 47.6525 146.171 47.6161 146.136 47.5712C146.103 47.5266 146.078 47.477 146.061 47.4223C146.046 47.3656 146.043 47.3055 146.051 47.2419ZM147.727 47.4465C147.734 47.3853 147.752 47.329 147.779 47.2774C147.81 47.2261 147.846 47.1828 147.889 47.1474C147.933 47.1123 147.984 47.0862 148.041 47.0693C148.098 47.0524 148.158 47.0476 148.219 47.0551C148.28 47.0626 148.336 47.0814 148.387 47.1115C148.439 47.1417 148.482 47.1792 148.517 47.2241C148.552 47.269 148.578 47.32 148.595 47.377C148.612 47.434 148.617 47.4931 148.609 47.5543C148.602 47.6178 148.583 47.6753 148.552 47.7265C148.523 47.7754 148.485 47.8174 148.44 47.8526C148.395 47.8877 148.345 47.9126 148.288 47.9271C148.231 47.9441 148.172 47.9488 148.111 47.9413C148.049 47.9338 147.993 47.915 147.942 47.8849C147.89 47.8571 147.847 47.8207 147.812 47.7758C147.779 47.7312 147.754 47.6816 147.737 47.6269C147.722 47.5702 147.719 47.5101 147.727 47.4465ZM149.402 47.6511C149.41 47.5899 149.428 47.5336 149.455 47.482C149.485 47.4307 149.522 47.3874 149.564 47.352C149.609 47.3169 149.66 47.2908 149.717 47.2739C149.774 47.257 149.833 47.2522 149.895 47.2597C149.956 47.2672 150.012 47.286 150.063 47.3161C150.115 47.3463 150.158 47.3838 150.193 47.4287C150.228 47.4736 150.254 47.5246 150.271 47.5816C150.288 47.6386 150.293 47.6977 150.285 47.7589C150.277 47.8224 150.258 47.8798 150.228 47.9311C150.198 47.98 150.161 48.022 150.116 48.0572C150.071 48.0923 150.02 48.1171 149.964 48.1317C149.907 48.1487 149.848 48.1534 149.786 48.1459C149.725 48.1384 149.669 48.1196 149.618 48.0895C149.566 48.0617 149.523 48.0253 149.488 47.9804C149.455 47.9358 149.43 47.8862 149.413 47.8315C149.398 47.7748 149.395 47.7147 149.402 47.6511Z" fill="#7D7D7D"/>
</g>
<defs>
<filter id="filter0_d_1190_12047" x="0.242305" y="1.43164" width="200.126" height="68.0339" filterUnits="userSpaceOnUse" color-interpolation-filters="sRGB">
<feFlood flood-opacity="0" result="BackgroundImageFix"/>
<feColorMatrix in="SourceAlpha" type="matrix" values="0 0 0 0 0 0 0 0 0 0 0 0 0 0 0 0 0 0 127 0" result="hardAlpha"/>
<feOffset dy="2.18885"/>
<feGaussianBlur stdDeviation="1.09442"/>
<feComposite in2="hardAlpha" operator="out"/>
<feColorMatrix type="matrix" values="0 0 0 0 0 0 0 0 0 0 0 0 0 0 0 0 0 0 0.25 0"/>
<feBlend mode="normal" in2="BackgroundImageFix" result="effect1_dropShadow_1190_12047"/>
<feBlend mode="normal" in="SourceGraphic" in2="effect1_dropShadow_1190_12047" result="shape"/>
</filter>
<clipPath id="clip0_1190_12047">
<rect width="19.1524" height="19.1524" fill="white" transform="translate(18.4255 13.0645) rotate(6.96054)"/>
</clipPath>
</defs>
</svg>
