<svg width="201" height="78" viewBox="0 0 201 78" fill="none" xmlns="http://www.w3.org/2000/svg">
<g filter="url(#filter0_d_1193_12083)">
<rect x="8.12354" width="194.807" height="43.2297" rx="12.5859" transform="rotate(9.48466 8.12354 0)" fill="white" fill-opacity="0.94"/>
<rect x="8.12354" width="194.807" height="43.2297" rx="12.5859" transform="rotate(9.48466 8.12354 0)" fill="white" fill-opacity="0.94"/>
<rect x="14.688" y="7.19922" width="30.0967" height="30.6439" rx="7.66097" transform="rotate(9.48466 14.688 7.19922)" fill="#F88C3D"/>
<g clip-path="url(#clip0_1193_12083)">
<path d="M33.2295 29.5994L20.6357 27.4954L22.2137 18.0501L30.1635 19.3783C30.1519 19.0608 30.1678 18.4809 30.4265 17.804L22.4767 16.4759C21.6109 16.3312 20.7842 16.9213 20.6395 17.7871L18.2725 31.9551L21.947 29.3326L32.9665 31.1736C33.8323 31.3183 34.659 30.7282 34.8037 29.8624L35.9898 22.7627C35.4754 23.0327 34.8968 23.2031 34.2946 23.2238L33.2295 29.5994Z" fill="white"/>
<path d="M33.7574 21.5968C35.0615 21.8147 36.2953 20.9341 36.5132 19.63C36.7311 18.3259 35.8505 17.0921 34.5464 16.8742C33.2422 16.6563 32.0084 17.5369 31.7905 18.841C31.5727 20.1451 32.4532 21.3789 33.7574 21.5968Z" fill="white"/>
<path d="M29.0328 25.662L22.736 24.61L22.473 26.1842L28.7698 27.2362L29.0328 25.662Z" fill="white"/>
<path d="M32.5758 23.8266L23.1305 22.2486L22.8675 23.8229L32.3128 25.4009L32.5758 23.8266Z" fill="white"/>
<path d="M23.262 21.4615L32.7073 23.0395L32.7204 22.9608C31.8009 22.6049 31.0743 21.9172 30.6325 21.0748L23.525 19.8873L23.262 21.4615Z" fill="white"/>
</g>
<path d="M57.3863 21.4004L56.5387 26.4734L55.7073 26.3345L56.2547 23.0577C56.2766 22.9268 56.3072 22.7864 56.3467 22.6368L54.3324 25.2609C54.2368 25.3868 54.1142 25.4372 53.9645 25.4122L53.8312 25.3899C53.6815 25.3649 53.5819 25.2774 53.5325 25.1273L52.4648 21.9774C52.4589 22.0558 52.4521 22.1327 52.4442 22.2084C52.4364 22.284 52.4272 22.3534 52.4167 22.4165L51.8692 25.6932L51.0378 25.5543L51.8853 20.4814L52.5975 20.6004C52.6396 20.6074 52.6756 20.6146 52.7057 20.6221C52.7357 20.6295 52.7616 20.6398 52.7834 20.6531C52.8076 20.6667 52.8273 20.6856 52.8425 20.7098C52.86 20.7344 52.8752 20.7658 52.888 20.804L53.9364 23.8749C53.9637 23.9564 53.9871 24.0396 54.0065 24.1246C54.0283 24.21 54.0486 24.2975 54.0672 24.3872C54.1144 24.3061 54.1622 24.2288 54.2106 24.1551C54.2593 24.0791 54.3099 24.007 54.3621 23.9388L56.3296 21.379C56.3542 21.347 56.3788 21.3223 56.4033 21.3047C56.4279 21.2872 56.4527 21.2757 56.4776 21.2703C56.5049 21.2652 56.5339 21.264 56.5647 21.2668C56.5955 21.2695 56.632 21.2744 56.6741 21.2814L57.3863 21.4004ZM61.1749 23.548L60.5736 27.1474L60.0438 27.0589C59.9292 27.0398 59.8655 26.9751 59.8527 26.8647L59.8411 26.5671C59.6687 26.6922 59.4859 26.7866 59.2925 26.8505C59.0995 26.912 58.8825 26.9226 58.6416 26.8824C58.4452 26.8496 58.2764 26.7877 58.1353 26.6968C57.997 26.604 57.8865 26.4882 57.8039 26.3494C57.7213 26.2105 57.667 26.0536 57.641 25.8786C57.6176 25.7016 57.6228 25.5125 57.6564 25.3114L58.0385 23.024L58.9051 23.1688L58.5229 25.4561C58.4862 25.676 58.5079 25.8551 58.5882 25.9936C58.6712 26.13 58.8144 26.2153 59.0179 26.2493C59.1676 26.2743 59.3134 26.265 59.4553 26.2214C59.5976 26.1754 59.737 26.1037 59.8735 26.0063L60.3084 23.4032L61.1749 23.548ZM62.8432 24.2234C63.0054 24.1158 63.1775 24.0352 63.3596 23.9815C63.5417 23.9278 63.7461 23.9199 63.973 23.9578C64.1695 23.9906 64.3381 24.0536 64.4787 24.1468C64.6198 24.2377 64.7305 24.3524 64.8108 24.4908C64.8937 24.6273 64.9469 24.784 64.9702 24.961C64.9963 25.136 64.9925 25.3241 64.9589 25.5253L64.5761 27.8162L63.7096 27.6714L64.0923 25.3805C64.1291 25.1606 64.1071 24.9827 64.0265 24.8466C63.9462 24.7082 63.8032 24.6218 63.5974 24.5874C63.4477 24.5624 63.3017 24.5728 63.1594 24.6188C63.0171 24.6647 62.8777 24.7364 62.7412 24.8338L62.3063 27.4369L61.4398 27.2922L62.3107 22.0789L63.1773 22.2237L62.8432 24.2234ZM67.5655 26.7361C67.3133 26.7059 67.099 26.693 66.9228 26.6972C66.747 26.6991 66.6036 26.716 66.4924 26.7479C66.3813 26.7798 66.2981 26.8248 66.2427 26.8829C66.1873 26.941 66.1532 27.0086 66.1403 27.0858C66.1149 27.2378 66.1412 27.354 66.2191 27.4343C66.2994 27.515 66.412 27.5675 66.557 27.5917C66.7348 27.6214 66.8932 27.6155 67.0324 27.5738C67.1743 27.5302 67.3182 27.4533 67.4641 27.343L67.5655 26.7361ZM65.8406 24.8431C66.3179 24.5334 66.8477 24.4272 67.4301 24.5245C67.6406 24.5597 67.823 24.6262 67.9773 24.7241C68.132 24.8197 68.2564 24.939 68.3503 25.0821C68.4445 25.2229 68.5067 25.3835 68.5366 25.564C68.5689 25.7449 68.568 25.9371 68.534 26.1406L68.1542 28.4139L67.7613 28.3483C67.6794 28.3346 67.6183 28.3124 67.5777 28.2816C67.5376 28.2484 67.5109 28.1923 67.4977 28.1131L67.4639 27.8406C67.359 27.9072 67.258 27.9649 67.1609 28.0136C67.0642 28.0599 66.9656 28.0963 66.865 28.1228C66.7644 28.1493 66.6585 28.1641 66.5474 28.1671C66.4383 28.1729 66.3194 28.1651 66.1908 28.1436C66.0387 28.1182 65.9017 28.0749 65.7797 28.0136C65.6581 27.95 65.5574 27.8695 65.4775 27.772C65.3976 27.6745 65.3421 27.5607 65.311 27.4304C65.2799 27.3002 65.2778 27.1544 65.3047 26.9931C65.32 26.9018 65.3502 26.8143 65.3955 26.7305C65.4411 26.6444 65.5047 26.5661 65.5862 26.4955C65.67 26.4254 65.773 26.3633 65.895 26.3091C66.017 26.255 66.1621 26.2143 66.3301 26.1871C66.5005 26.1603 66.6948 26.1482 66.9131 26.1511C67.1318 26.1515 67.3786 26.1711 67.6534 26.2098L67.6885 25.9993C67.7288 25.7584 67.707 25.5721 67.6233 25.4403C67.5399 25.3062 67.4012 25.2229 67.207 25.1904C67.0667 25.167 66.947 25.1638 66.848 25.1809C66.7513 25.1984 66.6644 25.2224 66.5872 25.2528C66.5104 25.2808 66.44 25.3063 66.376 25.3293C66.3144 25.3526 66.2486 25.3585 66.1784 25.3467C66.1176 25.3366 66.0687 25.3128 66.0317 25.2754C65.995 25.2356 65.9674 25.1925 65.9487 25.1461L65.8406 24.8431ZM68.9774 28.5515L69.5787 24.952L70.1085 25.0405C70.2207 25.0592 70.2856 25.1242 70.3031 25.2353L70.3147 25.5113C70.3896 25.4517 70.4658 25.3983 70.5434 25.3512C70.6233 25.3044 70.7054 25.2664 70.7896 25.2372C70.8762 25.2084 70.9658 25.1897 71.0586 25.1812C71.1541 25.1707 71.2557 25.1744 71.3633 25.1924C71.5901 25.2303 71.7657 25.3234 71.89 25.4716C72.017 25.6178 72.0998 25.7987 72.1383 26.0143C72.2144 25.9044 72.3015 25.8144 72.3998 25.7442C72.4985 25.6718 72.6026 25.617 72.7121 25.5801C72.8217 25.5431 72.9347 25.5211 73.0513 25.5141C73.1702 25.5075 73.287 25.5138 73.4016 25.533C73.6004 25.5662 73.7719 25.6261 73.9161 25.7127C74.0603 25.7993 74.1752 25.9098 74.2609 26.0444C74.3466 26.1789 74.4023 26.3348 74.428 26.5122C74.456 26.69 74.4518 26.8876 74.4155 27.1052L74.0327 29.396L73.1662 29.2513L73.5489 26.9604C73.5872 26.7312 73.5657 26.5509 73.4842 26.4195C73.4032 26.2857 73.2656 26.2026 73.0715 26.1702C72.9826 26.1554 72.8971 26.1567 72.8148 26.1742C72.7349 26.1921 72.6608 26.2254 72.5926 26.2741C72.5271 26.3209 72.4707 26.3848 72.4235 26.4658C72.3763 26.5469 72.3433 26.6436 72.3246 26.7558L71.9418 29.0467L71.0718 28.9014L71.4545 26.6105C71.4948 26.3696 71.475 26.186 71.3951 26.0596C71.3176 25.9337 71.1852 25.8551 70.9981 25.8238C70.8718 25.8027 70.7485 25.8145 70.628 25.8593C70.5102 25.9022 70.3956 25.9696 70.2841 26.0615L69.8439 28.6962L68.9774 28.5515ZM74.8634 29.5348L75.4648 25.9354L75.9945 26.0239C76.1068 26.0426 76.1717 26.1075 76.1892 26.2187L76.2008 26.4947C76.2756 26.435 76.3519 26.3817 76.4295 26.3345C76.5094 26.2878 76.5915 26.2498 76.6757 26.2206C76.7622 26.1918 76.8519 26.1731 76.9447 26.1646C77.0402 26.1541 77.1418 26.1578 77.2493 26.1758C77.4762 26.2137 77.6518 26.3067 77.7761 26.4549C77.9031 26.6012 77.9859 26.7821 78.0244 26.9977C78.1005 26.8878 78.1876 26.7977 78.2859 26.7276C78.3845 26.6551 78.4887 26.6004 78.5982 26.5634C78.7078 26.5264 78.8208 26.5045 78.9374 26.4975C79.0563 26.4909 79.173 26.4972 79.2876 26.5163C79.4864 26.5495 79.6579 26.6094 79.8022 26.696C79.9464 26.7826 80.0613 26.8932 80.147 27.0277C80.2327 27.1623 80.2884 27.3182 80.3141 27.4956C80.3421 27.6734 80.3379 27.871 80.3016 28.0885L79.9188 30.3794L79.0523 30.2346L79.435 27.9438C79.4733 27.7145 79.4518 27.5342 79.3703 27.4028C79.2893 27.2691 79.1517 27.186 78.9576 27.1536C78.8687 27.1387 78.7832 27.1401 78.7009 27.1576C78.621 27.1755 78.5469 27.2088 78.4786 27.2575C78.4131 27.3042 78.3568 27.3681 78.3096 27.4492C78.2624 27.5303 78.2294 27.6269 78.2106 27.7392L77.8279 30.0301L76.9579 29.8847L77.3406 27.5938C77.3808 27.3529 77.361 27.1693 77.2812 27.043C77.2036 26.917 77.0713 26.8384 76.8842 26.8072C76.7579 26.7861 76.6345 26.7979 76.5141 26.8427C76.3963 26.8855 76.2817 26.9529 76.1701 27.0449L75.73 29.6796L74.8634 29.5348ZM82.9077 29.2993C82.6555 29.2691 82.4413 29.2562 82.2651 29.2604C82.0893 29.2623 81.9458 29.2792 81.8347 29.3111C81.7236 29.343 81.6403 29.388 81.585 29.4461C81.5296 29.5042 81.4954 29.5718 81.4825 29.649C81.4572 29.801 81.4834 29.9172 81.5614 29.9975C81.6416 30.0782 81.7543 30.1307 81.8993 30.1549C82.077 30.1846 82.2355 30.1786 82.3747 30.137C82.5166 30.0934 82.6605 30.0164 82.8063 29.9062L82.9077 29.2993ZM81.1829 27.4063C81.6601 27.0966 82.19 26.9904 82.7723 27.0877C82.9828 27.1229 83.1652 27.1894 83.3196 27.2873C83.4743 27.3829 83.5986 27.5022 83.6925 27.6453C83.7868 27.7861 83.8489 27.9467 83.8789 28.1272C83.9111 28.3081 83.9103 28.5003 83.8763 28.7038L83.4965 30.9771L83.1036 30.9115C83.0217 30.8978 82.9605 30.8756 82.92 30.8447C82.8798 30.8116 82.8532 30.7554 82.8399 30.6763L82.8061 30.4038C82.7012 30.4704 82.6002 30.5281 82.5032 30.5768C82.4065 30.6231 82.3078 30.6595 82.2072 30.686C82.1066 30.7125 82.0008 30.7272 81.8897 30.7303C81.7805 30.7361 81.6616 30.7283 81.533 30.7068C81.381 30.6814 81.244 30.6381 81.122 30.5768C81.0004 30.5132 80.8996 30.4327 80.8198 30.3352C80.7399 30.2377 80.6844 30.1239 80.6532 29.9936C80.6221 29.8634 80.62 29.7176 80.647 29.5562C80.6622 29.465 80.6925 29.3775 80.7377 29.2937C80.7834 29.2076 80.8469 29.1293 80.9284 29.0587C81.0123 28.9886 81.1152 28.9265 81.2373 28.8723C81.3593 28.8182 81.5043 28.7775 81.6724 28.7503C81.8427 28.7234 82.0371 28.7114 82.2554 28.7143C82.4741 28.7147 82.7208 28.7343 82.9956 28.773L83.0308 28.5625C83.071 28.3216 83.0493 28.1353 82.9655 28.0035C82.8822 27.8693 82.7434 27.7861 82.5493 27.7536C82.409 27.7302 82.2893 27.727 82.1903 27.7441C82.0936 27.7616 82.0066 27.7856 81.9294 27.816C81.8526 27.844 81.7822 27.8695 81.7183 27.8925C81.6567 27.9158 81.5908 27.9217 81.5207 27.9099C81.4598 27.8998 81.4109 27.876 81.3739 27.8385C81.3373 27.7988 81.3096 27.7557 81.2909 27.7093L81.1829 27.4063ZM87.0267 28.8118C86.9484 28.6761 86.8549 28.5739 86.7462 28.5053C86.6398 28.437 86.5199 28.3917 86.3866 28.3695C86.2556 28.3476 86.1334 28.3524 86.0199 28.3839C85.9065 28.4155 85.8039 28.4753 85.7123 28.5633C85.621 28.6491 85.5426 28.7658 85.4771 28.9135C85.4119 29.0589 85.362 29.2357 85.3272 29.4438C85.292 29.6543 85.2785 29.836 85.2866 29.9888C85.2975 30.1397 85.3267 30.2671 85.3742 30.3713C85.4221 30.473 85.4882 30.5526 85.5723 30.6099C85.6569 30.6649 85.7553 30.7018 85.8676 30.7205C86.0477 30.7506 86.2071 30.7388 86.3459 30.6851C86.4847 30.6313 86.6218 30.5448 86.7571 30.4256L87.0267 28.8118ZM88.3164 26.4236L87.4455 31.6369L86.9157 31.5484C86.8011 31.5292 86.7374 31.4645 86.7246 31.3542L86.7089 30.9945C86.5362 31.1364 86.3465 31.2429 86.1399 31.3142C85.9356 31.3858 85.7083 31.4007 85.458 31.3589C85.2616 31.3261 85.0883 31.2551 84.9383 31.1459C84.7882 31.0367 84.6665 30.8949 84.573 30.7206C84.4822 30.5444 84.4232 30.3362 84.396 30.096C84.3712 29.8563 84.3834 29.5891 84.4326 29.2944C84.4771 29.0277 84.5548 28.7859 84.6656 28.5688C84.7764 28.3517 84.9137 28.1703 85.0775 28.0245C85.2413 27.8788 85.4257 27.775 85.6308 27.7131C85.8362 27.6489 86.0571 27.6365 86.2933 27.6759C86.4944 27.7095 86.6611 27.7698 86.7932 27.8568C86.9253 27.9438 87.0385 28.0505 87.1328 28.1768L87.4499 26.2788L88.3164 26.4236ZM92.1351 29.6869C92.3128 29.7166 92.4709 29.7201 92.6093 29.6976C92.75 29.6754 92.8689 29.6328 92.966 29.5697C93.0658 29.5046 93.1458 29.4218 93.2059 29.3212C93.2659 29.2207 93.3067 29.1061 93.3282 28.9774C93.3712 28.7202 93.3188 28.5083 93.1712 28.3418C93.0258 28.1756 92.7789 28.0635 92.4304 28.0052L91.827 27.9044L91.5457 29.5884L92.1351 29.6869ZM94.1185 32.7517L93.266 32.6093C93.1046 32.5823 92.9982 32.4996 92.9468 32.3612L92.1517 30.5587C92.1221 30.4913 92.0849 30.4406 92.04 30.4067C91.9976 30.3731 91.9296 30.3485 91.836 30.3329L91.4325 30.2655L91.1014 32.2477L90.1577 32.09L91.0052 27.0171L92.5523 27.2755C92.8961 27.333 93.1848 27.4185 93.4182 27.532C93.6544 27.6436 93.8401 27.7768 93.9754 27.9316C94.1129 28.0868 94.2041 28.2607 94.2488 28.4533C94.294 28.6435 94.2986 28.8463 94.2626 29.0614C94.2341 29.2322 94.1814 29.3892 94.1045 29.5327C94.03 29.6765 93.9345 29.8024 93.8179 29.9103C93.7036 30.0186 93.5685 30.1079 93.4125 30.178C93.2589 30.2485 93.0887 30.2958 92.902 30.3199C92.9569 30.3651 93.006 30.4166 93.0493 30.4743C93.0929 30.5297 93.1303 30.5936 93.1615 30.6661L94.1185 32.7517ZM96.9923 30.9563C97.0111 30.8441 97.0123 30.7361 96.996 30.6324C96.9824 30.5267 96.9503 30.4312 96.8996 30.3458C96.849 30.2604 96.778 30.1885 96.6868 30.13C96.5984 30.0695 96.4898 30.0285 96.3612 30.0071C96.1109 29.9652 95.9014 30.0036 95.7325 30.122C95.566 30.2408 95.441 30.4279 95.3575 30.6832L96.9923 30.9563ZM95.2526 31.203C95.2358 31.3901 95.2418 31.5558 95.2706 31.7001C95.2997 31.842 95.349 31.9644 95.4184 32.0673C95.4881 32.1679 95.5766 32.25 95.6837 32.3136C95.7936 32.3753 95.9188 32.4178 96.0591 32.4412C96.1994 32.4647 96.3226 32.4684 96.4287 32.4525C96.537 32.4369 96.632 32.4155 96.7135 32.3883C96.7973 32.3614 96.87 32.3363 96.9316 32.3129C96.9955 32.29 97.0544 32.283 97.1082 32.292C97.1807 32.3041 97.23 32.3399 97.2561 32.3996L97.4524 32.757C97.3378 32.8532 97.2144 32.93 97.0822 32.9872C96.9504 33.0421 96.8151 33.082 96.6763 33.1069C96.5403 33.1299 96.4029 33.1394 96.2641 33.1354C96.1276 33.1319 95.9963 33.1195 95.87 33.0984C95.6197 33.0566 95.3938 32.9768 95.1923 32.859C94.9912 32.7388 94.8246 32.5848 94.6926 32.3969C94.5609 32.2066 94.4693 31.9845 94.418 31.7307C94.367 31.4746 94.3679 31.1886 94.4207 30.8729C94.4617 30.6273 94.5399 30.4036 94.6554 30.2017C94.7713 29.9975 94.9162 29.8281 95.0901 29.6937C95.2667 29.5573 95.4693 29.4602 95.6977 29.4022C95.9285 29.3446 96.1784 29.3382 96.4474 29.3832C96.6743 29.4211 96.8775 29.4923 97.0572 29.5968C97.2369 29.7014 97.384 29.8353 97.4985 29.9987C97.6135 30.1598 97.6925 30.3485 97.7357 30.5649C97.7816 30.7793 97.7829 31.0163 97.7395 31.2759C97.7176 31.4069 97.6888 31.4934 97.6529 31.5355C97.6174 31.5753 97.5599 31.5885 97.4804 31.5752L95.2526 31.203ZM99.3966 30.3879C99.4812 30.3276 99.5683 30.2736 99.658 30.2261C99.7504 30.1766 99.8446 30.1382 99.9405 30.111C100.039 30.0818 100.142 30.0641 100.249 30.0579C100.356 30.0494 100.47 30.0553 100.592 30.0756C100.788 30.1084 100.957 30.1714 101.098 30.2646C101.239 30.3555 101.349 30.4702 101.43 30.6086C101.513 30.7451 101.566 30.9018 101.589 31.0788C101.615 31.2538 101.611 31.4419 101.578 31.6431L101.195 33.934L100.328 33.7892L100.711 31.4983C100.748 31.2785 100.726 31.1005 100.645 30.9644C100.565 30.826 100.422 30.7396 100.216 30.7052C100.067 30.6802 99.9206 30.6907 99.7783 30.7366C99.636 30.7826 99.4966 30.8542 99.3601 30.9516L98.9252 33.5548L98.0586 33.41L98.66 29.8105L99.1897 29.899C99.302 29.9178 99.3669 29.9827 99.3844 30.0938L99.3966 30.3879ZM104.184 32.8539C103.932 32.8238 103.718 32.8108 103.542 32.815C103.366 32.8169 103.222 32.8338 103.111 32.8657C103 32.8977 102.917 32.9427 102.862 33.0007C102.806 33.0588 102.772 33.1264 102.759 33.2036C102.734 33.3556 102.76 33.4718 102.838 33.5521C102.918 33.6329 103.031 33.6853 103.176 33.7096C103.354 33.7393 103.512 33.7333 103.651 33.6916C103.793 33.648 103.937 33.5711 104.083 33.4608L104.184 32.8539ZM102.459 30.961C102.937 30.6512 103.467 30.545 104.049 30.6423C104.259 30.6775 104.442 30.744 104.596 30.8419C104.751 30.9375 104.875 31.0568 104.969 31.1999C105.063 31.3407 105.126 31.5013 105.155 31.6818C105.188 31.8627 105.187 32.0549 105.153 32.2584L104.773 34.5318L104.38 34.4661C104.298 34.4524 104.237 34.4302 104.197 34.3994C104.156 34.3662 104.13 34.3101 104.117 34.2309L104.083 33.9584C103.978 34.0251 103.877 34.0827 103.78 34.1314C103.683 34.1778 103.584 34.2142 103.484 34.2406C103.383 34.2671 103.277 34.2819 103.166 34.2849C103.057 34.2908 102.938 34.2829 102.81 34.2614C102.658 34.236 102.521 34.1927 102.399 34.1314C102.277 34.0679 102.176 33.9873 102.096 33.8898C102.017 33.7923 101.961 33.6785 101.93 33.5483C101.899 33.4181 101.897 33.2723 101.924 33.1109C101.939 33.0197 101.969 32.9322 102.014 32.8484C102.06 32.7622 102.124 32.6839 102.205 32.6134C102.289 32.5432 102.392 32.4811 102.514 32.427C102.636 32.3728 102.781 32.3321 102.949 32.3049C103.119 32.2781 103.314 32.2661 103.532 32.2689C103.751 32.2694 103.997 32.2889 104.272 32.3276L104.307 32.1172C104.348 31.8763 104.326 31.6899 104.242 31.5581C104.159 31.424 104.02 31.3407 103.826 31.3083C103.686 31.2848 103.566 31.2816 103.467 31.2988C103.37 31.3163 103.283 31.3402 103.206 31.3706C103.129 31.3986 103.059 31.4241 102.995 31.4471C102.933 31.4705 102.867 31.4763 102.797 31.4646C102.736 31.4544 102.688 31.4306 102.651 31.3932C102.614 31.3534 102.586 31.3103 102.568 31.2639L102.459 30.961ZM106.739 34.9178C106.425 34.8655 106.199 34.7375 106.06 34.534C105.924 34.3285 105.881 34.0702 105.933 33.7591L106.269 31.7489L105.901 31.6874C105.854 31.6796 105.817 31.6577 105.789 31.6218C105.762 31.586 105.753 31.5376 105.763 31.4768L105.82 31.133L106.415 31.135L106.762 30.1832C106.781 30.1383 106.809 30.1058 106.846 30.0855C106.883 30.0653 106.928 30.0594 106.979 30.068L107.428 30.1431L107.239 31.2762L108.2 31.4368L108.097 32.0543L107.136 31.8937L106.81 33.8443C106.791 33.9565 106.803 34.0487 106.847 34.1209C106.892 34.1934 106.963 34.2377 107.059 34.2537C107.113 34.2627 107.158 34.2643 107.195 34.2584C107.235 34.2506 107.269 34.2419 107.297 34.2322C107.327 34.2228 107.354 34.214 107.377 34.2059C107.4 34.1954 107.423 34.1919 107.444 34.1954C107.469 34.1997 107.489 34.2102 107.503 34.227C107.518 34.2414 107.532 34.263 107.547 34.2919L107.736 34.7563C107.592 34.8404 107.434 34.8957 107.261 34.9221C107.088 34.9486 106.914 34.9471 106.739 34.9178ZM110.324 33.8796C110.072 33.8495 109.858 33.8366 109.681 33.8408C109.506 33.8427 109.362 33.8596 109.251 33.8915C109.14 33.9234 109.057 33.9684 109.001 34.0265C108.946 34.0845 108.912 34.1522 108.899 34.2293C108.874 34.3814 108.9 34.4976 108.978 34.5779C109.058 34.6586 109.171 34.7111 109.316 34.7353C109.493 34.765 109.652 34.759 109.791 34.7174C109.933 34.6738 110.077 34.5968 110.223 34.4866L110.324 33.8796ZM108.599 31.9867C109.077 31.677 109.606 31.5708 110.189 31.6681C110.399 31.7032 110.582 31.7698 110.736 31.8677C110.891 31.9633 111.015 32.0826 111.109 32.2257C111.203 32.3665 111.265 32.5271 111.295 32.7076C111.328 32.8885 111.327 33.0807 111.293 33.2842L110.913 35.5575L110.52 35.4919C110.438 35.4782 110.377 35.4559 110.336 35.4251C110.296 35.392 110.27 35.3358 110.256 35.2567L110.223 34.9842C110.118 35.0508 110.017 35.1085 109.92 35.1572C109.823 35.2035 109.724 35.2399 109.624 35.2664C109.523 35.2929 109.417 35.3076 109.306 35.3107C109.197 35.3165 109.078 35.3087 108.949 35.2872C108.797 35.2618 108.66 35.2185 108.538 35.1572C108.417 35.0936 108.316 35.0131 108.236 34.9156C108.156 34.8181 108.101 34.7042 108.07 34.574C108.039 34.4438 108.036 34.298 108.063 34.1366C108.079 34.0454 108.109 33.9579 108.154 33.8741C108.2 33.788 108.263 33.7097 108.345 33.6391C108.429 33.569 108.532 33.5068 108.654 33.4527C108.776 33.3986 108.921 33.3579 109.089 33.3307C109.259 33.3038 109.453 33.2918 109.672 33.2946C109.89 33.2951 110.137 33.3147 110.412 33.3534L110.447 33.1429C110.487 32.902 110.466 32.7157 110.382 32.5839C110.299 32.4497 110.16 32.3664 109.966 32.334C109.825 32.3106 109.706 32.3074 109.607 32.3245C109.51 32.342 109.423 32.366 109.346 32.3963C109.269 32.4244 109.199 32.4499 109.135 32.4729C109.073 32.4962 109.007 32.502 108.937 32.4903C108.876 32.4802 108.827 32.4564 108.79 32.4189C108.754 32.3792 108.726 32.3361 108.707 32.2897L108.599 31.9867ZM119.934 31.8502L119.087 36.9231L118.256 36.7842L118.803 33.5075C118.825 33.3765 118.855 33.2362 118.895 33.0865L116.881 35.7107C116.785 35.8366 116.662 35.887 116.513 35.862L116.379 35.8397C116.23 35.8147 116.13 35.7271 116.081 35.577L115.013 32.4272C115.007 32.5055 115 32.5825 114.992 32.6581C114.985 32.7338 114.975 32.8032 114.965 32.8663L114.417 36.143L113.586 36.0041L114.434 30.9312L115.146 31.0501C115.188 31.0572 115.224 31.0644 115.254 31.0718C115.284 31.0792 115.31 31.0896 115.332 31.1028C115.356 31.1165 115.375 31.1354 115.391 31.1596C115.408 31.1842 115.423 31.2155 115.436 31.2538L116.485 34.3247C116.512 34.4062 116.535 34.4894 116.555 34.5744C116.577 34.6598 116.597 34.7473 116.615 34.837C116.663 34.7559 116.71 34.6785 116.759 34.6049C116.808 34.5289 116.858 34.4568 116.91 34.3886L118.878 31.8287C118.902 31.7968 118.927 31.772 118.952 31.7545C118.976 31.737 119.001 31.7255 119.026 31.72C119.053 31.715 119.082 31.7138 119.113 31.7166C119.144 31.7193 119.18 31.7242 119.222 31.7312L119.934 31.8502ZM120.042 36.5923C120.055 36.5198 120.079 36.453 120.116 36.3918C120.155 36.331 120.201 36.2811 120.256 36.2421C120.311 36.2032 120.373 36.1751 120.443 36.158C120.513 36.1409 120.586 36.1386 120.661 36.1511C120.736 36.1636 120.802 36.1891 120.861 36.2278C120.921 36.2668 120.971 36.3136 121.01 36.3682C121.052 36.4231 121.081 36.4857 121.098 36.5559C121.115 36.6261 121.118 36.6974 121.105 36.7699C121.093 36.8448 121.067 36.9126 121.028 36.9734C120.99 37.0318 120.942 37.0803 120.885 37.1189C120.83 37.1579 120.768 37.1848 120.698 37.1995C120.63 37.2171 120.559 37.2196 120.484 37.2071C120.409 37.1946 120.342 37.1688 120.281 37.1298C120.22 37.0931 120.17 37.0475 120.131 36.9929C120.092 36.9383 120.063 36.8771 120.046 36.8093C120.031 36.7395 120.03 36.6672 120.042 36.5923ZM123.968 35.1458C124.141 35.1747 124.296 35.1789 124.431 35.1582C124.567 35.1353 124.684 35.0911 124.782 35.0256C124.882 34.9582 124.963 34.8708 125.024 34.7632C125.085 34.6533 125.128 34.527 125.152 34.3843C125.175 34.2487 125.174 34.1224 125.15 34.0054C125.127 33.8884 125.079 33.7843 125.008 33.6931C124.937 33.6018 124.84 33.5256 124.718 33.4643C124.596 33.4008 124.448 33.3543 124.272 33.325L123.567 33.2072L123.263 35.028L123.968 35.1458ZM124.394 32.5953C124.733 32.6519 125.02 32.7407 125.255 32.8617C125.49 32.9826 125.676 33.1279 125.813 33.2975C125.951 33.4672 126.041 33.6578 126.085 33.8695C126.132 34.0816 126.135 34.3058 126.096 34.542C126.055 34.7876 125.976 35.0064 125.86 35.1986C125.744 35.3884 125.592 35.5433 125.404 35.6633C125.215 35.7833 124.99 35.8635 124.729 35.9039C124.469 35.9447 124.175 35.9376 123.845 35.8825L123.14 35.7647L122.842 37.5504L121.898 37.3927L122.745 32.3198L124.394 32.5953ZM125.408 37.4887C125.42 37.4162 125.444 37.3494 125.481 37.2882C125.52 37.2274 125.567 37.1775 125.621 37.1385C125.676 37.0996 125.738 37.0715 125.809 37.0544C125.879 37.0373 125.951 37.035 126.026 37.0475C126.101 37.06 126.168 37.0855 126.226 37.1242C126.287 37.1632 126.337 37.21 126.376 37.2645C126.417 37.3195 126.446 37.3821 126.463 37.4523C126.481 37.5225 126.483 37.5938 126.471 37.6663C126.458 37.7411 126.433 37.809 126.394 37.8698C126.355 37.9282 126.307 37.9767 126.25 38.0153C126.196 38.0543 126.134 38.0812 126.064 38.0959C125.996 38.1135 125.925 38.116 125.85 38.1035C125.775 38.091 125.707 38.0652 125.646 38.0262C125.585 37.9895 125.535 37.9439 125.496 37.8893C125.457 37.8347 125.429 37.7735 125.411 37.7057C125.397 37.6359 125.395 37.5636 125.408 37.4887Z" fill="black"/>
<path d="M54.1676 35.8733C54.1047 36.2499 53.9873 36.5861 53.8152 36.8819C53.6436 37.1754 53.4301 37.4174 53.1746 37.6079C52.9192 37.7984 52.6278 37.9312 52.3003 38.0063C51.9755 38.0795 51.6284 38.0852 51.2589 38.0235C50.8893 37.9617 50.5629 37.8435 50.2795 37.6687C49.9966 37.4917 49.7653 37.2715 49.5857 37.0083C49.4061 36.7451 49.2828 36.4468 49.2159 36.1135C49.1494 35.7778 49.1476 35.4217 49.2105 35.0452C49.2734 34.6686 49.3907 34.3336 49.5623 34.0401C49.7343 33.7443 49.9481 33.5011 50.2035 33.3106C50.4593 33.1177 50.7497 32.9835 51.0749 32.908C51.4 32.8325 51.7474 32.8257 52.1169 32.8874C52.4865 32.9491 52.8127 33.0686 53.0957 33.2456C53.3809 33.4231 53.6132 33.6446 53.7924 33.9102C53.972 34.1734 54.0951 34.4728 54.1616 34.8085C54.2285 35.1418 54.2305 35.4968 54.1676 35.8733ZM53.4695 35.7567C53.5211 35.448 53.5253 35.1638 53.4821 34.9041C53.4389 34.6445 53.3542 34.4176 53.228 34.2234C53.1022 34.0269 52.9369 33.8646 52.7323 33.7367C52.5277 33.6087 52.2898 33.5221 52.0185 33.4768C51.7495 33.4319 51.4975 33.4366 51.2624 33.4911C51.0273 33.5456 50.8171 33.6451 50.6319 33.7897C50.4494 33.9323 50.2955 34.1193 50.1703 34.3508C50.0451 34.5824 49.9567 34.8525 49.9051 35.1612C49.8535 35.4699 49.8493 35.7541 49.8925 36.0138C49.9361 36.2711 50.0208 36.498 50.1466 36.6945C50.2752 36.8891 50.4418 37.0503 50.6464 37.1783C50.8514 37.3039 51.0884 37.3892 51.3573 37.4341C51.6286 37.4794 51.8816 37.476 52.1163 37.4239C52.3514 37.3694 52.5602 37.2708 52.7427 37.1282C52.9256 36.9833 53.0795 36.7962 53.2043 36.5671C53.3295 36.3355 53.4179 36.0654 53.4695 35.7567ZM56.0042 33.4503L55.4961 36.4919L55.6574 36.5189C55.7042 36.5267 55.7438 36.5273 55.7761 36.5207C55.8112 36.5121 55.8496 36.4909 55.8914 36.457L57.215 35.4412C57.2544 35.407 57.2934 35.3822 57.332 35.367C57.3733 35.3499 57.4244 35.3464 57.4852 35.3566L58.05 35.4509L56.5088 36.6251C56.4323 36.694 56.3542 36.7447 56.2742 36.777C56.3116 36.8121 56.3436 36.8511 56.3701 36.894C56.3993 36.935 56.4252 36.9814 56.4478 37.0332L57.544 39.0194L56.9862 38.9262C56.9324 38.9173 56.887 38.9013 56.85 38.8782C56.8157 38.8533 56.7884 38.8151 56.7682 38.7636L55.8431 37.1125C55.8163 37.0575 55.7865 37.0201 55.7537 37.0002C55.7237 36.9784 55.6736 36.9616 55.6035 36.9498L55.4245 36.92L55.1409 38.6179L54.5129 38.513L55.3762 33.3454L56.0042 33.4503ZM60.6245 37.3091C60.6487 37.1641 60.6497 37.0284 60.6276 36.9021C60.6081 36.7738 60.5659 36.6598 60.5008 36.56C60.4385 36.4582 60.3551 36.3745 60.2506 36.309C60.1466 36.2411 60.0232 36.1953 59.8806 36.1715C59.5812 36.1214 59.3291 36.1695 59.1244 36.3156C58.9224 36.4597 58.7746 36.6827 58.6809 36.9844L60.6245 37.3091ZM60.8513 39.0599C60.7585 39.1406 60.6524 39.207 60.5331 39.2592C60.4142 39.309 60.289 39.3458 60.1576 39.3695C60.0286 39.3937 59.8968 39.4053 59.7623 39.4045C59.6275 39.406 59.4957 39.396 59.3671 39.3745C59.1215 39.3335 58.9015 39.2546 58.707 39.138C58.5152 39.0194 58.3566 38.8679 58.2312 38.6835C58.1085 38.4971 58.0247 38.2787 57.98 38.0285C57.9353 37.7782 57.9385 37.4998 57.9897 37.1934C58.0311 36.9455 58.1072 36.7202 58.218 36.5176C58.3311 36.3153 58.4721 36.1477 58.641 36.0148C58.8102 35.8796 59.0051 35.7848 59.2258 35.7303C59.4469 35.6735 59.686 35.6665 59.9433 35.7095C60.1561 35.7451 60.3465 35.8142 60.5145 35.9167C60.6852 36.0174 60.8247 36.1465 60.933 36.304C61.0441 36.4596 61.1204 36.643 61.1621 36.8544C61.2041 37.0633 61.204 37.2941 61.1618 37.5467C61.1454 37.6449 61.1239 37.7087 61.0974 37.7379C61.0709 37.7671 61.0284 37.7768 60.9699 37.7671L58.5948 37.3703C58.5643 37.596 58.5621 37.7963 58.5881 37.9714C58.6165 38.1468 58.6705 38.2989 58.7499 38.4275C58.8298 38.5539 58.9329 38.6565 59.0592 38.7352C59.1858 38.8117 59.3334 38.864 59.5017 38.8921C59.6585 38.9183 59.7959 38.9232 59.914 38.9069C60.0348 38.8886 60.1397 38.8653 60.2286 38.8369C60.3175 38.8084 60.3918 38.7812 60.4514 38.7551C60.5138 38.727 60.5649 38.7163 60.6046 38.723C60.6561 38.7316 60.6925 38.7581 60.714 38.8026L60.8513 39.0599ZM64.3385 37.9296C64.3627 37.7846 64.3637 37.6489 64.3416 37.5226C64.3221 37.3943 64.2799 37.2803 64.2148 37.1805C64.1525 37.0787 64.0691 36.995 63.9646 36.9295C63.8606 36.8616 63.7372 36.8158 63.5945 36.7919C63.2952 36.7419 63.0431 36.79 62.8384 36.9361C62.6364 37.0802 62.4886 37.3032 62.3949 37.6049L64.3385 37.9296ZM64.5653 39.6804C64.4724 39.761 64.3664 39.8275 64.2471 39.8797C64.1282 39.9295 64.003 39.9663 63.8716 39.99C63.7426 40.0141 63.6108 40.0258 63.4763 40.025C63.3414 40.0265 63.2097 40.0165 63.081 39.995C62.8355 39.954 62.6154 39.8751 62.421 39.7585C62.2292 39.6399 62.0706 39.4884 61.9452 39.304C61.8224 39.1176 61.7387 38.8992 61.694 38.6489C61.6492 38.3986 61.6525 38.1203 61.7037 37.8139C61.7451 37.566 61.8212 37.3407 61.932 37.138C62.0451 36.9358 62.1861 36.7682 62.3549 36.6353C62.5242 36.5001 62.7191 36.4053 62.9398 36.3508C63.1608 36.294 63.4 36.287 63.6573 36.33C63.8701 36.3656 64.0605 36.4346 64.2285 36.5372C64.3992 36.6379 64.5387 36.767 64.647 36.9245C64.7581 37.0801 64.8344 37.2635 64.876 37.4748C64.9181 37.6838 64.918 37.9146 64.8758 38.1672C64.8594 38.2654 64.8379 38.3291 64.8114 38.3584C64.7848 38.3876 64.7424 38.3973 64.6839 38.3876L62.3088 37.9908C62.2783 38.2165 62.2761 38.4168 62.3021 38.5919C62.3305 38.7673 62.3845 38.9194 62.4639 39.048C62.5438 39.1744 62.6469 39.2769 62.7731 39.3557C62.8998 39.4322 63.0473 39.4845 63.2157 39.5126C63.3724 39.5388 63.5098 39.5437 63.628 39.5274C63.7488 39.5091 63.8537 39.4858 63.9426 39.4573C64.0315 39.4289 64.1058 39.4017 64.1654 39.3756C64.2278 39.3475 64.2789 39.3368 64.3186 39.3435C64.3701 39.3521 64.4065 39.3786 64.4279 39.423L64.5653 39.6804ZM70.542 36.8311C70.5151 36.8627 70.4872 36.8857 70.4583 36.9001C70.4322 36.9125 70.4016 36.9158 70.3665 36.91C70.3268 36.9033 70.2833 36.8756 70.2362 36.8269C70.189 36.7781 70.1284 36.7235 70.0544 36.6631C69.9831 36.6007 69.8934 36.54 69.7855 36.4811C69.6798 36.4226 69.5463 36.3799 69.385 36.3529C69.2329 36.3275 69.0949 36.3261 68.971 36.3487C68.8497 36.3693 68.7435 36.408 68.6522 36.4649C68.5633 36.5222 68.491 36.5954 68.4352 36.6847C68.3798 36.7716 68.3429 36.87 68.3246 36.9799C68.3011 37.1203 68.3155 37.2429 68.3677 37.3478C68.4226 37.4507 68.5008 37.5443 68.6021 37.6285C68.7057 37.7132 68.8248 37.792 68.9593 37.8649C69.0965 37.9359 69.2356 38.0096 69.3767 38.0861C69.5201 38.163 69.6577 38.246 69.7894 38.3354C69.9239 38.4227 70.039 38.5249 70.1349 38.6419C70.2331 38.7593 70.3042 38.895 70.3482 39.049C70.3945 39.2034 70.4003 39.3846 70.3655 39.5928C70.3288 39.8127 70.2568 40.0134 70.1495 40.195C70.0426 40.3743 69.9047 40.5231 69.7359 40.6416C69.5694 40.7604 69.3741 40.8432 69.1499 40.8899C68.928 40.937 68.6838 40.9382 68.4172 40.8937C68.0898 40.839 67.8025 40.7309 67.5554 40.5694C67.3087 40.4056 67.1074 40.2073 66.9516 39.9745L67.202 39.6845C67.225 39.6619 67.2507 39.6446 67.2792 39.6325C67.3104 39.6185 67.3423 39.6142 67.3751 39.6197C67.4055 39.6248 67.4373 39.6433 67.4704 39.6753C67.5062 39.7053 67.5456 39.7432 67.5885 39.7888C67.6313 39.8344 67.6806 39.8847 67.7363 39.9397C67.7921 39.9947 67.8566 40.0475 67.9298 40.0982C68.0054 40.1493 68.0925 40.1963 68.1912 40.2393C68.2902 40.2798 68.404 40.3109 68.5326 40.3324C68.694 40.3593 68.8415 40.3611 68.9753 40.3378C69.109 40.3145 69.2258 40.2703 69.3256 40.2052C69.4281 40.1382 69.5122 40.0525 69.5777 39.948C69.6432 39.8436 69.6875 39.7224 69.7106 39.5844C69.736 39.4323 69.7216 39.3025 69.6675 39.1949C69.616 39.0853 69.5397 38.9884 69.4384 38.9042C69.337 38.8199 69.2176 38.7435 69.08 38.6748C68.9428 38.6038 68.8033 38.5324 68.6614 38.4607C68.5199 38.3865 68.3819 38.3058 68.2475 38.2184C68.113 38.131 67.9981 38.0277 67.9026 37.9084C67.8071 37.789 67.7368 37.6487 67.6917 37.4873C67.6493 37.3239 67.6466 37.1311 67.6837 36.9089C67.7134 36.7312 67.776 36.5649 67.8716 36.4102C67.9695 36.2559 68.0947 36.1253 68.2472 36.0186C68.402 35.9122 68.5817 35.8365 68.7864 35.7913C68.9934 35.7466 69.2221 35.7451 69.4723 35.7869C69.753 35.8338 70.0005 35.9208 70.2148 36.048C70.4315 36.1756 70.6135 36.3382 70.7608 36.5359L70.542 36.8311ZM71.7592 41.3943L71.0786 41.2806L71.9185 36.2533L72.5991 36.367L71.7592 41.3943ZM76.0337 40.19L75.5861 38.0128C75.5729 37.9481 75.56 37.8738 75.5476 37.79C75.5355 37.7038 75.5254 37.6132 75.5173 37.5181C75.4365 37.6993 75.3599 37.8488 75.2873 37.9665L74.1568 39.8764L76.0337 40.19ZM77.1393 42.2932L76.613 42.2052C76.5522 42.1951 76.5056 42.1717 76.4733 42.135C76.441 42.0984 76.4193 42.0551 76.4084 42.0052L76.1411 40.7128L73.8853 40.3359L73.2124 41.4712C73.1914 41.511 73.1582 41.5439 73.113 41.57C73.0677 41.5961 73.0159 41.6043 72.9574 41.5945L72.4312 41.5066L75.2813 36.8151L75.9689 36.93L77.1393 42.2932ZM79.6961 40.2321C79.8902 40.2645 80.0652 40.2673 80.2212 40.2405C80.3794 40.214 80.5165 40.1636 80.6323 40.0892C80.7508 40.0128 80.8466 39.9146 80.9195 39.7946C80.9925 39.6745 81.0418 39.5373 81.0676 39.383C81.1211 39.0625 81.0636 38.7957 80.8948 38.5824C80.7285 38.3695 80.4441 38.2294 80.0419 38.1622L79.235 38.0274L78.8892 40.0973L79.6961 40.2321ZM80.1315 37.6254C80.4496 37.6786 80.7193 37.7621 80.9407 37.876C81.1648 37.988 81.3427 38.1247 81.4744 38.2861C81.6061 38.4476 81.6934 38.6304 81.7362 38.8347C81.7813 39.0394 81.7842 39.2599 81.7447 39.4961C81.7056 39.73 81.629 39.9371 81.5147 40.1176C81.4004 40.298 81.252 40.4451 81.0695 40.5589C80.8894 40.673 80.6757 40.7503 80.4285 40.7908C80.1841 40.8293 79.9098 40.8231 79.6058 40.7723L78.7989 40.6375L78.4847 42.5179L77.8076 42.4048L78.6475 37.3775L80.1315 37.6254ZM85.465 41.0192C85.6615 41.052 85.8384 41.0575 85.9959 41.0357C86.1562 41.012 86.2938 40.9653 86.4088 40.8956C86.5266 40.8239 86.6213 40.7315 86.6931 40.6185C86.7649 40.5055 86.8131 40.3753 86.8377 40.2279C86.8877 39.9286 86.8272 39.6865 86.6561 39.5016C86.4851 39.3168 86.2031 39.1915 85.8101 39.1259L85.0664 39.0016L84.7493 40.8996L85.465 41.0192ZM87.3543 43.9998L86.7509 43.899C86.6269 43.8782 86.5437 43.8151 86.5013 43.7094L85.4963 41.6951C85.4659 41.6324 85.4293 41.5854 85.3864 41.5542C85.3463 41.521 85.2783 41.4964 85.1824 41.4804L84.6667 41.3943L84.3162 43.4922L83.6391 43.3791L84.479 38.3517L85.8998 38.5891C86.2179 38.6423 86.4872 38.7209 86.7078 38.8251C86.9288 38.9269 87.104 39.0511 87.2334 39.1978C87.3651 39.3448 87.4527 39.5109 87.4963 39.6961C87.5403 39.8789 87.5445 40.0768 87.509 40.2896C87.4793 40.4674 87.4235 40.6287 87.3415 40.7737C87.2596 40.9187 87.1545 41.0442 87.0262 41.1502C86.9006 41.2542 86.7535 41.3366 86.5846 41.3973C86.4182 41.4585 86.2341 41.4951 86.0326 41.5071C86.1109 41.5706 86.1738 41.6545 86.2214 41.7586L87.3543 43.9998ZM90.4119 42.2856C90.4361 42.1406 90.4371 42.0049 90.415 41.8786C90.3955 41.7503 90.3533 41.6363 90.2882 41.5365C90.2259 41.4347 90.1425 41.351 90.038 41.2855C89.934 41.2176 89.8106 41.1718 89.6679 41.148C89.3686 41.0979 89.1165 41.146 88.9118 41.2921C88.7098 41.4362 88.562 41.6592 88.4683 41.9609L90.4119 42.2856ZM90.6387 44.0364C90.5458 44.1171 90.4398 44.1835 90.3205 44.2357C90.2016 44.2855 90.0764 44.3223 89.945 44.346C89.816 44.3702 89.6842 44.3818 89.5497 44.381C89.4148 44.3825 89.2831 44.3725 89.1544 44.351C88.9089 44.31 88.6888 44.2311 88.4944 44.1145C88.3026 43.9959 88.144 43.8444 88.0186 43.66C87.8958 43.4736 87.8121 43.2552 87.7674 43.005C87.7226 42.7547 87.7259 42.4763 87.7771 42.1699C87.8185 41.922 87.8946 41.6967 88.0054 41.4941C88.1185 41.2918 88.2595 41.1242 88.4283 40.9913C88.5976 40.8561 88.7925 40.7613 89.0132 40.7068C89.2342 40.65 89.4734 40.643 89.7307 40.686C89.9435 40.7216 90.1339 40.7907 90.3019 40.8932C90.4726 40.9939 90.6121 41.123 90.7204 41.2805C90.8315 41.4361 90.9078 41.6195 90.9494 41.8309C90.9915 42.0398 90.9914 42.2706 90.9492 42.5232C90.9328 42.6214 90.9113 42.6852 90.8848 42.7144C90.8582 42.7436 90.8158 42.7533 90.7573 42.7436L88.3822 42.3468C88.3517 42.5725 88.3495 42.7728 88.3755 42.9479C88.4039 43.1233 88.4578 43.2754 88.5373 43.404C88.6172 43.5304 88.7203 43.633 88.8465 43.7117C88.9732 43.7882 89.1207 43.8405 89.2891 43.8686C89.4458 43.8948 89.5832 43.8997 89.7014 43.8834C89.8222 43.8651 89.9271 43.8418 90.016 43.8134C90.1049 43.7849 90.1792 43.7577 90.2388 43.7316C90.3012 43.7035 90.3523 43.6928 90.392 43.6995C90.4435 43.7081 90.4799 43.7346 90.5013 43.7791L90.6387 44.0364ZM92.877 39.6105L92.3688 42.6522L92.5302 42.6791C92.5769 42.687 92.6165 42.6876 92.6489 42.6809C92.684 42.6724 92.7224 42.6511 92.7641 42.6172L94.0878 41.6015C94.1272 41.5672 94.1662 41.5424 94.2048 41.5273C94.2461 41.5101 94.2972 41.5066 94.358 41.5168L94.9228 41.6112L93.3815 42.7853C93.3051 42.8543 93.2269 42.9049 93.147 42.9373C93.1844 42.9724 93.2163 43.0113 93.2428 43.0542C93.2721 43.0952 93.298 43.1416 93.3205 43.1934L94.4168 45.1797L93.8589 45.0865C93.8052 45.0775 93.7597 45.0615 93.7227 45.0385C93.6884 45.0135 93.6612 44.9753 93.6409 44.9238L92.7159 43.2727C92.689 43.2178 92.6592 43.1803 92.6265 43.1604C92.5965 43.1386 92.5464 43.1218 92.4762 43.1101L92.2973 43.0802L92.0136 44.7782L91.3856 44.6733L92.249 39.5056L92.877 39.6105ZM96.447 40.207L95.9389 43.2486L96.1003 43.2756C96.147 43.2834 96.1866 43.284 96.219 43.2774C96.2541 43.2688 96.2925 43.2476 96.3342 43.2137L97.6579 42.1979C97.6972 42.1636 97.7362 42.1389 97.7748 42.1237C97.8162 42.1066 97.8672 42.1031 97.928 42.1132L98.4929 42.2076L96.9516 43.3818C96.8752 43.4507 96.797 43.5014 96.7171 43.5337C96.7545 43.5688 96.7864 43.6078 96.8129 43.6507C96.8421 43.6916 96.868 43.738 96.8906 43.7899L97.9868 45.7761L97.429 45.6829C97.3752 45.6739 97.3298 45.6579 97.2928 45.6349C97.2585 45.61 97.2312 45.5717 97.211 45.5203L96.286 43.8692C96.2591 43.8142 96.2293 43.7768 96.1966 43.7569C96.1665 43.735 96.1165 43.7182 96.0463 43.7065L95.8674 43.6766L95.5837 45.3746L94.9557 45.2697L95.8191 40.1021L96.447 40.207ZM98.485 45.4627C98.4952 45.4019 98.5153 45.3463 98.5453 45.296C98.5777 45.2461 98.6159 45.2045 98.66 45.1709C98.7064 45.1378 98.7584 45.1141 98.8161 45.0997C98.8738 45.0853 98.9331 45.0831 98.9939 45.0933C99.0547 45.1035 99.1101 45.1247 99.1599 45.1571C99.2098 45.1895 99.2513 45.2289 99.2845 45.2753C99.3176 45.3217 99.3413 45.3737 99.3557 45.4314C99.3701 45.4891 99.3723 45.5484 99.3621 45.6092C99.3515 45.6723 99.3301 45.7289 99.2977 45.7787C99.2657 45.8263 99.2265 45.8666 99.1801 45.8997C99.1337 45.9329 99.0819 45.9554 99.0246 45.9675C98.9669 45.9819 98.9076 45.984 98.8468 45.9739C98.786 45.9637 98.7306 45.9424 98.6807 45.9101C98.6305 45.88 98.5888 45.8418 98.5557 45.7954C98.5249 45.7494 98.5021 45.6987 98.4873 45.6434C98.4752 45.586 98.4745 45.5258 98.485 45.4627ZM100.15 45.7409C100.16 45.6801 100.181 45.6245 100.211 45.5742C100.243 45.5244 100.281 45.4827 100.325 45.4491C100.372 45.416 100.424 45.3923 100.481 45.3779C100.539 45.3635 100.598 45.3613 100.659 45.3715C100.72 45.3817 100.775 45.4029 100.825 45.4353C100.875 45.4677 100.917 45.5071 100.95 45.5535C100.983 45.5999 101.007 45.6519 101.021 45.7096C101.035 45.7673 101.037 45.8266 101.027 45.8874C101.017 45.9505 100.995 46.0071 100.963 46.0569C100.931 46.1045 100.892 46.1448 100.845 46.1779C100.799 46.2111 100.747 46.2337 100.69 46.2457C100.632 46.2601 100.573 46.2622 100.512 46.2521C100.451 46.2419 100.396 46.2207 100.346 46.1883C100.296 46.1582 100.254 46.12 100.221 46.0736C100.19 46.0276 100.167 45.9769 100.153 45.9216C100.14 45.8642 100.14 45.804 100.15 45.7409ZM101.815 46.0191C101.826 45.9583 101.846 45.9027 101.876 45.8524C101.908 45.8026 101.946 45.7609 101.99 45.7274C102.037 45.6942 102.089 45.6705 102.147 45.6561C102.204 45.6417 102.264 45.6395 102.324 45.6497C102.385 45.6599 102.44 45.6811 102.49 45.7135C102.54 45.7459 102.582 45.7853 102.615 45.8317C102.648 45.8781 102.672 45.9301 102.686 45.9878C102.701 46.0455 102.703 46.1048 102.693 46.1656C102.682 46.2287 102.661 46.2853 102.628 46.3352C102.596 46.3827 102.557 46.423 102.511 46.4561C102.464 46.4893 102.412 46.5119 102.355 46.5239C102.297 46.5383 102.238 46.5404 102.177 46.5303C102.116 46.5201 102.061 46.4989 102.011 46.4665C101.961 46.4364 101.919 46.3982 101.886 46.3518C101.855 46.3058 101.833 46.2551 101.818 46.1998C101.806 46.1424 101.805 46.0822 101.815 46.0191Z" fill="#7D7D7D"/>
</g>
<defs>
<filter id="filter0_d_1193_12083" x="0.711055" y="1.90039" width="199.846" height="75.3171" filterUnits="userSpaceOnUse" color-interpolation-filters="sRGB">
<feFlood flood-opacity="0" result="BackgroundImageFix"/>
<feColorMatrix in="SourceAlpha" type="matrix" values="0 0 0 0 0 0 0 0 0 0 0 0 0 0 0 0 0 0 127 0" result="hardAlpha"/>
<feOffset dy="2.18885"/>
<feGaussianBlur stdDeviation="1.09442"/>
<feComposite in2="hardAlpha" operator="out"/>
<feColorMatrix type="matrix" values="0 0 0 0 0 0 0 0 0 0 0 0 0 0 0 0 0 0 0.25 0"/>
<feBlend mode="normal" in2="BackgroundImageFix" result="effect1_dropShadow_1193_12083"/>
<feBlend mode="normal" in="SourceGraphic" in2="effect1_dropShadow_1193_12083" result="shape"/>
</filter>
<clipPath id="clip0_1193_12083">
<rect width="19.1524" height="19.1524" fill="white" transform="translate(19.7229 13.5889) rotate(9.48466)"/>
</clipPath>
</defs>
</svg>
