<svg width="201" height="73" viewBox="0 0 201 73" fill="none" xmlns="http://www.w3.org/2000/svg">
<g filter="url(#filter0_d_1193_12074)">
<rect x="7.04272" width="194.807" height="43.2297" rx="12.5859" transform="rotate(8.03525 7.04272 0)" fill="white" fill-opacity="0.94"/>
<rect x="7.04272" width="194.807" height="43.2297" rx="12.5859" transform="rotate(8.03525 7.04272 0)" fill="white" fill-opacity="0.94"/>
<rect x="13.7871" y="7.03125" width="30.0967" height="30.6439" rx="7.66097" transform="rotate(8.03525 13.7871 7.03125)" fill="#F88C3D"/>
<g clip-path="url(#clip0_1193_12074)">
<path d="M32.8894 28.9555L20.2465 27.1707L21.5851 17.6885L29.5659 18.8152C29.5462 18.4981 29.5475 17.918 29.789 17.2348L21.8082 16.1082C20.939 15.9854 20.1274 16.5962 20.0047 17.4654L17.9969 31.6887L21.6038 28.9742L32.6663 30.5359C33.5355 30.6586 34.3471 30.0478 34.4698 29.1786L35.476 22.0511C34.9686 22.3341 34.3944 22.519 33.793 22.555L32.8894 28.9555Z" fill="white"/>
<path d="M33.2147 20.9421C34.524 21.1269 35.7351 20.2154 35.9199 18.9062C36.1048 17.597 35.1933 16.3858 33.884 16.201C32.5748 16.0162 31.3637 16.9277 31.1788 18.2369C30.994 19.5461 31.9055 20.7573 33.2147 20.9421Z" fill="white"/>
<path d="M28.5945 25.1255L22.2731 24.2331L22.05 25.8134L28.3714 26.7058L28.5945 25.1255Z" fill="white"/>
<path d="M32.0899 23.2011L22.6077 21.8625L22.3846 23.4429L31.8668 24.7815L32.0899 23.2011Z" fill="white"/>
<path d="M22.7193 21.0723L32.2015 22.4109L32.2126 22.3319C31.2844 21.9994 30.5407 21.3303 30.0777 20.4993L22.9424 19.492L22.7193 21.0723Z" fill="white"/>
</g>
<path d="M54.7558 20.6484L53.2202 20.4316L52.6112 24.746L51.6638 24.6123L52.2728 20.2979L50.7372 20.0811L50.8471 19.3028L54.8657 19.8701L54.7558 20.6484ZM56.0602 21.5474L55.5501 25.1609L54.6766 25.0376L55.1867 21.4241L56.0602 21.5474ZM56.3286 20.5112C56.318 20.5864 56.2928 20.6546 56.253 20.7161C56.2132 20.7775 56.164 20.8292 56.1053 20.8713C56.0491 20.9136 55.9847 20.9452 55.9123 20.9661C55.8403 20.9847 55.7655 20.9885 55.688 20.9776C55.6129 20.967 55.5433 20.9428 55.4791 20.905C55.4177 20.8652 55.3658 20.8171 55.3235 20.7609C55.2811 20.7046 55.2493 20.6414 55.2281 20.5714C55.2092 20.5017 55.205 20.4292 55.2157 20.3541C55.2266 20.2766 55.251 20.2058 55.2887 20.1417C55.3289 20.0779 55.3771 20.0249 55.4333 19.9825C55.4896 19.9402 55.5526 19.9096 55.6223 19.8907C55.6947 19.8698 55.7685 19.8646 55.8436 19.8752C55.9211 19.8861 55.9918 19.9117 56.0555 19.9518C56.1196 19.9896 56.1729 20.0366 56.2152 20.0929C56.2599 20.1495 56.2927 20.214 56.3136 20.2864C56.3345 20.3588 56.3395 20.4337 56.3286 20.5112ZM58.5707 24.014C58.3178 23.9902 58.1033 23.9827 57.9273 23.9914C57.7515 23.9977 57.6086 24.0182 57.4983 24.053C57.388 24.0877 57.3059 24.1348 57.252 24.1942C57.1981 24.2537 57.1657 24.3221 57.1548 24.3996C57.1332 24.5522 57.1624 24.6677 57.2424 24.746C57.3247 24.8247 57.4386 24.8743 57.5842 24.8949C57.7626 24.9201 57.9209 24.9101 58.059 24.8649C58.1998 24.8177 58.3416 24.7372 58.4846 24.6233L58.5707 24.014ZM56.7985 22.1653C57.2678 21.8436 57.7947 21.724 58.3794 21.8065C58.5907 21.8364 58.7747 21.8983 58.9315 21.9922C59.0886 22.0839 59.2159 22.2 59.3134 22.3407C59.4112 22.479 59.4773 22.638 59.5118 22.8177C59.5487 22.9978 59.5527 23.1899 59.5239 23.3942L59.2017 25.6764L58.8072 25.6207C58.725 25.6091 58.6633 25.5884 58.622 25.5587C58.581 25.5265 58.5529 25.4711 58.5377 25.3923L58.497 25.1207C58.3939 25.19 58.2944 25.2502 58.1985 25.3013C58.103 25.3501 58.0054 25.389 57.9055 25.418C57.8056 25.447 57.7002 25.4644 57.5892 25.4703C57.4802 25.4789 57.3611 25.4741 57.232 25.4558C57.0794 25.4343 56.9413 25.3944 56.8178 25.3363C56.6946 25.2758 56.5919 25.1978 56.5096 25.1024C56.4273 25.007 56.3689 24.8945 56.3345 24.7652C56.3001 24.6358 56.2943 24.4901 56.3171 24.3281C56.3301 24.2365 56.3581 24.1482 56.4012 24.0633C56.4447 23.9761 56.5062 23.8962 56.5859 23.8236C56.668 23.7514 56.7693 23.6866 56.8899 23.6294C57.0106 23.5722 57.1545 23.5279 57.3218 23.4964C57.4914 23.4653 57.6854 23.4484 57.9037 23.4457C58.1224 23.4406 58.3695 23.4539 58.6452 23.4857L58.6751 23.2744C58.7092 23.0325 58.6827 22.8468 58.5957 22.7171C58.5089 22.5852 58.3681 22.5054 58.1732 22.4779C58.0324 22.458 57.9126 22.4579 57.8141 22.4775C57.7179 22.4974 57.6316 22.5236 57.5552 22.5559C57.4791 22.5859 57.4094 22.6131 57.346 22.6377C57.2851 22.6626 57.2193 22.6701 57.1489 22.6602C57.0878 22.6516 57.0383 22.629 57.0004 22.5925C56.9628 22.5537 56.934 22.5113 56.9142 22.4654L56.7985 22.1653ZM61.2703 22.9223C61.4134 22.7222 61.5711 22.572 61.7433 22.4718C61.9159 22.3692 62.1078 22.3329 62.3191 22.3627C62.4858 22.3862 62.6145 22.4415 62.7052 22.5286L62.5569 23.1722C62.5392 23.2128 62.5173 23.2408 62.4911 23.2563C62.4677 23.2697 62.4372 23.2738 62.3996 23.2685C62.3644 23.2635 62.3124 23.2502 62.2436 23.2285C62.1772 23.2072 62.1111 23.1919 62.0453 23.1826C61.9491 23.169 61.8614 23.171 61.7823 23.1885C61.7032 23.2061 61.6293 23.2376 61.5606 23.283C61.4946 23.3263 61.4328 23.3823 61.3753 23.4508C61.32 23.5196 61.2657 23.5994 61.2122 23.69L60.8979 25.9159L60.028 25.7931L60.5381 22.1795L61.0488 22.2516C61.138 22.2642 61.1979 22.2894 61.2285 22.3273C61.2594 22.3628 61.275 22.4224 61.2751 22.5063L61.2703 22.9223ZM64.7413 24.8851C64.4884 24.8613 64.2739 24.8538 64.0979 24.8625C63.9222 24.8688 63.7792 24.8893 63.6689 24.9241C63.5586 24.9588 63.4766 25.0059 63.4227 25.0653C63.3688 25.1248 63.3364 25.1932 63.3254 25.2707C63.3039 25.4233 63.3331 25.5388 63.413 25.6171C63.4953 25.6958 63.6092 25.7454 63.7548 25.766C63.9333 25.7912 64.0915 25.7812 64.2296 25.736C64.3704 25.6888 64.5123 25.6083 64.6553 25.4944L64.7413 24.8851ZM62.9691 23.0364C63.4384 22.7147 63.9654 22.5951 64.55 22.6776C64.7613 22.7075 64.9454 22.7694 65.1021 22.8633C65.2592 22.955 65.3865 23.0711 65.484 23.2118C65.5818 23.3501 65.648 23.5091 65.6825 23.6888C65.7193 23.8689 65.7233 24.061 65.6945 24.2653L65.3723 26.5475L64.9779 26.4918C64.8957 26.4802 64.8339 26.4595 64.7926 26.4298C64.7517 26.3976 64.7236 26.3422 64.7084 26.2634L64.6677 25.9918C64.5645 26.0611 64.465 26.1213 64.3692 26.1724C64.2737 26.2212 64.176 26.2601 64.0761 26.2891C63.9762 26.3181 63.8708 26.3355 63.7598 26.3414C63.6508 26.35 63.5318 26.3452 63.4026 26.3269C63.25 26.3054 63.112 26.2655 62.9884 26.2074C62.8653 26.1469 62.7625 26.0689 62.6802 25.9735C62.5979 25.8781 62.5395 25.7656 62.5051 25.6363C62.4707 25.5069 62.4649 25.3612 62.4878 25.1992C62.5007 25.1076 62.5287 25.0193 62.5719 24.9344C62.6153 24.8472 62.6769 24.7673 62.7566 24.6947C62.8386 24.6225 62.9399 24.5577 63.0606 24.5005C63.1812 24.4433 63.3252 24.399 63.4924 24.3675C63.6621 24.3364 63.856 24.3195 64.0744 24.3167C64.293 24.3117 64.5402 24.325 64.8159 24.3568L64.8457 24.1455C64.8798 23.9036 64.8534 23.7179 64.7663 23.5882C64.6796 23.4563 64.5388 23.3765 64.3439 23.349C64.203 23.3291 64.0833 23.329 63.9847 23.3486C63.8885 23.3685 63.8022 23.3947 63.7258 23.427C63.6497 23.457 63.58 23.4842 63.5167 23.5088C63.4557 23.5337 63.39 23.5412 63.3195 23.5313C63.2585 23.5227 63.209 23.5001 63.171 23.4636C63.1334 23.4248 63.1047 23.3824 63.0848 23.3365L62.9691 23.0364ZM72.8771 22.4127L70.1014 27.2151L69.2455 27.0943L67.9076 21.7112L68.6684 21.8186C68.7506 21.8302 68.8147 21.8596 68.8607 21.9068C68.9067 21.954 68.9382 22.0111 68.955 22.0781L69.7175 25.3541C69.7432 25.4607 69.765 25.5775 69.783 25.7046C69.8036 25.8296 69.8211 25.9602 69.8354 26.0963C69.8822 25.9688 69.9304 25.8475 69.9802 25.7324C70.0303 25.6149 70.0824 25.5086 70.1366 25.4132L71.7691 22.4754C71.7955 22.4241 71.8388 22.3799 71.8991 22.3429C71.9618 22.3062 72.033 22.2935 72.1129 22.3048L72.8771 22.4127ZM74.1451 26.2126C73.8922 26.1889 73.6778 26.1813 73.5017 26.19C73.326 26.1963 73.183 26.2169 73.0728 26.2516C72.9625 26.2863 72.8804 26.3334 72.8265 26.3928C72.7726 26.4523 72.7402 26.5207 72.7293 26.5982C72.7077 26.7509 72.7369 26.8663 72.8169 26.9447C72.8992 27.0233 73.0131 27.0729 73.1587 27.0935C73.3371 27.1187 73.4954 27.1087 73.6335 27.0635C73.7742 27.0164 73.9161 26.9358 74.0591 26.8219L74.1451 26.2126ZM72.373 24.3639C72.8422 24.0422 73.3692 23.9226 73.9539 24.0052C74.1652 24.035 74.3492 24.0969 74.506 24.1909C74.6631 24.2825 74.7904 24.3986 74.8878 24.5393C74.9857 24.6777 75.0518 24.8367 75.0863 25.0164C75.1232 25.1964 75.1272 25.3885 75.0983 25.5928L74.7762 27.875L74.3817 27.8193C74.2995 27.8077 74.2378 27.7871 74.1965 27.7573C74.1555 27.7251 74.1274 27.6697 74.1122 27.5909L74.0715 27.3194C73.9683 27.3886 73.8688 27.4488 73.773 27.4999C73.6775 27.5487 73.5798 27.5876 73.48 27.6166C73.3801 27.6456 73.2746 27.6631 73.1636 27.6689C73.0547 27.6775 72.9356 27.6727 72.8065 27.6544C72.6539 27.6329 72.5158 27.5931 72.3923 27.5349C72.2691 27.4744 72.1664 27.3964 72.0841 27.301C72.0017 27.2056 71.9434 27.0932 71.909 26.9638C71.8745 26.8344 71.8688 26.6887 71.8916 26.5267C71.9046 26.4351 71.9326 26.3469 71.9757 26.262C72.0191 26.1747 72.0807 26.0948 72.1604 26.0222C72.2425 25.95 72.3438 25.8853 72.4644 25.828C72.585 25.7708 72.729 25.7265 72.8963 25.695C73.0659 25.6639 73.2599 25.647 73.4782 25.6443C73.6968 25.6392 73.944 25.6526 74.2197 25.6843L74.2495 25.473C74.2837 25.2311 74.2572 25.0454 74.1702 24.9158C74.0834 24.7838 73.9426 24.704 73.7477 24.6765C73.6068 24.6566 73.4871 24.6565 73.3886 24.6761C73.2924 24.6961 73.206 24.7222 73.1296 24.7545C73.0536 24.7845 72.9839 24.8118 72.9205 24.8363C72.8595 24.8613 72.7938 24.8687 72.7234 24.8588C72.6623 24.8502 72.6128 24.8276 72.5749 24.7911C72.5373 24.7523 72.5085 24.7099 72.4886 24.664L72.373 24.3639ZM76.8635 24.9368C76.9466 24.8743 77.0324 24.8181 77.1208 24.7683C77.2119 24.7165 77.3051 24.6758 77.4003 24.6461C77.4982 24.6145 77.6004 24.5942 77.707 24.5853C77.814 24.574 77.9285 24.577 78.0506 24.5943C78.2478 24.6221 78.418 24.6808 78.561 24.7705C78.7043 24.8578 78.8178 24.9696 78.9016 25.1059C78.988 25.2403 79.0451 25.3956 79.0728 25.5719C79.1033 25.7463 79.1043 25.9344 79.0758 26.1363L78.7511 28.4362L77.8812 28.3134L78.2059 26.0135C78.237 25.7928 78.2106 25.6155 78.1265 25.4815C78.0428 25.3451 77.8976 25.2624 77.691 25.2332C77.5407 25.212 77.395 25.2261 77.2539 25.2757C77.1128 25.3252 76.9753 25.4004 76.8413 25.5012L76.4724 28.1145L75.6025 27.9917L76.1126 24.3782L76.6444 24.4532C76.7571 24.4691 76.8236 24.5324 76.8439 24.643L76.8635 24.9368ZM80.9972 25.0677L80.4871 28.6812L79.6137 28.5579L80.1238 24.9444L80.9972 25.0677ZM81.2656 24.0315C81.255 24.1067 81.2298 24.175 81.19 24.2364C81.1502 24.2978 81.101 24.3496 81.0424 24.3916C80.9861 24.4339 80.9218 24.4655 80.8494 24.4865C80.7773 24.505 80.7026 24.5088 80.6251 24.4979C80.5499 24.4873 80.4803 24.4631 80.4162 24.4253C80.3548 24.3855 80.3029 24.3375 80.2605 24.2812C80.2182 24.2249 80.1864 24.1618 80.1651 24.0917C80.1462 24.022 80.1421 23.9496 80.1527 23.8744C80.1636 23.797 80.188 23.7262 80.2258 23.662C80.2659 23.5983 80.3141 23.5452 80.3704 23.5028C80.4267 23.4605 80.4897 23.4299 80.5594 23.411C80.6318 23.3901 80.7056 23.3849 80.7807 23.3955C80.8582 23.4065 80.9288 23.432 80.9926 23.4721C81.0567 23.5099 81.1099 23.557 81.1523 23.6132C81.197 23.6698 81.2298 23.7343 81.2507 23.8067C81.2716 23.8791 81.2766 23.9541 81.2656 24.0315ZM85.2511 26.771C85.4248 26.7955 85.5792 26.7958 85.7144 26.7717C85.8498 26.7454 85.9654 26.6982 86.0612 26.6303C86.1597 26.5604 86.2382 26.4709 86.2967 26.3618C86.3555 26.2504 86.395 26.1231 86.4153 25.9798C86.4345 25.8437 86.4307 25.7174 86.4041 25.6011C86.3774 25.4848 86.3272 25.3819 86.2537 25.2925C86.1801 25.2031 86.0815 25.1293 85.958 25.0711C85.8348 25.0106 85.6852 24.968 85.5091 24.9431L84.8012 24.8432L84.5432 26.6711L85.2511 26.771ZM85.6125 24.2105C85.953 24.2586 86.242 24.3401 86.4796 24.4551C86.7172 24.57 86.907 24.7106 87.0487 24.8767C87.1905 25.0428 87.2861 25.2311 87.3354 25.4416C87.387 25.6524 87.3961 25.8764 87.3627 26.1136C87.3279 26.3601 87.2548 26.5809 87.1434 26.7759C87.0324 26.9686 86.8843 27.1273 86.6991 27.252C86.5138 27.3767 86.2909 27.4626 86.0305 27.5097C85.7723 27.557 85.4777 27.5573 85.1467 27.5106L84.4387 27.4107L84.1857 29.2034L83.2383 29.0696L83.9572 23.9769L85.6125 24.2105ZM86.7496 29.0768C86.7599 29.004 86.7826 28.9365 86.8177 28.8744C86.8551 28.8127 86.9006 28.7616 86.9542 28.7213C87.0078 28.681 87.0695 28.6514 87.1392 28.6325C87.2089 28.6136 87.2813 28.6094 87.3565 28.62C87.4316 28.6306 87.4989 28.6545 87.5583 28.6916C87.6201 28.7291 87.6711 28.7746 87.7115 28.8282C87.7541 28.8821 87.7849 28.9439 87.8038 29.0137C87.8227 29.0834 87.827 29.1546 87.8167 29.2274C87.8061 29.3025 87.7821 29.371 87.7446 29.4328C87.7075 29.4922 87.661 29.5419 87.6051 29.5819C87.5515 29.6222 87.49 29.6507 87.4206 29.6672C87.3532 29.6864 87.282 29.6907 87.2068 29.6801C87.1317 29.6695 87.0632 29.6455 87.0015 29.608C86.9394 29.5729 86.8882 29.5286 86.8478 29.475C86.8075 29.4214 86.7777 29.3609 86.7585 29.2936C86.742 29.2242 86.739 29.1519 86.7496 29.0768ZM93.6369 25.3433L92.918 30.4361L91.9671 30.3018L92.2813 28.076L89.8899 27.7384L89.5756 29.9642L88.6247 29.83L89.3437 24.7373L90.2946 24.8715L89.9853 27.0622L92.3767 27.3997L92.686 25.2091L93.6369 25.3433ZM93.8626 30.0809C93.8729 30.0081 93.8956 29.9407 93.9307 29.8786C93.9682 29.8168 94.0137 29.7658 94.0673 29.7254C94.1209 29.6851 94.1825 29.6555 94.2522 29.6366C94.322 29.6177 94.3944 29.6136 94.4695 29.6242C94.5447 29.6348 94.6119 29.6586 94.6713 29.6958C94.7331 29.7332 94.7842 29.7787 94.8245 29.8323C94.8672 29.8862 94.898 29.9481 94.9168 30.0178C94.9357 30.0875 94.9401 30.1588 94.9298 30.2315C94.9192 30.3067 94.8951 30.3751 94.8577 30.4369C94.8206 30.4963 94.774 30.546 94.7181 30.586C94.6645 30.6264 94.603 30.6548 94.5336 30.6713C94.4663 30.6906 94.395 30.6949 94.3199 30.6843C94.2447 30.6737 94.1763 30.6496 94.1145 30.6122C94.0524 30.5771 94.0012 30.5327 93.9609 30.4791C93.9205 30.4255 93.8908 30.3651 93.8715 30.2977C93.855 30.2283 93.852 30.156 93.8626 30.0809Z" fill="black"/>
<path d="M49.6437 36.6567L48.9605 36.5602L49.6729 31.5133L50.3562 31.6097L49.6437 36.6567ZM54.2931 33.6742L51.6509 38.0141C51.6231 38.0581 51.5908 38.0918 51.554 38.1154C51.5195 38.1392 51.4693 38.1465 51.4036 38.1372L50.9387 38.0716L51.7901 36.7478L50.7923 33.18L51.3346 33.2566C51.3887 33.2642 51.4289 33.2842 51.4555 33.3167C51.4847 33.3472 51.5029 33.3797 51.51 33.4142L52.1472 35.796C52.1709 35.8999 52.188 36.0077 52.1985 36.1193C52.247 36.0136 52.297 35.9141 52.3485 35.8208L53.5914 33.7081C53.6108 33.6725 53.6386 33.6453 53.6748 33.6264C53.7137 33.6056 53.7542 33.5981 53.7965 33.6041L54.2931 33.6742ZM56.4418 35.9784C56.1517 35.947 55.9018 35.9357 55.6922 35.9444C55.4853 35.9511 55.3132 35.9747 55.1758 36.0152C55.0407 36.056 54.9382 36.1121 54.8682 36.1837C54.8006 36.2556 54.7598 36.3408 54.7459 36.4394C54.7326 36.5333 54.7364 36.6165 54.7574 36.6889C54.7783 36.7613 54.8114 36.8234 54.8568 36.8753C54.9048 36.9252 54.9625 36.9657 55.03 36.9968C55.1001 37.0258 55.1763 37.0462 55.2585 37.0578C55.3688 37.0734 55.4713 37.077 55.5658 37.0688C55.6607 37.0583 55.7511 37.0375 55.8369 37.0065C55.925 36.9759 56.0096 36.9363 56.0907 36.8879C56.1741 36.8398 56.2563 36.7832 56.3374 36.718L56.4418 35.9784ZM54.6225 34.2344C54.8466 34.072 55.0791 33.96 55.3201 33.8982C55.5612 33.8364 55.8202 33.8251 56.0972 33.8642C56.2968 33.8924 56.4695 33.9503 56.6151 34.0379C56.7608 34.1255 56.8782 34.2355 56.9673 34.3678C57.0564 34.5001 57.1162 34.6535 57.1466 34.8278C57.1771 35.0021 57.1783 35.1891 57.1501 35.3886L56.8279 37.6709L56.5497 37.6316C56.4886 37.623 56.443 37.607 56.4128 37.5835C56.3829 37.5578 56.3627 37.5142 56.3522 37.4529L56.3295 37.1048C56.2233 37.1784 56.1208 37.243 56.0219 37.2985C55.9234 37.3516 55.8216 37.3947 55.7163 37.4277C55.6114 37.4584 55.501 37.4776 55.3849 37.4851C55.2709 37.4954 55.1458 37.4909 55.0097 37.4717C54.8711 37.4521 54.7435 37.4149 54.6267 37.3601C54.5102 37.303 54.4117 37.2292 54.331 37.1388C54.2528 37.0487 54.1949 36.9412 54.1575 36.8161C54.1227 36.6891 54.1168 36.5446 54.1396 36.3826C54.1595 36.2417 54.2173 36.1122 54.313 35.994C54.4091 35.8734 54.5511 35.7749 54.7391 35.6985C54.9271 35.622 55.1653 35.5718 55.4537 35.5479C55.7423 35.5216 56.0905 35.5324 56.498 35.5804L56.5373 35.3021C56.5764 35.0251 56.546 34.8077 56.4461 34.6499C56.3466 34.4897 56.1818 34.3934 55.9517 34.361C55.7967 34.3391 55.6636 34.3406 55.5523 34.3656C55.4437 34.3886 55.3472 34.4193 55.2627 34.4577C55.181 34.494 55.1091 34.5282 55.0471 34.5601C54.9878 34.5901 54.9311 34.6012 54.8771 34.5936C54.8349 34.5877 54.8 34.5719 54.7724 34.5465C54.7452 34.5187 54.7234 34.4869 54.7069 34.451L54.6225 34.2344ZM60.6214 35.0956C60.7112 35.0197 60.8045 34.9526 60.9013 34.8944C60.9981 34.8363 61.0981 34.7893 61.2014 34.7536C61.3073 34.7159 61.416 34.6917 61.5277 34.6811C61.642 34.6685 61.7626 34.6712 61.8894 34.6891C62.0843 34.7166 62.251 34.7737 62.3897 34.8603C62.531 34.9449 62.6425 35.054 62.7242 35.1877C62.8086 35.3194 62.8649 35.4722 62.893 35.6462C62.9211 35.8202 62.9209 36.0081 62.8924 36.2101L62.5717 38.4817L61.9413 38.3927L62.262 36.1211C62.3001 35.851 62.2674 35.6333 62.1638 35.4678C62.0629 35.3003 61.8869 35.1988 61.6356 35.1633C61.4501 35.1372 61.2701 35.1572 61.0955 35.2236C60.9232 35.2903 60.7582 35.3903 60.6005 35.5237L60.2296 38.1511L59.5992 38.0621L60.1028 34.4944L60.4797 34.5476C60.5689 34.5601 60.618 34.6114 60.6268 34.7012L60.6214 35.0956ZM65.6943 37.2845C65.4042 37.2531 65.1543 37.2418 64.9448 37.2505C64.7379 37.2573 64.5657 37.2809 64.4283 37.3213C64.2932 37.3621 64.1907 37.4183 64.1207 37.4898C64.0531 37.5617 64.0123 37.647 63.9984 37.7456C63.9851 37.8395 63.989 37.9227 64.0099 37.9951C64.0308 38.0675 64.0639 38.1296 64.1093 38.1815C64.1573 38.2314 64.2151 38.2719 64.2825 38.303C64.3526 38.332 64.4288 38.3523 64.511 38.3639C64.6213 38.3795 64.7238 38.3832 64.8183 38.375C64.9132 38.3644 65.0036 38.3437 65.0894 38.3127C65.1775 38.282 65.2621 38.2425 65.3432 38.1941C65.4266 38.146 65.5089 38.0893 65.5899 38.0241L65.6943 37.2845ZM63.875 35.5405C64.0991 35.3782 64.3316 35.2661 64.5727 35.2044C64.8137 35.1426 65.0727 35.1313 65.3498 35.1704C65.5493 35.1986 65.722 35.2565 65.8677 35.3441C66.0133 35.4317 66.1307 35.5417 66.2198 35.674C66.3089 35.8063 66.3687 35.9596 66.3991 36.1339C66.4296 36.3083 66.4308 36.4952 66.4026 36.6948L66.0804 38.977L65.8022 38.9378C65.7411 38.9291 65.6955 38.9131 65.6653 38.8897C65.6354 38.8639 65.6152 38.8204 65.6047 38.759L65.582 38.411C65.4758 38.4846 65.3733 38.5491 65.2745 38.6046C65.176 38.6578 65.0741 38.7009 64.9688 38.7339C64.8639 38.7646 64.7535 38.7837 64.6374 38.7913C64.5234 38.8015 64.3984 38.7971 64.2622 38.7778C64.1236 38.7583 63.996 38.7211 63.8792 38.6663C63.7627 38.6091 63.6642 38.5354 63.5835 38.445C63.5053 38.3549 63.4474 38.2473 63.41 38.1223C63.3752 37.9953 63.3693 37.8507 63.3922 37.6887C63.412 37.5479 63.4698 37.4183 63.5656 37.3001C63.6616 37.1796 63.8036 37.0811 63.9916 37.0046C64.1796 36.9282 64.4178 36.878 64.7062 36.8541C64.9949 36.8278 65.343 36.8386 65.7505 36.8865L65.7898 36.6083C65.8289 36.3312 65.7985 36.1138 65.6986 35.956C65.5991 35.7959 65.4343 35.6996 65.2042 35.6671C65.0492 35.6452 64.9161 35.6468 64.8048 35.6718C64.6962 35.6948 64.5997 35.7255 64.5152 35.7638C64.4335 35.8002 64.3616 35.8343 64.2996 35.8663C64.2403 35.8962 64.1836 35.9074 64.1296 35.8998C64.0874 35.8938 64.0525 35.8781 64.0249 35.8527C63.9977 35.8249 63.9759 35.7931 63.9594 35.7572L63.875 35.5405ZM68.0647 36.1464C68.1544 36.0704 68.2477 36.0034 68.3445 35.9452C68.4413 35.887 68.5413 35.8401 68.6446 35.8043C68.7505 35.7666 68.8593 35.7425 68.9709 35.7319C69.0852 35.7193 69.2058 35.7219 69.3326 35.7398C69.5275 35.7673 69.6942 35.8244 69.8329 35.911C69.9742 35.9956 70.0857 36.1048 70.1674 36.2384C70.2518 36.3701 70.3081 36.5229 70.3362 36.6969C70.3643 36.8709 70.3641 37.0589 70.3356 37.2608L70.0149 39.5325L69.3845 39.4435L69.7052 37.1718C69.7433 36.9018 69.7106 36.684 69.607 36.5186C69.5061 36.351 69.3301 36.2496 69.0789 36.2141C68.8934 36.1879 68.7133 36.208 68.5387 36.2743C68.3665 36.341 68.2015 36.4411 68.0437 36.5745L67.6728 39.2018L67.0424 39.1128L67.5461 35.5451L67.9229 35.5983C68.0121 35.6109 68.0612 35.6621 68.07 35.752L68.0647 36.1464ZM74.2397 40.1289L73.6128 40.0404L74.0424 36.9974L72.2039 36.7379L71.9017 38.8792C71.8804 39.0295 71.9011 39.1462 71.9636 39.2292C72.0261 39.3123 72.1149 39.3619 72.2299 39.3782C72.2957 39.3875 72.3532 39.3872 72.4025 39.3774C72.4544 39.3656 72.4995 39.3516 72.5377 39.3354C72.5759 39.3193 72.6079 39.3046 72.6337 39.2915C72.6622 39.2764 72.6858 39.2701 72.7046 39.2728C72.7375 39.2774 72.764 39.3015 72.7842 39.3451L72.9251 39.6703C72.8028 39.756 72.6613 39.8174 72.5003 39.8546C72.3398 39.8894 72.1785 39.8954 72.0165 39.8725C71.7347 39.8327 71.5286 39.7234 71.3982 39.5445C71.2702 39.366 71.227 39.1288 71.2688 38.833L71.577 36.6494L71.1474 36.5887C71.1098 36.5834 71.0796 36.5684 71.0567 36.5436C71.0342 36.5165 71.0263 36.4794 71.0329 36.4325L71.0682 36.1824L71.6638 36.1875L71.9633 35.109C71.9753 35.0748 71.9946 35.0487 72.021 35.0309C72.0502 35.0111 72.0847 35.004 72.1246 35.0096L72.4416 35.0544L72.2681 36.2835L74.7334 36.6316L74.2397 40.1289ZM75.0599 35.4384C75.0513 35.4994 75.0303 35.5551 74.9968 35.6055C74.9661 35.6538 74.9267 35.695 74.8788 35.7289C74.8333 35.7632 74.7819 35.7883 74.7245 35.8041C74.6672 35.82 74.608 35.8236 74.547 35.815C74.4859 35.8064 74.4301 35.7865 74.3794 35.7554C74.331 35.7246 74.2897 35.6865 74.2555 35.6409C74.2212 35.5954 74.1959 35.5451 74.1797 35.4901C74.1639 35.4328 74.1603 35.3736 74.1689 35.3126C74.1775 35.2515 74.1974 35.1957 74.2285 35.145C74.2599 35.0919 74.2984 35.0483 74.3439 35.014C74.3898 34.9774 74.4403 34.951 74.4952 34.9348C74.5525 34.9189 74.6117 34.9153 74.6728 34.9239C74.7338 34.9325 74.7897 34.9524 74.8404 34.9835C74.8911 35.0146 74.9334 35.0541 74.9673 35.102C75.004 35.1479 75.03 35.2007 75.0456 35.2603C75.0638 35.318 75.0686 35.3773 75.0599 35.4384ZM79.2463 39.1976C78.9561 39.1662 78.7063 39.1549 78.4967 39.1636C78.2898 39.1704 78.1176 39.194 77.9802 39.2344C77.8451 39.2752 77.7426 39.3314 77.6726 39.4029C77.605 39.4748 77.5643 39.5601 77.5503 39.6587C77.5371 39.7526 77.5409 39.8358 77.5618 39.9082C77.5827 39.9806 77.6159 40.0427 77.6612 40.0946C77.7093 40.1445 77.767 40.185 77.8345 40.2161C77.9046 40.2451 77.9807 40.2654 78.0629 40.277C78.1733 40.2926 78.2757 40.2963 78.3703 40.2881C78.4652 40.2776 78.5555 40.2568 78.6413 40.2258C78.7295 40.1951 78.8141 40.1556 78.8951 40.1072C78.9786 40.0591 79.0608 40.0024 79.1418 39.9372L79.2463 39.1976ZM77.427 37.4536C77.651 37.2913 77.8836 37.1792 78.1246 37.1175C78.3656 37.0557 78.6246 37.0444 78.9017 37.0835C79.1013 37.1117 79.2739 37.1696 79.4196 37.2572C79.5653 37.3448 79.6827 37.4548 79.7718 37.5871C79.8608 37.7194 79.9206 37.8727 79.9511 38.0471C79.9816 38.2214 79.9827 38.4083 79.9545 38.6079L79.6324 40.8901L79.3541 40.8509C79.2931 40.8422 79.2474 40.8262 79.2172 40.8028C79.1873 40.777 79.1671 40.7335 79.1566 40.6721L79.1339 40.3241C79.0277 40.3977 78.9252 40.4622 78.8264 40.5177C78.7279 40.5709 78.626 40.614 78.5208 40.647C78.4159 40.6777 78.3054 40.6968 78.1894 40.7044C78.0754 40.7147 77.9503 40.7102 77.8141 40.6909C77.6756 40.6714 77.5479 40.6342 77.4311 40.5794C77.3147 40.5222 77.2161 40.4485 77.1355 40.3581C77.0572 40.268 76.9993 40.1604 76.9619 40.0354C76.9272 39.9084 76.9212 39.7638 76.9441 39.6018C76.964 39.461 77.0218 39.3314 77.1175 39.2132C77.2135 39.0927 77.3556 38.9942 77.5436 38.9177C77.7316 38.8413 77.9698 38.7911 78.2581 38.7672C78.5468 38.7409 78.8949 38.7517 79.3024 38.7996L79.3417 38.5214C79.3808 38.2443 79.3504 38.0269 79.2506 37.8691C79.1511 37.709 78.9862 37.6127 78.7561 37.5802C78.6012 37.5583 78.4681 37.5599 78.3568 37.5849C78.2481 37.6079 78.1516 37.6386 78.0672 37.6769C77.9854 37.7133 77.9135 37.7474 77.8515 37.7794C77.7922 37.8093 77.7356 37.8205 77.6816 37.8129C77.6393 37.8069 77.6044 37.7912 77.5769 37.7658C77.5497 37.738 77.5278 37.7062 77.5113 37.6703L77.427 37.4536ZM81.9571 35.9271L81.5261 38.9806L81.6881 39.0035C81.735 39.0101 81.7746 39.0097 81.8068 39.0023C81.8417 38.9929 81.8795 38.9707 81.9204 38.9357L83.2179 37.8868C83.2564 37.8515 83.2948 37.8258 83.333 37.8096C83.3739 37.7915 83.4248 37.7867 83.4859 37.7953L84.0529 37.8753L82.5418 39.0881C82.4672 39.159 82.3903 39.2116 82.3112 39.2459C82.3495 39.2801 82.3824 39.3183 82.41 39.3605C82.4402 39.4007 82.4673 39.4464 82.4912 39.4977L83.6373 41.4555L83.0773 41.3765C83.0233 41.3688 82.9775 41.354 82.9399 41.3319C82.905 41.3078 82.8768 41.2703 82.8552 41.2194L81.8888 39.5922C81.8605 39.5379 81.8298 39.5013 81.7965 39.4822C81.766 39.4611 81.7155 39.4456 81.645 39.4357L81.4654 39.4103L81.2248 41.1149L80.5943 41.0259L81.3267 35.8381L81.9571 35.9271ZM87.6158 38.3783L87.1122 41.9461L86.7388 41.8934C86.6496 41.8808 86.5994 41.8294 86.5882 41.7392L86.5931 41.3483C86.4139 41.4978 86.2206 41.6119 86.0131 41.6903C85.806 41.7665 85.578 41.787 85.3291 41.7518C85.1343 41.7243 84.9662 41.6683 84.8248 41.5836C84.6862 41.497 84.5747 41.3879 84.4903 41.2562C84.4059 41.1246 84.3496 40.9718 84.3215 40.7978C84.2958 40.6241 84.2971 40.4363 84.3256 40.2344L84.6468 37.9592L85.2737 38.0477L84.9525 40.3229C84.9144 40.5929 84.946 40.8105 85.0472 40.9756C85.1507 41.1411 85.3293 41.2418 85.5829 41.2776C85.7684 41.3037 85.9471 41.2847 86.119 41.2203C86.2936 41.154 86.4599 41.0529 86.618 40.9172L86.9889 38.2898L87.6158 38.3783ZM91.2853 37.2439L90.8542 40.2975L91.0163 40.3203C91.0632 40.327 91.1028 40.3266 91.135 40.3191C91.1698 40.3097 91.2077 40.2875 91.2485 40.2526L92.5461 39.2036C92.5846 39.1684 92.623 39.1426 92.6612 39.1265C92.702 39.1083 92.753 39.1035 92.8141 39.1121L93.3811 39.1922L91.87 40.405C91.7954 40.4758 91.7185 40.5284 91.6394 40.5628C91.6777 40.5969 91.7106 40.6351 91.7382 40.6773C91.7684 40.7175 91.7955 40.7632 91.8194 40.8145L92.9655 42.7724L92.4055 42.6933C92.3515 42.6857 92.3057 42.6708 92.2681 42.6488C92.2332 42.6247 92.205 42.5872 92.1834 42.5362L91.2169 40.9091C91.1887 40.8548 91.1579 40.8181 91.1247 40.799C91.0941 40.778 91.0436 40.7625 90.9732 40.7525L90.7936 40.7272L90.553 42.4318L89.9225 42.3428L90.6549 37.1549L91.2853 37.2439ZM96.0017 40.9846C96.0223 40.8391 96.0199 40.7034 95.9945 40.5777C95.9718 40.45 95.9267 40.337 95.8591 40.2389C95.7943 40.1387 95.7088 40.0572 95.6027 39.9943C95.497 39.9291 95.3725 39.8864 95.2292 39.8662C94.9287 39.8238 94.678 39.8782 94.477 40.0294C94.2787 40.1786 94.1366 40.4052 94.0506 40.7092L96.0017 40.9846ZM96.2727 42.7292C96.182 42.8121 96.0776 42.8812 95.9597 42.9364C95.8421 42.9893 95.7179 43.0292 95.5871 43.0562C95.4588 43.0836 95.3273 43.0986 95.1928 43.1012C95.058 43.1061 94.9261 43.0994 94.7969 43.0812C94.5504 43.0464 94.3285 42.9731 94.1311 42.8615C93.9364 42.7478 93.774 42.6003 93.6439 42.4191C93.5165 42.2359 93.4273 42.0197 93.3763 41.7707C93.3252 41.5216 93.3214 41.2433 93.3648 40.9357C93.3999 40.6868 93.4703 40.4596 93.576 40.2542C93.6839 40.0492 93.8206 39.8781 93.9861 39.741C94.1518 39.6015 94.3443 39.5018 94.5636 39.4417C94.7831 39.3793 95.022 39.3664 95.2803 39.4028C95.494 39.433 95.686 39.4972 95.8566 39.5955C96.0298 39.6918 96.1725 39.8173 96.2848 39.9721C96.3997 40.1248 96.4806 40.3063 96.5276 40.5165C96.5749 40.7243 96.5806 40.955 96.5449 41.2086C96.5309 41.3072 96.5111 41.3714 96.4853 41.4013C96.4595 41.4312 96.4173 41.442 96.3586 41.4337L93.9742 41.0971C93.9495 41.3235 93.9523 41.5239 93.9828 41.6982C94.0156 41.8729 94.0734 42.0235 94.1561 42.1502C94.2391 42.2744 94.3447 42.3744 94.473 42.4499C94.6015 42.5232 94.7503 42.5717 94.9194 42.5956C95.0767 42.6178 95.2142 42.6192 95.3319 42.5999C95.4522 42.5786 95.5565 42.5526 95.6446 42.5219C95.7328 42.4913 95.8063 42.4621 95.8653 42.4346C95.9269 42.4049 95.9777 42.393 96.0176 42.3986C96.0693 42.4059 96.1064 42.4315 96.1289 42.4754L96.2727 42.7292ZM98.0335 40.5782C98.1807 40.3499 98.346 40.1793 98.5296 40.0663C98.7135 39.9509 98.9241 39.91 99.1612 39.9435C99.2363 39.9541 99.3068 39.9724 99.3726 39.9985C99.4407 40.0249 99.4993 40.0595 99.5483 40.1023L99.4364 40.5643C99.414 40.621 99.3746 40.6454 99.3183 40.6374C99.2854 40.6328 99.2383 40.6189 99.1769 40.5959C99.1155 40.5729 99.0449 40.5557 98.965 40.5444C98.8523 40.5285 98.749 40.5307 98.6552 40.551C98.5637 40.5716 98.478 40.6098 98.3983 40.6656C98.3213 40.7194 98.2478 40.7904 98.1778 40.8787C98.1106 40.965 98.046 41.0661 97.9842 41.1819L97.666 43.4359L97.0356 43.3469L97.5392 39.7792L97.8984 39.8299C97.9665 39.8395 98.0117 39.859 98.0339 39.8885C98.056 39.918 98.0673 39.9651 98.0678 40.0298L98.0335 40.5782ZM100.774 40.2359L100.233 44.0677C100.213 44.211 100.176 44.341 100.121 44.4578C100.066 44.5769 99.9904 44.6765 99.8953 44.7564C99.8002 44.8364 99.6845 44.8931 99.548 44.9265C99.4136 44.9626 99.2572 44.9681 99.0787 44.9429C99.0036 44.9323 98.9352 44.9166 98.8734 44.896C98.8117 44.8753 98.7508 44.8487 98.6907 44.8163L98.7631 44.4816C98.7708 44.4612 98.7813 44.4459 98.7947 44.4358C98.8054 44.4278 98.8203 44.4239 98.8395 44.4242C98.8586 44.4245 98.8834 44.4268 98.9139 44.4311C98.9418 44.4374 98.978 44.4437 99.0226 44.45C99.2057 44.4759 99.3422 44.4508 99.4319 44.3749C99.5213 44.3013 99.5795 44.1694 99.6063 43.9792L100.147 40.1474L100.774 40.2359ZM101.063 39.1343C101.054 39.1953 101.033 39.251 100.999 39.3014C100.969 39.3497 100.929 39.392 100.881 39.4283C100.835 39.4626 100.784 39.4877 100.727 39.5035C100.669 39.5194 100.61 39.523 100.549 39.5144C100.488 39.5058 100.432 39.4859 100.382 39.4548C100.333 39.424 100.292 39.3859 100.258 39.3403C100.224 39.2924 100.199 39.241 100.182 39.186C100.167 39.1287 100.163 39.0695 100.172 39.0085C100.18 38.9474 100.2 38.8916 100.231 38.8409C100.263 38.7878 100.301 38.7442 100.347 38.7099C100.392 38.6733 100.443 38.6469 100.498 38.6307C100.555 38.6148 100.614 38.6112 100.675 38.6198C100.736 38.6284 100.792 38.6483 100.843 38.6794C100.894 38.7105 100.936 38.75 100.97 38.7979C101.007 38.8438 101.033 38.8966 101.048 38.9562C101.066 39.0139 101.071 39.0732 101.063 39.1343ZM103.468 42.6169C103.178 42.5856 102.928 42.5742 102.718 42.583C102.511 42.5897 102.339 42.6133 102.202 42.6538C102.067 42.6946 101.964 42.7507 101.894 42.8223C101.827 42.8941 101.786 42.9794 101.772 43.078C101.759 43.1719 101.763 43.2551 101.783 43.3275C101.804 43.3999 101.838 43.462 101.883 43.5139C101.931 43.5638 101.989 43.6043 102.056 43.6354C102.126 43.6644 102.202 43.6848 102.285 43.6964C102.395 43.712 102.497 43.7156 102.592 43.7074C102.687 43.6969 102.777 43.6761 102.863 43.6451C102.951 43.6145 103.036 43.5749 103.117 43.5265C103.2 43.4784 103.282 43.4218 103.363 43.3566L103.468 42.6169ZM101.649 40.873C101.873 40.7106 102.105 40.5986 102.346 40.5368C102.587 40.475 102.846 40.4637 103.123 40.5028C103.323 40.531 103.496 40.5889 103.641 40.6765C103.787 40.7641 103.904 40.8741 103.993 41.0064C104.082 41.1387 104.142 41.2921 104.173 41.4664C104.203 41.6407 104.204 41.8277 104.176 42.0272L103.854 44.3095L103.576 44.2702C103.515 44.2616 103.469 44.2456 103.439 44.2221C103.409 44.1964 103.389 44.1528 103.378 44.0914L103.356 43.7434C103.249 43.817 103.147 43.8816 103.048 43.9371C102.95 43.9902 102.848 44.0333 102.742 44.0663C102.638 44.097 102.527 44.1162 102.411 44.1237C102.297 44.134 102.172 44.1295 102.036 44.1103C101.897 44.0907 101.77 44.0535 101.653 43.9987C101.536 43.9416 101.438 43.8678 101.357 43.7774C101.279 43.6873 101.221 43.5798 101.184 43.4547C101.149 43.3277 101.143 43.1832 101.166 43.0212C101.186 42.8803 101.243 42.7507 101.339 42.6325C101.435 42.512 101.577 42.4135 101.765 42.3371C101.953 42.2606 102.191 42.2104 102.48 42.1865C102.768 42.1602 103.117 42.171 103.524 42.219L103.563 41.9407C103.602 41.6637 103.572 41.4463 103.472 41.2885C103.373 41.1283 103.208 41.032 102.978 40.9995C102.823 40.9777 102.69 40.9792 102.578 41.0042C102.47 41.0272 102.373 41.0579 102.289 41.0963C102.207 41.1326 102.135 41.1668 102.073 41.1987C102.014 41.2287 101.957 41.2398 101.903 41.2322C101.861 41.2262 101.826 41.2105 101.799 41.1851C101.771 41.1573 101.749 41.1255 101.733 41.0896L101.649 40.873ZM105.982 40.971L105.478 44.5387L104.851 44.4502L105.355 40.8825L105.982 40.971ZM106.274 39.8699C106.265 39.931 106.244 39.9867 106.211 40.037C106.18 40.0854 106.14 40.1277 106.092 40.164C106.047 40.1983 105.994 40.2232 105.934 40.2387C105.877 40.2545 105.818 40.2582 105.757 40.2495C105.696 40.2409 105.64 40.2211 105.589 40.19C105.541 40.1592 105.499 40.121 105.465 40.0755C105.431 40.0276 105.406 39.9761 105.39 39.9212C105.374 39.8639 105.371 39.8047 105.379 39.7436C105.388 39.6826 105.408 39.6267 105.439 39.576C105.47 39.523 105.509 39.4793 105.554 39.445C105.6 39.4084 105.651 39.382 105.705 39.3658C105.763 39.35 105.822 39.3463 105.883 39.355C105.944 39.3636 106 39.3834 106.051 39.4145C106.104 39.446 106.147 39.4857 106.181 39.5335C106.218 39.5794 106.244 39.6322 106.259 39.6919C106.278 39.7495 106.282 39.8089 106.274 39.8699ZM107.537 41.7187C107.627 41.6427 107.721 41.5757 107.817 41.5175C107.914 41.4593 108.014 41.4124 108.117 41.3767C108.223 41.3389 108.332 41.3148 108.444 41.3042C108.558 41.2916 108.679 41.2942 108.805 41.3121C109 41.3397 109.167 41.3967 109.306 41.4833C109.447 41.568 109.559 41.6771 109.64 41.8108C109.725 41.9424 109.781 42.0952 109.809 42.2692C109.837 42.4432 109.837 42.6312 109.808 42.8331L109.488 45.1048L108.857 45.0158L109.178 42.7441C109.216 42.4741 109.183 42.2564 109.08 42.0909C108.979 41.9234 108.803 41.8219 108.552 41.7864C108.366 41.7602 108.186 41.7803 108.012 41.8467C107.839 41.9133 107.674 42.0134 107.517 42.1468L107.146 44.7742L106.515 44.6852L107.019 41.1174L107.396 41.1706C107.485 41.1832 107.534 41.2344 107.543 41.3243L107.537 41.7187ZM110.291 46.0875C110.275 46.0684 110.264 46.0513 110.259 46.0362C110.254 46.0211 110.253 46.003 110.256 45.9819C110.258 45.9655 110.265 45.9497 110.277 45.9346C110.291 45.9198 110.306 45.9064 110.322 45.8943C110.349 45.8718 110.383 45.8418 110.424 45.8046C110.468 45.7676 110.513 45.7224 110.558 45.669C110.604 45.618 110.647 45.5594 110.687 45.4933C110.73 45.4298 110.764 45.3603 110.789 45.2848C110.781 45.2862 110.773 45.2862 110.764 45.2849C110.756 45.2839 110.749 45.2829 110.742 45.2819C110.62 45.2647 110.526 45.2107 110.46 45.1199C110.396 45.0271 110.374 44.9173 110.391 44.7905C110.407 44.6802 110.458 44.5916 110.544 44.5247C110.632 44.4581 110.74 44.4338 110.867 44.4517C110.937 44.4617 110.998 44.4833 111.048 44.5168C111.098 44.5503 111.138 44.5929 111.166 44.6449C111.198 44.6948 111.218 44.7516 111.229 44.8153C111.239 44.8766 111.239 44.9425 111.229 45.013C111.214 45.1186 111.184 45.2268 111.137 45.3376C111.093 45.4463 111.034 45.5517 110.959 45.6538C110.887 45.7585 110.802 45.8579 110.705 45.952C110.608 46.046 110.501 46.1302 110.382 46.2045L110.291 46.0875ZM117.265 42.5639L114.623 46.9038C114.595 46.9478 114.563 46.9815 114.526 47.005C114.492 47.0289 114.442 47.0362 114.376 47.0269L113.911 46.9613L114.762 45.6374L113.764 42.0697L114.307 42.1462C114.361 42.1539 114.401 42.1739 114.428 42.2064C114.457 42.2369 114.475 42.2694 114.482 42.3039L115.119 44.6856C115.143 44.7896 115.16 44.8974 115.171 45.009C115.219 44.9033 115.269 44.8038 115.321 44.7105L116.564 42.5977C116.583 42.5622 116.611 42.5349 116.647 42.5161C116.686 42.4953 116.726 42.4878 116.769 42.4938L117.265 42.5639ZM119.414 44.868C119.124 44.8367 118.874 44.8253 118.664 44.8341C118.458 44.8408 118.285 44.8644 118.148 44.9048C118.013 44.9456 117.91 45.0018 117.84 45.0734C117.773 45.1452 117.732 45.2305 117.718 45.3291C117.705 45.423 117.709 45.5062 117.73 45.5786C117.75 45.651 117.784 45.7131 117.829 45.765C117.877 45.8149 117.935 45.8554 118.002 45.8865C118.072 45.9155 118.149 45.9359 118.231 45.9475C118.341 45.963 118.443 45.9667 118.538 45.9585C118.633 45.948 118.723 45.9272 118.809 45.8962C118.897 45.8655 118.982 45.826 119.063 45.7776C119.146 45.7295 119.229 45.6728 119.31 45.6076L119.414 44.868ZM117.595 43.1241C117.819 42.9617 118.051 42.8497 118.292 42.7879C118.533 42.7261 118.792 42.7148 119.069 42.7539C119.269 42.7821 119.442 42.84 119.587 42.9276C119.733 43.0152 119.85 43.1252 119.94 43.2575C120.029 43.3898 120.088 43.5431 120.119 43.7175C120.149 43.8918 120.15 44.0788 120.122 44.2783L119.8 46.5606L119.522 46.5213C119.461 46.5127 119.415 46.4966 119.385 46.4732C119.355 46.4474 119.335 46.4039 119.324 46.3425L119.302 45.9945C119.196 46.0681 119.093 46.1327 118.994 46.1881C118.896 46.2413 118.794 46.2844 118.689 46.3174C118.584 46.3481 118.473 46.3672 118.357 46.3748C118.243 46.3851 118.118 46.3806 117.982 46.3614C117.843 46.3418 117.716 46.3046 117.599 46.2498C117.482 46.1927 117.384 46.1189 117.303 46.0285C117.225 45.9384 117.167 45.8308 117.13 45.7058C117.095 45.5788 117.089 45.4343 117.112 45.2722C117.132 45.1314 117.19 45.0018 117.285 44.8836C117.381 44.7631 117.523 44.6646 117.711 44.5882C117.899 44.5117 118.138 44.4615 118.426 44.4376C118.715 44.4113 119.063 44.4221 119.47 44.4701L119.509 44.1918C119.549 43.9148 119.518 43.6973 119.418 43.5396C119.319 43.3794 119.154 43.2831 118.924 43.2506C118.769 43.2288 118.636 43.2303 118.525 43.2553C118.416 43.2783 118.319 43.309 118.235 43.3473C118.153 43.3837 118.081 43.4179 118.019 43.4498C117.96 43.4798 117.903 43.4909 117.849 43.4833C117.807 43.4773 117.772 43.4616 117.745 43.4362C117.717 43.4084 117.696 43.3766 117.679 43.3407L117.595 43.1241ZM121.784 43.7299C121.874 43.6539 121.967 43.5869 122.064 43.5287C122.161 43.4705 122.261 43.4236 122.364 43.3879C122.47 43.3501 122.579 43.326 122.691 43.3154C122.805 43.3028 122.926 43.3054 123.052 43.3233C123.247 43.3509 123.414 43.4079 123.553 43.4946C123.694 43.5792 123.805 43.6883 123.887 43.822C123.972 43.9536 124.028 44.1064 124.056 44.2804C124.084 44.4544 124.084 44.6424 124.055 44.8443L123.735 47.116L123.104 47.027L123.425 44.7553C123.463 44.4853 123.43 44.2676 123.327 44.1021C123.226 43.9346 123.05 43.8331 122.799 43.7976C122.613 43.7714 122.433 43.7915 122.258 43.8579C122.086 43.9245 121.921 44.0246 121.763 44.158L121.393 46.7854L120.762 46.6964L121.266 43.1286L121.643 43.1818C121.732 43.1944 121.781 43.2456 121.79 43.3355L121.784 43.7299ZM126.186 45.684C126.313 45.7019 126.427 45.7 126.528 45.6784C126.63 45.6567 126.718 45.6189 126.792 45.5648C126.867 45.5106 126.927 45.4425 126.972 45.3602C127.017 45.2757 127.048 45.1805 127.063 45.0749C127.093 44.8565 127.051 44.6733 126.935 44.5253C126.822 44.3776 126.64 44.286 126.389 44.2505C126.135 44.2147 125.932 44.252 125.78 44.3622C125.63 44.4728 125.54 44.6373 125.509 44.8556C125.494 44.9613 125.497 45.061 125.517 45.1549C125.54 45.2467 125.58 45.329 125.637 45.4017C125.694 45.4744 125.768 45.5351 125.859 45.5839C125.95 45.6327 126.06 45.6661 126.186 45.684ZM127.043 47.7806C127.056 47.6938 127.041 47.6199 126.999 47.5589C126.958 47.4979 126.897 47.4462 126.816 47.4038C126.739 47.3616 126.645 47.3269 126.537 47.2996C126.428 47.2699 126.312 47.2428 126.189 47.2182C126.068 47.1939 125.944 47.1693 125.819 47.1443C125.693 47.1194 125.572 47.0904 125.457 47.0574C125.317 47.0999 125.198 47.1621 125.1 47.2441C125.005 47.3241 124.949 47.4263 124.931 47.5507C124.92 47.6306 124.93 47.7074 124.96 47.7811C124.992 47.8575 125.047 47.9263 125.125 47.9875C125.202 48.0511 125.302 48.106 125.425 48.152C125.55 48.2008 125.699 48.2374 125.873 48.262C126.042 48.2858 126.195 48.2919 126.333 48.2803C126.472 48.2687 126.59 48.2412 126.69 48.1977C126.792 48.1546 126.873 48.0978 126.933 48.0273C126.993 47.9568 127.03 47.8746 127.043 47.7806ZM128.192 44.2501L128.159 44.4825C128.148 44.56 128.092 44.6023 127.99 44.6096L127.578 44.6052C127.636 44.7714 127.652 44.9485 127.625 45.1363C127.601 45.3101 127.544 45.4638 127.456 45.5974C127.37 45.729 127.262 45.837 127.13 45.9213C126.998 46.0057 126.846 46.0633 126.674 46.0941C126.502 46.1249 126.32 46.1267 126.128 46.0996C125.961 46.076 125.806 46.0339 125.664 45.9731C125.582 46.0094 125.518 46.0518 125.47 46.1002C125.423 46.1462 125.396 46.1962 125.388 46.2502C125.376 46.3347 125.401 46.4041 125.463 46.4583C125.527 46.5105 125.614 46.554 125.725 46.5887C125.835 46.6234 125.961 46.6532 126.103 46.6781C126.248 46.7033 126.395 46.7324 126.544 46.7654C126.695 46.7963 126.84 46.8348 126.98 46.8809C127.122 46.9272 127.245 46.9877 127.35 47.0623C127.454 47.1369 127.533 47.2307 127.586 47.3436C127.642 47.4569 127.659 47.5957 127.635 47.7601C127.614 47.9127 127.554 48.0551 127.457 48.1874C127.361 48.32 127.234 48.4314 127.075 48.5215C126.916 48.614 126.727 48.6784 126.509 48.7146C126.293 48.7536 126.055 48.7546 125.794 48.7178C125.533 48.681 125.309 48.6231 125.122 48.5439C124.934 48.4647 124.782 48.3726 124.665 48.2675C124.548 48.1624 124.465 48.0477 124.415 47.9233C124.368 47.8017 124.353 47.6786 124.37 47.5542C124.395 47.3781 124.472 47.2368 124.599 47.1303C124.727 47.0238 124.892 46.9477 125.095 46.9021C124.996 46.8402 124.92 46.7661 124.868 46.6796C124.818 46.5912 124.802 46.48 124.821 46.3462C124.829 46.2945 124.845 46.243 124.872 46.1917C124.898 46.138 124.934 46.0868 124.98 46.0381C125.028 45.9874 125.083 45.9413 125.146 45.9C125.21 45.8586 125.282 45.8245 125.362 45.7975C125.2 45.674 125.081 45.5243 125.005 45.3484C124.93 45.1701 124.907 44.973 124.938 44.757C124.962 44.5832 125.017 44.4305 125.103 44.2989C125.191 44.1653 125.302 44.0577 125.436 43.976C125.57 43.8919 125.723 43.8345 125.895 43.8037C126.069 43.7732 126.255 43.7719 126.452 43.7997C126.607 43.8216 126.749 43.8596 126.878 43.9137C127.007 43.9655 127.122 44.032 127.223 44.1133L128.192 44.2501ZM132.881 45.634C132.786 45.4602 132.675 45.3331 132.547 45.2528C132.42 45.1702 132.272 45.1169 132.103 45.0931C131.772 45.0463 131.5 45.129 131.288 45.3409C131.076 45.5529 130.939 45.8784 130.877 46.3174C130.844 46.5499 130.836 46.7523 130.853 46.9246C130.869 47.0946 130.909 47.2391 130.971 47.358C131.034 47.4746 131.118 47.5655 131.223 47.6308C131.329 47.696 131.454 47.7387 131.597 47.7589C131.804 47.7881 131.99 47.7665 132.156 47.6941C132.324 47.6221 132.485 47.5095 132.638 47.3563L132.881 45.634ZM133.857 43.2537L133.124 48.4415L132.751 48.3888C132.662 48.3762 132.611 48.3248 132.6 48.2346L132.605 47.7935C132.427 47.9551 132.232 48.0785 132.021 48.1636C131.81 48.2488 131.577 48.2734 131.321 48.2372C131.117 48.2084 130.937 48.1435 130.781 48.0425C130.626 47.9391 130.5 47.8028 130.404 47.6336C130.308 47.4644 130.245 47.2615 130.213 47.0248C130.182 46.7881 130.187 46.5218 130.229 46.226C130.266 45.963 130.336 45.7238 130.438 45.5083C130.541 45.2905 130.67 45.1075 130.825 44.9594C130.98 44.8112 131.159 44.7036 131.362 44.6366C131.569 44.5675 131.791 44.5498 132.031 44.5836C132.249 44.6145 132.431 44.6784 132.575 44.7754C132.722 44.8704 132.847 44.9923 132.951 45.141L133.23 43.1652L133.857 43.2537ZM135.287 45.108L134.784 48.6757L134.157 48.5872L134.66 45.0195L135.287 45.108ZM135.579 44.0069C135.571 44.068 135.55 44.1237 135.516 44.174C135.485 44.2224 135.446 44.2647 135.398 44.301C135.352 44.3353 135.299 44.3602 135.24 44.3757C135.182 44.3915 135.123 44.3952 135.062 44.3865C135.001 44.3779 134.945 44.3581 134.895 44.327C134.846 44.2962 134.805 44.258 134.771 44.2125C134.737 44.1646 134.712 44.1131 134.695 44.0582C134.68 44.0009 134.676 43.9417 134.685 43.8806C134.693 43.8196 134.713 43.7637 134.744 43.713C134.776 43.66 134.814 43.6163 134.86 43.582C134.906 43.5454 134.956 43.519 135.011 43.5028C135.068 43.487 135.127 43.4833 135.188 43.492C135.25 43.5006 135.305 43.5204 135.356 43.5515C135.409 43.583 135.453 43.6226 135.487 43.6705C135.523 43.7164 135.549 43.7692 135.565 43.8289C135.583 43.8865 135.588 43.9459 135.579 44.0069ZM138.382 48.3072C138.475 48.4784 138.585 48.6053 138.712 48.6879C138.842 48.7709 138.989 48.824 139.153 48.8472C139.489 48.8946 139.763 48.8123 139.975 48.6003C140.187 48.3884 140.326 48.0476 140.392 47.578C140.454 47.1413 140.419 46.8095 140.288 46.5827C140.16 46.3539 139.949 46.2188 139.656 46.1773C139.452 46.1485 139.267 46.1703 139.101 46.2426C138.937 46.3153 138.779 46.4283 138.625 46.5814L138.382 48.3072ZM138.691 46.113C138.866 45.9605 139.055 45.8458 139.257 45.769C139.462 45.6926 139.688 45.6717 139.934 45.7065C140.143 45.736 140.325 45.8025 140.481 45.9058C140.639 46.0095 140.765 46.146 140.861 46.3152C140.957 46.482 141.021 46.6777 141.051 46.9024C141.084 47.1273 141.082 47.3748 141.044 47.6448C141.003 47.9337 140.93 48.1917 140.827 48.4189C140.723 48.6461 140.592 48.8347 140.434 48.9849C140.279 49.133 140.1 49.2406 139.896 49.3077C139.693 49.3724 139.473 49.3881 139.236 49.3546C139.001 49.3214 138.809 49.25 138.659 49.1402C138.512 49.0285 138.39 48.8831 138.293 48.7042L138.216 49.0238C138.185 49.1104 138.124 49.1473 138.035 49.1347L137.63 49.0776L138.362 43.8897L138.993 43.9787L138.691 46.113ZM143.739 48.3019C143.449 48.2706 143.199 48.2592 142.989 48.268C142.782 48.2747 142.61 48.2983 142.473 48.3387C142.338 48.3795 142.235 48.4357 142.165 48.5073C142.098 48.5791 142.057 48.6644 142.043 48.763C142.03 48.8569 142.033 48.9401 142.054 49.0125C142.075 49.0849 142.108 49.147 142.154 49.1989C142.202 49.2488 142.26 49.2893 142.327 49.3204C142.397 49.3494 142.473 49.3698 142.556 49.3814C142.666 49.3969 142.768 49.4006 142.863 49.3924C142.958 49.3819 143.048 49.3611 143.134 49.3301C143.222 49.2994 143.307 49.2599 143.388 49.2115C143.471 49.1634 143.553 49.1067 143.634 49.0415L143.739 48.3019ZM141.92 46.558C142.144 46.3956 142.376 46.2836 142.617 46.2218C142.858 46.16 143.117 46.1487 143.394 46.1878C143.594 46.216 143.767 46.2739 143.912 46.3615C144.058 46.4491 144.175 46.5591 144.264 46.6914C144.353 46.8237 144.413 46.977 144.444 47.1514C144.474 47.3257 144.475 47.5126 144.447 47.7122L144.125 49.9945L143.847 49.9552C143.786 49.9466 143.74 49.9305 143.71 49.9071C143.68 49.8813 143.66 49.8378 143.649 49.7764L143.627 49.4284C143.52 49.502 143.418 49.5665 143.319 49.622C143.22 49.6752 143.119 49.7183 143.013 49.7513C142.908 49.782 142.798 49.8011 142.682 49.8087C142.568 49.819 142.443 49.8145 142.307 49.7952C142.168 49.7757 142.041 49.7385 141.924 49.6837C141.807 49.6266 141.709 49.5528 141.628 49.4624C141.55 49.3723 141.492 49.2647 141.455 49.1397C141.42 49.0127 141.414 48.8682 141.437 48.7061C141.457 48.5653 141.514 48.4357 141.61 48.3175C141.706 48.197 141.848 48.0985 142.036 48.0221C142.224 47.9456 142.462 47.8954 142.751 47.8715C143.039 47.8452 143.388 47.856 143.795 47.9039L143.834 47.6257C143.873 47.3487 143.843 47.1312 143.743 46.9734C143.644 46.8133 143.479 46.717 143.249 46.6845C143.094 46.6627 142.961 46.6642 142.849 46.6892C142.741 46.7122 142.644 46.7429 142.56 46.7812C142.478 46.8176 142.406 46.8518 142.344 46.8837C142.285 46.9137 142.228 46.9248 142.174 46.9172C142.132 46.9112 142.097 46.8955 142.069 46.8701C142.042 46.8423 142.02 46.8105 142.004 46.7746L141.92 46.558ZM147.984 47.547C147.962 47.5702 147.94 47.5875 147.919 47.5989C147.899 47.6103 147.872 47.6137 147.839 47.6091C147.804 47.6041 147.767 47.5846 147.729 47.5504C147.691 47.5139 147.642 47.4736 147.584 47.4294C147.528 47.3856 147.456 47.3431 147.368 47.302C147.284 47.2589 147.175 47.2281 147.044 47.2095C146.868 47.1846 146.708 47.1945 146.566 47.239C146.423 47.2811 146.298 47.3544 146.19 47.4589C146.084 47.5637 145.996 47.6961 145.925 47.8562C145.857 48.0166 145.808 48.2001 145.779 48.4068C145.749 48.6228 145.746 48.8188 145.772 48.9948C145.797 49.1685 145.847 49.3191 145.92 49.4468C145.995 49.5724 146.092 49.6747 146.211 49.7536C146.331 49.8306 146.472 49.8803 146.631 49.9028C146.784 49.9244 146.912 49.9245 147.016 49.9032C147.12 49.8796 147.206 49.8499 147.276 49.8143C147.348 49.7789 147.408 49.7466 147.455 49.7174C147.505 49.6861 147.551 49.6735 147.593 49.6794C147.645 49.6867 147.682 49.7123 147.705 49.7562L147.848 50.01C147.757 50.0953 147.658 50.1651 147.549 50.2192C147.441 50.2734 147.326 50.3159 147.205 50.3466C147.086 50.3753 146.962 50.3914 146.835 50.395C146.707 50.3985 146.579 50.3912 146.45 50.373C146.227 50.3415 146.025 50.2711 145.844 50.1617C145.665 50.0527 145.517 49.9107 145.398 49.7359C145.279 49.5587 145.196 49.3506 145.148 49.1115C145.1 48.8725 145.097 48.6074 145.138 48.3163C145.176 48.051 145.247 47.8107 145.351 47.5956C145.458 47.3808 145.594 47.2023 145.757 47.0602C145.924 46.9161 146.117 46.8128 146.336 46.7504C146.558 46.6883 146.804 46.6764 147.074 46.7145C147.325 46.7499 147.54 46.8222 147.719 46.9312C147.9 47.0382 148.054 47.1761 148.181 47.3449L147.984 47.547ZM149.821 45.5073L149.389 48.5608L149.551 48.5837C149.598 48.5903 149.638 48.5899 149.67 48.5825C149.705 48.573 149.743 48.5508 149.784 48.5159L151.081 47.4669C151.12 47.4317 151.158 47.406 151.196 47.3898C151.237 47.3716 151.288 47.3668 151.349 47.3755L151.916 47.4555L150.405 48.6683C150.331 48.7391 150.254 48.7918 150.175 48.8261C150.213 48.8602 150.246 48.8984 150.273 48.9406C150.304 48.9808 150.331 49.0265 150.355 49.0778L151.501 51.0357L150.941 50.9566C150.887 50.949 150.841 50.9342 150.803 50.9121C150.768 50.888 150.74 50.8505 150.719 50.7995L149.752 49.1724C149.724 49.1181 149.693 49.0814 149.66 49.0624C149.629 49.0413 149.579 49.0258 149.508 49.0158L149.329 48.9905L149.088 50.6951L148.458 50.6061L149.19 45.4183L149.821 45.5073ZM153.422 46.0157L152.69 51.2035L152.063 51.115L152.795 45.9272L153.422 46.0157ZM155.729 47.9363C155.99 47.973 156.218 48.0496 156.415 48.166C156.612 48.2824 156.773 48.4308 156.898 48.6114C157.023 48.7919 157.109 49.0015 157.154 49.2402C157.202 49.4769 157.206 49.735 157.167 50.0144C157.127 50.2961 157.052 50.5441 156.94 50.7582C156.831 50.9727 156.691 51.1493 156.52 51.2881C156.35 51.4269 156.154 51.5249 155.933 51.5823C155.712 51.6373 155.471 51.6464 155.21 51.6097C154.947 51.5725 154.716 51.4968 154.517 51.3824C154.32 51.2661 154.159 51.1176 154.034 50.9371C153.908 50.7565 153.822 50.5479 153.774 50.3112C153.728 50.0749 153.725 49.8158 153.765 49.5341C153.804 49.2547 153.879 49.0077 153.988 48.7933C154.1 48.5768 154.241 48.3991 154.412 48.2604C154.582 48.1216 154.778 48.0235 154.999 47.9661C155.223 47.9091 155.466 47.8991 155.729 47.9363ZM155.28 51.1201C155.632 51.1698 155.911 51.0895 156.118 50.8793C156.325 50.6667 156.459 50.349 156.518 49.9264C156.578 49.5014 156.538 49.1581 156.398 48.8964C156.258 48.6347 156.012 48.479 155.659 48.4293C155.481 48.4041 155.32 48.4126 155.178 48.4548C155.038 48.4973 154.915 48.5697 154.81 48.6722C154.707 48.775 154.621 48.9077 154.552 49.0705C154.486 49.2312 154.439 49.4173 154.409 49.6286C154.349 50.0512 154.389 50.3934 154.53 50.655C154.673 50.9147 154.923 51.0697 155.28 51.1201ZM159.186 50.3425C159.313 50.3604 159.427 50.3585 159.528 50.3369C159.629 50.3152 159.717 50.2774 159.792 50.2232C159.866 50.1691 159.926 50.101 159.972 50.0187C160.017 49.9341 160.047 49.839 160.062 49.7334C160.093 49.515 160.051 49.3318 159.935 49.1838C159.822 49.0361 159.639 48.9445 159.388 48.909C159.135 48.8732 158.932 48.9105 158.78 49.0207C158.63 49.1313 158.54 49.2957 158.509 49.5141C158.494 49.6198 158.497 49.7195 158.517 49.8134C158.54 49.9052 158.58 49.9875 158.637 50.0602C158.693 50.1328 158.767 50.1936 158.859 50.2424C158.95 50.2912 159.059 50.3246 159.186 50.3425ZM160.043 52.4391C160.055 52.3523 160.04 52.2783 159.999 52.2174C159.957 52.1564 159.896 52.1047 159.816 52.0622C159.738 52.0201 159.645 51.9854 159.536 51.9581C159.428 51.9284 159.312 51.9013 159.188 51.8767C159.067 51.8524 158.944 51.8278 158.818 51.8028C158.692 51.7779 158.572 51.7489 158.457 51.7159C158.317 51.7584 158.198 51.8206 158.1 51.9026C158.005 51.9826 157.948 52.0848 157.931 52.2092C157.92 52.2891 157.929 52.3658 157.959 52.4396C157.992 52.516 158.047 52.5848 158.124 52.646C158.201 52.7096 158.302 52.7645 158.424 52.8105C158.549 52.8593 158.698 52.8959 158.872 52.9205C159.041 52.9443 159.195 52.9504 159.333 52.9388C159.471 52.9272 159.59 52.8996 159.69 52.8562C159.791 52.8131 159.872 52.7563 159.933 52.6858C159.993 52.6153 160.03 52.5331 160.043 52.4391ZM161.192 48.9086L161.159 49.141C161.148 49.2185 161.092 49.2608 160.99 49.268L160.577 49.2637C160.635 49.4299 160.651 49.607 160.625 49.7948C160.6 49.9686 160.544 50.1222 160.455 50.2559C160.37 50.3874 160.261 50.4954 160.129 50.5798C159.998 50.6642 159.846 50.7218 159.674 50.7526C159.502 50.7834 159.32 50.7852 159.127 50.7581C158.96 50.7345 158.806 50.6924 158.664 50.6316C158.582 50.6679 158.517 50.7103 158.47 50.7586C158.423 50.8047 158.395 50.8547 158.387 50.9087C158.376 50.9932 158.4 51.0626 158.462 51.1168C158.527 51.169 158.614 51.2125 158.724 51.2472C158.834 51.2818 158.96 51.3116 159.103 51.3366C159.248 51.3618 159.395 51.3909 159.543 51.4239C159.695 51.4548 159.84 51.4933 159.98 51.5393C160.122 51.5857 160.245 51.6462 160.349 51.7208C160.454 51.7954 160.532 51.8892 160.586 52.0021C160.642 52.1154 160.658 52.2542 160.635 52.4185C160.613 52.5712 160.554 52.7136 160.456 52.8459C160.361 52.9785 160.234 53.0899 160.075 53.18C159.916 53.2725 159.727 53.3369 159.509 53.3731C159.293 53.412 159.054 53.4131 158.793 53.3763C158.533 53.3395 158.309 53.2815 158.121 53.2024C157.934 53.1232 157.781 53.0311 157.664 52.926C157.548 52.8209 157.464 52.7061 157.415 52.5818C157.367 52.4602 157.352 52.3371 157.37 52.2127C157.395 52.0366 157.471 51.8953 157.599 51.7888C157.726 51.6822 157.891 51.6062 158.094 51.5606C157.995 51.4987 157.92 51.4245 157.867 51.3381C157.817 51.2497 157.802 51.1385 157.821 51.0047C157.828 50.953 157.845 50.9015 157.871 50.8502C157.898 50.7965 157.934 50.7453 157.979 50.6966C158.027 50.6459 158.083 50.5998 158.146 50.5585C158.209 50.5171 158.281 50.483 158.362 50.456C158.199 50.3325 158.08 50.1828 158.005 50.0069C157.929 49.8286 157.907 49.6315 157.937 49.4155C157.962 49.2417 158.017 49.089 158.103 48.9574C158.191 48.8238 158.302 48.7162 158.436 48.6344C158.57 48.5504 158.723 48.493 158.895 48.4622C159.069 48.4317 159.255 48.4304 159.452 48.4582C159.607 48.4801 159.749 48.5181 159.878 48.5722C160.007 48.624 160.122 48.6905 160.223 48.7718L161.192 48.9086ZM166.575 49.5249L163.933 53.8648C163.905 53.9088 163.873 53.9425 163.836 53.9661C163.802 53.9899 163.752 53.9972 163.686 53.9879L163.221 53.9223L164.072 52.5985L163.075 49.0307L163.617 49.1073C163.671 49.1149 163.711 49.1349 163.738 49.1674C163.767 49.1979 163.785 49.2304 163.792 49.2649L164.429 51.6467C164.453 51.7506 164.47 51.8584 164.481 51.97C164.529 51.8643 164.579 51.7648 164.631 51.6715L165.874 49.5588C165.893 49.5232 165.921 49.496 165.957 49.4771C165.996 49.4563 166.036 49.4488 166.079 49.4548L166.575 49.5249ZM168.724 51.829C168.434 51.7977 168.184 51.7863 167.974 51.7951C167.768 51.8018 167.595 51.8254 167.458 51.8659C167.323 51.9067 167.22 51.9628 167.15 52.0344C167.083 52.1062 167.042 52.1915 167.028 52.2901C167.015 52.384 167.019 52.4672 167.04 52.5396C167.061 52.612 167.094 52.6741 167.139 52.726C167.187 52.7759 167.245 52.8164 167.312 52.8475C167.382 52.8765 167.459 52.8969 167.541 52.9085C167.651 52.9241 167.754 52.9277 167.848 52.9195C167.943 52.909 168.033 52.8882 168.119 52.8572C168.207 52.8266 168.292 52.787 168.373 52.7386C168.456 52.6905 168.539 52.6338 168.62 52.5687L168.724 51.829ZM166.905 50.0851C167.129 49.9227 167.361 49.8107 167.602 49.7489C167.843 49.6871 168.102 49.6758 168.38 49.7149C168.579 49.7431 168.752 49.801 168.897 49.8886C169.043 49.9762 169.16 50.0862 169.25 50.2185C169.339 50.3508 169.398 50.5042 169.429 50.6785C169.459 50.8528 169.461 51.0398 169.432 51.2393L169.11 53.5216L168.832 53.4823C168.771 53.4737 168.725 53.4577 168.695 53.4342C168.665 53.4085 168.645 53.3649 168.634 53.3035L168.612 52.9555C168.506 53.0291 168.403 53.0937 168.304 53.1492C168.206 53.2023 168.104 53.2454 167.999 53.2784C167.894 53.3091 167.783 53.3283 167.667 53.3358C167.553 53.3461 167.428 53.3416 167.292 53.3224C167.153 53.3028 167.026 53.2656 166.909 53.2108C166.792 53.1537 166.694 53.0799 166.613 52.9895C166.535 52.8994 166.477 52.7919 166.44 52.6668C166.405 52.5398 166.399 52.3953 166.422 52.2333C166.442 52.0924 166.5 51.9628 166.595 51.8446C166.691 51.7241 166.833 51.6256 167.021 51.5492C167.209 51.4727 167.448 51.4225 167.736 51.3986C168.025 51.3723 168.373 51.3831 168.78 51.4311L168.82 51.1528C168.859 50.8758 168.828 50.6583 168.728 50.5006C168.629 50.3404 168.464 50.2441 168.234 50.2116C168.079 50.1898 167.946 50.1913 167.835 50.2163C167.726 50.2393 167.629 50.27 167.545 50.3084C167.463 50.3447 167.391 50.3789 167.329 50.4108C167.27 50.4408 167.213 50.4519 167.159 50.4443C167.117 50.4383 167.082 50.4226 167.055 50.3972C167.027 50.3694 167.006 50.3376 166.989 50.3017L166.905 50.0851ZM170.345 49.0081C170.427 48.9503 170.516 48.897 170.611 48.8482C170.709 48.7997 170.813 48.7593 170.923 48.7269C171.035 48.6949 171.153 48.6744 171.277 48.6655C171.403 48.6546 171.536 48.659 171.677 48.6789C171.863 48.7051 172.03 48.7563 172.18 48.8325C172.332 48.9091 172.458 49.0048 172.56 49.1196C172.661 49.2345 172.734 49.367 172.78 49.5171C172.826 49.6673 172.836 49.8304 172.812 50.0065C172.786 50.185 172.738 50.3349 172.665 50.4565C172.595 50.5783 172.513 50.6827 172.416 50.7697C172.323 50.8547 172.223 50.9268 172.116 50.986C172.013 51.0432 171.914 51.0975 171.82 51.149C171.727 51.2005 171.645 51.2536 171.575 51.3084C171.508 51.3635 171.464 51.4291 171.443 51.5053L171.304 52.0352L170.874 51.9745L170.914 51.3839C170.92 51.2769 170.953 51.1882 171.013 51.1176C171.074 51.0448 171.149 50.9799 171.238 50.9231C171.328 50.8639 171.426 50.8083 171.531 50.7561C171.637 50.7016 171.737 50.6391 171.831 50.5685C171.927 50.4983 172.01 50.4155 172.081 50.3201C172.152 50.2224 172.198 50.1008 172.219 49.9552C172.233 49.8542 172.226 49.7598 172.198 49.672C172.169 49.5842 172.125 49.5073 172.065 49.4414C172.005 49.373 171.931 49.317 171.841 49.2732C171.754 49.2298 171.657 49.2006 171.552 49.1857C171.408 49.1654 171.283 49.1657 171.174 49.1863C171.068 49.2073 170.977 49.2339 170.901 49.2662C170.824 49.2985 170.761 49.3292 170.712 49.3581C170.665 49.3873 170.627 49.4 170.599 49.396C170.54 49.3877 170.498 49.3542 170.473 49.2956L170.345 49.0081ZM170.437 53.3138C170.446 53.2527 170.465 53.1967 170.493 53.1457C170.524 53.095 170.562 53.0523 170.605 53.0177C170.65 52.9834 170.702 52.9584 170.759 52.9425C170.816 52.9267 170.876 52.923 170.937 52.9317C170.998 52.9403 171.053 52.9601 171.104 52.9912C171.155 53.0223 171.197 53.0607 171.232 53.1062C171.266 53.1518 171.291 53.2032 171.307 53.2605C171.323 53.3178 171.326 53.377 171.318 53.4381C171.309 53.5015 171.289 53.5585 171.258 53.6092C171.227 53.6575 171.189 53.6988 171.143 53.7331C171.098 53.7674 171.046 53.7913 170.989 53.8048C170.932 53.8207 170.873 53.8243 170.812 53.8157C170.751 53.8071 170.695 53.7872 170.644 53.7561C170.593 53.7273 170.551 53.6902 170.516 53.6446C170.484 53.5994 170.46 53.5493 170.444 53.4943C170.431 53.4374 170.428 53.3772 170.437 53.3138Z" fill="#7D7D7D"/>
</g>
<defs>
<filter id="filter0_d_1193_12074" x="0.445185" y="1.63379" width="200.047" height="71.1453" filterUnits="userSpaceOnUse" color-interpolation-filters="sRGB">
<feFlood flood-opacity="0" result="BackgroundImageFix"/>
<feColorMatrix in="SourceAlpha" type="matrix" values="0 0 0 0 0 0 0 0 0 0 0 0 0 0 0 0 0 0 127 0" result="hardAlpha"/>
<feOffset dy="2.18885"/>
<feGaussianBlur stdDeviation="1.09442"/>
<feComposite in2="hardAlpha" operator="out"/>
<feColorMatrix type="matrix" values="0 0 0 0 0 0 0 0 0 0 0 0 0 0 0 0 0 0 0.25 0"/>
<feBlend mode="normal" in2="BackgroundImageFix" result="effect1_dropShadow_1193_12074"/>
<feBlend mode="normal" in="SourceGraphic" in2="effect1_dropShadow_1193_12074" result="shape"/>
</filter>
<clipPath id="clip0_1193_12074">
<rect width="19.1524" height="19.1524" fill="white" transform="translate(18.9822 13.291) rotate(8.03525)"/>
</clipPath>
</defs>
</svg>
