<svg width="202" height="65" viewBox="0 0 202 65" fill="none" xmlns="http://www.w3.org/2000/svg">
<g filter="url(#filter0_d_1190_12038)">
<rect x="2" y="17.7461" width="194.807" height="43.2297" rx="12.5859" transform="rotate(-5.22656 2 17.7461)" fill="white" fill-opacity="0.94"/>
<rect x="2" y="17.7461" width="194.807" height="43.2297" rx="12.5859" transform="rotate(-5.22656 2 17.7461)" fill="white" fill-opacity="0.94"/>
<rect x="10.1775" y="23.043" width="30.0967" height="30.6439" rx="7.66097" transform="rotate(-5.22656 10.1775 23.043)" fill="#F88C3D"/>
<g clip-path="url(#clip0_1190_12038)">
<path d="M33.8 40.0004L21.0848 41.1636L20.2125 31.6272L28.2389 30.8929C28.147 30.5888 28.0152 30.0239 28.0935 29.3035L20.0671 30.0378C19.1929 30.1177 18.5431 30.8984 18.6231 31.7725L19.9316 46.0771L22.8196 42.6076L33.9454 41.5898C34.8195 41.5099 35.4693 40.7292 35.3894 39.855L34.7337 32.6869C34.3047 33.0787 33.7883 33.3904 33.2112 33.5634L33.8 40.0004Z" fill="white"/>
<path d="M32.2783 32.1261C33.595 32.0057 34.5648 30.8407 34.4443 29.524C34.3239 28.2073 33.1589 27.2375 31.8422 27.3579C30.5255 27.4784 29.5557 28.6434 29.6762 29.9601C29.7966 31.2768 30.9616 32.2466 32.2783 32.1261Z" fill="white"/>
<path d="M28.741 37.2578L22.3834 37.8394L22.5288 39.4288L28.8864 38.8472L28.741 37.2578Z" fill="white"/>
<path d="M31.7017 34.5829L22.1653 35.4553L22.3107 37.0447L31.8471 36.1723L31.7017 34.5829Z" fill="white"/>
<path d="M22.0926 34.6606L31.629 33.7882L31.6218 33.7088C30.642 33.598 29.7646 33.1174 29.1234 32.4147L21.9472 33.0712L22.0926 34.6606Z" fill="white"/>
</g>
<path d="M52.341 27.125C52.3172 27.1771 52.2899 27.2166 52.259 27.2432C52.2302 27.2673 52.1922 27.2814 52.145 27.2858C52.0954 27.2903 52.0395 27.2776 51.9772 27.2475C51.9171 27.2149 51.8448 27.1799 51.7604 27.1424C51.6761 27.1048 51.5779 27.0733 51.4661 27.0478C51.3563 27.0198 51.2283 27.0124 51.0819 27.0258C50.9496 27.0379 50.8354 27.0651 50.7393 27.1072C50.6429 27.147 50.5631 27.1983 50.4998 27.2612C50.4388 27.324 50.3955 27.397 50.3698 27.4803C50.3439 27.5612 50.3352 27.6489 50.3439 27.7434C50.3549 27.8638 50.3971 27.9612 50.4706 28.0354C50.5464 28.1094 50.6424 28.1697 50.7586 28.2162C50.8748 28.2627 51.0057 28.302 51.1515 28.3339C51.2973 28.3658 51.447 28.4009 51.6005 28.4392C51.7538 28.4752 51.9044 28.521 52.0524 28.5765C52.2001 28.6296 52.3342 28.7031 52.4547 28.7968C52.575 28.8882 52.675 29.0053 52.7547 29.148C52.8368 29.2905 52.8875 29.468 52.907 29.6806C52.9282 29.912 52.9079 30.1329 52.8462 30.3433C52.7866 30.5512 52.687 30.7377 52.5473 30.9028C52.4098 31.0654 52.2352 31.2005 52.0236 31.3079C51.8118 31.413 51.5642 31.4785 51.2808 31.5044C51.1179 31.5194 50.9558 31.5175 50.7946 31.4989C50.6335 31.4827 50.4771 31.4518 50.3253 31.4061C50.1759 31.3603 50.0336 31.3018 49.8985 31.2309C49.7635 31.1599 49.6417 31.0781 49.5332 30.9857L49.7712 30.5032C49.7918 30.4679 49.8201 30.438 49.8559 30.4133C49.8915 30.3862 49.9306 30.3707 49.9731 30.3668C50.0321 30.3614 50.0981 30.3804 50.1712 30.4237C50.244 30.4647 50.3303 30.5104 50.4301 30.5607C50.53 30.6111 50.6448 30.6554 50.7745 30.6936C50.9063 30.7291 51.0608 30.7388 51.2379 30.7226C51.5094 30.6978 51.7138 30.6148 51.8509 30.4736C51.9878 30.3302 52.0452 30.138 52.0231 29.8971C52.0108 29.7625 51.9666 29.6559 51.8903 29.5771C51.8164 29.4981 51.7214 29.4354 51.6052 29.3889C51.4888 29.34 51.3579 29.302 51.2126 29.2748C51.0672 29.2476 50.9192 29.2171 50.7685 29.1833C50.6177 29.1494 50.4685 29.1059 50.3208 29.0528C50.173 28.9996 50.0388 28.925 49.9181 28.8289C49.7974 28.7328 49.6956 28.6087 49.6126 28.4568C49.5318 28.3022 49.4807 28.1081 49.4593 27.8743C49.4423 27.6878 49.4622 27.5026 49.5192 27.3188C49.5786 27.1348 49.6729 26.9678 49.802 26.8179C49.9312 26.668 50.0959 26.5422 50.2961 26.4405C50.4964 26.3389 50.7311 26.2757 51.0003 26.2511C51.3025 26.2234 51.5855 26.2452 51.8492 26.3163C52.1129 26.3874 52.3422 26.4998 52.5372 26.6534L52.341 27.125ZM55.4833 29.4985C55.2318 29.5334 55.0213 29.5753 54.8519 29.6241C54.6824 29.6705 54.5479 29.7233 54.4485 29.7824C54.3492 29.8415 54.2801 29.9062 54.2412 29.9764C54.2024 30.0466 54.1866 30.1207 54.1937 30.1986C54.2077 30.3521 54.2627 30.4578 54.3584 30.5157C54.4566 30.5734 54.5789 30.5956 54.7253 30.5822C54.9047 30.5658 55.0565 30.5197 55.1805 30.4441C55.3067 30.3659 55.4263 30.2549 55.5394 30.1112L55.4833 29.4985ZM53.3343 28.1056C53.7173 27.6848 54.2028 27.4476 54.7908 27.3938C55.0033 27.3743 55.1966 27.3924 55.3708 27.4479C55.5447 27.501 55.6952 27.5849 55.8224 27.6994C55.9493 27.8116 56.0502 27.9512 56.125 28.1182C56.2022 28.285 56.2502 28.4711 56.2689 28.6765L56.4789 30.9718L56.0822 31.0081C55.9995 31.0157 55.9347 31.0097 55.8877 30.9902C55.8404 30.9683 55.8004 30.9208 55.7675 30.8476L55.6656 30.5926C55.581 30.6837 55.498 30.7651 55.4165 30.8368C55.3347 30.9062 55.2486 30.9665 55.158 31.0176C55.0674 31.0688 54.9688 31.1099 54.8621 31.1411C54.758 31.1745 54.641 31.1971 54.5111 31.209C54.3577 31.223 54.2141 31.2159 54.0806 31.1876C53.9468 31.157 53.8289 31.1047 53.7269 31.0307C53.6249 30.9567 53.5423 30.8606 53.4791 30.7426C53.4159 30.6246 53.3769 30.4841 53.362 30.3211C53.3536 30.229 53.3606 30.1367 53.3831 30.0442C53.4054 29.9493 53.447 29.8574 53.5079 29.7685C53.5712 29.6793 53.6549 29.5931 53.7592 29.5097C53.8635 29.4264 53.9935 29.3502 54.1491 29.2812C54.307 29.212 54.492 29.151 54.7038 29.0983C54.9155 29.0432 55.1591 28.9995 55.4347 28.9671L55.4153 28.7546C55.3931 28.5114 55.3247 28.3367 55.2102 28.2305C55.0955 28.1219 54.9402 28.0766 54.7442 28.0945C54.6025 28.1075 54.4859 28.1348 54.3945 28.1765C54.3054 28.218 54.2274 28.2632 54.1604 28.3122C54.0933 28.3588 54.0317 28.4014 53.9757 28.4398C53.922 28.4781 53.8598 28.5004 53.7889 28.5069C53.7275 28.5125 53.6742 28.5019 53.6289 28.4751C53.5833 28.446 53.5457 28.4113 53.5158 28.3712L53.3343 28.1056ZM57.714 25.5512L58.1955 30.8148L57.3206 30.8948L56.8391 25.6313L57.714 25.5512ZM61.024 27.6058C61.0038 27.6457 60.9815 27.6752 60.957 27.6941C60.9324 27.7106 60.9 27.7207 60.8598 27.7244C60.8173 27.7283 60.7702 27.7207 60.7184 27.7016C60.669 27.6823 60.6112 27.6614 60.5448 27.6389C60.4783 27.6141 60.4026 27.5936 60.3178 27.5775C60.2353 27.5613 60.1386 27.5582 60.0276 27.5684C59.8552 27.5841 59.7228 27.6332 59.6303 27.7154C59.5402 27.7975 59.5005 27.8976 59.5113 28.0156C59.5185 28.0935 59.5493 28.1574 59.6039 28.2072C59.6606 28.2544 59.7321 28.2943 59.8184 28.3268C59.9071 28.3592 60.0061 28.3871 60.1154 28.4104C60.2244 28.4314 60.335 28.4558 60.4471 28.4836C60.5615 28.5113 60.6741 28.545 60.7849 28.5849C60.8955 28.6224 60.9956 28.6752 61.0852 28.7432C61.1769 28.8086 61.2523 28.891 61.3114 28.9903C61.3728 29.0895 61.4102 29.2123 61.4236 29.3587C61.4396 29.5334 61.4225 29.6981 61.3724 29.8527C61.3244 30.0047 61.2439 30.1407 61.1311 30.2605C61.018 30.378 60.8734 30.4758 60.6972 30.5538C60.5231 30.6292 60.318 30.6778 60.0819 30.6994C59.9567 30.7108 59.8328 30.7103 59.7102 30.6977C59.5902 30.6872 59.4729 30.667 59.3582 30.637C59.2459 30.6068 59.1401 30.5688 59.0407 30.5232C58.9436 30.4773 58.8567 30.4257 58.78 30.3684L58.9515 30.017C58.9738 29.9745 59.0017 29.941 59.0352 29.9165C59.0686 29.892 59.1125 29.8773 59.1668 29.8723C59.2212 29.8673 59.2733 29.878 59.3234 29.9044C59.3758 29.9306 59.4355 29.9584 59.5025 29.988C59.5695 30.0176 59.6469 30.0439 59.7347 30.0668C59.8249 30.0895 59.9361 30.0948 60.0683 30.0827C60.1722 30.0732 60.2597 30.0533 60.3307 30.023C60.4039 29.9901 60.4623 29.9514 60.5058 29.907C60.5518 29.8623 60.583 29.813 60.5995 29.7591C60.6181 29.7026 60.6248 29.6461 60.6197 29.5894C60.6119 29.5044 60.5795 29.4371 60.5226 29.3875C60.4681 29.3377 60.3964 29.2967 60.3078 29.2643C60.2214 29.2317 60.1226 29.2051 60.0111 29.1843C59.9018 29.161 59.7888 29.1356 59.672 29.1082C59.5576 29.0805 59.4438 29.0469 59.3306 29.0072C59.2196 28.965 59.118 28.9088 59.0259 28.8387C58.9361 28.7683 58.86 28.6788 58.7977 28.5702C58.7378 28.4614 58.7004 28.3267 58.6857 28.1661C58.6721 28.0174 58.6887 27.873 58.7354 27.733C58.7821 27.593 58.8576 27.4682 58.9619 27.3587C59.0683 27.2466 59.2039 27.1532 59.3685 27.0786C59.5352 27.0014 59.7308 26.9526 59.9551 26.9321C60.2054 26.9092 60.4371 26.9297 60.6501 26.9935C60.8631 27.0574 61.0442 27.1503 61.1935 27.2724L61.024 27.6058ZM63.9724 28.7219C63.7208 28.7568 63.5103 28.7987 63.341 28.8475C63.1714 28.894 63.0369 28.9468 62.9376 29.0059C62.8382 29.065 62.7691 29.1296 62.7303 29.1999C62.6915 29.2701 62.6756 29.3442 62.6828 29.4221C62.6968 29.5756 62.7517 29.6813 62.8475 29.7392C62.9456 29.7969 63.0679 29.819 63.2143 29.8056C63.3938 29.7892 63.5455 29.7432 63.6696 29.6676C63.7958 29.5893 63.9154 29.4784 64.0285 29.3347L63.9724 28.7219ZM61.8234 27.3291C62.2064 26.9083 62.6919 26.671 63.2798 26.6172C63.4924 26.5978 63.6857 26.6158 63.8598 26.6713C64.0338 26.7245 64.1843 26.8083 64.3115 26.9229C64.4384 27.0351 64.5393 27.1747 64.6141 27.3417C64.6912 27.5085 64.7392 27.6946 64.758 27.9L64.968 30.1953L64.5713 30.2316C64.4886 30.2391 64.4238 30.2331 64.3767 30.2136C64.3295 30.1918 64.2894 30.1442 64.2565 30.071L64.1546 29.8161C64.0701 29.9071 63.9871 29.9885 63.9055 30.0603C63.8238 30.1297 63.7376 30.19 63.647 30.2411C63.5565 30.2922 63.4579 30.3334 63.3512 30.3646C63.2471 30.3979 63.1301 30.4205 63.0002 30.4324C62.8467 30.4465 62.7032 30.4394 62.5696 30.4111C62.4359 30.3805 62.318 30.3281 62.216 30.2541C62.114 30.1801 62.0314 30.0841 61.9682 29.9661C61.905 29.848 61.866 29.7075 61.851 29.5446C61.8426 29.4525 61.8497 29.3602 61.8721 29.2676C61.8944 29.1727 61.936 29.0808 61.9969 28.9919C62.0602 28.9028 62.144 28.8166 62.2483 28.7332C62.3526 28.6498 62.4825 28.5737 62.6381 28.5047C62.7961 28.4354 62.981 28.3745 63.1929 28.3218C63.4045 28.2667 63.6482 28.223 63.9238 28.1906L63.9044 27.9781C63.8821 27.7349 63.8137 27.5601 63.6993 27.4539C63.5846 27.3454 63.4292 27.3001 63.2332 27.318C63.0915 27.331 62.975 27.3583 62.8835 27.4C62.7945 27.4415 62.7165 27.4867 62.6495 27.5357C62.5823 27.5823 62.5207 27.6249 62.4647 27.6633C62.4111 27.7016 62.3488 27.7239 62.278 27.7304C62.2166 27.736 62.1633 27.7254 62.1179 27.6986C62.0724 27.6694 62.0347 27.6348 62.0048 27.5947L61.8234 27.3291ZM66.5877 29.097C66.6979 29.2084 66.8132 29.2836 66.9334 29.3226C67.056 29.3614 67.1822 29.3748 67.3121 29.3629C67.4467 29.3506 67.565 29.316 67.6669 29.259C67.771 29.1995 67.8562 29.1155 67.9225 29.0071C67.9885 28.8963 68.0344 28.7599 68.0601 28.598C68.0855 28.4338 68.0881 28.2407 68.0678 28.0187C68.0313 27.6196 67.9388 27.3376 67.7904 27.1726C67.6417 27.0052 67.4434 26.9329 67.1955 26.9555C67.0278 26.9709 66.885 27.0232 66.767 27.1126C66.6487 27.1996 66.5393 27.318 66.4387 27.4677L66.5877 29.097ZM66.3823 26.8513C66.5147 26.6845 66.6653 26.5481 66.8342 26.4421C67.0052 26.3336 67.2053 26.2689 67.4344 26.2479C67.6445 26.2287 67.8372 26.2527 68.0124 26.3201C68.19 26.3871 68.345 26.4932 68.4773 26.6383C68.6118 26.7807 68.7209 26.9589 68.8048 27.1727C68.8886 27.3864 68.9431 27.6303 68.9681 27.9042C68.9951 28.1994 68.983 28.4707 68.9319 28.7183C68.8807 28.9659 68.7945 29.1821 68.6733 29.367C68.5543 29.5493 68.4034 29.6965 68.2208 29.8084C68.0382 29.9204 67.83 29.9871 67.5962 30.0084C67.4828 30.0188 67.379 30.0164 67.2848 30.0012C67.1907 29.9884 67.1029 29.9655 67.0213 29.9324C66.9397 29.8994 66.8633 29.8576 66.792 29.807C66.7228 29.7538 66.6555 29.6945 66.59 29.629L66.5734 29.877C66.5648 29.9397 66.544 29.9856 66.511 30.0148C66.4803 30.0438 66.4354 30.061 66.3764 30.0664L65.799 30.1193L65.3175 24.8557L66.1924 24.7757L66.3823 26.8513ZM70.3999 26.0338L70.7323 29.668L69.8539 29.7483L69.5215 26.1142L70.3999 26.0338ZM70.4234 24.9637C70.4304 25.0393 70.4215 25.1115 70.3968 25.1804C70.3722 25.2494 70.3362 25.311 70.2887 25.3653C70.2437 25.4195 70.1883 25.465 70.1227 25.502C70.0568 25.5366 69.9849 25.5574 69.9069 25.5646C69.8314 25.5715 69.7581 25.5639 69.687 25.5418C69.6181 25.5172 69.5565 25.4823 69.5024 25.4373C69.4483 25.3922 69.4028 25.338 69.3661 25.2747C69.3317 25.2112 69.3111 25.1416 69.3041 25.0661C69.297 24.9882 69.3045 24.9137 69.3266 24.8426C69.351 24.7713 69.3857 24.7086 69.4308 24.6545C69.4758 24.6003 69.5301 24.5561 69.5937 24.5217C69.6593 24.4847 69.73 24.4628 69.8055 24.4559C69.8834 24.4488 69.9581 24.4574 70.0293 24.4818C70.1004 24.5039 70.163 24.5375 70.2171 24.5825C70.2736 24.6274 70.3203 24.6826 70.3573 24.7483C70.3943 24.814 70.4163 24.8858 70.4234 24.9637ZM72.0354 24.2412L72.5169 29.5047L71.642 29.5848L71.1605 24.3212L72.0354 24.2412ZM75.1735 27.6973C74.922 27.7322 74.7115 27.7741 74.5421 27.8229C74.3726 27.8694 74.2381 27.9222 74.1387 27.9813C74.0394 28.0404 73.9703 28.105 73.9314 28.1752C73.8926 28.2455 73.8768 28.3195 73.8839 28.3975C73.8979 28.551 73.9529 28.6567 74.0486 28.7146C74.1468 28.7723 74.2691 28.7944 74.4155 28.781C74.5949 28.7646 74.7467 28.7186 74.8707 28.6429C74.9969 28.5647 75.1165 28.4538 75.2296 28.3101L75.1735 27.6973ZM73.0245 26.3045C73.4075 25.8837 73.893 25.6464 74.481 25.5926C74.6935 25.5732 74.8868 25.5912 75.061 25.6467C75.2349 25.6999 75.3854 25.7837 75.5126 25.8983C75.6395 26.0105 75.7404 26.1501 75.8152 26.3171C75.8924 26.4838 75.9404 26.6699 75.9591 26.8754L76.1691 29.1707L75.7724 29.2069C75.6897 29.2145 75.6249 29.2085 75.5779 29.189C75.5306 29.1672 75.4906 29.1196 75.4577 29.0464L75.3558 28.7914C75.2712 28.8825 75.1882 28.9639 75.1067 29.0357C75.0249 29.1051 74.9388 29.1653 74.8482 29.2165C74.7576 29.2676 74.659 29.3088 74.5523 29.34C74.4482 29.3733 74.3312 29.3959 74.2013 29.4078C74.0479 29.4218 73.9043 29.4147 73.7708 29.3865C73.637 29.3558 73.5191 29.3035 73.4171 29.2295C73.3151 29.1555 73.2325 29.0595 73.1693 28.9414C73.1061 28.8234 73.0671 28.6829 73.0522 28.52C73.0438 28.4279 73.0508 28.3356 73.0733 28.243C73.0956 28.1481 73.1372 28.0562 73.1981 27.9673C73.2614 27.8782 73.3451 27.7919 73.4494 27.7086C73.5537 27.6252 73.6837 27.549 73.8393 27.48C73.9972 27.4108 74.1822 27.3499 74.394 27.2971C74.6057 27.2421 74.8493 27.1984 75.1249 27.166L75.1055 26.9535C75.0833 26.7102 75.0149 26.5355 74.9004 26.4293C74.7857 26.3208 74.6304 26.2754 74.4344 26.2934C74.2927 26.3063 74.1761 26.3337 74.0847 26.3754C73.9956 26.4168 73.9176 26.4621 73.8506 26.5111C73.7835 26.5577 73.7219 26.6002 73.6659 26.6387C73.6122 26.6769 73.55 26.6993 73.4791 26.7058C73.4177 26.7114 73.3644 26.7008 73.3191 26.674C73.2735 26.6448 73.2358 26.6102 73.206 26.57L73.0245 26.3045ZM82.7173 23.4069L83.1858 28.5288L82.697 28.5735C82.6214 28.5804 82.5566 28.5745 82.5025 28.5556C82.4505 28.5342 82.3982 28.4961 82.3456 28.4414L79.359 25.2714C79.3874 25.426 79.4077 25.5694 79.4198 25.7016L79.7075 28.847L78.868 28.9238L78.3995 23.8019L78.8989 23.7562C78.9391 23.7526 78.9735 23.7518 79.0023 23.7539C79.0332 23.7535 79.0598 23.7582 79.0822 23.768C79.1066 23.7753 79.1305 23.7886 79.1537 23.8079C79.1767 23.8249 79.2026 23.8487 79.2316 23.8794L82.2302 27.0625C82.2155 26.9805 82.2022 26.8996 82.1901 26.8197C82.1781 26.7399 82.1689 26.6657 82.1626 26.5972L81.8778 23.4837L82.7173 23.4069ZM86.925 24.5222L87.2574 28.1564L86.7225 28.2053C86.6068 28.2159 86.5288 28.1694 86.4883 28.066L86.4016 27.781C86.2666 27.9458 86.1137 28.0836 85.9429 28.1945C85.7719 28.303 85.5647 28.3683 85.3215 28.3906C85.1232 28.4087 84.9442 28.3918 84.7847 28.3397C84.6273 28.285 84.491 28.2011 84.3759 28.0878C84.2607 27.9745 84.1684 27.8365 84.0987 27.6738C84.0312 27.5085 83.9882 27.3244 83.9696 27.1213L83.7583 24.8118L84.6332 24.7318L84.8445 27.0413C84.8648 27.2632 84.9313 27.431 85.0441 27.5445C85.159 27.6554 85.3192 27.7015 85.5246 27.6827C85.6758 27.6688 85.8144 27.6228 85.9406 27.5446C86.0666 27.464 86.1832 27.3593 86.2905 27.2304L86.0501 24.6022L86.925 24.5222ZM88.6825 24.9972C88.776 24.7696 88.895 24.5872 89.0396 24.4502C89.184 24.3108 89.3625 24.2313 89.575 24.2119C89.7427 24.1966 89.8806 24.2209 89.9889 24.2848L89.9921 24.9452C89.9842 24.9888 89.9693 25.0211 89.9474 25.0422C89.9277 25.0607 89.8989 25.0716 89.8612 25.0751C89.8257 25.0783 89.7721 25.0773 89.7001 25.072C89.6306 25.0664 89.5627 25.0667 89.4966 25.0727C89.3998 25.0816 89.3149 25.1036 89.2419 25.1389C89.169 25.1741 89.1043 25.2217 89.0478 25.2816C88.9936 25.339 88.9463 25.4076 88.9059 25.4875C88.868 25.5672 88.8334 25.6572 88.8021 25.7577L89.0069 27.9963L88.132 28.0764L87.7995 24.4422L88.3131 24.3952C88.4029 24.387 88.4669 24.3978 88.5054 24.4276C88.5436 24.4551 88.5724 24.5096 88.5918 24.5912L88.6825 24.9972ZM91.3599 24.5094C91.4895 24.3642 91.6355 24.2425 91.7979 24.1443C91.9604 24.0461 92.1562 23.9865 92.3852 23.9656C92.5836 23.9474 92.7626 23.9656 92.9224 24.02C93.0819 24.0721 93.2181 24.1549 93.3309 24.2684C93.4458 24.3793 93.537 24.5174 93.6045 24.6827C93.6741 24.8454 93.7182 25.0282 93.7368 25.2313L93.9484 27.5443L93.0735 27.6243L92.8619 25.3114C92.8416 25.0894 92.7752 24.9228 92.6626 24.8117C92.5499 24.6982 92.3896 24.6509 92.1818 24.6699C92.0306 24.6838 91.8921 24.731 91.7661 24.8115C91.6401 24.8921 91.5235 24.9968 91.4163 25.1257L91.6567 27.7539L90.7818 27.834L90.3003 22.5704L91.1752 22.4904L91.3599 24.5094ZM96.5654 25.7405C96.3139 25.7754 96.1034 25.8173 95.934 25.8661C95.7644 25.9126 95.63 25.9654 95.5306 26.0245C95.4312 26.0836 95.3622 26.1482 95.3233 26.2184C95.2845 26.2887 95.2687 26.3627 95.2758 26.4407C95.2898 26.5941 95.3448 26.6998 95.4405 26.7578C95.5387 26.8155 95.661 26.8376 95.8074 26.8242C95.9868 26.8078 96.1386 26.7618 96.2626 26.6861C96.3888 26.6079 96.5084 26.497 96.6215 26.3533L96.5654 25.7405ZM94.4164 24.3477C94.7994 23.9269 95.2849 23.6896 95.8729 23.6358C96.0854 23.6164 96.2787 23.6344 96.4529 23.6899C96.6268 23.743 96.7773 23.8269 96.9045 23.9415C97.0314 24.0537 97.1323 24.1933 97.2071 24.3603C97.2843 24.527 97.3322 24.7131 97.351 24.9186L97.561 27.2138L97.1643 27.2501C97.0816 27.2577 97.0168 27.2517 96.9698 27.2322C96.9225 27.2103 96.8825 27.1628 96.8496 27.0896L96.7477 26.8346C96.6631 26.9257 96.5801 27.0071 96.4986 27.0789C96.4168 27.1483 96.3306 27.2085 96.2401 27.2597C96.1495 27.3108 96.0509 27.352 95.9442 27.3832C95.8401 27.4165 95.7231 27.4391 95.5932 27.451C95.4397 27.465 95.2962 27.4579 95.1627 27.4297C95.0289 27.399 94.911 27.3467 94.809 27.2727C94.707 27.1987 94.6244 27.1027 94.5612 26.9846C94.498 26.8666 94.459 26.7261 94.4441 26.5632C94.4357 26.4711 94.4427 26.3788 94.4652 26.2862C94.4875 26.1913 94.529 26.0994 94.59 26.0105C94.6533 25.9214 94.737 25.8351 94.8413 25.7518C94.9456 25.6684 95.0756 25.5922 95.2312 25.5232C95.3891 25.454 95.5741 25.3931 95.7859 25.3403C95.9976 25.2853 96.2412 25.2415 96.5168 25.2092L96.4974 24.9967C96.4751 24.7534 96.4068 24.5787 96.2923 24.4725C96.1776 24.364 96.0222 24.3186 95.8263 24.3366C95.6846 24.3495 95.568 24.3769 95.4766 24.4186C95.3875 24.46 95.3095 24.5053 95.2425 24.5543C95.1754 24.6009 95.1138 24.6434 95.0578 24.6819C95.0041 24.7201 94.9419 24.7425 94.871 24.749C94.8096 24.7546 94.7563 24.744 94.711 24.7172C94.6654 24.688 94.6277 24.6534 94.5979 24.6132L94.4164 24.3477ZM98.7961 21.7933L99.2776 27.0568L98.4027 27.1369L97.9212 21.8733L98.7961 21.7933ZM100.731 23.2593L101.063 26.8935L100.185 26.9738L99.8523 23.3397L100.731 23.2593ZM100.754 22.1892C100.761 22.2648 100.752 22.337 100.728 22.4059C100.703 22.4749 100.667 22.5365 100.62 22.5908C100.574 22.645 100.519 22.6905 100.453 22.7275C100.388 22.7621 100.316 22.7829 100.238 22.7901C100.162 22.797 100.089 22.7894 100.018 22.7673C99.9489 22.7427 99.8873 22.7078 99.8332 22.6628C99.7791 22.6177 99.7336 22.5635 99.6969 22.5002C99.6625 22.4367 99.6419 22.3672 99.6349 22.2916C99.6278 22.2137 99.6353 22.1392 99.6574 22.0681C99.6818 21.9968 99.7165 21.9341 99.7616 21.88C99.8066 21.8258 99.8609 21.7816 99.9245 21.7472C99.9901 21.7102 100.061 21.6883 100.136 21.6814C100.214 21.6743 100.289 21.6829 100.36 21.7074C100.431 21.7294 100.494 21.763 100.548 21.808C100.604 21.8529 100.651 21.9081 100.688 21.9738C100.725 22.0395 100.747 22.1113 100.754 22.1892ZM101.962 26.8113L101.63 23.1771L102.165 23.1281C102.278 23.1178 102.357 23.1641 102.402 23.2671L102.484 23.5311C102.541 23.4545 102.601 23.3835 102.664 23.3182C102.73 23.2527 102.799 23.1951 102.873 23.1455C102.95 23.0956 103.032 23.0548 103.119 23.0229C103.209 22.9885 103.308 22.9664 103.417 22.9564C103.646 22.9355 103.839 22.9809 103.997 23.0927C104.157 23.2018 104.283 23.3558 104.375 23.5546C104.421 23.4289 104.482 23.3197 104.56 23.2269C104.637 23.1318 104.723 23.0524 104.82 22.9888C104.916 22.9252 105.02 22.8753 105.131 22.8389C105.245 22.8024 105.359 22.7788 105.475 22.7682C105.676 22.7498 105.857 22.7642 106.018 22.8114C106.18 22.8585 106.319 22.9362 106.436 23.0446C106.553 23.1529 106.646 23.2896 106.716 23.4547C106.788 23.6195 106.835 23.8118 106.855 24.0314L107.066 26.3444L106.191 26.4244L105.98 24.1114C105.959 23.88 105.892 23.7111 105.78 23.6046C105.668 23.4959 105.513 23.4504 105.317 23.4684C105.228 23.4766 105.145 23.4996 105.07 23.5374C104.997 23.575 104.934 23.626 104.881 23.6905C104.829 23.7523 104.791 23.8285 104.766 23.9189C104.741 24.0093 104.733 24.1111 104.744 24.2245L104.955 26.5375L104.077 26.6178L103.865 24.3048C103.843 24.0616 103.777 23.889 103.668 23.7871C103.561 23.685 103.413 23.6426 103.224 23.6599C103.096 23.6715 102.98 23.7143 102.875 23.7882C102.772 23.8595 102.678 23.9538 102.594 24.0711L102.837 26.7312L101.962 26.8113ZM109.683 24.5406C109.431 24.5755 109.221 24.6174 109.051 24.6662C108.882 24.7127 108.747 24.7655 108.648 24.8245C108.549 24.8836 108.48 24.9483 108.441 25.0185C108.402 25.0887 108.386 25.1628 108.393 25.2407C108.407 25.3942 108.462 25.4999 108.558 25.5578C108.656 25.6155 108.778 25.6377 108.925 25.6243C109.104 25.6079 109.256 25.5619 109.38 25.4862C109.506 25.408 109.626 25.2971 109.739 25.1534L109.683 24.5406ZM107.534 23.1477C107.917 22.727 108.402 22.4897 108.99 22.4359C109.203 22.4165 109.396 22.4345 109.57 22.49C109.744 22.5431 109.895 22.627 110.022 22.7416C110.149 22.8538 110.25 22.9934 110.325 23.1603C110.402 23.3271 110.45 23.5132 110.469 23.7187L110.678 26.0139L110.282 26.0502C110.199 26.0578 110.134 26.0518 110.087 26.0323C110.04 26.0104 110 25.9629 109.967 25.8897L109.865 25.6347C109.781 25.7258 109.698 25.8072 109.616 25.879C109.534 25.9483 109.448 26.0086 109.358 26.0598C109.267 26.1109 109.168 26.1521 109.062 26.1833C108.958 26.2166 108.841 26.2392 108.711 26.2511C108.557 26.2651 108.414 26.258 108.28 26.2297C108.146 26.1991 108.028 26.1468 107.926 26.0728C107.824 25.9988 107.742 25.9028 107.679 25.7847C107.615 25.6667 107.576 25.5262 107.562 25.3633C107.553 25.2712 107.56 25.1788 107.583 25.0863C107.605 24.9914 107.647 24.8995 107.707 24.8106C107.771 24.7215 107.855 24.6352 107.959 24.5519C108.063 24.4685 108.193 24.3923 108.349 24.3233C108.507 24.2541 108.692 24.1931 108.903 24.1404C109.115 24.0853 109.359 24.0416 109.634 24.0093L109.615 23.7967C109.593 23.5535 109.524 23.3788 109.41 23.2726C109.295 23.164 109.14 23.1187 108.944 23.1366C108.802 23.1496 108.685 23.1769 108.594 23.2186C108.505 23.2601 108.427 23.3054 108.36 23.3543C108.293 23.401 108.231 23.4435 108.175 23.482C108.122 23.5202 108.059 23.5426 107.988 23.5491C107.927 23.5547 107.874 23.5441 107.828 23.5173C107.783 23.4881 107.745 23.4534 107.715 23.4133L107.534 23.1477ZM112.088 22.6133C112.217 22.4681 112.363 22.3464 112.526 22.2482C112.688 22.15 112.884 22.0904 113.113 22.0695C113.311 22.0514 113.49 22.0695 113.65 22.1239C113.81 22.176 113.946 22.2588 114.059 22.3723C114.174 22.4832 114.265 22.6213 114.332 22.7866C114.402 22.9493 114.446 23.1322 114.465 23.3353L114.676 25.6482L113.801 25.7283L113.59 23.4153C113.569 23.1933 113.503 23.0268 113.39 22.9156C113.278 22.8021 113.117 22.7549 112.91 22.7739C112.758 22.7877 112.62 22.8349 112.494 22.9155C112.368 22.9961 112.251 23.1008 112.144 23.2296L112.384 25.8579L111.51 25.9379L111.028 20.6744L111.903 20.5943L112.088 22.6133Z" fill="black"/>
<path d="M51.6096 40.8019L51.8682 40.7782C51.9579 40.77 52.029 40.7528 52.0813 40.7266C52.1335 40.698 52.1795 40.6545 52.2194 40.5961L53.734 38.5288C53.7756 38.4631 53.8213 38.416 53.8711 38.3877C53.9209 38.3593 53.9836 38.3417 54.0591 38.3348L54.64 38.2816L52.906 40.644C52.8639 40.705 52.8222 40.7564 52.7808 40.7983C52.7415 40.8376 52.6982 40.8714 52.6508 40.8995C52.7165 40.9149 52.7772 40.9415 52.8331 40.9793C52.8887 41.0147 52.9443 41.0631 53 41.1247L55.2389 43.3451L54.6439 43.3996C54.599 43.4037 54.5598 43.4049 54.5263 43.4032C54.495 43.3989 54.467 43.3919 54.4423 43.3823C54.4174 43.3703 54.3947 43.3569 54.3743 43.3421C54.3561 43.3247 54.3376 43.3049 54.3189 43.2828L52.3847 41.4275C52.3321 41.3727 52.2776 41.3361 52.2211 41.3174C52.1644 41.2964 52.0806 41.291 51.9696 41.3011L51.6579 41.3296L51.8704 43.6533L51.1868 43.7158L50.7225 38.64L51.4061 38.5774L51.6096 40.8019ZM57.5117 41.5085C57.2221 41.5445 56.9763 41.5908 56.7744 41.6474C56.5745 41.7014 56.4124 41.7638 56.2879 41.8348C56.1658 41.9055 56.0789 41.9837 56.0272 42.0693C55.9779 42.1548 55.9577 42.2471 55.9668 42.3463C55.9754 42.4408 55.9982 42.5208 56.0352 42.5865C56.0722 42.6522 56.1187 42.7051 56.1747 42.7452C56.2329 42.7827 56.2984 42.8089 56.3712 42.8237C56.4461 42.8358 56.5249 42.8382 56.6076 42.8306C56.7186 42.8205 56.8191 42.8005 56.9093 42.7709C56.9992 42.7388 57.0824 42.6979 57.1588 42.648C57.2375 42.598 57.3108 42.5401 57.3786 42.4743C57.4488 42.4084 57.5158 42.3344 57.5798 42.2523L57.5117 41.5085ZM55.3409 40.2284C55.5217 40.019 55.7224 39.8566 55.9428 39.7412C56.1632 39.6257 56.4127 39.5553 56.6914 39.5298C56.8921 39.5114 57.0734 39.5282 57.2353 39.5801C57.3972 39.6319 57.5367 39.712 57.6538 39.8204C57.7708 39.9287 57.8642 40.0642 57.9338 40.2269C58.0035 40.3896 58.0475 40.5713 58.0658 40.7721L58.2758 43.0673L57.996 43.0929C57.9346 43.0985 57.8865 43.0934 57.8517 43.0775C57.8167 43.0593 57.787 43.0215 57.7628 42.9642L57.6608 42.6307C57.5743 42.7267 57.4894 42.813 57.4059 42.8897C57.3222 42.9641 57.2329 43.0294 57.1381 43.0857C57.043 43.1396 56.9399 43.1836 56.8287 43.2176C56.7201 43.2537 56.5973 43.278 56.4603 43.2905C56.321 43.3033 56.1882 43.2964 56.062 43.2698C55.9355 43.2409 55.8227 43.1917 55.7235 43.1222C55.6266 43.0525 55.5456 42.9611 55.4805 42.848C55.4175 42.7323 55.3786 42.593 55.3637 42.4301C55.3507 42.2884 55.3773 42.149 55.4433 42.012C55.5091 41.8727 55.6248 41.7442 55.7902 41.6267C55.9557 41.5092 56.176 41.4057 56.4512 41.3162C56.7261 41.2244 57.0675 41.1551 57.4751 41.1083L57.4495 40.8284C57.424 40.5498 57.3446 40.3451 57.2112 40.2145C57.0776 40.0814 56.8951 40.0255 56.6637 40.0467C56.5078 40.0609 56.3786 40.093 56.276 40.1429C56.1755 40.1901 56.0886 40.2421 56.0152 40.2989C55.944 40.353 55.8819 40.4027 55.8289 40.4481C55.778 40.4908 55.7254 40.5147 55.6711 40.5196C55.6286 40.5235 55.591 40.5162 55.5584 40.4978C55.5255 40.477 55.497 40.451 55.4727 40.4199L55.3409 40.2284ZM59.4178 37.7017L59.895 42.9192L59.2645 42.9769L58.7873 37.7594L59.4178 37.7017ZM61.2622 39.176L61.5905 42.7641L60.96 42.8218L60.6318 39.2337L61.2622 39.176ZM61.2938 38.0373C61.2994 38.0987 61.2917 38.1577 61.2707 38.2144C61.2519 38.2685 61.2231 38.3188 61.1845 38.3652C61.148 38.409 61.1025 38.4453 61.048 38.4741C60.9959 38.5027 60.9391 38.5198 60.8777 38.5254C60.8163 38.531 60.7574 38.5245 60.7009 38.5058C60.6468 38.487 60.5978 38.4593 60.554 38.4228C60.51 38.384 60.4738 38.3397 60.4454 38.2899C60.4168 38.2378 60.3997 38.181 60.3941 38.1196C60.3885 38.0582 60.395 37.9993 60.4137 37.9428C60.4321 37.8839 60.4595 37.8326 60.496 37.7888C60.5323 37.7426 60.5753 37.7054 60.6251 37.677C60.6772 37.6484 60.734 37.6313 60.7954 37.6257C60.8568 37.6201 60.9157 37.6266 60.9722 37.6452C61.031 37.6637 61.0825 37.6923 61.1265 37.7311C61.1727 37.7674 61.2102 37.8128 61.239 37.8673C61.2699 37.9192 61.2882 37.9759 61.2938 38.0373ZM64.4304 40.8756C64.1408 40.9116 63.895 40.9579 63.693 41.0145C63.4932 41.0685 63.331 41.131 63.2065 41.2019C63.0844 41.2726 62.9975 41.3508 62.9458 41.4365C62.8965 41.5219 62.8764 41.6143 62.8854 41.7134C62.8941 41.8079 62.9169 41.888 62.9538 41.9536C62.9908 42.0193 63.0373 42.0722 63.0934 42.1123C63.1516 42.1498 63.2171 42.176 63.2898 42.1908C63.3648 42.203 63.4436 42.2053 63.5262 42.1977C63.6372 42.1876 63.7378 42.1677 63.8279 42.138C63.9179 42.1059 64.001 42.065 64.0774 42.0152C64.1562 41.9651 64.2295 41.9072 64.2973 41.8415C64.3674 41.7755 64.4345 41.7015 64.4984 41.6195L64.4304 40.8756ZM62.2595 39.5955C62.4404 39.3861 62.641 39.2237 62.8614 39.1083C63.0818 38.9929 63.3314 38.9224 63.61 38.8969C63.8107 38.8786 63.9921 38.8953 64.154 38.9472C64.3159 38.999 64.4553 39.0791 64.5724 39.1875C64.6895 39.2958 64.7828 39.4314 64.8525 39.5941C64.9221 39.7567 64.9661 39.9385 64.9845 40.1392L65.1944 42.4344L64.9146 42.46C64.8532 42.4657 64.8051 42.4605 64.7703 42.4447C64.7353 42.4264 64.7057 42.3887 64.6814 42.3314L64.5794 41.9978C64.493 42.0938 64.408 42.1802 64.3245 42.2569C64.2409 42.3312 64.1516 42.3965 64.0567 42.4528C63.9617 42.5067 63.8585 42.5507 63.7473 42.5847C63.6387 42.6208 63.5159 42.6451 63.379 42.6577C63.2397 42.6704 63.1069 42.6635 62.9806 42.637C62.8542 42.608 62.7413 42.5588 62.6421 42.4893C62.5452 42.4196 62.4643 42.3282 62.3991 42.2151C62.3362 42.0994 62.2972 41.9601 62.2823 41.7972C62.2694 41.6555 62.2959 41.5162 62.362 41.3791C62.4278 41.2398 62.5434 41.1113 62.7089 40.9938C62.8743 40.8763 63.0947 40.7728 63.3698 40.6833C63.6448 40.5915 63.9861 40.5222 64.3937 40.4754L64.3682 40.1956C64.3427 39.9169 64.2632 39.7122 64.1298 39.5816C63.9962 39.4486 63.8137 39.3926 63.5823 39.4138C63.4264 39.428 63.2972 39.4601 63.1946 39.51C63.0942 39.5573 63.0073 39.6093 62.9339 39.666C62.8626 39.7201 62.8005 39.7699 62.7475 39.8152C62.6967 39.8579 62.6441 39.8818 62.5898 39.8868C62.5473 39.8906 62.5097 39.8834 62.477 39.8649C62.4442 39.8441 62.4156 39.8182 62.3913 39.787L62.2595 39.5955ZM66.4764 39.2241C66.5463 39.1296 66.6217 39.0429 66.7026 38.9641C66.7835 38.8852 66.8701 38.8166 66.9624 38.7581C67.0568 38.6971 67.1572 38.6487 67.2634 38.6127C67.3718 38.5743 67.4898 38.5492 67.6173 38.5375C67.8133 38.5196 67.9887 38.5369 68.1435 38.5894C68.3004 38.6393 68.434 38.72 68.5442 38.8313C68.6566 38.9401 68.7464 39.0759 68.8137 39.2389C68.881 39.4018 68.9239 39.5848 68.9425 39.7878L69.1514 42.0725L68.5174 42.1305L68.3084 39.8458C68.2836 39.5743 68.2018 39.3698 68.063 39.2325C67.9264 39.0926 67.7318 39.0342 67.4791 39.0573C67.2925 39.0744 67.1219 39.1353 66.9672 39.2399C66.8148 39.3443 66.6772 39.4795 66.5542 39.6455L66.796 42.2879L66.1619 42.3459L65.8337 38.7578L66.2127 38.7231C66.3024 38.7149 66.3619 38.7535 66.3912 38.839L66.4764 39.2241ZM72.2766 38.1684L72.6291 42.0222C72.6423 42.1663 72.6356 42.3014 72.6091 42.4277C72.5827 42.5563 72.5324 42.6704 72.4582 42.7701C72.384 42.8697 72.2843 42.9515 72.1592 43.0153C72.0367 43.0813 71.8856 43.1225 71.7062 43.1389C71.6306 43.1458 71.5604 43.1463 71.4956 43.1403C71.4307 43.1343 71.3654 43.1225 71.2994 43.1047L71.2931 42.7624C71.2959 42.7407 71.3027 42.7234 71.3134 42.7105C71.322 42.7002 71.3356 42.693 71.3543 42.6889C71.3729 42.6848 71.3976 42.6814 71.4283 42.6786C71.4569 42.6783 71.4936 42.6762 71.5385 42.6721C71.7227 42.6552 71.8497 42.5995 71.9196 42.505C71.9898 42.4129 72.0161 42.2712 71.9986 42.0799L71.6461 38.2261L72.2766 38.1684ZM72.3046 37.0301C72.3102 37.0915 72.3025 37.1505 72.2815 37.2072C72.2627 37.2613 72.2339 37.3116 72.1953 37.358C72.1588 37.4018 72.1145 37.438 72.0624 37.4666C72.0102 37.4951 71.9535 37.5122 71.8921 37.5179C71.8307 37.5235 71.7717 37.517 71.7153 37.4983C71.6611 37.4794 71.6122 37.4518 71.5684 37.4153C71.5243 37.3765 71.4881 37.3322 71.4598 37.2824C71.4312 37.2302 71.4141 37.1734 71.4085 37.1121C71.4029 37.0507 71.4094 36.9917 71.428 36.9352C71.4464 36.8764 71.4739 36.8251 71.5104 36.7813C71.5466 36.7351 71.5896 36.6978 71.6394 36.6695C71.6916 36.6409 71.7484 36.6238 71.8098 36.6182C71.8712 36.6125 71.9301 36.6191 71.9866 36.6377C72.043 36.6564 72.0933 36.6851 72.1373 36.7239C72.1835 36.7602 72.221 36.8056 72.2498 36.8601C72.2807 36.912 72.299 36.9687 72.3046 37.0301ZM75.4447 39.8681C75.1551 39.9041 74.9093 39.9504 74.7074 40.007C74.5075 40.061 74.3454 40.1234 74.2209 40.1944C74.0988 40.2651 74.0119 40.3432 73.9602 40.4289C73.9108 40.5144 73.8907 40.6067 73.8998 40.7059C73.9084 40.8004 73.9312 40.8804 73.9682 40.9461C74.0051 41.0118 74.0517 41.0647 74.1077 41.1048C74.1659 41.1423 74.2314 41.1685 74.3042 41.1832C74.3791 41.1954 74.4579 41.1978 74.5406 41.1902C74.6515 41.18 74.7521 41.1601 74.8423 41.1305C74.9322 41.0984 75.0154 41.0575 75.0918 41.0076C75.1705 40.9576 75.2438 40.8997 75.3116 40.8339C75.3818 40.768 75.4488 40.694 75.5128 40.6119L75.4447 39.8681ZM73.2739 38.588C73.4547 38.3786 73.6554 38.2162 73.8758 38.1007C74.0962 37.9853 74.3457 37.9149 74.6244 37.8894C74.8251 37.871 75.0064 37.8878 75.1683 37.9396C75.3302 37.9915 75.4697 38.0716 75.5867 38.18C75.7038 38.2883 75.7972 38.4238 75.8668 38.5865C75.9365 38.7492 75.9805 38.9309 75.9988 39.1316L76.2088 41.4269L75.929 41.4525C75.8676 41.4581 75.8195 41.453 75.7847 41.4371C75.7497 41.4189 75.72 41.3811 75.6957 41.3238L75.5938 40.9903C75.5073 41.0863 75.4224 41.1726 75.3389 41.2493C75.2552 41.3237 75.1659 41.389 75.0711 41.4453C74.976 41.4992 74.8729 41.5432 74.7617 41.5771C74.6531 41.6133 74.5303 41.6376 74.3933 41.6501C74.254 41.6629 74.1212 41.656 73.995 41.6294C73.8685 41.6005 73.7557 41.5513 73.6564 41.4818C73.5596 41.4121 73.4786 41.3207 73.4135 41.2076C73.3505 41.0919 73.3116 40.9526 73.2967 40.7897C73.2837 40.648 73.3103 40.5086 73.3763 40.3716C73.4421 40.2323 73.5578 40.1038 73.7232 39.9863C73.8887 39.8688 74.109 39.7653 74.3842 39.6758C74.6591 39.584 75.0004 39.5147 75.4081 39.4678L75.3825 39.188C75.357 38.9094 75.2776 38.7047 75.1442 38.5741C75.0106 38.441 74.8281 38.3851 74.5966 38.4063C74.4408 38.4205 74.3116 38.4526 74.209 38.5024C74.1085 38.5497 74.0216 38.6017 73.9482 38.6584C73.877 38.7126 73.8149 38.7623 73.7619 38.8076C73.711 38.8504 73.6584 38.8743 73.6041 38.8792C73.5616 38.8831 73.524 38.8758 73.4914 38.8574C73.4585 38.8366 73.43 38.8106 73.4057 38.7795L73.2739 38.588ZM77.4907 38.2165C77.5607 38.122 77.6361 38.0354 77.717 37.9565C77.7979 37.8777 77.8845 37.8091 77.9767 37.7506C78.0712 37.6896 78.1715 37.6411 78.2778 37.6052C78.3861 37.5667 78.5041 37.5416 78.6316 37.53C78.8276 37.5121 79.003 37.5293 79.1578 37.5819C79.3148 37.6318 79.4484 37.7124 79.5586 37.8238C79.6709 37.9326 79.7607 38.0684 79.828 38.2313C79.8953 38.3942 79.9382 38.5772 79.9568 38.7803L80.1658 41.0649L79.5318 41.1229L79.3228 38.8383C79.2979 38.5667 79.2161 38.3623 79.0774 38.225C78.9408 38.0851 78.7461 38.0267 78.4934 38.0498C78.3069 38.0669 78.1363 38.1277 77.9815 38.2324C77.8292 38.3368 77.6915 38.472 77.5686 38.638L77.8103 41.2804L77.1763 41.3384L76.848 37.7503L77.2271 37.7156C77.3168 37.7074 77.3763 37.746 77.4055 37.8314L77.4907 38.2165ZM82.2236 39.1087C82.3511 39.097 82.4616 39.0691 82.5552 39.0248C82.6488 38.9805 82.7257 38.9235 82.786 38.8537C82.8463 38.7839 82.889 38.7038 82.9141 38.6134C82.9389 38.5206 82.9465 38.4211 82.9367 38.3148C82.9167 38.0952 82.8334 37.9266 82.6869 37.8091C82.5428 37.6913 82.3444 37.644 82.0917 37.6671C81.8367 37.6904 81.6478 37.7732 81.5251 37.9154C81.4047 38.0573 81.3546 38.2381 81.3747 38.4577C81.3844 38.564 81.4099 38.6605 81.4512 38.7472C81.4946 38.8313 81.5523 38.9022 81.6242 38.9599C81.6962 39.0177 81.7822 39.0598 81.8822 39.0864C81.9823 39.1129 82.0961 39.1204 82.2236 39.1087ZM83.5388 40.9528C83.5308 40.8655 83.4995 40.7969 83.445 40.7471C83.3904 40.6974 83.3192 40.661 83.2314 40.6381C83.146 40.6149 83.0472 40.6025 82.9351 40.6009C82.8229 40.5969 82.7038 40.5971 82.578 40.6014C82.4546 40.6056 82.3288 40.6099 82.2006 40.6145C82.0724 40.6191 81.9486 40.6185 81.829 40.6128C81.7024 40.6863 81.6009 40.7741 81.5245 40.8764C81.4503 40.976 81.4189 41.0884 81.4303 41.2136C81.4377 41.2939 81.4646 41.3664 81.511 41.4312C81.5599 41.4982 81.6292 41.5526 81.7188 41.5944C81.8085 41.6386 81.9185 41.669 82.0486 41.6856C82.1812 41.7045 82.335 41.7059 82.5097 41.6899C82.6797 41.6743 82.8306 41.6451 82.9624 41.6021C83.0942 41.559 83.2036 41.505 83.2905 41.4399C83.3797 41.3746 83.4456 41.3007 83.4881 41.2182C83.5305 41.1358 83.5474 41.0473 83.5388 40.9528ZM83.8468 37.2529L83.8682 37.4867C83.8754 37.5646 83.8303 37.6188 83.7331 37.6491L83.3306 37.7395C83.4251 37.888 83.481 38.0567 83.4983 38.2456C83.5143 38.4204 83.4946 38.5829 83.4393 38.7332C83.3862 38.8809 83.3052 39.011 83.1964 39.1233C83.0877 39.2356 82.9531 39.3265 82.7928 39.396C82.6324 39.4654 82.4555 39.509 82.2618 39.5267C82.0942 39.542 81.9341 39.5364 81.7817 39.5099C81.7104 39.564 81.6572 39.6201 81.622 39.6781C81.5867 39.7337 81.5714 39.7887 81.5764 39.843C81.5842 39.928 81.6244 39.9898 81.6969 40.0284C81.7717 40.0644 81.8666 40.0867 81.9817 40.0952C82.0967 40.1037 82.2265 40.1038 82.371 40.0953C82.5178 40.0866 82.6673 40.0813 82.8196 40.0793C82.9739 40.0747 83.1243 40.0788 83.2707 40.0916C83.4195 40.1042 83.5533 40.1348 83.672 40.1835C83.7908 40.2321 83.8891 40.3053 83.9671 40.4029C84.0475 40.5003 84.0952 40.6317 84.1103 40.797C84.1244 40.9505 84.099 41.1028 84.0342 41.254C83.9719 41.4049 83.8737 41.5425 83.7398 41.6667C83.6061 41.7932 83.4373 41.8991 83.2331 41.9845C83.0316 42.072 82.7998 42.1277 82.5377 42.1517C82.2755 42.1756 82.0441 42.1706 81.8434 42.1366C81.6426 42.1026 81.4733 42.0478 81.3354 41.9723C81.1976 41.8968 81.0903 41.8043 81.0136 41.6946C80.9395 41.5871 80.8967 41.4708 80.8852 41.3456C80.869 41.1685 80.9108 41.0135 81.0105 40.8805C81.1103 40.7476 81.2536 40.6356 81.4406 40.5447C81.33 40.5072 81.2393 40.4524 81.1684 40.3803C81.0996 40.3057 81.0591 40.201 81.0468 40.0664C81.0421 40.0145 81.0466 39.9605 81.0606 39.9044C81.0743 39.846 81.0975 39.788 81.1303 39.7302C81.1653 39.6698 81.2088 39.6123 81.261 39.5575C81.3131 39.5027 81.3752 39.453 81.4474 39.4083C81.2612 39.3253 81.111 39.2069 80.997 39.053C80.8827 38.8968 80.8156 38.7101 80.7957 38.4928C80.7797 38.3181 80.7983 38.1569 80.8515 38.0091C80.9068 37.8588 80.9901 37.7286 81.1015 37.6184C81.2126 37.5058 81.3483 37.4148 81.5087 37.3454C81.6714 37.2757 81.8519 37.2318 82.0502 37.2137C82.2061 37.1994 82.3529 37.2039 82.4908 37.227C82.6284 37.2477 82.7557 37.2861 82.8728 37.342L83.8468 37.2529ZM86.618 38.846C86.3284 38.882 86.0826 38.9283 85.8807 38.9849C85.6808 39.0389 85.5187 39.1014 85.3942 39.1723C85.2721 39.243 85.1852 39.3212 85.1335 39.4069C85.0841 39.4923 85.064 39.5847 85.0731 39.6838C85.0817 39.7783 85.1045 39.8584 85.1415 39.924C85.1784 39.9897 85.225 40.0426 85.281 40.0827C85.3392 40.1202 85.4047 40.1464 85.4775 40.1612C85.5524 40.1734 85.6312 40.1757 85.7139 40.1681C85.8248 40.158 85.9254 40.1381 86.0156 40.1084C86.1055 40.0763 86.1887 40.0354 86.2651 39.9855C86.3438 39.9355 86.4171 39.8776 86.4849 39.8119C86.5551 39.7459 86.6221 39.6719 86.6861 39.5899L86.618 38.846ZM84.4472 37.5659C84.628 37.3565 84.8287 37.1941 85.0491 37.0787C85.2695 36.9633 85.519 36.8928 85.7977 36.8673C85.9984 36.849 86.1797 36.8657 86.3416 36.9176C86.5035 36.9694 86.643 37.0495 86.76 37.1579C86.8771 37.2662 86.9705 37.4018 87.0401 37.5645C87.1098 37.7271 87.1538 37.9089 87.1721 38.1096L87.3821 40.4048L87.1023 40.4304C87.0409 40.4361 86.9928 40.4309 86.958 40.4151C86.923 40.3968 86.8933 40.3591 86.869 40.3018L86.7671 39.9682C86.6806 40.0642 86.5957 40.1506 86.5122 40.2273C86.4285 40.3016 86.3392 40.3669 86.2444 40.4232C86.1493 40.4771 86.0462 40.5211 85.935 40.5551C85.8264 40.5912 85.7036 40.6155 85.5666 40.6281C85.4273 40.6408 85.2945 40.6339 85.1683 40.6073C85.0418 40.5784 84.929 40.5292 84.8297 40.4597C84.7329 40.39 84.6519 40.2986 84.5868 40.1855C84.5238 40.0698 84.4849 39.9305 84.47 39.7676C84.457 39.6259 84.4836 39.4866 84.5496 39.3495C84.6154 39.2102 84.7311 39.0817 84.8965 38.9642C85.062 38.8467 85.2823 38.7432 85.5575 38.6537C85.8324 38.5619 86.1737 38.4926 86.5814 38.4458L86.5558 38.1659C86.5303 37.8873 86.4509 37.6826 86.3175 37.552C86.1839 37.419 86.0014 37.363 85.7699 37.3842C85.6141 37.3984 85.4849 37.4305 85.3823 37.4804C85.2818 37.5277 85.1949 37.5797 85.1215 37.6364C85.0503 37.6905 84.9882 37.7403 84.9352 37.7856C84.8843 37.8283 84.8317 37.8522 84.7774 37.8572C84.7349 37.861 84.6973 37.8538 84.6647 37.8353C84.6318 37.8145 84.6033 37.7886 84.579 37.7574L84.4472 37.5659ZM88.664 37.1945C88.734 37.1 88.8094 37.0133 88.8903 36.9345C88.9712 36.8556 89.0578 36.787 89.15 36.7285C89.2445 36.6675 89.3448 36.619 89.4511 36.5831C89.5594 36.5446 89.6774 36.5196 89.8049 36.5079C90.0009 36.49 90.1763 36.5073 90.3311 36.5598C90.4881 36.6097 90.6217 36.6904 90.7319 36.8017C90.8442 36.9105 90.934 37.0463 91.0013 37.2092C91.0686 37.3722 91.1115 37.5551 91.1301 37.7582L91.3391 40.0429L90.7051 40.1009L90.4961 37.8162C90.4712 37.5447 90.3894 37.3402 90.2507 37.2029C90.1141 37.063 89.9194 37.0046 89.6667 37.0277C89.4802 37.0448 89.3096 37.1056 89.1548 37.2103C89.0025 37.3147 88.8648 37.4499 88.7419 37.6159L88.9836 40.2583L88.3496 40.3163L88.0213 36.7282L88.4004 36.6935C88.4901 36.6853 88.5496 36.7239 88.5788 36.8094L88.664 37.1945ZM95.2165 37.9202C95.344 37.9085 95.4546 37.8806 95.5482 37.8363C95.6417 37.792 95.7187 37.735 95.779 37.6651C95.8392 37.5953 95.8819 37.5152 95.907 37.4248C95.9318 37.3321 95.9394 37.2326 95.9297 37.1263C95.9096 36.9067 95.8263 36.7381 95.6798 36.6206C95.5357 36.5028 95.3373 36.4554 95.0847 36.4786C94.8296 36.5019 94.6407 36.5846 94.518 36.7268C94.3977 36.8688 94.3475 37.0496 94.3676 37.2692C94.3773 37.3755 94.4028 37.472 94.4441 37.5587C94.4875 37.6428 94.5452 37.7137 94.6172 37.7714C94.6891 37.8291 94.7751 37.8713 94.8752 37.8978C94.9752 37.9244 95.089 37.9319 95.2165 37.9202ZM96.5317 39.7643C96.5238 39.677 96.4925 39.6084 96.4379 39.5586C96.3834 39.5088 96.3122 39.4725 96.2244 39.4496C96.1389 39.4264 96.0401 39.414 95.9281 39.4124C95.8158 39.4084 95.6967 39.4085 95.5709 39.4129C95.4475 39.417 95.3217 39.4214 95.1935 39.426C95.0654 39.4306 94.9415 39.43 94.8219 39.4243C94.6953 39.4978 94.5938 39.5856 94.5174 39.6878C94.4432 39.7875 94.4118 39.8999 94.4233 40.0251C94.4306 40.1053 94.4575 40.1779 94.5039 40.2427C94.5529 40.3097 94.6222 40.364 94.7117 40.4059C94.8015 40.45 94.9114 40.4805 95.0415 40.4971C95.1742 40.5159 95.3279 40.5174 95.5026 40.5014C95.6727 40.4858 95.8236 40.4565 95.9554 40.4135C96.0872 40.3705 96.1965 40.3165 96.2834 40.2514C96.3727 40.1861 96.4386 40.1122 96.481 40.0297C96.5235 39.9472 96.5404 39.8588 96.5317 39.7643ZM96.8398 36.0644L96.8612 36.2982C96.8683 36.3761 96.8232 36.4302 96.726 36.4606L96.3235 36.551C96.4181 36.6995 96.474 36.8682 96.4913 37.0571C96.5072 37.2318 96.4876 37.3944 96.4323 37.5447C96.3791 37.6924 96.2982 37.8224 96.1894 37.9348C96.0806 38.0471 95.946 38.138 95.7857 38.2074C95.6254 38.2769 95.4484 38.3204 95.2548 38.3382C95.0871 38.3535 94.9271 38.3479 94.7746 38.3214C94.7034 38.3755 94.6502 38.4316 94.615 38.4895C94.5796 38.5452 94.5644 38.6001 94.5693 38.6544C94.5771 38.7395 94.6173 38.8013 94.6899 38.8399C94.7646 38.8759 94.8595 38.8982 94.9746 38.9067C95.0897 38.9152 95.2194 38.9152 95.3639 38.9068C95.5108 38.8981 95.6603 38.8928 95.8125 38.8908C95.9668 38.8862 96.1172 38.8903 96.2637 38.9031C96.4124 38.9156 96.5462 38.9463 96.665 38.9949C96.7837 39.0436 96.8821 39.1168 96.96 39.2144C97.0404 39.3118 97.0881 39.4432 97.1032 39.6085C97.1173 39.762 97.0919 39.9143 97.0272 40.0655C96.9648 40.2164 96.8667 40.354 96.7328 40.4781C96.5991 40.6047 96.4302 40.7106 96.2261 40.7959C96.0245 40.8834 95.7927 40.9392 95.5306 40.9631C95.2685 40.9871 95.0371 40.9821 94.8363 40.9481C94.6356 40.9141 94.4662 40.8593 94.3284 40.7838C94.1905 40.7083 94.0832 40.6157 94.0065 40.5061C93.9324 40.3986 93.8896 40.2822 93.8782 40.1571C93.862 39.98 93.9037 39.8249 94.0035 39.692C94.1032 39.5591 94.2466 39.4471 94.4335 39.3562C94.3229 39.3187 94.2322 39.2639 94.1613 39.1918C94.0926 39.1171 94.0521 39.0125 94.0397 38.8779C94.035 38.826 94.0396 38.772 94.0535 38.7159C94.0672 38.6575 94.0905 38.5994 94.1233 38.5417C94.1582 38.4813 94.2018 38.4238 94.2539 38.369C94.3061 38.3142 94.3682 38.2645 94.4403 38.2198C94.2541 38.1368 94.104 38.0184 93.9899 37.8645C93.8756 37.7083 93.8085 37.5216 93.7886 37.3043C93.7727 37.1296 93.7912 36.9683 93.8444 36.8206C93.8997 36.6703 93.983 36.54 94.0944 36.4298C94.2055 36.3173 94.3413 36.2263 94.5016 36.1569C94.6643 36.0872 94.8448 36.0433 95.0432 36.0252C95.199 36.0109 95.3459 36.0153 95.4837 36.0384C95.6213 36.0592 95.7487 36.0976 95.8657 36.1535L96.8398 36.0644ZM98.1518 35.8015L98.48 39.3897L97.8495 39.4473L97.5213 35.8592L98.1518 35.8015ZM98.1833 34.6628C98.189 34.7242 98.1813 34.7833 98.1603 34.84C98.1414 34.8941 98.1127 34.9443 98.074 34.9907C98.0376 35.0345 97.9921 35.0708 97.9376 35.0996C97.8854 35.1282 97.8286 35.1453 97.7672 35.1509C97.7058 35.1566 97.6469 35.15 97.5904 35.1314C97.5363 35.1125 97.4874 35.0849 97.4435 35.0484C97.3995 35.0096 97.3633 34.9652 97.3349 34.9155C97.3064 34.8633 97.2893 34.8065 97.2837 34.7451C97.278 34.6837 97.2846 34.6248 97.3032 34.5683C97.3216 34.5095 97.3491 34.4582 97.3855 34.4144C97.4218 34.3682 97.4648 34.3309 97.5146 34.3025C97.5668 34.274 97.6235 34.2569 97.6849 34.2512C97.7463 34.2456 97.8053 34.2521 97.8617 34.2708C97.9206 34.2892 97.972 34.3178 98.016 34.3567C98.0622 34.3929 98.0997 34.4383 98.1285 34.4928C98.1594 34.5448 98.1777 34.6014 98.1833 34.6628ZM100.63 39.2502C100.346 39.2761 100.121 39.217 99.9528 39.0728C99.7872 38.9284 99.6908 38.7074 99.6636 38.4099L99.4627 36.2138L99.0306 36.2533C98.9928 36.2568 98.9599 36.2491 98.932 36.2302C98.9039 36.209 98.8877 36.1747 98.8833 36.1275L98.8603 35.876L99.4415 35.7478L99.4853 34.6259C99.4892 34.5898 99.5019 34.5601 99.5236 34.5367C99.5474 34.5107 99.5794 34.4958 99.6195 34.4922L99.9383 34.463L100.051 35.6992L101.089 35.6043L101.131 36.0612L100.093 36.1561L100.29 38.3097C100.304 38.4608 100.351 38.5697 100.431 38.6362C100.511 38.7027 100.608 38.7306 100.724 38.7201C100.79 38.714 100.846 38.7006 100.892 38.6797C100.94 38.6563 100.98 38.6323 101.014 38.6078C101.047 38.5833 101.075 38.5617 101.097 38.5431C101.122 38.5218 101.143 38.5103 101.162 38.5086C101.195 38.5055 101.226 38.5229 101.256 38.5607L101.468 38.8449C101.368 38.9564 101.245 39.0487 101.097 39.1217C100.948 39.1924 100.793 39.2353 100.63 39.2502ZM104.691 35.2033L105.02 38.7915L104.644 38.8258C104.554 38.834 104.494 38.7955 104.462 38.7103L104.377 38.3287C104.237 38.5154 104.075 38.6707 103.891 38.7947C103.707 38.9163 103.49 38.9885 103.24 39.0114C103.044 39.0294 102.867 39.0134 102.71 38.9634C102.555 38.9109 102.422 38.8303 102.309 38.7215C102.197 38.6127 102.107 38.4769 102.04 38.314C101.975 38.1508 101.933 37.9677 101.915 37.7647L101.705 35.4765L102.336 35.4188L102.545 37.707C102.57 37.9785 102.651 38.1831 102.787 38.3206C102.926 38.4579 103.123 38.5149 103.378 38.4916C103.564 38.4745 103.734 38.415 103.886 38.3129C104.041 38.2083 104.18 38.0718 104.303 37.9034L104.061 35.261L104.691 35.2033ZM106.066 39.5601C106.045 39.5453 106.031 39.5311 106.023 39.5176C106.014 39.5041 106.009 39.4867 106.007 39.4655C106.006 39.4489 106.009 39.432 106.017 39.4146C106.027 39.397 106.039 39.3804 106.052 39.365C106.073 39.3368 106.099 39.2999 106.131 39.2542C106.165 39.2082 106.198 39.154 106.23 39.0915C106.263 39.0313 106.291 38.9645 106.315 38.8908C106.342 38.8193 106.359 38.7439 106.366 38.6647C106.359 38.6677 106.351 38.6697 106.342 38.6705C106.335 38.6712 106.327 38.6718 106.32 38.6725C106.198 38.6837 106.094 38.6527 106.008 38.5796C105.925 38.5038 105.878 38.4022 105.866 38.2747C105.856 38.1637 105.885 38.0658 105.954 37.981C106.024 37.8959 106.124 37.8476 106.251 37.8359C106.322 37.8294 106.386 37.8367 106.442 37.8577C106.499 37.8787 106.547 37.9112 106.587 37.9552C106.629 37.9966 106.662 38.0471 106.687 38.1068C106.711 38.1641 106.726 38.2282 106.733 38.299C106.742 38.4053 106.737 38.5177 106.717 38.6362C106.699 38.7521 106.666 38.8683 106.617 38.9847C106.571 39.1032 106.511 39.2194 106.438 39.3332C106.365 39.447 106.28 39.5537 106.182 39.6531L106.066 39.5601ZM111.274 35.1977C111.25 35.2522 111.209 35.2822 111.15 35.2876C111.115 35.2908 111.073 35.2815 111.026 35.2596C110.979 35.2378 110.921 35.2145 110.852 35.1899C110.785 35.1626 110.705 35.1401 110.613 35.1224C110.521 35.1022 110.413 35.0978 110.291 35.109C110.184 35.1187 110.09 35.1417 110.008 35.1778C109.925 35.2115 109.855 35.2548 109.798 35.3077C109.743 35.3603 109.702 35.42 109.675 35.4868C109.65 35.551 109.641 35.6197 109.648 35.6929C109.656 35.785 109.689 35.8594 109.747 35.916C109.807 35.9724 109.882 36.0191 109.974 36.056C110.065 36.0928 110.168 36.1239 110.282 36.1492C110.396 36.1721 110.513 36.1983 110.632 36.2279C110.754 36.2548 110.872 36.2869 110.988 36.324C111.103 36.361 111.207 36.411 111.301 36.4738C111.395 36.5367 111.473 36.6177 111.534 36.7168C111.598 36.8134 111.636 36.9337 111.649 37.0778C111.665 37.2431 111.649 37.3993 111.603 37.5463C111.557 37.6911 111.48 37.8207 111.374 37.9351C111.268 38.0473 111.134 38.1405 110.971 38.2149C110.809 38.2893 110.618 38.3365 110.398 38.3566C110.148 38.3795 109.918 38.3601 109.707 38.2984C109.497 38.2343 109.315 38.145 109.161 38.0304L109.288 37.7759C109.304 37.7435 109.324 37.7179 109.349 37.699C109.373 37.68 109.406 37.6688 109.446 37.6651C109.488 37.6612 109.535 37.6736 109.585 37.7024C109.635 37.7311 109.695 37.7625 109.765 37.7966C109.837 37.8305 109.923 37.8595 110.023 37.8837C110.123 37.9079 110.245 37.9135 110.389 37.9003C110.512 37.889 110.618 37.8639 110.707 37.8247C110.796 37.7833 110.869 37.7326 110.925 37.6726C110.982 37.6127 111.021 37.546 111.043 37.4726C111.067 37.3989 111.075 37.322 111.068 37.2417C111.059 37.1425 111.024 37.0635 110.964 37.0047C110.906 36.9434 110.831 36.8942 110.74 36.8574C110.648 36.8181 110.544 36.7872 110.428 36.7645C110.314 36.7392 110.196 36.7131 110.074 36.6861C109.955 36.6589 109.837 36.6269 109.719 36.59C109.603 36.5506 109.499 36.4983 109.405 36.433C109.311 36.3678 109.231 36.2846 109.167 36.1833C109.106 36.0794 109.068 35.9507 109.054 35.7972C109.041 35.6603 109.057 35.5266 109.103 35.3963C109.148 35.2636 109.22 35.145 109.32 35.0407C109.42 34.9339 109.546 34.845 109.699 34.7738C109.852 34.7027 110.03 34.6578 110.233 34.6392C110.47 34.6176 110.684 34.6361 110.878 34.6946C111.073 34.7505 111.246 34.8371 111.394 34.9545L111.274 35.1977ZM112.88 34.9365C113.018 34.7595 113.176 34.6141 113.354 34.5002C113.532 34.3863 113.742 34.3183 113.985 34.296C114.181 34.2781 114.357 34.2954 114.512 34.3479C114.669 34.3978 114.802 34.4785 114.912 34.5898C115.025 34.6986 115.114 34.8345 115.182 34.9974C115.249 35.1603 115.292 35.3433 115.311 35.5463L115.519 37.831L114.885 37.889L114.676 35.6043C114.652 35.3328 114.57 35.1283 114.431 34.991C114.294 34.8511 114.1 34.7927 113.847 34.8158C113.661 34.8329 113.49 34.8938 113.335 34.9984C113.183 35.1028 113.045 35.238 112.922 35.4041L113.164 38.0465L112.53 38.1045L112.053 32.887L112.687 32.829L112.88 34.9365ZM116.825 34.0934L117.153 37.6815L116.523 37.7392L116.195 34.1511L116.825 34.0934ZM116.857 32.9547C116.862 33.0161 116.854 33.0751 116.833 33.1318C116.815 33.1859 116.786 33.2362 116.747 33.2826C116.711 33.3264 116.665 33.3627 116.611 33.3915C116.559 33.4201 116.502 33.4372 116.44 33.4428C116.379 33.4484 116.32 33.4419 116.264 33.4233C116.21 33.4044 116.161 33.3767 116.117 33.3403C116.073 33.3014 116.037 33.2571 116.008 33.2073C115.98 33.1552 115.963 33.0984 115.957 33.037C115.951 32.9756 115.958 32.9167 115.976 32.8602C115.995 32.8014 116.022 32.75 116.059 32.7062C116.095 32.6601 116.138 32.6228 116.188 32.5944C116.24 32.5658 116.297 32.5487 116.358 32.5431C116.42 32.5375 116.479 32.544 116.535 32.5627C116.594 32.5811 116.645 32.6097 116.689 32.6486C116.735 32.6848 116.773 32.7302 116.802 32.7847C116.833 32.8366 116.851 32.8933 116.857 32.9547ZM118.532 34.6623C118.623 34.4063 118.745 34.2023 118.898 34.0502C119.05 33.8958 119.246 33.8077 119.484 33.7858C119.56 33.7789 119.633 33.7806 119.703 33.7909C119.775 33.8009 119.84 33.8212 119.898 33.8516L119.895 34.3269C119.886 34.3873 119.853 34.42 119.797 34.4252C119.764 34.4282 119.714 34.4256 119.649 34.4172C119.584 34.4089 119.512 34.4084 119.431 34.4158C119.318 34.4261 119.218 34.4519 119.131 34.4932C119.047 34.5343 118.972 34.5911 118.908 34.6637C118.845 34.7337 118.79 34.8197 118.742 34.9217C118.696 35.0211 118.657 35.1343 118.623 35.2612L118.83 37.5281L118.196 37.5861L117.868 33.998L118.229 33.9649C118.298 33.9587 118.346 33.9673 118.375 33.9909C118.403 34.0145 118.425 34.0578 118.44 34.1207L118.532 34.6623ZM121.818 33.5796C122.08 33.5556 122.32 33.5777 122.538 33.6458C122.756 33.714 122.947 33.8215 123.11 33.9685C123.274 34.1155 123.405 34.2999 123.504 34.5218C123.605 34.7412 123.668 34.9914 123.694 35.2724C123.72 35.5557 123.703 35.8144 123.644 36.0485C123.586 36.2823 123.491 36.4863 123.357 36.6605C123.223 36.8347 123.054 36.975 122.852 37.0816C122.65 37.1859 122.418 37.25 122.156 37.274C121.891 37.2982 121.649 37.2775 121.428 37.2119C121.21 37.1438 121.019 37.0362 120.856 36.8892C120.693 36.7423 120.56 36.5591 120.459 36.3398C120.361 36.1202 120.298 35.8687 120.272 35.5854C120.247 35.3043 120.262 35.0469 120.32 34.8131C120.379 34.5767 120.476 34.3714 120.61 34.1972C120.744 34.0231 120.912 33.8827 121.114 33.7761C121.319 33.6693 121.553 33.6038 121.818 33.5796ZM122.111 36.7816C122.465 36.7492 122.718 36.6069 122.872 36.3548C123.024 36.1003 123.081 35.7606 123.043 35.3355C123.004 34.9081 122.886 34.5831 122.689 34.3606C122.493 34.1381 122.217 34.0431 121.863 34.0755C121.683 34.0919 121.529 34.1369 121.4 34.2106C121.274 34.2841 121.171 34.3828 121.092 34.5068C121.015 34.6305 120.962 34.7794 120.932 34.9535C120.905 35.125 120.901 35.3171 120.921 35.5296C120.96 35.9547 121.077 36.2784 121.274 36.501C121.473 36.7209 121.752 36.8144 122.111 36.7816ZM126.343 36.448C126.337 36.3866 126.343 36.3278 126.359 36.2716C126.377 36.2151 126.404 36.1651 126.438 36.1215C126.474 36.0776 126.519 36.0414 126.571 36.0129C126.623 35.9843 126.68 35.9672 126.741 35.9616C126.803 35.9559 126.862 35.9625 126.918 35.9811C126.974 35.9998 127.025 36.0273 127.068 36.0638C127.112 36.1003 127.148 36.1446 127.177 36.1967C127.206 36.2489 127.223 36.3056 127.228 36.367C127.234 36.4308 127.228 36.4909 127.209 36.5474C127.19 36.6015 127.163 36.6505 127.126 36.6943C127.09 36.7381 127.045 36.7731 126.993 36.7993C126.941 36.8279 126.884 36.845 126.823 36.8506C126.761 36.8562 126.702 36.8497 126.646 36.8311C126.589 36.8148 126.539 36.7884 126.496 36.7519C126.454 36.7153 126.419 36.672 126.391 36.6222C126.365 36.5699 126.349 36.5118 126.343 36.448ZM128.024 36.2942C128.018 36.2329 128.024 36.174 128.04 36.1178C128.059 36.0613 128.085 36.0113 128.119 35.9677C128.156 35.9238 128.2 35.8876 128.252 35.8591C128.304 35.8305 128.361 35.8134 128.422 35.8078C128.484 35.8022 128.543 35.8087 128.599 35.8273C128.656 35.846 128.706 35.8735 128.75 35.91C128.794 35.9465 128.83 35.9908 128.858 36.0429C128.887 36.0951 128.904 36.1519 128.91 36.2132C128.915 36.277 128.909 36.3371 128.89 36.3936C128.872 36.4477 128.844 36.4967 128.807 36.5405C128.771 36.5843 128.726 36.6193 128.674 36.6455C128.622 36.6741 128.565 36.6912 128.504 36.6968C128.442 36.7024 128.383 36.6959 128.327 36.6773C128.271 36.661 128.221 36.6346 128.177 36.5982C128.135 36.5615 128.101 36.5182 128.072 36.4684C128.046 36.4161 128.03 36.358 128.024 36.2942ZM129.705 36.1405C129.7 36.0791 129.705 36.0202 129.721 35.964C129.74 35.9075 129.766 35.8575 129.8 35.8139C129.837 35.7701 129.881 35.7339 129.933 35.7053C129.986 35.6767 130.042 35.6596 130.104 35.654C130.165 35.6484 130.224 35.6549 130.281 35.6735C130.337 35.6922 130.387 35.7197 130.431 35.7562C130.475 35.7927 130.511 35.837 130.54 35.8891C130.568 35.9413 130.585 35.9981 130.591 36.0595C130.597 36.1232 130.59 36.1833 130.572 36.2398C130.553 36.2939 130.525 36.3429 130.489 36.3867C130.452 36.4305 130.408 36.4655 130.355 36.4917C130.303 36.5203 130.246 36.5374 130.185 36.543C130.124 36.5487 130.065 36.5421 130.008 36.5235C129.952 36.5072 129.902 36.4808 129.858 36.4444C129.817 36.4077 129.782 36.3644 129.753 36.3146C129.727 36.2623 129.711 36.2042 129.705 36.1405ZM131.387 35.9867C131.381 35.9253 131.386 35.8664 131.403 35.8102C131.421 35.7537 131.448 35.7037 131.482 35.6601C131.518 35.6163 131.563 35.5801 131.615 35.5515C131.667 35.5229 131.724 35.5058 131.785 35.5002C131.846 35.4946 131.905 35.5011 131.962 35.5197C132.018 35.5384 132.068 35.5659 132.112 35.6024C132.156 35.6389 132.192 35.6832 132.221 35.7353C132.249 35.7875 132.267 35.8443 132.272 35.9057C132.278 35.9694 132.272 36.0295 132.253 36.086C132.234 36.1401 132.206 36.1891 132.17 36.2329C132.133 36.2767 132.089 36.3117 132.037 36.3379C131.985 36.3665 131.928 36.3836 131.866 36.3892C131.805 36.3949 131.746 36.3883 131.69 36.3697C131.633 36.3534 131.583 36.327 131.539 36.2906C131.498 36.2539 131.463 36.2106 131.435 36.1608C131.408 36.1085 131.392 36.0504 131.387 35.9867Z" fill="#7D7D7D"/>
</g>
<defs>
<filter id="filter0_d_1190_12038" x="0.904414" y="1.09375" width="200.127" height="62.9871" filterUnits="userSpaceOnUse" color-interpolation-filters="sRGB">
<feFlood flood-opacity="0" result="BackgroundImageFix"/>
<feColorMatrix in="SourceAlpha" type="matrix" values="0 0 0 0 0 0 0 0 0 0 0 0 0 0 0 0 0 0 127 0" result="hardAlpha"/>
<feOffset dy="2.18885"/>
<feGaussianBlur stdDeviation="1.09442"/>
<feComposite in2="hardAlpha" operator="out"/>
<feColorMatrix type="matrix" values="0 0 0 0 0 0 0 0 0 0 0 0 0 0 0 0 0 0 0.25 0"/>
<feBlend mode="normal" in2="BackgroundImageFix" result="effect1_dropShadow_1190_12038"/>
<feBlend mode="normal" in="SourceGraphic" in2="effect1_dropShadow_1190_12038" result="shape"/>
</filter>
<clipPath id="clip0_1190_12038">
<rect width="19.1524" height="19.1524" fill="white" transform="translate(16.6702 27.9443) rotate(-5.22656)"/>
</clipPath>
</defs>
</svg>
