<svg width="201" height="82" viewBox="0 0 201 82" fill="none" xmlns="http://www.w3.org/2000/svg">
<g filter="url(#filter0_d_1193_12065)">
<rect x="1" y="37.0459" width="194.807" height="43.2297" rx="12.5859" transform="rotate(-10.9626 1 37.0459)" fill="white" fill-opacity="0.94"/>
<rect x="1" y="37.0459" width="194.807" height="43.2297" rx="12.5859" transform="rotate(-10.9626 1 37.0459)" fill="white" fill-opacity="0.94"/>
<rect x="9.66577" y="41.499" width="30.0967" height="30.6439" rx="7.66097" transform="rotate(-10.9626 9.66577 41.499)" fill="#F88C3D"/>
<g clip-path="url(#clip0_1193_12065)">
<path d="M34.8648 56.0097L22.3295 58.4378L20.5084 49.0364L28.4213 47.5036C28.2994 47.2102 28.1118 46.6613 28.1178 45.9367L20.2049 47.4694C19.3431 47.6364 18.7746 48.4781 18.9415 49.3399L21.6731 63.4421L24.1999 59.7012L35.1683 57.5766C36.0301 57.4097 36.5986 56.568 36.4317 55.7062L35.0628 48.6394C34.6752 49.0722 34.1925 49.4339 33.6355 49.6637L34.8648 56.0097Z" fill="white"/>
<path d="M32.5638 48.3269C33.8618 48.0755 34.7103 46.8193 34.4588 45.5213C34.2074 44.2232 32.9513 43.3747 31.6532 43.6262C30.3551 43.8776 29.5067 45.1337 29.7581 46.4318C30.0096 47.7299 31.2657 48.5783 32.5638 48.3269Z" fill="white"/>
<path d="M29.557 53.7864L23.2894 55.0005L23.5929 56.5674L29.8605 55.3533L29.557 53.7864Z" fill="white"/>
<path d="M32.2356 50.829L22.8341 52.6501L23.1376 54.217L32.5391 52.3959L32.2356 50.829Z" fill="white"/>
<path d="M22.6824 51.8667L32.0838 50.0456L32.0686 49.9672C31.0827 49.955 30.1617 49.5644 29.4534 48.9294L22.3788 50.2998L22.6824 51.8667Z" fill="white"/>
</g>
<path d="M51.1508 43.0556C51.3278 43.0213 51.4771 42.9694 51.5989 42.9C51.7231 42.83 51.8196 42.7485 51.8885 42.6555C51.9593 42.5596 52.0053 42.4541 52.0265 42.3389C52.0476 42.2237 52.0458 42.1021 52.021 41.9741C51.9714 41.718 51.8483 41.5377 51.6518 41.4333C51.4575 41.3284 51.187 41.3096 50.8401 41.3767L50.2395 41.4931L50.5642 43.1692L51.1508 43.0556ZM54.08 45.2344L53.2314 45.3988C53.0708 45.4299 52.9422 45.3896 52.8457 45.2779L51.471 43.8667C51.4197 43.8139 51.3671 43.7794 51.3133 43.7632C51.2617 43.7466 51.1894 43.7474 51.0963 43.7654L50.6947 43.8432L51.0769 45.8161L50.1376 45.9981L49.1595 40.9487L50.6994 40.6504C51.0417 40.5841 51.342 40.5634 51.6004 40.5882C51.8607 40.6103 52.0812 40.6702 52.262 40.768C52.4451 40.8654 52.5913 40.9965 52.7005 41.1613C52.8092 41.3238 52.8844 41.5121 52.9258 41.7263C52.9588 41.8963 52.9643 42.0619 52.9424 42.2231C52.9228 42.3839 52.8772 42.5352 52.8057 42.6771C52.7365 42.8185 52.641 42.9493 52.5194 43.0695C52.4001 43.1892 52.2571 43.293 52.0906 43.3808C52.1579 43.404 52.2219 43.4351 52.2826 43.474C52.3428 43.5107 52.4002 43.5575 52.4547 43.6146L54.08 45.2344ZM56.1456 42.5482C56.1239 42.4365 56.0873 42.3349 56.0358 42.2434C55.9862 42.1492 55.9227 42.0709 55.8454 42.0086C55.7681 41.9463 55.6765 41.9036 55.5706 41.8806C55.4666 41.8549 55.3506 41.8544 55.2226 41.8792C54.9735 41.9275 54.7905 42.0366 54.6737 42.2066C54.5592 42.3761 54.5074 42.595 54.5183 42.8634L56.1456 42.5482ZM54.6016 43.3871C54.6512 43.5683 54.7147 43.7215 54.7921 43.8466C54.869 43.9693 54.9579 44.0668 55.0589 44.1391C55.1594 44.209 55.2709 44.255 55.3936 44.2771C55.5181 44.2965 55.6502 44.2926 55.7899 44.2656C55.9295 44.2385 56.0463 44.199 56.1401 44.147C56.2362 44.0946 56.3177 44.0414 56.3845 43.9874C56.4536 43.9329 56.513 43.884 56.5626 43.8406C56.6145 43.7967 56.6672 43.7696 56.7207 43.7592C56.7929 43.7452 56.8516 43.7616 56.8969 43.8084L57.2057 44.0747C57.1319 44.2049 57.0431 44.3199 56.9392 44.4197C56.8349 44.5172 56.7221 44.6019 56.6008 44.6737C56.4813 44.7427 56.3559 44.7996 56.2244 44.8444C56.0953 44.8887 55.9679 44.9231 55.8422 44.9474C55.5931 44.9957 55.3536 44.9998 55.1237 44.9598C54.8933 44.9175 54.6833 44.8314 54.4939 44.7014C54.3041 44.5691 54.1407 44.393 54.0039 44.1731C53.8667 43.9509 53.7676 43.6827 53.7068 43.3684C53.6594 43.124 53.6546 42.887 53.6922 42.6575C53.7295 42.4257 53.8061 42.2164 53.9221 42.0297C54.0399 41.8402 54.1958 41.6784 54.3896 41.5442C54.5857 41.4096 54.8177 41.3164 55.0854 41.2645C55.3112 41.2208 55.5265 41.2165 55.7314 41.2517C55.9363 41.2869 56.1209 41.361 56.2853 41.4741C56.4493 41.5849 56.5893 41.7341 56.7053 41.9217C56.8233 42.1066 56.9073 42.3282 56.9573 42.5866C56.9826 42.717 56.9857 42.8082 56.9668 42.8601C56.9475 42.9098 56.8982 42.9423 56.819 42.9576L54.6016 43.3871ZM59.7339 41.3713C59.6131 41.2715 59.4898 41.2084 59.364 41.1821C59.2404 41.1553 59.1123 41.1548 58.9796 41.1805C58.8492 41.2057 58.7364 41.2529 58.6411 41.3221C58.5458 41.3913 58.4706 41.4831 58.4155 41.5977C58.36 41.7099 58.3273 41.8466 58.3175 42.008C58.3072 42.1669 58.3221 42.35 58.3623 42.5572C58.4029 42.7667 58.4536 42.9417 58.5146 43.082C58.5775 43.2196 58.6494 43.3289 58.7303 43.4098C58.8107 43.4884 58.9004 43.5399 58.9993 43.5642C59.0978 43.5862 59.2029 43.5864 59.3146 43.5647C59.4939 43.53 59.6392 43.4632 59.7504 43.3644C59.8617 43.2655 59.9599 43.1366 60.0451 42.9776L59.7339 41.3713ZM60.1081 38.683L61.1132 43.8721L60.5859 43.9742C60.4718 43.9963 60.3895 43.9579 60.339 43.859L60.1987 43.5275C60.0864 43.7208 59.9458 43.8869 59.7771 44.0258C59.6107 44.1643 59.403 44.2577 59.1539 44.306C58.9583 44.3438 58.7712 44.3378 58.5924 44.2879C58.4137 44.238 58.2501 44.1477 58.1016 44.0171C57.955 43.8836 57.827 43.7092 57.7176 43.4936C57.6106 43.2777 57.5286 43.023 57.4718 42.7297C57.4204 42.4643 57.4087 42.2106 57.4367 41.9684C57.4646 41.7263 57.5299 41.5084 57.6325 41.3146C57.735 41.1208 57.8716 40.9591 58.0421 40.8295C58.2122 40.6975 58.4148 40.6088 58.6499 40.5632C58.8501 40.5244 59.0273 40.5227 59.1815 40.5581C59.3357 40.5934 59.479 40.6538 59.6115 40.7392L59.2456 38.8501L60.1081 38.683ZM62.1714 39.9499L62.8654 43.5327L61.9993 43.7004L61.3054 40.1177L62.1714 39.9499ZM62.0878 38.8828C62.1023 38.9573 62.1007 39.0301 62.083 39.1011C62.0654 39.1722 62.0357 39.2371 61.994 39.2959C61.9545 39.3543 61.904 39.4051 61.8424 39.4485C61.7803 39.4895 61.7108 39.5174 61.634 39.5323C61.5595 39.5467 61.4858 39.5465 61.4128 39.5317C61.3418 39.514 61.2771 39.4855 61.2187 39.4461C61.1604 39.4067 61.1098 39.3573 61.0669 39.298C61.0263 39.2382 60.9988 39.1711 60.9844 39.0966C60.9695 39.0197 60.9695 38.9449 60.9843 38.872C61.0015 38.7986 61.0298 38.7327 61.0693 38.6744C61.1087 38.616 61.1583 38.5665 61.218 38.526C61.2797 38.4826 61.3478 38.4538 61.4223 38.4393C61.4991 38.4244 61.5742 38.4256 61.6476 38.4428C61.7205 38.4576 61.7861 38.4848 61.8445 38.5242C61.9052 38.5632 61.9572 38.6135 62.0005 38.6751C62.0439 38.7368 62.073 38.806 62.0878 38.8828ZM65.348 41.4649C65.1012 41.5248 64.896 41.5875 64.7323 41.653C64.5683 41.7162 64.4397 41.7821 64.3468 41.8509C64.2538 41.9196 64.1915 41.9908 64.1599 42.0646C64.1283 42.1383 64.12 42.2136 64.1348 42.2905C64.1642 42.4418 64.2294 42.5415 64.3304 42.5895C64.4339 42.6371 64.5577 42.6469 64.7021 42.619C64.879 42.5847 65.0254 42.5237 65.1413 42.4361C65.259 42.3456 65.3669 42.2233 65.4651 42.069L65.348 41.4649ZM63.0706 40.2938C63.4096 39.8369 63.8689 39.5523 64.4486 39.44C64.6581 39.3994 64.8523 39.398 65.0311 39.4358C65.2095 39.4713 65.3676 39.5397 65.5056 39.641C65.6431 39.74 65.7574 39.8688 65.8485 40.0275C65.942 40.1857 66.0083 40.366 66.0476 40.5686L66.4859 42.8314L66.0948 42.9071C66.0133 42.9229 65.9482 42.9235 65.8994 42.9087C65.8503 42.8917 65.8056 42.8484 65.7656 42.7789L65.6387 42.5354C65.5637 42.6344 65.4892 42.7237 65.4153 42.8033C65.3409 42.8805 65.2612 42.9491 65.1761 43.009C65.0911 43.0689 64.9971 43.1198 64.8941 43.1615C64.7939 43.205 64.6797 43.2392 64.5517 43.264C64.4004 43.2933 64.2568 43.3006 64.1211 43.2858C63.985 43.2687 63.8624 43.2284 63.7535 43.165C63.6446 43.1016 63.5529 43.0143 63.4782 42.9031C63.4035 42.792 63.3506 42.6561 63.3195 42.4955C63.3019 42.4047 63.2997 42.3121 63.3128 42.2178C63.3255 42.1212 63.3577 42.0256 63.4095 41.931C63.4635 41.836 63.5383 41.7418 63.6337 41.6484C63.7291 41.5551 63.8508 41.4663 63.9987 41.3821C64.149 41.2974 64.3269 41.2183 64.5324 41.1447C64.7375 41.0687 64.9756 41.0009 65.2466 40.9411L65.206 40.7316C65.1596 40.4918 65.0741 40.3248 64.9495 40.2306C64.8246 40.134 64.6655 40.1045 64.4722 40.1419C64.3326 40.1689 64.2193 40.2078 64.1325 40.2584C64.048 40.3086 63.9749 40.3614 63.9132 40.4168C63.851 40.4699 63.794 40.5184 63.7421 40.5623C63.6926 40.6057 63.6329 40.6342 63.563 40.6477C63.5025 40.6594 63.4483 40.6542 63.4006 40.6321C63.3524 40.6076 63.3114 40.5769 63.2777 40.5399L63.0706 40.2938ZM67.5031 39.3737C67.5612 39.2875 67.6241 39.2065 67.6915 39.1306C67.7608 39.052 67.8356 38.9832 67.916 38.9241C67.9982 38.8623 68.0883 38.8098 68.1862 38.7667C68.2836 38.7213 68.3929 38.6868 68.514 38.6634C68.7095 38.6255 68.8895 38.6257 69.0539 38.6639C69.2178 38.6997 69.3616 38.7685 69.4851 38.8702C69.6106 38.9691 69.7151 39.0973 69.7988 39.255C69.8844 39.4099 69.9465 39.5875 69.9853 39.7877L70.427 42.068L69.5645 42.235L69.1228 39.9548C69.0804 39.736 68.9977 39.5769 68.8746 39.4775C68.751 39.3759 68.5868 39.3449 68.3819 39.3846C68.2329 39.4134 68.0998 39.4742 67.9825 39.567C67.8652 39.6598 67.7597 39.7756 67.6658 39.9146L68.1677 42.5056L67.3052 42.6727L66.6112 39.0899L67.1385 38.9878C67.2502 38.9661 67.3337 39.0043 67.3889 39.1023L67.5031 39.3737ZM74.109 38.6085C74.2859 38.5743 74.4352 38.5224 74.557 38.4529C74.6812 38.383 74.7777 38.3015 74.8466 38.2084C74.9174 38.1126 74.9634 38.0071 74.9846 37.8919C75.0057 37.7767 75.0039 37.655 74.9791 37.527C74.9295 37.2709 74.8064 37.0907 74.6099 36.9862C74.4157 36.8813 74.1451 36.8625 73.7983 36.9297L73.1976 37.046L73.5223 38.7222L74.109 38.6085ZM77.0381 40.7874L76.1896 40.9517C76.0289 40.9829 75.9004 40.9426 75.8038 40.8308L74.4291 39.4197C74.3778 39.3668 74.3252 39.3323 74.2714 39.3162C74.2199 39.2996 74.1476 39.3003 74.0544 39.3183L73.6529 39.3961L74.035 41.3691L73.0957 41.551L72.1176 36.5017L73.6576 36.2034C73.9998 36.1371 74.3001 36.1163 74.5585 36.1412C74.8188 36.1632 75.0393 36.2231 75.2201 36.321C75.4032 36.4183 75.5494 36.5494 75.6586 36.7143C75.7674 36.8767 75.8425 37.0651 75.884 37.2793C75.9169 37.4492 75.9224 37.6148 75.9005 37.776C75.8809 37.9368 75.8354 38.0882 75.7638 38.23C75.6946 38.3714 75.5992 38.5022 75.4775 38.6224C75.3582 38.7421 75.2153 38.8459 75.0487 38.9337C75.116 38.9569 75.18 38.988 75.2407 39.027C75.3009 39.0636 75.3583 39.1105 75.4128 39.1675L77.0381 40.7874ZM78.996 38.8213C78.7492 38.8811 78.544 38.9438 78.3803 39.0094C78.2162 39.0725 78.0877 39.1385 77.9948 39.2072C77.9018 39.276 77.8395 39.3472 77.8079 39.4209C77.7763 39.4947 77.7679 39.57 77.7828 39.6468C77.8121 39.7981 77.8773 39.8978 77.9784 39.9459C78.0818 39.9935 78.2057 40.0033 78.3501 39.9753C78.527 39.941 78.6734 39.8801 78.7892 39.7924C78.907 39.702 79.0149 39.5796 79.113 39.4254L78.996 38.8213ZM76.7186 37.6502C77.0576 37.1932 77.5169 36.9086 78.0966 36.7963C78.3061 36.7557 78.5003 36.7544 78.6791 36.7922C78.8574 36.8277 79.0156 36.8961 79.1536 36.9974C79.2911 37.0963 79.4054 37.2251 79.4965 37.3838C79.59 37.542 79.6563 37.7224 79.6955 37.9249L80.1339 40.1877L79.7428 40.2635C79.6613 40.2793 79.5962 40.2798 79.5474 40.2651C79.4982 40.248 79.4536 40.2048 79.4136 40.1352L79.2867 39.8917C79.2117 39.9908 79.1372 40.0801 79.0633 40.1596C78.9888 40.2368 78.9091 40.3054 78.8241 40.3653C78.7391 40.4253 78.6451 40.4761 78.5421 40.5178C78.4418 40.5614 78.3277 40.5956 78.1997 40.6204C78.0483 40.6497 77.9048 40.6569 77.7691 40.6422C77.633 40.6251 77.5104 40.5848 77.4015 40.5213C77.2926 40.4579 77.2008 40.3706 77.1262 40.2595C77.0515 40.1483 76.9986 40.0125 76.9675 39.8518C76.9499 39.761 76.9477 39.6685 76.9608 39.5742C76.9735 39.4775 77.0057 39.3819 77.0574 39.2873C77.1115 39.1923 77.1862 39.0982 77.2817 39.0048C77.3771 38.9114 77.4988 38.8226 77.6467 38.7384C77.797 38.6538 77.9749 38.5746 78.1804 38.501C78.3855 38.4251 78.6235 38.3572 78.8946 38.2975L78.854 38.0879C78.8075 37.8482 78.722 37.6812 78.5975 37.5869C78.4725 37.4904 78.3134 37.4608 78.1202 37.4982C77.9805 37.5253 77.8673 37.5641 77.7805 37.6148C77.696 37.6649 77.6229 37.7177 77.5612 37.7732C77.499 37.8263 77.442 37.8748 77.3901 37.9186C77.3405 37.962 77.2808 37.9905 77.211 38.004C77.1505 38.0158 77.0963 38.0106 77.0486 37.9884C77.0004 37.9639 76.9594 37.9332 76.9257 37.8963L76.7186 37.6502ZM82.5804 36.7212C82.5644 36.763 82.5451 36.7945 82.5227 36.8157C82.4997 36.8347 82.4685 36.848 82.4289 36.8556C82.387 36.8638 82.3394 36.8609 82.286 36.8471C82.2349 36.8328 82.1752 36.8178 82.107 36.8021C82.0383 36.784 81.9609 36.7712 81.8749 36.7637C81.7913 36.7557 81.6947 36.7624 81.5853 36.7836C81.4154 36.8165 81.2885 36.8785 81.2047 36.9696C81.1232 37.0602 81.0938 37.1638 81.1163 37.2802C81.1312 37.357 81.1683 37.4174 81.2275 37.4615C81.2887 37.5028 81.3638 37.5354 81.4529 37.5592C81.5444 37.5825 81.6457 37.6003 81.7568 37.6126C81.8674 37.6226 81.9798 37.6358 82.0942 37.6523C82.2108 37.6684 82.3262 37.6907 82.4404 37.7193C82.5542 37.7456 82.6591 37.7881 82.755 37.8468C82.8528 37.9027 82.936 37.9772 83.0047 38.0701C83.0758 38.1626 83.1253 38.281 83.1533 38.4254C83.1866 38.5977 83.1861 38.7632 83.1517 38.922C83.1191 39.0781 83.0526 39.2214 82.9523 39.3519C82.8516 39.4801 82.7174 39.5919 82.5499 39.6871C82.3842 39.7796 82.185 39.8484 81.9522 39.8935C81.8288 39.9174 81.7055 39.9292 81.5823 39.9289C81.4618 39.9305 81.3431 39.9221 81.226 39.9037C81.1112 39.8849 81.0021 39.8577 80.8986 39.8222C80.7974 39.7863 80.7059 39.7436 80.6238 39.6943L80.7593 39.3275C80.7772 39.2829 80.8016 39.2468 80.8325 39.2191C80.8634 39.1914 80.9056 39.1723 80.9591 39.162C81.0127 39.1516 81.0656 39.157 81.1181 39.1783C81.1728 39.1991 81.235 39.2208 81.3046 39.2436C81.3742 39.2663 81.4539 39.2847 81.5436 39.2988C81.6355 39.3123 81.7467 39.3065 81.8771 39.2812C81.9795 39.2614 82.0646 39.2329 82.1322 39.1956C82.2018 39.1556 82.256 39.1112 82.2949 39.0626C82.3361 39.0136 82.3622 38.9614 82.3733 38.9062C82.3862 38.8481 82.3872 38.7912 82.3764 38.7353C82.3601 38.6515 82.3212 38.5878 82.2597 38.5441C82.2004 38.5001 82.125 38.4664 82.0336 38.443C81.9444 38.4192 81.8434 38.4026 81.7304 38.393C81.6193 38.3807 81.5043 38.3668 81.3854 38.3512C81.2687 38.3351 81.1521 38.313 81.0356 38.2849C80.9209 38.254 80.8142 38.2082 80.7155 38.1476C80.6192 38.0866 80.5346 38.0051 80.4617 37.9033C80.3912 37.8011 80.3406 37.6708 80.3099 37.5125C80.2815 37.3658 80.2835 37.2205 80.316 37.0765C80.3485 36.9325 80.4112 36.8009 80.504 36.6814C80.5987 36.5592 80.7242 36.4528 80.8805 36.3621C81.0387 36.2687 81.2284 36.2005 81.4496 36.1577C81.6964 36.1099 81.9289 36.1071 82.1472 36.1494C82.3655 36.1916 82.555 36.266 82.7158 36.3726L82.5804 36.7212ZM84.2292 35.6773L84.9232 39.26L84.0572 39.4278L83.3632 35.845L84.2292 35.6773ZM84.1457 34.6102C84.1601 34.6847 84.1585 34.7574 84.1409 34.8285C84.1232 34.8995 84.0936 34.9644 84.0518 35.0232C84.0124 35.0816 83.9619 35.1325 83.9002 35.1758C83.8381 35.2168 83.7686 35.2448 83.6918 35.2596C83.6173 35.2741 83.5436 35.2739 83.4707 35.259C83.3997 35.2414 83.335 35.2128 83.2766 35.1734C83.2182 35.134 83.1676 35.0846 83.1247 35.0253C83.0842 34.9655 83.0567 34.8984 83.0422 34.8239C83.0274 34.7471 83.0273 34.6722 83.0422 34.5993C83.0594 34.5259 83.0877 34.46 83.1271 34.4017C83.1665 34.3433 83.2161 34.2939 83.2759 34.2533C83.3375 34.21 83.4056 34.1811 83.4801 34.1666C83.5569 34.1518 83.632 34.1529 83.7054 34.1701C83.7783 34.185 83.844 34.2121 83.9023 34.2515C83.963 34.2905 84.015 34.3408 84.0584 34.4024C84.1017 34.4641 84.1308 34.5333 84.1457 34.6102ZM86.7551 36.956C86.8622 36.9353 86.9526 36.9033 87.0263 36.86C87.0996 36.8144 87.1569 36.761 87.1982 36.6999C87.2418 36.6383 87.2695 36.5689 87.2811 36.4918C87.295 36.4142 87.2937 36.3324 87.277 36.2462C87.2427 36.0693 87.1621 35.94 87.0352 35.8583C86.9101 35.7739 86.7417 35.7521 86.5299 35.7932C86.318 35.8342 86.1687 35.9175 86.0819 36.043C85.997 36.1657 85.9716 36.3155 86.0059 36.4925C86.0222 36.5763 86.0501 36.6518 86.0897 36.719C86.1316 36.7857 86.1833 36.8409 86.2449 36.8845C86.3084 36.9254 86.3826 36.9533 86.4676 36.9682C86.5545 36.9804 86.6503 36.9763 86.7551 36.956ZM88.1244 38.8066C88.1108 38.7368 88.0788 38.6838 88.0284 38.6477C87.9779 38.6115 87.9143 38.5888 87.8377 38.5795C87.7605 38.5679 87.6719 38.5657 87.5719 38.573C87.4742 38.5799 87.3702 38.5916 87.2599 38.6081C87.1514 38.6219 87.0386 38.6377 86.9213 38.6556C86.8063 38.673 86.6928 38.6854 86.5806 38.6926C86.4956 38.7646 86.4297 38.8426 86.3832 38.9265C86.339 39.0099 86.3261 39.0994 86.3446 39.1948C86.3568 39.2577 86.3832 39.3129 86.4238 39.3606C86.4672 39.4102 86.5265 39.4482 86.6017 39.4747C86.6792 39.5008 86.7747 39.5137 86.8882 39.5134C87.0021 39.5155 87.1382 39.5012 87.2965 39.4706C87.4571 39.4394 87.5932 39.3998 87.7046 39.3516C87.8165 39.3058 87.9054 39.2536 87.9713 39.1949C88.0401 39.1381 88.086 39.0761 88.1092 39.0088C88.1328 38.9438 88.1379 38.8764 88.1244 38.8066ZM88.282 35.019L88.3442 35.3403C88.364 35.4427 88.3145 35.5175 88.1956 35.5647L87.8859 35.6863C87.9587 35.8002 88.0093 35.9305 88.0377 36.0772C88.072 36.2541 88.067 36.4217 88.0228 36.58C87.9804 36.7356 87.9061 36.8756 87.7998 37C87.6935 37.1245 87.5596 37.2313 87.3981 37.3205C87.2386 37.407 87.0598 37.4694 86.862 37.5077C86.7921 37.5213 86.7239 37.5308 86.6574 37.5365C86.5909 37.5421 86.525 37.5452 86.4599 37.5458C86.3613 37.6349 86.3201 37.7214 86.3363 37.8052C86.3503 37.8774 86.3932 37.9246 86.4652 37.9469C86.539 37.9664 86.632 37.9726 86.7441 37.9653C86.8562 37.9581 86.9826 37.9433 87.1231 37.9209C87.2633 37.8962 87.4078 37.8754 87.5567 37.8586C87.7056 37.8419 87.8529 37.8351 87.9984 37.8383C88.1435 37.8392 88.2768 37.8604 88.3984 37.9021C88.52 37.9438 88.624 38.013 88.7104 38.1098C88.7986 38.2038 88.8592 38.3358 88.8921 38.5057C88.9228 38.664 88.913 38.8253 88.8627 38.9897C88.8147 39.1535 88.7275 39.3081 88.6011 39.4533C88.477 39.5982 88.3134 39.7264 88.1104 39.8382C87.9103 39.9519 87.6728 40.0353 87.3981 40.0885C87.1281 40.1408 86.8877 40.1596 86.6772 40.1448C86.467 40.1324 86.2871 40.0948 86.1372 40.032C85.9879 39.9716 85.8695 39.8907 85.7822 39.7892C85.695 39.6878 85.6394 39.5754 85.6155 39.452C85.583 39.2844 85.606 39.135 85.6845 39.0039C85.7648 38.87 85.8869 38.7521 86.0507 38.6503C85.9458 38.6199 85.8575 38.5694 85.7859 38.4987C85.7142 38.4281 85.6655 38.3264 85.6398 38.1937C85.6295 38.1402 85.6282 38.0837 85.636 38.0242C85.6457 37.9619 85.6637 37.8992 85.6901 37.8362C85.7189 37.7726 85.7576 37.7108 85.8064 37.6506C85.8546 37.5881 85.9145 37.5294 85.986 37.4745C85.7855 37.4119 85.6171 37.3093 85.4807 37.1666C85.3467 37.0235 85.2586 36.8425 85.2162 36.6237C85.1819 36.4468 85.1859 36.2805 85.2283 36.125C85.2725 35.9667 85.3477 35.8253 85.4541 35.7009C85.5623 35.5736 85.6973 35.4665 85.8592 35.3796C86.0234 35.2923 86.208 35.2287 86.4128 35.1891C86.5665 35.1593 86.714 35.1476 86.8553 35.1541C86.9962 35.1582 87.1284 35.1797 87.2518 35.2186L88.282 35.019ZM89.7062 34.6163L90.4002 38.1991L89.5342 38.3669L88.8402 34.7841L89.7062 34.6163ZM89.6227 33.5492C89.6371 33.6237 89.6355 33.6965 89.6179 33.7676C89.6002 33.8386 89.5705 33.9035 89.5288 33.9623C89.4894 34.0207 89.4388 34.0715 89.3772 34.1149C89.3151 34.1559 89.2456 34.1838 89.1688 34.1987C89.0943 34.2132 89.0206 34.2129 88.9477 34.1981C88.8766 34.1804 88.8119 34.1519 88.7536 34.1125C88.6952 34.0731 88.6446 34.0237 88.6017 33.9644C88.5611 33.9046 88.5337 33.8375 88.5192 33.763C88.5043 33.6862 88.5043 33.6113 88.5192 33.5384C88.5364 33.465 88.5647 33.3991 88.6041 33.3408C88.6435 33.2824 88.6931 33.233 88.7529 33.1924C88.8145 33.1491 88.8826 33.1202 88.9571 33.1057C89.0339 33.0909 89.109 33.092 89.1824 33.1092C89.2553 33.1241 89.321 33.1512 89.3793 33.1906C89.44 33.2296 89.492 33.2799 89.5354 33.3415C89.5787 33.4032 89.6078 33.4724 89.6227 33.5492ZM92.167 34.0817C92.4324 34.0303 92.6817 34.0267 92.9149 34.0709C93.1504 34.1146 93.3603 34.2008 93.5446 34.3293C93.7313 34.4574 93.8886 34.6274 94.0166 34.8393C94.1446 35.0512 94.2359 35.298 94.2904 35.5797C94.3455 35.8637 94.3532 36.1279 94.3135 36.3723C94.2739 36.6167 94.1917 36.8343 94.0668 37.0251C93.9443 37.2155 93.782 37.375 93.5798 37.5035C93.38 37.6316 93.1474 37.7213 92.882 37.7727C92.6143 37.8246 92.3627 37.8286 92.1272 37.7849C91.8916 37.7411 91.6803 37.6541 91.4932 37.5236C91.3085 37.3928 91.1509 37.2216 91.0206 37.0101C90.8926 36.7982 90.8011 36.5503 90.7461 36.2663C90.6915 35.9846 90.6841 35.7215 90.7237 35.4772C90.7656 35.2323 90.8481 35.0159 90.9711 34.8278C91.0964 34.6393 91.2601 34.4808 91.4622 34.3523C91.6644 34.2238 91.8993 34.1336 92.167 34.0817ZM92.7535 37.1092C93.0515 37.0515 93.2521 36.9088 93.3553 36.6811C93.4609 36.4529 93.4762 36.1456 93.4013 35.7592C93.3265 35.3727 93.1973 35.0922 93.0137 34.9176C92.8325 34.7426 92.5929 34.684 92.2949 34.7417C91.9922 34.8003 91.7874 34.9463 91.6805 35.1795C91.5754 35.41 91.56 35.7173 91.6344 36.1014C91.7088 36.4856 91.8378 36.7649 92.0214 36.9395C92.2068 37.1113 92.4509 37.1679 92.7535 37.1092ZM98.088 36.7099L97.1452 36.8926L96.1671 31.8432L97.11 31.6606L98.088 36.7099ZM98.8717 36.0654C98.8577 35.9933 98.8572 35.9221 98.8702 35.852C98.8855 35.7814 98.9119 35.7183 98.9494 35.6627C98.987 35.6071 99.0356 35.5591 99.0954 35.5185C99.1552 35.4779 99.2223 35.4504 99.2968 35.436C99.3713 35.4216 99.4427 35.4222 99.511 35.438C99.5816 35.4533 99.6446 35.4797 99.7002 35.5173C99.7581 35.5544 99.8074 35.6028 99.8479 35.6626C99.8885 35.7223 99.9158 35.7883 99.9297 35.8605C99.9442 35.935 99.9437 36.0075 99.9284 36.0781C99.9127 36.1464 99.8848 36.2085 99.845 36.2646C99.8074 36.3201 99.7585 36.367 99.6983 36.4053C99.6409 36.4454 99.5749 36.4727 99.5004 36.4871C99.4259 36.5015 99.3534 36.5011 99.2828 36.4858C99.2126 36.4728 99.1498 36.4475 99.0942 36.41C99.0386 36.3724 98.9908 36.325 98.9507 36.2675C98.9124 36.2073 98.8861 36.1399 98.8717 36.0654ZM102.045 33.3386C102.217 33.3052 102.363 33.2552 102.483 33.1885C102.603 33.1194 102.696 33.0372 102.765 32.9418C102.835 32.8437 102.88 32.7335 102.9 32.6113C102.92 32.4868 102.915 32.3535 102.888 32.2115C102.862 32.0765 102.817 31.9584 102.754 31.8571C102.691 31.7558 102.61 31.6748 102.511 31.6142C102.413 31.5536 102.296 31.516 102.16 31.5012C102.024 31.4841 101.868 31.4924 101.694 31.5263L100.992 31.6622L101.343 33.4745L102.045 33.3386ZM101.553 30.7999C101.891 30.7345 102.19 30.7175 102.452 30.7489C102.715 30.7802 102.94 30.8513 103.128 30.9622C103.316 31.0731 103.468 31.2201 103.583 31.4031C103.7 31.5856 103.782 31.7945 103.827 32.0296C103.875 32.274 103.877 32.5066 103.836 32.7272C103.793 32.9455 103.705 33.1438 103.57 33.322C103.436 33.5003 103.253 33.654 103.022 33.7833C102.793 33.9121 102.515 34.0083 102.187 34.0719L101.485 34.2079L101.829 35.9853L100.89 36.1672L99.9118 31.1178L101.553 30.7999ZM104.212 35.0309C104.198 34.9588 104.198 34.8876 104.211 34.8175C104.226 34.7469 104.252 34.6838 104.29 34.6282C104.328 34.5726 104.376 34.5246 104.436 34.484C104.496 34.4434 104.563 34.4159 104.637 34.4015C104.712 34.3871 104.783 34.3878 104.852 34.4035C104.922 34.4188 104.985 34.4452 105.041 34.4828C105.099 34.5199 105.148 34.5683 105.189 34.6281C105.229 34.6879 105.256 34.7538 105.27 34.826C105.285 34.9005 105.284 34.973 105.269 35.0436C105.253 35.1119 105.225 35.174 105.186 35.2301C105.148 35.2856 105.099 35.3326 105.039 35.3708C104.981 35.4109 104.915 35.4382 104.841 35.4526C104.767 35.467 104.694 35.4666 104.623 35.4513C104.553 35.4383 104.49 35.413 104.435 35.3755C104.379 35.338 104.331 35.2905 104.291 35.233C104.253 35.1728 104.227 35.1054 104.212 35.0309Z" fill="black"/>
<path d="M52.6655 55.0272L52.9204 54.9779C53.0089 54.9607 53.0779 54.9365 53.1274 54.9052C53.1764 54.8715 53.2179 54.8236 53.2517 54.7615L54.5521 52.5532C54.587 52.4837 54.6277 52.4323 54.6744 52.3991C54.7211 52.3659 54.7817 52.3421 54.8562 52.3277L55.4289 52.2167L53.9396 54.7406C53.9039 54.8055 53.8675 54.8608 53.8305 54.9066C53.7954 54.9497 53.7556 54.9876 53.7112 55.0203C53.7782 55.0291 53.8413 55.0495 53.9006 55.0815C53.9595 55.1111 54.0197 55.1538 54.0812 55.2095L56.5309 57.195L55.9443 57.3086C55.9 57.3172 55.8612 57.3223 55.8277 57.324C55.7961 57.3229 55.7675 57.3187 55.7419 57.3116C55.716 57.3021 55.6921 57.2911 55.6703 57.2784C55.6504 57.2629 55.63 57.2451 55.6092 57.225L53.4993 55.5722C53.4415 55.523 53.3835 55.492 53.3255 55.4791C53.267 55.4638 53.183 55.4668 53.0736 55.488L52.7663 55.5475L53.21 57.8383L52.5361 57.9688L51.5668 52.9648L52.2408 52.8343L52.6655 55.0272ZM57.5496 53.2696C57.808 53.2196 58.0492 53.2175 58.273 53.2635C58.4969 53.3096 58.6975 53.3975 58.8748 53.5274C59.0522 53.6573 59.2011 53.8277 59.3217 54.0386C59.4441 54.2468 59.5322 54.4894 59.5858 54.7664C59.6399 55.0458 59.6491 55.3049 59.6132 55.5437C59.5797 55.782 59.5049 55.9946 59.3889 56.1813C59.2729 56.368 59.1196 56.5245 58.9291 56.6508C58.7382 56.7747 58.5135 56.8617 58.2551 56.9118C57.9944 56.9623 57.7511 56.9659 57.5254 56.9227C57.3015 56.8767 57.1009 56.7887 56.9236 56.6588C56.7462 56.5289 56.5964 56.3599 56.4739 56.1518C56.3538 55.9432 56.2667 55.6992 56.2126 55.4198C56.1589 55.1428 56.1489 54.8851 56.1824 54.6467C56.2178 54.4056 56.2935 54.1916 56.4095 54.0049C56.5255 53.8182 56.6787 53.6617 56.8693 53.5355C57.0621 53.4087 57.2889 53.3201 57.5496 53.2696ZM58.1611 56.4264C58.5103 56.3587 58.7485 56.1918 58.8756 55.9257C59.0024 55.6572 59.0251 55.3134 58.944 54.8944C58.8624 54.473 58.7126 54.1614 58.4948 53.9597C58.277 53.7579 57.9935 53.6909 57.6443 53.7585C57.4674 53.7928 57.3184 53.853 57.1975 53.9393C57.0788 54.025 56.9863 54.1335 56.9199 54.2647C56.8559 54.3955 56.818 54.549 56.8062 54.7251C56.7964 54.8985 56.8117 55.09 56.8523 55.2995C56.9335 55.7186 57.0829 56.029 57.3008 56.2307C57.5205 56.4297 57.8072 56.4949 58.1611 56.4264ZM62.5066 53.2405C62.36 53.1071 62.2133 53.0232 62.0666 52.9888C61.9194 52.9521 61.762 52.95 61.5944 52.9825C61.2661 53.0461 61.0363 53.2126 60.9049 53.482C60.7735 53.7514 60.75 54.1037 60.8343 54.5391C60.879 54.7695 60.9371 54.9636 61.0087 55.1212C61.0798 55.2765 61.1642 55.4002 61.2618 55.4924C61.3589 55.5823 61.468 55.6409 61.5892 55.6681C61.7105 55.6954 61.8421 55.6952 61.9841 55.6677C62.1889 55.628 62.358 55.547 62.4913 55.4246C62.6269 55.3017 62.7423 55.1429 62.8374 54.9481L62.5066 53.2405ZM62.654 50.6723L63.6504 55.8159L63.2802 55.8876C63.1918 55.9048 63.1276 55.8725 63.0876 55.7909L62.9485 55.3722C62.8324 55.5831 62.6885 55.7631 62.5169 55.9123C62.3454 56.0615 62.1327 56.1606 61.8789 56.2098C61.6764 56.249 61.4851 56.2462 61.3049 56.2014C61.1243 56.1543 60.9611 56.0664 60.8154 55.9376C60.6697 55.8088 60.5435 55.6376 60.4369 55.424C60.3303 55.2103 60.2486 54.9568 60.1918 54.6635C60.1413 54.4028 60.1293 54.1539 60.1559 53.9169C60.182 53.6776 60.2442 53.4626 60.3426 53.2721C60.4409 53.0815 60.5753 52.9214 60.7459 52.7918C60.9183 52.6594 61.1232 52.5702 61.3607 52.5242C61.5772 52.4822 61.7695 52.4836 61.9375 52.5284C62.1075 52.5703 62.2656 52.6448 62.4119 52.7517L62.0325 50.7927L62.654 50.6723ZM66.5893 53.0113C66.5614 52.8669 66.5149 52.7395 66.45 52.6289C66.387 52.5155 66.3076 52.4234 66.2117 52.3526C66.1178 52.279 66.0104 52.2297 65.8897 52.2048C65.7684 52.1776 65.6368 52.1777 65.4948 52.2052C65.1968 52.2629 64.9775 52.396 64.8367 52.6044C64.6978 52.8101 64.6371 53.0706 64.6548 53.386L66.5893 53.0113ZM67.4134 54.5726C67.3547 54.6806 67.2785 54.7799 67.1849 54.8704C67.0909 54.9587 66.9865 55.0369 66.8717 55.105C66.7592 55.1727 66.6398 55.2296 66.5135 55.2758C66.3876 55.3244 66.2607 55.361 66.1327 55.3858C65.8882 55.4332 65.6545 55.4362 65.4315 55.3948C65.2104 55.3507 65.0089 55.2642 64.8269 55.1352C64.6468 55.0034 64.4921 54.8281 64.3627 54.6092C64.2334 54.3903 64.1392 54.1284 64.0801 53.8234C64.0323 53.5766 64.0249 53.3389 64.0579 53.1103C64.0932 52.8813 64.1668 52.675 64.2786 52.4915C64.39 52.3057 64.5395 52.1487 64.7272 52.0206C64.9145 51.8901 65.1362 51.8001 65.3922 51.7505C65.6041 51.7094 65.8066 51.7077 65.9999 51.7451C66.195 51.7798 66.3708 51.852 66.5273 51.9618C66.6857 52.0687 66.8213 52.214 66.9341 52.3974C67.0465 52.5785 67.1271 52.7948 67.1758 53.0462C67.1947 53.144 67.1968 53.2112 67.1822 53.2479C67.1676 53.2845 67.1312 53.3085 67.073 53.3198L64.7089 53.7777C64.7592 53.9998 64.8271 54.1883 64.9126 54.3432C65.0005 54.4977 65.1042 54.6213 65.2236 54.7142C65.3426 54.8046 65.475 54.8647 65.6208 54.8944C65.7662 54.9218 65.9227 54.9193 66.0903 54.8868C66.2463 54.8566 66.3768 54.8132 66.4818 54.7567C66.5886 54.6973 66.6787 54.6388 66.7521 54.5811C66.8255 54.5234 66.8855 54.4719 66.9323 54.4266C66.981 54.3786 67.0251 54.3507 67.0647 54.343C67.1159 54.3331 67.1593 54.3452 67.1949 54.3794L67.4134 54.5726ZM68.3367 51.7707C68.3969 51.6697 68.4632 51.5759 68.5358 51.4894C68.6084 51.4028 68.6877 51.3259 68.7737 51.2585C68.8616 51.1884 68.9566 51.1301 69.0587 51.0838C69.1627 51.0346 69.2776 50.9979 69.4033 50.9735C69.5965 50.9361 69.7727 50.9358 69.932 50.9726C70.0932 51.0066 70.2342 51.0734 70.3549 51.1732C70.4776 51.2702 70.5805 51.3964 70.6638 51.5518C70.747 51.7072 70.808 51.8849 70.8468 52.0852L71.2831 54.3375L70.658 54.4585L70.2217 52.2062C70.1699 51.9385 70.068 51.7433 69.9162 51.6205C69.7663 51.495 69.5668 51.4563 69.3177 51.5046C69.1338 51.5402 68.9701 51.6178 68.8266 51.7374C68.6855 51.8565 68.562 52.0048 68.4563 52.1823L68.9609 54.7873L68.3358 54.9084L67.6506 51.371L68.0243 51.2986C68.1127 51.2815 68.1758 51.314 68.2134 51.396L68.3367 51.7707ZM74.5153 50.0413L73.4298 55.0049C73.4179 55.0555 73.3983 55.098 73.3711 55.1322C73.3463 55.166 73.3012 55.1892 73.2361 55.2019L72.7751 55.2911L73.1492 53.7622L71.0443 50.7136L71.5821 50.6095C71.6356 50.5991 71.6802 50.6049 71.7159 50.627C71.7534 50.6463 71.7812 50.6711 71.7991 50.7015L73.177 52.746C73.2332 52.8366 73.2845 52.9329 73.3308 53.0351C73.3422 52.9193 73.3571 52.809 73.3754 52.704L73.8629 50.3017C73.8696 50.2618 73.8871 50.227 73.9151 50.1974C73.9451 50.165 73.981 50.1448 74.0229 50.1367L74.5153 50.0413ZM77.2971 51.5205C77.0125 51.5852 76.7726 51.6559 76.5773 51.7323C76.3838 51.806 76.2287 51.8844 76.112 51.9674C75.9975 52.0499 75.9189 52.1364 75.876 52.2269C75.8355 52.3168 75.8247 52.4107 75.8436 52.5085C75.8616 52.6016 75.8923 52.679 75.9357 52.7406C75.979 52.8023 76.0306 52.8503 76.0903 52.8846C76.152 52.9161 76.2198 52.9356 76.2937 52.943C76.3695 52.9477 76.4481 52.9421 76.5296 52.9263C76.639 52.9051 76.7371 52.8752 76.8238 52.8367C76.9101 52.7958 76.9887 52.7468 77.0598 52.6896C77.1331 52.6319 77.2003 52.5669 77.2611 52.4948C77.3244 52.4221 77.3837 52.3418 77.4391 52.2538L77.2971 51.5205ZM75.0091 50.4637C75.1682 50.2373 75.3516 50.0556 75.5593 49.9188C75.7671 49.7819 76.0084 49.6869 76.2831 49.6337C76.4809 49.5953 76.663 49.5939 76.8293 49.6293C76.9956 49.6647 77.1423 49.7305 77.2697 49.8266C77.397 49.9227 77.5034 50.0482 77.5889 50.2031C77.6745 50.358 77.7365 50.5344 77.7748 50.7323L78.2131 52.9951L77.9372 53.0485C77.8767 53.0603 77.8283 53.06 77.7921 53.0477C77.7555 53.033 77.7222 52.9984 77.6923 52.9438L77.5575 52.6221C77.4811 52.7263 77.4052 52.8207 77.3298 52.9053C77.254 52.9877 77.1717 53.0616 77.0829 53.1271C76.9937 53.1902 76.8955 53.2443 76.7883 53.2892C76.6838 53.336 76.5641 53.3725 76.429 53.3986C76.2917 53.4253 76.1589 53.4317 76.0306 53.4179C75.9019 53.4017 75.7847 53.364 75.679 53.3048C75.5757 53.2451 75.486 53.1623 75.4099 53.0562C75.3357 52.9474 75.283 52.8127 75.2519 52.6521C75.2248 52.5124 75.2373 52.3711 75.2893 52.2282C75.3409 52.0829 75.4431 51.9436 75.596 51.8101C75.7489 51.6766 75.9578 51.5516 76.2226 51.4351C76.487 51.3163 76.8197 51.2132 77.2206 51.1259L77.1672 50.85C77.114 50.5753 77.0145 50.3796 76.8687 50.2629C76.7225 50.1439 76.5353 50.1065 76.3071 50.1507C76.1535 50.1805 76.0281 50.2253 75.931 50.2851C75.8358 50.3422 75.7545 50.4027 75.6872 50.4664C75.6217 50.5274 75.5648 50.5831 75.5166 50.6335C75.4703 50.6811 75.4204 50.7101 75.3668 50.7205C75.3249 50.7286 75.2868 50.7251 75.2525 50.71C75.2177 50.6926 75.1867 50.6696 75.1594 50.6411L75.0091 50.4637ZM82.911 49.8497C82.883 49.7054 82.8366 49.5779 82.7717 49.4673C82.7087 49.3539 82.6293 49.2618 82.5334 49.191C82.4395 49.1174 82.3321 49.0682 82.2113 49.0433C82.0901 49.016 81.9585 49.0162 81.8165 49.0437C81.5185 49.1014 81.2991 49.2345 81.1584 49.4429C81.0195 49.6485 80.9588 49.909 80.9764 50.2244L82.911 49.8497ZM83.7351 51.411C83.6763 51.519 83.6002 51.6183 83.5066 51.7089C83.4126 51.7971 83.3082 51.8753 83.1934 51.9435C83.0809 52.0111 82.9615 52.0681 82.8352 52.1143C82.7093 52.1628 82.5824 52.1995 82.4543 52.2243C82.2099 52.2716 81.9762 52.2746 81.7532 52.2333C81.5321 52.1892 81.3306 52.1026 81.1486 51.9736C80.9685 51.8418 80.8138 51.6665 80.6844 51.4476C80.5551 51.2287 80.4609 50.9668 80.4018 50.6618C80.354 50.4151 80.3466 50.1774 80.3796 49.9488C80.4149 49.7197 80.4885 49.5135 80.6003 49.33C80.7116 49.1442 80.8612 48.9872 81.0489 48.859C81.2362 48.7286 81.4579 48.6385 81.7139 48.5889C81.9258 48.5479 82.1283 48.5461 82.3216 48.5835C82.5167 48.6182 82.6925 48.6904 82.849 48.8002C83.0074 48.9072 83.143 49.0524 83.2558 49.2359C83.3682 49.417 83.4487 49.6332 83.4974 49.8847C83.5164 49.9824 83.5185 50.0497 83.5039 50.0863C83.4893 50.123 83.4528 50.1469 83.3946 50.1582L81.0306 50.6161C81.0809 50.8382 81.1488 51.0268 81.2343 51.1817C81.3222 51.3362 81.4259 51.4598 81.5453 51.5526C81.6643 51.6431 81.7967 51.7032 81.9425 51.7329C82.0879 51.7603 82.2444 51.7577 82.412 51.7253C82.568 51.695 82.6985 51.6517 82.8035 51.5951C82.9103 51.5358 83.0004 51.4772 83.0738 51.4196C83.1471 51.3619 83.2072 51.3104 83.254 51.2651C83.3027 51.217 83.3468 51.1891 83.3863 51.1815C83.4376 51.1716 83.481 51.1837 83.5166 51.2178L83.7351 51.411ZM84.6998 48.804C84.7646 48.5402 84.8655 48.3251 85.0023 48.1585C85.1386 47.9896 85.3243 47.8823 85.5595 47.8368C85.634 47.8224 85.7066 47.8167 85.7772 47.82C85.8502 47.8227 85.9169 47.8364 85.9772 47.8609L86.0217 48.3342C86.019 48.3951 85.9898 48.4309 85.9339 48.4418C85.9013 48.4481 85.8522 48.4503 85.7867 48.4485C85.7211 48.4467 85.6487 48.4535 85.5696 48.4688C85.4579 48.4905 85.3609 48.5262 85.2788 48.5759C85.1989 48.6252 85.1304 48.6892 85.0732 48.7679C85.0179 48.8438 84.9715 48.9349 84.9341 49.0412C84.8986 49.1447 84.8705 49.2612 84.8497 49.3909L85.2826 51.6257L84.6575 51.7468L83.9723 48.2094L84.3285 48.1404C84.396 48.1274 84.4451 48.1311 84.4756 48.1518C84.5062 48.1724 84.5322 48.2133 84.5537 48.2743L84.6998 48.804ZM87.2507 48.3099C87.3156 48.0461 87.4164 47.8309 87.5532 47.6644C87.6895 47.4954 87.8753 47.3882 88.1104 47.3427C88.1849 47.3282 88.2575 47.3226 88.3282 47.3258C88.4012 47.3286 88.4678 47.3423 88.5281 47.3668L88.5727 47.84C88.57 47.9009 88.5407 47.9368 88.4848 47.9476C88.4522 47.9539 88.4032 47.9562 88.3376 47.9544C88.272 47.9526 88.1997 47.9594 88.1205 47.9747C88.0088 47.9964 87.9118 48.0321 87.8297 48.0818C87.7499 48.1311 87.6814 48.1951 87.6241 48.2738C87.5688 48.3497 87.5224 48.4408 87.4851 48.5471C87.4496 48.6506 87.4214 48.7671 87.4006 48.8967L87.8335 51.1316L87.2085 51.2527L86.5233 47.7153L86.8794 47.6463C86.947 47.6332 86.996 47.637 87.0266 47.6577C87.0571 47.6783 87.0832 47.7192 87.1046 47.7802L87.2507 48.3099ZM90.4112 46.9042C90.6696 46.8542 90.9108 46.8522 91.1347 46.8982C91.3585 46.9442 91.5591 47.0321 91.7365 47.162C91.9138 47.2919 92.0627 47.4623 92.1833 47.6732C92.3057 47.8814 92.3938 48.124 92.4474 48.401C92.5016 48.6804 92.5107 48.9395 92.4748 49.1783C92.4413 49.4166 92.3665 49.6292 92.2505 49.8159C92.1345 50.0026 91.9813 50.1591 91.7908 50.2854C91.5998 50.4093 91.3751 50.4963 91.1167 50.5464C90.856 50.5969 90.6127 50.6005 90.387 50.5573C90.1631 50.5113 89.9625 50.4233 89.7852 50.2934C89.6079 50.1635 89.458 49.9945 89.3355 49.7864C89.2154 49.5778 89.1283 49.3338 89.0742 49.0544C89.0205 48.7774 89.0105 48.5197 89.044 48.2813C89.0794 48.0402 89.1551 47.8262 89.2711 47.6395C89.3871 47.4528 89.5404 47.2963 89.7309 47.1701C89.9237 47.0433 90.1505 46.9547 90.4112 46.9042ZM91.0227 50.061C91.3719 49.9933 91.6101 49.8264 91.7373 49.5603C91.864 49.2918 91.8868 48.948 91.8056 48.529C91.724 48.1076 91.5743 47.796 91.3564 47.5943C91.1386 47.3925 90.8551 47.3255 90.5059 47.3931C90.329 47.4274 90.1801 47.4876 90.0591 47.5739C89.9404 47.6596 89.8479 47.7681 89.7816 47.8993C89.7175 48.0301 89.6796 48.1836 89.6679 48.3597C89.658 48.5331 89.6733 48.7246 89.7139 48.9341C89.7951 49.3532 89.9446 49.6636 90.1624 49.8653C90.3821 50.0643 90.6688 50.1295 91.0227 50.061ZM93.628 47.0746C93.6928 46.8108 93.7937 46.5956 93.9305 46.4291C94.0668 46.2601 94.2526 46.1529 94.4877 46.1074C94.5622 46.0929 94.6348 46.0873 94.7054 46.0905C94.7784 46.0933 94.8451 46.107 94.9054 46.1315L94.9499 46.6047C94.9473 46.6657 94.918 46.7015 94.8621 46.7123C94.8295 46.7187 94.7804 46.7209 94.7149 46.7191C94.6493 46.7173 94.5769 46.7241 94.4978 46.7394C94.3861 46.7611 94.2891 46.7968 94.207 46.8465C94.1271 46.8958 94.0586 46.9598 94.0014 47.0385C93.9461 47.1144 93.8997 47.2055 93.8623 47.3118C93.8268 47.4153 93.7987 47.5318 93.7779 47.6614L94.2108 49.8963L93.5857 50.0174L92.9005 46.48L93.2567 46.411C93.3242 46.3979 93.3733 46.4017 93.4038 46.4224C93.4344 46.443 93.4604 46.4839 93.4819 46.5449L93.628 47.0746ZM99.563 46.0626C99.4164 45.9292 99.2697 45.8453 99.123 45.8109C98.9758 45.7742 98.8184 45.7721 98.6508 45.8046C98.3225 45.8681 98.0927 46.0346 97.9613 46.304C97.8299 46.5734 97.8064 46.9258 97.8907 47.3611C97.9354 47.5916 97.9935 47.7856 98.0651 47.9433C98.1362 48.0985 98.2206 48.2223 98.3182 48.3145C98.4153 48.4044 98.5244 48.4629 98.6457 48.4902C98.7669 48.5174 98.8985 48.5173 99.0405 48.4898C99.2453 48.4501 99.4144 48.369 99.5477 48.2466C99.6833 48.1237 99.7987 47.9649 99.8938 47.7702L99.563 46.0626ZM99.7104 43.4943L100.707 48.638L100.337 48.7097C100.248 48.7268 100.184 48.6946 100.144 48.613L100.005 48.1943C99.8888 48.4052 99.7449 48.5852 99.5733 48.7344C99.4018 48.8835 99.1891 48.9827 98.9353 49.0319C98.7328 49.0711 98.5415 49.0683 98.3613 49.0235C98.1807 48.9764 98.0175 48.8884 97.8718 48.7596C97.7261 48.6309 97.5999 48.4597 97.4933 48.246C97.3867 48.0324 97.305 47.7789 97.2482 47.4856C97.1977 47.2248 97.1857 46.976 97.2123 46.739C97.2384 46.4996 97.3006 46.2847 97.399 46.0941C97.4973 45.9036 97.6318 45.7435 97.8023 45.6139C97.9747 45.4814 98.1796 45.3922 98.4171 45.3462C98.6336 45.3043 98.8259 45.3057 98.9939 45.3504C99.1639 45.3924 99.322 45.4668 99.4683 45.5737L99.0889 43.6147L99.7104 43.4943ZM103.304 46.4828C103.02 46.5476 102.78 46.6182 102.584 46.6947C102.391 46.7684 102.236 46.8467 102.119 46.9297C102.005 47.0123 101.926 47.0988 101.883 47.1892C101.843 47.2792 101.832 47.3731 101.851 47.4708C101.869 47.5639 101.899 47.6413 101.943 47.703C101.986 47.7646 102.038 47.8126 102.097 47.8469C102.159 47.8785 102.227 47.8979 102.301 47.9054C102.377 47.91 102.455 47.9044 102.537 47.8886C102.646 47.8675 102.744 47.8376 102.831 47.799C102.917 47.7582 102.996 47.7091 103.067 47.6519C103.14 47.5942 103.207 47.5293 103.268 47.4571C103.331 47.3845 103.391 47.3041 103.446 47.2161L103.304 46.4828ZM101.016 45.4261C101.175 45.1996 101.359 45.018 101.566 44.8811C101.774 44.7442 102.015 44.6492 102.29 44.596C102.488 44.5577 102.67 44.5562 102.836 44.5916C103.003 44.6271 103.149 44.6928 103.277 44.7889C103.404 44.885 103.51 45.0105 103.596 45.1655C103.682 45.3204 103.744 45.4968 103.782 45.6947L104.22 47.9575L103.944 48.0109C103.884 48.0226 103.835 48.0223 103.799 48.01C103.763 47.9954 103.729 47.9608 103.699 47.9062L103.565 47.5845C103.488 47.6886 103.412 47.783 103.337 47.8677C103.261 47.95 103.179 48.0239 103.09 48.0894C103.001 48.1526 102.903 48.2066 102.795 48.2516C102.691 48.2984 102.571 48.3348 102.436 48.361C102.299 48.3876 102.166 48.394 102.038 48.3802C101.909 48.3641 101.792 48.3264 101.686 48.2672C101.583 48.2075 101.493 48.1246 101.417 48.0186C101.343 47.9098 101.29 47.7751 101.259 47.6144C101.232 47.4748 101.244 47.3335 101.296 47.1905C101.348 47.0453 101.45 46.9059 101.603 46.7725C101.756 46.639 101.965 46.514 102.23 46.3975C102.494 46.2786 102.827 46.1755 103.228 46.0882L103.174 45.8123C103.121 45.5376 103.022 45.342 102.876 45.2253C102.73 45.1063 102.542 45.0689 102.314 45.113C102.161 45.1428 102.035 45.1876 101.938 45.2475C101.843 45.3046 101.762 45.365 101.694 45.4288C101.629 45.4898 101.572 45.5455 101.524 45.5959C101.477 45.6435 101.427 45.6725 101.374 45.6828C101.332 45.691 101.294 45.6875 101.26 45.6724C101.225 45.655 101.194 45.632 101.167 45.6035L101.016 45.4261ZM109.347 43.2944L108.886 47.0536L108.394 47.149C108.334 47.1607 108.284 47.1292 108.245 47.0546L106.998 44.8071C106.969 44.7572 106.944 44.7066 106.922 44.6553C106.9 44.6017 106.877 44.5492 106.855 44.4979C106.854 44.5537 106.853 44.6107 106.852 44.6688C106.851 44.7246 106.846 44.7822 106.839 44.8417L106.506 47.3914C106.501 47.4746 106.462 47.5232 106.39 47.5372L105.922 47.6279L104.091 44.3123L104.58 44.2176C104.629 44.2082 104.672 44.2131 104.71 44.2324C104.75 44.2512 104.779 44.277 104.797 44.3096L105.916 46.4552C105.988 46.6151 106.05 46.7674 106.102 46.9118C106.108 46.831 106.114 46.7489 106.119 46.6657C106.127 46.582 106.136 46.497 106.146 46.4105L106.45 43.9751C106.455 43.9379 106.469 43.905 106.492 43.8763C106.518 43.8471 106.552 43.8285 106.594 43.8204L106.866 43.7676C106.913 43.7586 106.953 43.7628 106.988 43.7802C107.023 43.7976 107.049 43.8227 107.068 43.8553L108.241 46.0047C108.283 46.0812 108.322 46.157 108.358 46.2321C108.394 46.3072 108.429 46.3814 108.462 46.4546C108.459 46.3755 108.458 46.296 108.46 46.216C108.463 46.1332 108.467 46.0479 108.472 45.9601L108.722 43.5494C108.727 43.5099 108.743 43.4753 108.771 43.4457C108.799 43.4138 108.834 43.3936 108.879 43.385L109.347 43.2944ZM111.494 44.7551C111.62 44.7307 111.727 44.6919 111.816 44.6385C111.904 44.585 111.975 44.5206 112.028 44.4451C112.081 44.3696 112.116 44.2857 112.132 44.1932C112.147 44.0984 112.145 43.9987 112.124 43.8939C112.082 43.6774 111.983 43.518 111.825 43.4157C111.67 43.3129 111.468 43.2856 111.219 43.3339C110.967 43.3826 110.788 43.4838 110.68 43.6375C110.574 43.7908 110.542 43.9757 110.584 44.1922C110.605 44.297 110.64 44.3904 110.689 44.4726C110.741 44.5519 110.806 44.6167 110.883 44.667C110.96 44.7172 111.05 44.7505 111.152 44.767C111.254 44.7834 111.368 44.7794 111.494 44.7551ZM112.987 46.4585C112.97 46.3724 112.932 46.3073 112.873 46.2632C112.814 46.2192 112.739 46.1901 112.65 46.1761C112.562 46.1616 112.463 46.1591 112.351 46.1687C112.239 46.1759 112.121 46.188 111.996 46.2049C111.874 46.2214 111.749 46.2383 111.622 46.2556C111.495 46.273 111.371 46.2848 111.252 46.2911C111.133 46.3769 111.041 46.4744 110.975 46.5838C110.911 46.6903 110.891 46.8053 110.915 46.9287C110.931 47.0079 110.965 47.0774 111.017 47.1372C111.073 47.1989 111.147 47.2461 111.24 47.2788C111.334 47.3138 111.446 47.333 111.578 47.3366C111.711 47.3421 111.865 47.3281 112.037 47.2948C112.204 47.2623 112.352 47.2181 112.478 47.1621C112.605 47.1061 112.709 47.0414 112.789 46.968C112.871 46.8941 112.929 46.814 112.963 46.7277C112.997 46.6414 113.005 46.5517 112.987 46.4585ZM112.924 42.7464L112.968 42.9768C112.983 43.0537 112.944 43.112 112.85 43.1519L112.459 43.2821C112.568 43.4204 112.64 43.5827 112.676 43.7689C112.71 43.9412 112.706 44.1049 112.666 44.2599C112.628 44.4122 112.561 44.5497 112.464 44.6724C112.367 44.795 112.242 44.8989 112.089 44.984C111.937 45.0691 111.765 45.1302 111.574 45.1671C111.409 45.1992 111.249 45.2096 111.095 45.1984C111.029 45.2594 110.982 45.3205 110.952 45.3817C110.923 45.4406 110.913 45.4968 110.924 45.5504C110.94 45.6342 110.986 45.6916 111.062 45.7228C111.14 45.7512 111.237 45.7638 111.352 45.7608C111.467 45.7578 111.596 45.7449 111.739 45.722C111.885 45.6987 112.033 45.6785 112.184 45.6612C112.337 45.6412 112.487 45.6303 112.634 45.6284C112.784 45.626 112.92 45.6431 113.043 45.6797C113.166 45.7163 113.271 45.7792 113.358 45.8686C113.448 45.9575 113.509 46.0834 113.54 46.2464C113.569 46.3977 113.559 46.5518 113.51 46.7087C113.463 46.8651 113.379 47.0118 113.258 47.1487C113.138 47.2879 112.981 47.4102 112.786 47.5155C112.594 47.6227 112.369 47.7014 112.111 47.7514C111.852 47.8015 111.622 47.8196 111.418 47.8058C111.215 47.792 111.041 47.7545 110.897 47.6931C110.752 47.6318 110.636 47.5504 110.549 47.449C110.464 47.3494 110.41 47.2379 110.386 47.1145C110.352 46.9399 110.378 46.7815 110.464 46.6393C110.55 46.497 110.682 46.3713 110.859 46.2622C110.745 46.2359 110.649 46.1905 110.571 46.1258C110.495 46.0584 110.445 45.9583 110.419 45.8256C110.409 45.7744 110.408 45.7202 110.416 45.6631C110.424 45.6036 110.442 45.5435 110.468 45.4827C110.497 45.4192 110.535 45.3576 110.581 45.2978C110.628 45.2381 110.684 45.1824 110.752 45.1308C110.558 45.0668 110.397 44.964 110.268 44.8223C110.139 44.6783 110.053 44.4992 110.012 44.285C109.978 44.1127 109.981 43.9505 110.019 43.7981C110.059 43.6431 110.129 43.5051 110.229 43.3844C110.328 43.2613 110.454 43.1572 110.607 43.072C110.761 42.9865 110.937 42.9248 111.132 42.8869C111.286 42.8571 111.432 42.8469 111.572 42.8561C111.711 42.863 111.841 42.8884 111.963 42.9324L112.924 42.7464Z" fill="#7D7D7D"/>
</g>
<defs>
<filter id="filter0_d_1193_12065" x="0.972529" y="2.16113" width="199.528" height="79.5418" filterUnits="userSpaceOnUse" color-interpolation-filters="sRGB">
<feFlood flood-opacity="0" result="BackgroundImageFix"/>
<feColorMatrix in="SourceAlpha" type="matrix" values="0 0 0 0 0 0 0 0 0 0 0 0 0 0 0 0 0 0 127 0" result="hardAlpha"/>
<feOffset dy="2.18885"/>
<feGaussianBlur stdDeviation="1.09442"/>
<feComposite in2="hardAlpha" operator="out"/>
<feColorMatrix type="matrix" values="0 0 0 0 0 0 0 0 0 0 0 0 0 0 0 0 0 0 0.25 0"/>
<feBlend mode="normal" in2="BackgroundImageFix" result="effect1_dropShadow_1193_12065"/>
<feBlend mode="normal" in="SourceGraphic" in2="effect1_dropShadow_1193_12065" result="shape"/>
</filter>
<clipPath id="clip0_1193_12065">
<rect width="19.1524" height="19.1524" fill="white" transform="translate(16.6157 45.7266) rotate(-10.9626)"/>
</clipPath>
</defs>
</svg>
