<svg width="201" height="73" viewBox="0 0 201 73" fill="none" xmlns="http://www.w3.org/2000/svg">
<g filter="url(#filter0_d_1190_12029)">
<rect x="1" y="26.4854" width="194.807" height="43.2297" rx="12.5859" transform="rotate(-7.81387 1 26.4854)" fill="white" fill-opacity="0.94"/>
<rect x="1" y="26.4854" width="194.807" height="43.2297" rx="12.5859" transform="rotate(-7.81387 1 26.4854)" fill="white" fill-opacity="0.94"/>
<rect x="9.4082" y="31.4072" width="30.0967" height="30.6439" rx="7.66097" transform="rotate(-7.81387 9.4082 31.4072)" fill="#F88C3D"/>
<g clip-path="url(#clip0_1190_12029)">
<path d="M33.772 47.2808L21.1223 49.0167L19.8204 39.5294L27.8055 38.4336C27.6999 38.134 27.5428 37.5756 27.5885 36.8524L19.6034 37.9482C18.7337 38.0676 18.1198 38.8767 18.2392 39.7464L20.1921 53.9774L22.9205 50.3809L33.989 48.862C34.8587 48.7427 35.4726 47.9335 35.3532 47.0638L34.3746 39.9325C33.9638 40.3433 33.462 40.678 32.8932 40.8769L33.772 47.2808Z" fill="white"/>
<path d="M31.8965 39.4832C33.2064 39.3035 34.1226 38.0958 33.9428 36.7859C33.7631 35.476 32.5554 34.5598 31.2455 34.7396C29.9356 34.9193 29.0194 36.127 29.1992 37.4369C29.3789 38.7468 30.5866 39.663 31.8965 39.4832Z" fill="white"/>
<path d="M28.5944 44.7693L22.2695 45.6373L22.4865 47.2185L28.8114 46.3506L28.5944 44.7693Z" fill="white"/>
<path d="M31.4314 41.9635L21.9441 43.2655L22.1611 44.8467L31.6483 43.5448L31.4314 41.9635Z" fill="white"/>
<path d="M21.8356 42.4749L31.3229 41.1729L31.312 41.0939C30.3283 41.0275 29.4301 40.5869 28.7578 39.9139L21.6186 40.8937L21.8356 42.4749Z" fill="white"/>
</g>
<path d="M51.3764 37.1212C51.5526 37.097 51.6977 37.0555 51.8117 36.9968C51.9257 36.9381 52.0131 36.8686 52.074 36.7885C52.1371 36.708 52.1775 36.6187 52.1952 36.5205C52.2151 36.4221 52.2179 36.32 52.2034 36.2142C52.1882 36.1038 52.1571 36.0076 52.1099 35.9255C52.0624 35.8411 51.9969 35.7735 51.9133 35.7227C51.8295 35.6696 51.7254 35.6348 51.601 35.6184C51.4791 35.6016 51.3347 35.6046 51.1679 35.6275L50.2129 35.7586L50.4179 37.2527L51.3764 37.1212ZM49.9208 33.6302L50.123 35.1031L50.8771 34.9997C51.2013 34.9552 51.4375 34.8629 51.5859 34.7229C51.7365 34.5825 51.7943 34.3843 51.7592 34.1283C51.7227 33.8628 51.6216 33.684 51.4558 33.5919C51.2899 33.4997 51.0473 33.4756 50.7278 33.5194L49.9208 33.6302ZM50.6272 32.7865C50.9608 32.7407 51.2506 32.7332 51.4966 32.7641C51.7425 32.795 51.9488 32.8588 52.1152 32.9557C52.284 33.0522 52.4151 33.179 52.5085 33.3361C52.6019 33.4932 52.6629 33.6763 52.6916 33.8854C52.708 34.0052 52.7062 34.1228 52.6861 34.238C52.6657 34.3509 52.6245 34.4607 52.5626 34.5673C52.5026 34.6713 52.4204 34.7699 52.316 34.8632C52.2138 34.9562 52.0878 35.0406 51.9378 35.1162C52.6595 35.1775 53.0614 35.5077 53.1436 36.1068C53.1733 36.3229 53.1596 36.5282 53.1025 36.7227C53.0454 36.9173 52.9474 37.0923 52.8084 37.2478C52.669 37.4009 52.4894 37.5309 52.2695 37.6377C52.0496 37.7444 51.7916 37.8181 51.4956 37.8588L49.5716 38.1228L48.8723 33.0273L50.6272 32.7865ZM55.7231 35.7061C55.4733 35.7523 55.265 35.8037 55.098 35.8601C54.9307 35.9142 54.7987 35.973 54.7021 36.0365C54.6055 36.1 54.5394 36.1677 54.5038 36.2396C54.4682 36.3115 54.4557 36.3862 54.4664 36.4638C54.4873 36.6165 54.5469 36.7196 54.6452 36.7731C54.7459 36.8263 54.869 36.8429 55.0147 36.8229C55.1932 36.7984 55.3428 36.7456 55.4633 36.6644C55.5858 36.5806 55.7003 36.4644 55.8067 36.3157L55.7231 35.7061ZM53.5134 34.4117C53.877 33.9741 54.3512 33.7151 54.9362 33.6348C55.1476 33.6058 55.3416 33.6151 55.5181 33.6627C55.6942 33.7079 55.8484 33.7849 55.9806 33.8936C56.1124 34 56.2195 34.1349 56.3018 34.2983C56.3864 34.4614 56.4427 34.6452 56.4708 34.8496L56.7841 37.133L56.3895 37.1872C56.3072 37.1985 56.2422 37.1954 56.1943 37.178C56.1462 37.1583 56.104 37.1127 56.0678 37.041L55.9545 36.7909C55.8742 36.8857 55.7949 36.9708 55.7167 37.0461C55.6381 37.1191 55.5548 37.1832 55.4666 37.2384C55.3785 37.2936 55.2818 37.3392 55.1766 37.3752C55.0741 37.4132 54.9583 37.441 54.8291 37.4587C54.6764 37.4797 54.5327 37.4791 54.398 37.4569C54.263 37.4323 54.1429 37.3854 54.0376 37.316C53.9324 37.2467 53.8455 37.1545 53.7771 37.0395C53.7086 36.9244 53.6633 36.7858 53.641 36.6237C53.6284 36.5321 53.6313 36.4395 53.6496 36.3461C53.6676 36.2503 53.705 36.1566 53.7618 36.065C53.821 35.9731 53.9008 35.8832 54.0012 35.7952C54.1017 35.7072 54.228 35.6253 54.3804 35.5493C54.535 35.473 54.717 35.4038 54.9263 35.3415C55.1352 35.277 55.3766 35.2223 55.6505 35.1775L55.6215 34.9661C55.5883 34.7241 55.5121 34.5527 55.393 34.4518C55.2735 34.3485 55.1163 34.3102 54.9213 34.337C54.7803 34.3563 54.6651 34.3889 54.5757 34.4347C54.4885 34.4801 54.4127 34.5288 54.348 34.5808C54.283 34.6304 54.2234 34.6757 54.1692 34.7166C54.1173 34.7573 54.0561 34.7824 53.9856 34.7921C53.9246 34.8005 53.8708 34.7923 53.8243 34.7675C53.7775 34.7405 53.7383 34.7075 53.7066 34.6688L53.5134 34.4117ZM58.6722 34.9424C58.7803 34.9276 58.8723 34.9006 58.9483 34.8614C59.024 34.8199 59.0841 34.7698 59.1287 34.711C59.1757 34.6519 59.207 34.5842 59.2229 34.5078C59.2411 34.4311 59.2442 34.3493 59.2323 34.2624C59.2078 34.0838 59.1344 33.9503 59.0122 33.8617C58.8919 33.7705 58.7249 33.7396 58.5112 33.7689C58.2974 33.7983 58.1437 33.8732 58.0502 33.9938C57.9586 34.1116 57.9251 34.2598 57.9496 34.4384C57.9612 34.523 57.9849 34.5999 58.0208 34.6692C58.059 34.7381 58.1076 34.7961 58.1667 34.843C58.2278 34.8873 58.3004 34.9192 58.3845 34.9388C58.4706 34.9557 58.5665 34.9569 58.6722 34.9424ZM59.9378 36.8654C59.9281 36.7949 59.899 36.7403 59.8506 36.7014C59.8022 36.6626 59.74 36.6364 59.6639 36.6229C59.5876 36.6071 59.4992 36.6001 59.399 36.6019C59.301 36.6033 59.1965 36.6093 59.0855 36.6197C58.9765 36.6275 58.8629 36.6371 58.7448 36.6485C58.629 36.6596 58.515 36.6657 58.4026 36.6668C58.3137 36.734 58.2437 36.8083 58.1926 36.8895C58.1439 36.9703 58.1261 37.059 58.1394 37.1553C58.1481 37.2187 58.1714 37.2753 58.2093 37.3252C58.25 37.377 58.3071 37.4183 58.3807 37.4489C58.4567 37.4791 58.5513 37.4973 58.6646 37.5032C58.7782 37.5116 58.9149 37.5048 59.0747 37.4829C59.2368 37.4606 59.3748 37.4285 59.4887 37.3866C59.6029 37.347 59.6946 37.2997 59.7636 37.2447C59.8354 37.1918 59.8846 37.1324 59.9115 37.0665C59.9387 37.0029 59.9474 36.9359 59.9378 36.8654ZM60.3032 33.0922L60.3476 33.4164C60.3618 33.5198 60.3083 33.5917 60.187 33.6323L59.871 33.7367C59.9374 33.8544 59.9808 33.9873 60.0011 34.1353C60.0256 34.3139 60.0115 34.481 59.9586 34.6366C59.9078 34.7896 59.8259 34.9253 59.7129 35.0437C59.5999 35.1621 59.4604 35.2615 59.2943 35.3417C59.1302 35.4193 58.9483 35.4717 58.7486 35.4991C58.6781 35.5088 58.6095 35.5146 58.5428 35.5166C58.476 35.5186 58.4101 35.5181 58.3451 35.515C58.2417 35.5986 58.1958 35.6827 58.2074 35.7673C58.2174 35.8401 58.2577 35.8896 58.3283 35.9159C58.4009 35.9394 58.4934 35.9506 58.6058 35.9496C58.7181 35.9485 58.8451 35.9407 58.9867 35.926C59.128 35.909 59.2734 35.8963 59.423 35.8877C59.5726 35.8791 59.72 35.8804 59.8652 35.8916C60.01 35.9005 60.142 35.929 60.2611 35.9773C60.3802 36.0256 60.4802 36.1004 60.5612 36.2018C60.6441 36.3005 60.6974 36.4356 60.7209 36.6071C60.7428 36.7669 60.7242 36.9274 60.6649 37.0887C60.608 37.2497 60.5125 37.3993 60.3782 37.5374C60.2463 37.6751 60.076 37.7942 59.8672 37.8947C59.6611 37.9972 59.4194 38.0674 59.1422 38.1055C58.8697 38.1429 58.6287 38.1484 58.4192 38.1221C58.2101 38.0982 58.0325 38.0507 57.8863 37.9798C57.7405 37.9113 57.6268 37.824 57.5452 37.7179C57.4636 37.6118 57.4143 37.4965 57.3972 37.372C57.374 37.2029 57.4052 37.055 57.4907 36.9283C57.5783 36.799 57.7066 36.6881 57.8758 36.5955C57.7727 36.5593 57.6874 36.504 57.6197 36.4296C57.552 36.3551 57.509 36.2509 57.4906 36.117C57.4832 36.0629 57.4851 36.0064 57.4961 35.9475C57.5092 35.8858 57.5307 35.8243 57.5605 35.7627C57.5927 35.7009 57.6348 35.6412 57.6868 35.5838C57.7384 35.5241 57.8014 35.4688 57.8758 35.4179C57.679 35.3444 57.5165 35.2326 57.3882 35.0827C57.2623 34.9324 57.1842 34.7469 57.1538 34.526C57.1293 34.3475 57.1425 34.1817 57.1933 34.0288C57.2462 33.8731 57.3291 33.7361 57.4421 33.6177C57.5571 33.4966 57.6978 33.3971 57.8642 33.3192C58.033 33.241 58.2208 33.1877 58.4275 33.1593C58.5826 33.138 58.7305 33.1345 58.8712 33.1487C59.0117 33.1605 59.1425 33.1892 59.2636 33.2349L60.3032 33.0922ZM63.9603 32.4647L64.4565 36.0801L63.9244 36.1532C63.8093 36.169 63.7292 36.1261 63.6842 36.0246L63.5846 35.7438C63.4572 35.9145 63.3107 36.0591 63.1451 36.1775C62.9791 36.2937 62.7751 36.3683 62.5332 36.4015C62.3358 36.4286 62.1563 36.4197 61.9946 36.3749C61.8349 36.3274 61.695 36.2497 61.5748 36.1417C61.4547 36.0337 61.3562 35.9 61.2792 35.7407C61.2044 35.5786 61.153 35.3966 61.1253 35.1945L60.81 32.897L61.6804 32.7775L61.9957 35.0751C62.026 35.2959 62.1001 35.4605 62.2178 35.5688C62.3376 35.6744 62.4997 35.7132 62.7041 35.6851C62.8545 35.6645 62.9909 35.6123 63.1134 35.5285C63.2357 35.4423 63.3474 35.3324 63.4488 35.1988L63.09 32.5841L63.9603 32.4647ZM67.1331 32.7473C67.1147 32.7881 67.0938 32.8185 67.0702 32.8385C67.0463 32.8562 67.0143 32.8677 66.9744 32.8732C66.9321 32.879 66.8847 32.8735 66.8321 32.8568C66.7819 32.8398 66.7232 32.8215 66.6559 32.802C66.5883 32.7802 66.5117 32.7632 66.4263 32.751C66.3432 32.7384 66.2464 32.7397 66.136 32.7549C65.9645 32.7784 65.8344 32.8334 65.7458 32.9197C65.6594 33.0058 65.6243 33.1075 65.6405 33.225C65.6511 33.3025 65.6848 33.3649 65.7415 33.4122C65.8003 33.4568 65.8736 33.4934 65.9613 33.5221C66.0513 33.5504 66.1514 33.5737 66.2617 33.5921C66.3716 33.6082 66.4831 33.6275 66.5964 33.6503C66.7119 33.6727 66.826 33.7014 66.9385 33.7362C67.0506 33.7687 67.153 33.8169 67.2455 33.8808C67.3401 33.942 67.4191 34.0209 67.4826 34.1175C67.5485 34.2138 67.5914 34.3347 67.6114 34.4804C67.6353 34.6542 67.6257 34.8195 67.5825 34.9762C67.5414 35.1302 67.4672 35.2697 67.3599 35.3945C67.2522 35.517 67.1122 35.6212 66.9397 35.7071C66.7692 35.7903 66.5665 35.848 66.3315 35.8803C66.207 35.8974 66.0833 35.9024 65.9602 35.8953C65.8399 35.8903 65.7217 35.8754 65.6058 35.8506C65.4923 35.8255 65.3848 35.7924 65.2834 35.7512C65.1844 35.7098 65.0953 35.6622 65.0161 35.6084L65.1715 35.2496C65.1919 35.2061 65.2182 35.1714 65.2506 35.1454C65.2829 35.1194 65.3261 35.1027 65.3801 35.0953C65.4342 35.0879 65.4868 35.0963 65.5379 35.1203C65.5915 35.1441 65.6524 35.1693 65.7206 35.1958C65.7889 35.2223 65.8674 35.2451 65.9562 35.264C66.0473 35.2826 66.1586 35.2829 66.2902 35.2648C66.3935 35.2507 66.48 35.2268 66.5496 35.1933C66.6213 35.1572 66.6778 35.1159 66.7193 35.0695C66.7632 35.0228 66.7921 34.9722 66.8062 34.9176C66.8223 34.8603 66.8264 34.8035 66.8187 34.7471C66.8071 34.6626 66.7717 34.5968 66.7126 34.5499C66.6559 34.5026 66.5825 34.4648 66.4924 34.4365C66.4047 34.4078 66.3048 34.3856 66.1925 34.3699C66.0823 34.3515 65.9682 34.3313 65.8503 34.3092C65.7347 34.2867 65.6195 34.2583 65.5047 34.2238C65.3919 34.1866 65.2878 34.135 65.1926 34.0691C65.0998 34.0029 65.0198 33.9169 64.9526 33.8113C64.8878 33.7053 64.8444 33.5724 64.8225 33.4126C64.8022 33.2646 64.8122 33.1197 64.8526 32.9777C64.8929 32.8357 64.9627 32.7077 65.0619 32.5935C65.1632 32.4767 65.2944 32.3773 65.4554 32.2954C65.6186 32.2108 65.8117 32.1532 66.0349 32.1225C66.2839 32.0884 66.5162 32.0984 66.7319 32.1525C66.9476 32.2067 67.1327 32.2914 67.2874 32.4066L67.1331 32.7473ZM72.4832 33.0184L71.6304 31.4085C71.5895 31.3375 71.5455 31.2526 71.4985 31.1538C71.4514 31.0549 71.4032 30.9478 71.3539 30.8325C71.3398 30.9565 71.3235 31.0737 71.3051 31.1839C71.2864 31.2918 71.2671 31.3866 71.2472 31.4683L70.8622 33.2408L72.4832 33.0184ZM74.421 34.7127L73.6881 34.8133C73.6058 34.8246 73.5361 34.8138 73.479 34.781C73.4215 34.7458 73.3756 34.6994 73.3414 34.6419L72.8182 33.6546L70.7074 33.9442L70.4695 35.036C70.4581 35.0926 70.4284 35.1469 70.3805 35.199C70.3326 35.251 70.2687 35.2825 70.1889 35.2935L69.4489 35.395L70.7547 30.0244L71.7202 29.8919L74.421 34.7127ZM74.9735 29.3018L75.6921 34.5383L74.8217 34.6577L74.1031 29.4213L74.9735 29.3018ZM76.8236 34.383L76.4174 31.423L76.097 31.4167C76.027 31.4119 75.9685 31.396 75.9217 31.3689C75.877 31.3392 75.8502 31.2926 75.8415 31.2291L75.7927 30.8732L76.3318 30.7992L76.3159 30.683C76.2856 30.4621 76.2939 30.2527 76.341 30.0548C76.3877 29.8545 76.4755 29.6749 76.6045 29.516C76.7335 29.3571 76.9054 29.2234 77.1203 29.1149C77.3372 29.0038 77.5996 28.9271 77.9073 28.8849C78.006 28.8713 78.1066 28.8635 78.2092 28.8614C78.3139 28.8566 78.4054 28.8608 78.4838 28.874L78.5175 29.3289C78.5203 29.3836 78.4954 29.4205 78.443 29.4396C78.3902 29.4565 78.3239 29.4703 78.2441 29.4813C78.0162 29.5126 77.8275 29.5588 77.6779 29.62C77.5307 29.6809 77.4144 29.7579 77.329 29.851C77.2457 29.9414 77.1911 30.0494 77.1653 30.1751C77.1414 30.298 77.1403 30.4382 77.1619 30.5956L77.174 30.6837L79.4152 30.3761L79.907 33.9599L79.0366 34.0793L78.6299 31.1158L77.2873 31.3L77.694 34.2636L76.8236 34.383ZM82.5043 32.0309C82.2545 32.0772 82.0462 32.1285 81.8792 32.1849C81.7119 32.239 81.5799 32.2978 81.4833 32.3613C81.3868 32.4248 81.3206 32.4925 81.285 32.5645C81.2494 32.6364 81.2369 32.7111 81.2476 32.7886C81.2685 32.9413 81.3282 33.0444 81.4265 33.0979C81.5271 33.1511 81.6503 33.1678 81.7959 33.1478C81.9745 33.1233 82.124 33.0704 82.2445 32.9893C82.367 32.9054 82.4815 32.7892 82.588 32.6406L82.5043 32.0309ZM80.2946 30.7365C80.6582 30.2989 81.1325 30.0399 81.7174 29.9597C81.9289 29.9306 82.1228 29.9399 82.2993 29.9875C82.4754 30.0328 82.6296 30.1097 82.7618 30.2184C82.8937 30.3248 83.0007 30.4597 83.083 30.6231C83.1676 30.7862 83.224 30.97 83.252 31.1744L83.5654 33.4578L83.1707 33.512C83.0885 33.5233 83.0234 33.5202 82.9756 33.5029C82.9274 33.4832 82.8852 33.4375 82.8491 33.3659L82.7357 33.1157C82.6554 33.2105 82.5761 33.2956 82.4979 33.371C82.4194 33.444 82.336 33.5081 82.2479 33.5632C82.1597 33.6184 82.063 33.664 81.9579 33.7C81.8554 33.738 81.7395 33.7658 81.6103 33.7836C81.4576 33.8045 81.3139 33.8039 81.1792 33.7817C81.0442 33.7571 80.9241 33.7102 80.8188 33.6409C80.7136 33.5715 80.6267 33.4793 80.5583 33.3643C80.4898 33.2492 80.4445 33.1106 80.4222 32.9485C80.4097 32.8569 80.4125 32.7644 80.4308 32.6709C80.4488 32.5751 80.4862 32.4814 80.543 32.3898C80.6022 32.2979 80.682 32.208 80.7825 32.12C80.8829 32.032 81.0093 31.9501 81.1616 31.8741C81.3163 31.7978 81.4982 31.7286 81.7075 31.6664C81.9165 31.6018 82.1579 31.5471 82.4318 31.5024L82.4027 31.2909C82.3695 31.049 82.2934 30.8775 82.1742 30.7766C82.0547 30.6733 81.8975 30.635 81.7025 30.6618C81.5615 30.6811 81.4463 30.7137 81.3569 30.7595C81.2698 30.805 81.1939 30.8537 81.1292 30.9056C81.0642 30.9552 81.0046 31.0005 80.9504 31.0415C80.8985 31.0821 80.8373 31.1072 80.7669 31.1169C80.7058 31.1253 80.652 31.1171 80.6055 31.0924C80.5587 31.0653 80.5195 31.0324 80.4879 30.9936L80.2946 30.7365ZM84.7709 30.0612C84.8338 29.9784 84.9009 29.901 84.9724 29.8289C85.0459 29.7542 85.1244 29.6896 85.2079 29.635C85.2934 29.5778 85.3862 29.5304 85.4864 29.4927C85.5862 29.4527 85.6972 29.4243 85.8193 29.4075C86.0167 29.3804 86.1964 29.3905 86.3584 29.4377C86.5201 29.4825 86.6599 29.559 86.7777 29.6673C86.8975 29.773 86.9948 29.9068 87.0697 30.0689C87.1466 30.2282 87.199 30.409 87.2267 30.611L87.5425 32.9121L86.6721 33.0315L86.3563 30.7304C86.326 30.5096 86.2521 30.3462 86.1347 30.2403C86.0169 30.132 85.8546 30.092 85.6479 30.1204C85.4975 30.141 85.3612 30.1944 85.239 30.2806C85.1168 30.3668 85.0051 30.4767 84.9037 30.6102L85.2625 33.2249L84.3921 33.3444L83.896 29.7289L84.4281 29.6559C84.5409 29.6404 84.6221 29.6831 84.6719 29.784L84.7709 30.0612Z" fill="black"/>
<path d="M52.4658 47.5708C52.6608 47.5441 52.8287 47.4947 52.9697 47.4227C53.1129 47.3504 53.2288 47.2615 53.3172 47.156C53.4077 47.0479 53.4699 46.9256 53.5038 46.7893C53.5378 46.653 53.5441 46.5074 53.5229 46.3523C53.4787 46.0305 53.3444 45.7928 53.1198 45.6393C52.8977 45.4855 52.5846 45.4363 52.1805 45.4918L51.37 45.603L51.6553 47.6821L52.4658 47.5708ZM52.1065 44.9526C52.426 44.9088 52.7084 44.9083 52.9536 44.9513C53.2009 44.9915 53.4114 45.0691 53.5851 45.1841C53.7589 45.2991 53.8966 45.4477 53.9982 45.6301C54.1021 45.8121 54.1704 46.0217 54.203 46.259C54.2352 46.4939 54.2236 46.7145 54.1681 46.9208C54.1127 47.127 54.0147 47.3116 53.8743 47.4745C53.7363 47.637 53.5553 47.7744 53.3313 47.8865C53.1094 47.9959 52.8457 48.0716 52.5403 48.1135L51.7298 48.2247L51.989 50.1135L51.3089 50.2068L50.6159 45.1572L52.1065 44.9526ZM55.5357 46.7187C55.6149 46.4589 55.7274 46.2496 55.8732 46.0908C56.0186 45.9296 56.21 45.8328 56.4472 45.8002C56.5224 45.7899 56.5952 45.7883 56.6656 45.7954C56.7383 45.8021 56.8041 45.8194 56.863 45.8473L56.8815 46.3222C56.8754 46.3829 56.8442 46.4171 56.7878 46.4248C56.755 46.4293 56.7058 46.4289 56.6405 46.4235C56.5751 46.4181 56.5025 46.4209 56.4226 46.4319C56.3098 46.4473 56.2111 46.4777 56.1263 46.5228C56.0439 46.5676 55.972 46.6277 55.9105 46.7032C55.8511 46.776 55.7998 46.8644 55.7567 46.9684C55.7155 47.0698 55.681 47.1847 55.6531 47.313L55.9626 49.5682L55.3319 49.6548L54.842 46.0851L55.2014 46.0358C55.2696 46.0264 55.3183 46.0329 55.3477 46.0552C55.3771 46.0775 55.4008 46.1197 55.4189 46.1819L55.5357 46.7187ZM58.7686 45.4888C59.0294 45.453 59.2703 45.4643 59.4913 45.5225C59.7123 45.5807 59.9078 45.6795 60.0777 45.819C60.2476 45.9584 60.387 46.1368 60.4958 46.354C60.6066 46.5686 60.6812 46.8156 60.7196 47.0952C60.7583 47.3771 60.7531 47.6363 60.7042 47.8728C60.6576 48.1089 60.5713 48.3171 60.4452 48.4971C60.3191 48.6772 60.1575 48.825 59.9604 48.9406C59.7629 49.0539 59.5338 49.1284 59.273 49.1642C59.0099 49.2003 58.7668 49.1906 58.5438 49.135C58.3228 49.0768 58.1273 48.978 57.9574 48.8385C57.7875 48.6991 57.6471 48.5221 57.5363 48.3075C57.4278 48.0926 57.3542 47.8442 57.3155 47.5623C57.2772 47.2828 57.2813 47.0249 57.3278 46.7887C57.3764 46.5499 57.4638 46.3404 57.5899 46.1604C57.716 45.9803 57.8776 45.8325 58.0747 45.7169C58.2742 45.6009 58.5055 45.5249 58.7686 45.4888ZM59.2058 48.6744C59.5582 48.626 59.8052 48.4725 59.9468 48.2137C60.0881 47.9525 60.1297 47.6105 60.0717 47.1877C60.0133 46.7625 59.8809 46.4432 59.6745 46.2297C59.4681 46.0163 59.1887 45.9338 58.8363 45.9822C58.6578 46.0067 58.5058 46.0586 58.3802 46.1381C58.2571 46.2172 58.1587 46.3205 58.0853 46.4478C58.0141 46.5749 57.9679 46.726 57.9465 46.9013C57.9271 47.0739 57.9319 47.2659 57.9609 47.4773C58.0189 47.9002 58.1511 48.2184 58.3575 48.4318C58.566 48.6425 58.8487 48.7234 59.2058 48.6744ZM62.7513 46.8595C62.8781 46.8421 62.9873 46.8091 63.0788 46.7607C63.1703 46.7122 63.2445 46.6517 63.3016 46.5793C63.3587 46.5068 63.3977 46.4249 63.4187 46.3335C63.4393 46.2397 63.4424 46.1399 63.4279 46.0342C63.3979 45.8157 63.3071 45.6511 63.1554 45.5402C63.0061 45.4291 62.8058 45.3908 62.5544 45.4253C62.3007 45.4601 62.1158 45.5513 61.9996 45.6989C61.8858 45.8461 61.8439 46.029 61.8738 46.2475C61.8883 46.3532 61.9182 46.4484 61.9633 46.5332C62.0105 46.6153 62.0713 46.6835 62.1458 46.7379C62.2203 46.7923 62.3081 46.8305 62.4092 46.8525C62.5104 46.8746 62.6244 46.8769 62.7513 46.8595ZM64.1484 48.6424C64.1365 48.5554 64.1021 48.4883 64.0454 48.4411C63.9886 48.3938 63.9159 48.3607 63.8271 48.3418C63.7407 48.3225 63.6415 48.3146 63.5294 48.318C63.4171 48.3191 63.2982 48.3246 63.1727 48.3346C63.0496 48.3444 62.9241 48.3544 62.7963 48.3648C62.6684 48.3751 62.5447 48.3801 62.425 48.3798C62.3018 48.4589 62.2044 48.5513 62.1327 48.6569C62.063 48.7598 62.0367 48.8735 62.0538 48.998C62.0648 49.0779 62.0949 49.1491 62.1442 49.2118C62.1962 49.2765 62.2678 49.3277 62.3592 49.3654C62.4508 49.4055 62.562 49.4309 62.6927 49.4417C62.8261 49.4545 62.9798 49.449 63.1536 49.4251C63.3227 49.4019 63.4722 49.3658 63.6019 49.3169C63.7316 49.268 63.8384 49.2091 63.9223 49.1401C64.0085 49.0708 64.071 48.994 64.1097 48.9097C64.1484 48.8255 64.1613 48.7363 64.1484 48.6424ZM64.2891 44.9323L64.321 45.1649C64.3316 45.2424 64.2891 45.2985 64.1933 45.3332L63.7953 45.4417C63.8965 45.5857 63.9599 45.7518 63.9857 45.9397C64.0096 46.1135 63.9973 46.2768 63.9488 46.4294C63.9024 46.5794 63.8274 46.713 63.7238 46.8301C63.6202 46.9473 63.4899 47.0441 63.3328 47.1207C63.1758 47.1973 63.001 47.2488 62.8083 47.2753C62.6415 47.2982 62.4814 47.2998 62.3279 47.2802C62.2592 47.3375 62.2086 47.3959 62.176 47.4554C62.1432 47.5126 62.1305 47.5682 62.1379 47.6222C62.1495 47.7068 62.1924 47.7667 62.2667 47.802C62.343 47.8346 62.4388 47.8526 62.5541 47.8559C62.6694 47.8592 62.7991 47.8534 62.943 47.8384C63.0893 47.8231 63.2385 47.811 63.3904 47.8021C63.5444 47.7906 63.6948 47.7879 63.8417 47.7941C63.9909 47.7999 64.1259 47.8245 64.2467 47.8677C64.3675 47.911 64.4691 47.9796 64.5514 48.0736C64.6361 48.1673 64.6897 48.2964 64.7123 48.4609C64.7332 48.6136 64.7148 48.7669 64.6569 48.9208C64.6014 49.0744 64.5096 49.2163 64.3814 49.3464C64.2536 49.4788 64.0897 49.5922 63.8896 49.6867C63.6922 49.7832 63.4631 49.8494 63.2024 49.8851C62.9416 49.9209 62.7102 49.9264 62.5081 49.9014C62.306 49.8765 62.1344 49.8294 61.9933 49.7603C61.8521 49.6911 61.7408 49.6034 61.6592 49.4973C61.5803 49.3933 61.5323 49.279 61.5152 49.1545C61.4911 48.9783 61.5258 48.8215 61.6194 48.6842C61.7131 48.5469 61.8512 48.4286 62.0339 48.3294C61.9217 48.2969 61.8286 48.2462 61.7545 48.1774C61.6825 48.1059 61.6373 48.0032 61.6189 47.8693C61.6118 47.8176 61.614 47.7635 61.6253 47.7069C61.6364 47.6479 61.657 47.5888 61.6872 47.5297C61.7194 47.4678 61.7603 47.4083 61.8099 47.3513C61.8595 47.2942 61.9193 47.2417 61.9893 47.1938C61.7996 47.1193 61.6443 47.0078 61.5234 46.8592C61.4021 46.7083 61.3267 46.5248 61.297 46.3087C61.2732 46.1348 61.2845 45.9729 61.3309 45.8229C61.3794 45.6703 61.4567 45.5364 61.563 45.4213C61.6689 45.3038 61.8004 45.2068 61.9575 45.1302C62.1169 45.0533 62.2952 45.0013 62.4925 44.9742C62.6476 44.9529 62.7945 44.9507 62.9332 44.9676C63.0717 44.9821 63.2006 45.0147 63.32 45.0653L64.2891 44.9323ZM65.6191 45.335C65.6983 45.0752 65.8108 44.8659 65.9566 44.7071C66.102 44.5459 66.2933 44.449 66.5306 44.4165C66.6058 44.4061 66.6786 44.4045 66.749 44.4116C66.8217 44.4184 66.8875 44.4357 66.9464 44.4635L66.9649 44.9385C66.9588 44.9992 66.9276 45.0334 66.8712 45.0411C66.8383 45.0456 66.7892 45.0452 66.7239 45.0398C66.6585 45.0344 66.5859 45.0372 66.506 45.0481C66.3932 45.0636 66.2945 45.0939 66.2097 45.1391C66.1273 45.1839 66.0554 45.244 65.9939 45.3195C65.9345 45.3922 65.8832 45.4806 65.8401 45.5847C65.7989 45.6861 65.7644 45.8009 65.7365 45.9292L66.046 48.1845L65.4153 48.271L64.9254 44.7014L65.2848 44.652C65.353 44.6427 65.4017 44.6492 65.4311 44.6715C65.4605 44.6938 65.4842 44.736 65.5023 44.7981L65.6191 45.335ZM69.9358 45.4355C69.9158 45.2899 69.8764 45.16 69.8177 45.046C69.761 44.9294 69.6867 44.833 69.5949 44.7571C69.5052 44.6784 69.4007 44.6234 69.2815 44.5919C69.1619 44.558 69.0305 44.5509 68.8872 44.5706C68.5865 44.6118 68.3601 44.7327 68.2081 44.933C68.0581 45.1307 67.9833 45.3875 67.9835 45.7034L69.9358 45.4355ZM70.6729 47.0397C70.6083 47.1443 70.5268 47.2393 70.4284 47.3246C70.3296 47.4076 70.2211 47.4799 70.1027 47.5416C69.9867 47.603 69.8643 47.6533 69.7357 47.6925C69.6073 47.7341 69.4786 47.7637 69.3494 47.7814C69.1027 47.8153 68.8692 47.8054 68.6488 47.7519C68.4305 47.6957 68.234 47.5982 68.0594 47.4594C67.8868 47.3179 67.7419 47.1344 67.6248 46.9087C67.5076 46.683 67.428 46.4163 67.3857 46.1086C67.3516 45.8596 67.3572 45.6218 67.4027 45.3954C67.4506 45.1686 67.5354 44.9667 67.6571 44.7896C67.7785 44.6102 67.9364 44.4617 68.1309 44.3441C68.325 44.2241 68.5513 44.1463 68.8098 44.1109C69.0235 44.0815 69.2259 44.0909 69.4168 44.1389C69.6097 44.1842 69.7812 44.266 69.9315 44.3842C70.0838 44.4997 70.2112 44.6522 70.3138 44.8415C70.416 45.0285 70.4846 45.2489 70.5194 45.5026C70.5329 45.6013 70.5314 45.6685 70.5148 45.7043C70.4981 45.7401 70.4605 45.762 70.4017 45.7701L68.0161 46.0975C68.0541 46.322 68.1115 46.514 68.1885 46.6734C68.2677 46.8324 68.3644 46.9616 68.4786 47.0608C68.5924 47.1577 68.7213 47.225 68.8653 47.2626C69.009 47.298 69.1654 47.304 69.3345 47.2808C69.4919 47.2592 69.6246 47.2231 69.7325 47.1724C69.8425 47.119 69.9356 47.0655 70.0121 47.0119C70.0885 46.9584 70.1513 46.9102 70.2005 46.8676C70.2517 46.8223 70.2973 46.7969 70.3372 46.7914C70.3889 46.7843 70.4316 46.7988 70.4653 46.8349L70.6729 47.0397ZM73.2454 44.1592C73.2243 44.2147 73.1844 44.2465 73.1257 44.2546C73.0904 44.2594 73.0487 44.252 73.0005 44.2323C72.9524 44.2126 72.8933 44.192 72.8233 44.1704C72.7554 44.1463 72.675 44.1274 72.5822 44.1138C72.489 44.0978 72.3814 44.0982 72.2592 44.115C72.1535 44.1295 72.0603 44.1567 71.9796 44.1965C71.8986 44.2339 71.8307 44.2803 71.7761 44.3357C71.7238 44.3907 71.6856 44.4522 71.6614 44.5202C71.6392 44.5854 71.6332 44.6545 71.6432 44.7273C71.6557 44.8189 71.6921 44.8917 71.7521 44.9457C71.8145 44.9994 71.8923 45.0426 71.9853 45.0753C72.0784 45.108 72.1825 45.1344 72.2978 45.1545C72.4127 45.1722 72.5304 45.1932 72.651 45.2173C72.7737 45.2388 72.8934 45.2654 73.0103 45.2972C73.1271 45.3291 73.2338 45.3743 73.3304 45.4328C73.427 45.4914 73.5083 45.5688 73.5741 45.665C73.642 45.7587 73.6858 45.8771 73.7055 46.0204C73.728 46.1849 73.7196 46.3416 73.6802 46.4906C73.6405 46.6373 73.5702 46.7702 73.4693 46.8893C73.368 47.0062 73.238 47.1054 73.0793 47.187C72.9206 47.2686 72.732 47.3244 72.5135 47.3544C72.2645 47.3886 72.0335 47.3796 71.8205 47.3274C71.6071 47.2729 71.4213 47.1919 71.2629 47.0844L71.3781 46.8245C71.3927 46.7914 71.4118 46.7648 71.4353 46.7448C71.4589 46.7248 71.4907 46.7121 71.5306 46.7066C71.5729 46.7008 71.6198 46.7111 71.6713 46.7376C71.7228 46.764 71.7842 46.7927 71.8554 46.8236C71.929 46.8542 72.0163 46.8793 72.1171 46.899C72.2179 46.9187 72.34 46.9187 72.4833 46.899C72.6055 46.8822 72.7103 46.8523 72.7977 46.8092C72.8848 46.7637 72.9552 46.7098 73.0088 46.6474C73.0625 46.5849 73.0986 46.5166 73.1171 46.4422C73.138 46.3675 73.1429 46.2903 73.132 46.2104C73.1184 46.1117 73.0803 46.0344 73.0176 45.9784C72.9569 45.9197 72.88 45.874 72.7869 45.8413C72.6936 45.8062 72.5882 45.78 72.471 45.7626C72.3557 45.7425 72.2368 45.7217 72.1142 45.7003C71.9939 45.6785 71.8741 45.6518 71.7549 45.6203C71.6377 45.5861 71.5307 45.5386 71.4338 45.4777C71.3369 45.4168 71.2541 45.3372 71.1856 45.2389C71.1191 45.1379 71.0754 45.0111 71.0544 44.8584C71.0357 44.7221 71.046 44.5879 71.0853 44.4556C71.1243 44.321 71.1913 44.1993 71.2865 44.0905C71.3814 43.9794 71.5036 43.8848 71.6533 43.8068C71.8029 43.7289 71.9788 43.676 72.1808 43.6483C72.4157 43.616 72.6312 43.6248 72.8271 43.6745C73.025 43.7215 73.2009 43.8003 73.3549 43.9108L73.2454 44.1592ZM76.3014 43.7398C76.2803 43.7954 76.2404 43.8272 76.1817 43.8352C76.1464 43.8401 76.1047 43.8326 76.0565 43.8129C76.0084 43.7932 75.9493 43.7726 75.8793 43.7511C75.8114 43.7269 75.731 43.708 75.6382 43.6944C75.545 43.6785 75.4374 43.6789 75.3152 43.6956C75.2095 43.7101 75.1163 43.7373 75.0356 43.7771C74.9546 43.8145 74.8867 43.8609 74.8321 43.9163C74.7798 43.9714 74.7416 44.0329 74.7174 44.1008C74.6953 44.1661 74.6892 44.2351 74.6992 44.3079C74.7117 44.3996 74.7481 44.4724 74.8081 44.5264C74.8705 44.58 74.9483 44.6232 75.0413 44.6559C75.1344 44.6886 75.2385 44.715 75.3538 44.7351C75.4687 44.7528 75.5864 44.7738 75.707 44.7979C75.8297 44.8194 75.9494 44.846 76.0663 44.8779C76.1831 44.9097 76.2899 44.9549 76.3864 45.0134C76.483 45.072 76.5643 45.1494 76.6301 45.2457C76.698 45.3393 76.7418 45.4577 76.7615 45.601C76.784 45.7655 76.7756 45.9222 76.7362 46.0712C76.6965 46.2179 76.6262 46.3508 76.5253 46.47C76.424 46.5868 76.294 46.686 76.1353 46.7676C75.9766 46.8492 75.788 46.905 75.5695 46.935C75.3205 46.9692 75.0895 46.9602 74.8765 46.9081C74.6631 46.8536 74.4773 46.7725 74.3189 46.665L74.4341 46.4051C74.4487 46.372 74.4678 46.3454 74.4913 46.3254C74.5149 46.3054 74.5467 46.2927 74.5866 46.2872C74.6289 46.2814 74.6758 46.2917 74.7273 46.3182C74.7788 46.3446 74.8402 46.3733 74.9114 46.4042C74.985 46.4348 75.0723 46.4599 75.1731 46.4796C75.2739 46.4993 75.396 46.4993 75.5393 46.4796C75.6615 46.4628 75.7663 46.4329 75.8537 46.3898C75.9408 46.3443 76.0112 46.2904 76.0648 46.228C76.1185 46.1656 76.1546 46.0972 76.1731 46.0228C76.194 45.9482 76.1989 45.8709 76.188 45.791C76.1744 45.6924 76.1363 45.615 76.0736 45.559C76.0129 45.5003 75.936 45.4546 75.8429 45.4219C75.7496 45.3869 75.6442 45.3606 75.527 45.3432C75.4117 45.3231 75.2928 45.3023 75.1702 45.2809C75.0499 45.2591 74.9301 45.2324 74.8109 45.2009C74.6938 45.1667 74.5867 45.1192 74.4898 45.0583C74.3929 44.9974 74.3101 44.9178 74.2416 44.8195C74.1751 44.7185 74.1314 44.5917 74.1104 44.439C74.0917 44.3027 74.102 44.1685 74.1413 44.0362C74.1803 43.9016 74.2473 43.78 74.3425 43.6712C74.4374 43.56 74.5596 43.4654 74.7093 43.3875C74.8589 43.3095 75.0348 43.2566 75.2368 43.2289C75.4717 43.1967 75.6872 43.2054 75.8831 43.2551C76.081 43.3021 76.257 43.3809 76.4109 43.4914L76.3014 43.7398ZM79.671 43.2056C79.7366 43.108 79.808 43.0181 79.8852 42.9357C79.9625 42.8533 80.0459 42.7808 80.1354 42.7182C80.227 42.653 80.325 42.6001 80.4296 42.5594C80.5361 42.516 80.6528 42.4857 80.7797 42.4683C80.9747 42.4415 81.1507 42.4509 81.3077 42.4963C81.4668 42.5391 81.6038 42.6136 81.7189 42.7199C81.8361 42.8235 81.9319 42.9552 82.0065 43.1149C82.0811 43.2746 82.1322 43.4554 82.16 43.6575L82.4719 45.9304L81.8411 46.0169L81.5292 43.744C81.4921 43.4739 81.4012 43.2733 81.2563 43.1424C81.1135 43.0088 80.9165 42.9593 80.6651 42.9938C80.4795 43.0193 80.3118 43.0877 80.1619 43.1993C80.0144 43.3105 79.8831 43.4518 79.7677 43.6231L80.1285 46.2519L79.4977 46.3385L79.0079 42.7688L79.3849 42.7171C79.4742 42.7048 79.5354 42.7407 79.5684 42.8248L79.671 43.2056ZM85.9352 41.8182L84.5787 46.7147C84.564 46.7646 84.5421 46.8059 84.5131 46.8386C84.4864 46.871 84.4402 46.8917 84.3744 46.9007L83.9093 46.9646L84.3668 45.4585L82.4325 42.2989L82.9752 42.2244C83.0292 42.217 83.0734 42.2253 83.1078 42.2493C83.1443 42.2706 83.1706 42.2969 83.1869 42.3282L84.4504 44.4454C84.5015 44.5389 84.5474 44.6379 84.5881 44.7424C84.6058 44.6275 84.6267 44.5181 84.6507 44.4143L85.2695 42.0424C85.2784 42.0029 85.2977 41.9691 85.3274 41.9411C85.3591 41.9104 85.3961 41.8922 85.4383 41.8864L85.9352 41.8182ZM88.6315 43.4479C88.3438 43.497 88.1004 43.5543 87.9012 43.62C87.704 43.6829 87.5448 43.7526 87.4236 43.8291C87.3048 43.9052 87.2216 43.9873 87.1738 44.0752C87.1284 44.1628 87.1124 44.256 87.126 44.3546C87.1389 44.4486 87.1653 44.5276 87.2051 44.5915C87.245 44.6554 87.2939 44.7062 87.3517 44.7437C87.4115 44.7786 87.4781 44.8018 87.5515 44.8132C87.6269 44.822 87.7057 44.8208 87.788 44.8095C87.8984 44.7944 87.9979 44.7699 88.0867 44.7362C88.1751 44.7001 88.2563 44.6555 88.3304 44.6022C88.4068 44.5487 88.4774 44.4875 88.5421 44.4188C88.6093 44.3497 88.6729 44.2728 88.7331 44.188L88.6315 43.4479ZM86.4051 42.2671C86.5763 42.0498 86.7694 41.8785 86.9844 41.7532C87.1994 41.628 87.4455 41.5463 87.7227 41.5083C87.9224 41.4809 88.1042 41.4894 88.2683 41.5339C88.4324 41.5784 88.5753 41.6522 88.6972 41.7551C88.819 41.8581 88.9184 41.9892 88.9953 42.1486C89.0722 42.308 89.1244 42.4875 89.1518 42.6872L89.4652 44.9707L89.1868 45.0089C89.1257 45.0173 89.0774 45.0143 89.042 45C89.0062 44.9834 88.9748 44.947 88.948 44.8909L88.8311 44.5622C88.749 44.6621 88.6681 44.7522 88.5881 44.8325C88.5079 44.9106 88.4217 44.9798 88.3294 45.0404C88.2369 45.0985 88.1359 45.1471 88.0263 45.1861C87.9195 45.2271 87.7979 45.2569 87.6616 45.2756C87.523 45.2946 87.3901 45.2937 87.2628 45.2729C87.1351 45.2497 87.0202 45.2057 86.9179 45.1407C86.818 45.0755 86.733 44.9878 86.6628 44.8777C86.5947 44.765 86.5495 44.6276 86.5273 44.4655C86.5079 44.3246 86.5281 44.1842 86.5879 44.0443C86.6474 43.9021 86.7571 43.7686 86.9171 43.6437C87.0771 43.5188 87.2925 43.4055 87.5634 43.3037C87.8339 43.1996 88.1717 43.1149 88.5769 43.0497L88.5387 42.7714C88.5006 42.4942 88.412 42.2933 88.2729 42.1688C88.1334 42.0419 87.9485 41.9943 87.7183 42.0259C87.5633 42.0472 87.4356 42.085 87.3354 42.1395C87.2372 42.1912 87.1527 42.2471 87.0819 42.3071C87.0132 42.3644 86.9534 42.4169 86.9025 42.4645C86.8536 42.5095 86.8022 42.5358 86.7481 42.5432C86.7058 42.549 86.668 42.5434 86.6345 42.5264C86.6008 42.5071 86.5711 42.4825 86.5454 42.4525L86.4051 42.2671ZM93.9079 41.3237C93.8868 41.3792 93.8469 41.411 93.7882 41.4191C93.7529 41.4239 93.7112 41.4165 93.663 41.3968C93.6148 41.3771 93.5558 41.3564 93.4858 41.3349C93.4179 41.3107 93.3375 41.2919 93.2447 41.2783C93.1515 41.2623 93.0439 41.2627 92.9217 41.2795C92.816 41.294 92.7228 41.3212 92.6421 41.361C92.5611 41.3984 92.4932 41.4448 92.4386 41.5002C92.3863 41.5552 92.3481 41.6167 92.3239 41.6847C92.3017 41.7499 92.2957 41.819 92.3056 41.8918C92.3182 41.9834 92.3545 42.0562 92.4146 42.1102C92.477 42.1639 92.5548 42.2071 92.6478 42.2398C92.7408 42.2725 92.845 42.2989 92.9602 42.319C93.0752 42.3367 93.1929 42.3576 93.3135 42.3818C93.4361 42.4033 93.5559 42.4299 93.6727 42.4617C93.7896 42.4936 93.8963 42.5388 93.9929 42.5973C94.0895 42.6559 94.1708 42.7333 94.2366 42.8295C94.3045 42.9231 94.3483 43.0416 94.368 43.1849C94.3905 43.3493 94.3821 43.5061 94.3427 43.6551C94.303 43.8018 94.2327 43.9347 94.1318 44.0538C94.0305 44.1706 93.9005 44.2699 93.7418 44.3515C93.5831 44.4331 93.3945 44.4889 93.176 44.5189C92.927 44.5531 92.6959 44.5441 92.483 44.4919C92.2696 44.4374 92.0838 44.3564 91.9254 44.2489L92.0405 43.989C92.0552 43.9559 92.0742 43.9293 92.0978 43.9093C92.1214 43.8893 92.1532 43.8766 92.1931 43.8711C92.2354 43.8653 92.2823 43.8756 92.3338 43.9021C92.3853 43.9285 92.4467 43.9572 92.5179 43.9881C92.5915 44.0187 92.6788 44.0438 92.7796 44.0635C92.8804 44.0831 93.0025 44.0831 93.1458 44.0635C93.268 44.0467 93.3727 44.0168 93.4602 43.9737C93.5473 43.9282 93.6177 43.8743 93.6713 43.8119C93.725 43.7494 93.7611 43.6811 93.7796 43.6067C93.8005 43.532 93.8054 43.4548 93.7945 43.3749C93.7809 43.2762 93.7428 43.1989 93.6801 43.1429C93.6193 43.0842 93.5425 43.0385 93.4494 43.0058C93.356 42.9707 93.2507 42.9445 93.1335 42.9271C93.0182 42.907 92.8993 42.8862 92.7766 42.8647C92.6564 42.843 92.5366 42.8163 92.4174 42.7848C92.3002 42.7506 92.1932 42.7031 92.0963 42.6422C91.9994 42.5813 91.9166 42.5017 91.8481 42.4034C91.7816 42.3024 91.7378 42.1756 91.7169 42.0229C91.6982 41.8866 91.7085 41.7524 91.7478 41.6201C91.7868 41.4855 91.8538 41.3638 91.949 41.255C92.0438 41.1439 92.1661 41.0493 92.3158 40.9713C92.4654 40.8933 92.6413 40.8405 92.8433 40.8128C93.0782 40.7805 93.2936 40.7893 93.4895 40.839C93.6875 40.886 93.8634 40.9648 94.0174 41.0753L93.9079 41.3237ZM97.008 42.2984C96.7204 42.3475 96.4769 42.4048 96.2777 42.4705C96.0805 42.5334 95.9213 42.6031 95.8002 42.6796C95.6814 42.7557 95.5981 42.8378 95.5503 42.9257C95.5049 43.0133 95.489 43.1065 95.5025 43.2051C95.5154 43.2991 95.5418 43.3781 95.5817 43.442C95.6216 43.5059 95.6704 43.5567 95.7282 43.5942C95.7881 43.6291 95.8547 43.6523 95.928 43.6637C96.0034 43.6725 96.0823 43.6713 96.1645 43.66C96.2749 43.6448 96.3745 43.6204 96.4632 43.5867C96.5516 43.5506 96.6328 43.506 96.7069 43.4527C96.7833 43.3992 96.8539 43.338 96.9187 43.2693C96.9858 43.2002 97.0494 43.1233 97.1096 43.0384L97.008 42.2984ZM94.7816 41.1176C94.9528 40.9002 95.1459 40.7289 95.3609 40.6037C95.5759 40.4785 95.822 40.3968 96.0992 40.3588C96.2989 40.3314 96.4808 40.3399 96.6448 40.3844C96.8089 40.4289 96.9519 40.5027 97.0737 40.6056C97.1955 40.7086 97.2949 40.8397 97.3718 40.9991C97.4488 41.1585 97.5009 41.338 97.5283 41.5377L97.8417 43.8212L97.5633 43.8594C97.5022 43.8678 97.454 43.8648 97.4185 43.8505C97.3827 43.8339 97.3514 43.7975 97.3245 43.7414L97.2076 43.4127C97.1256 43.5126 97.0446 43.6026 96.9647 43.683C96.8844 43.7611 96.7982 43.8303 96.706 43.8909C96.6134 43.949 96.5124 43.9976 96.4029 44.0366C96.296 44.0776 96.1744 44.1074 96.0382 44.1261C95.8996 44.1451 95.7666 44.1442 95.6393 44.1234C95.5116 44.1002 95.3967 44.0562 95.2944 43.9912C95.1945 43.9259 95.1095 43.8383 95.0393 43.7282C94.9712 43.6155 94.926 43.4781 94.9038 43.316C94.8844 43.1751 94.9047 43.0347 94.9645 42.8948C95.0239 42.7526 95.1337 42.6191 95.2936 42.4942C95.4536 42.3693 95.669 42.256 95.9399 42.1542C96.2104 42.0501 96.5483 41.9654 96.9534 41.9002L96.9152 41.6219C96.8771 41.3446 96.7885 41.1438 96.6494 41.0193C96.5099 40.8924 96.3251 40.8448 96.0948 40.8764C95.9398 40.8976 95.8121 40.9355 95.7119 40.99C95.6137 41.0417 95.5292 41.0976 95.4585 41.1576C95.3897 41.2149 95.3299 41.2674 95.279 41.315C95.2301 41.36 95.1787 41.3862 95.1247 41.3937C95.0824 41.3995 95.0445 41.3939 95.0111 41.3769C94.9773 41.3576 94.9476 41.333 94.9219 41.303L94.7816 41.1176ZM98.8042 43.6891L98.3143 40.1194L98.6914 40.0677C98.7807 40.0554 98.8418 40.0913 98.8749 40.1753L98.971 40.5355C99.0803 40.3554 99.2101 40.2023 99.3604 40.0764C99.5106 39.9505 99.6938 39.8727 99.9099 39.843C100.15 39.8101 100.353 39.8505 100.519 39.9641C100.688 40.0774 100.821 40.2434 100.918 40.4623C100.952 40.326 101.002 40.2054 101.069 40.1004C101.138 39.9952 101.219 39.9051 101.312 39.8301C101.405 39.7552 101.505 39.6959 101.614 39.6522C101.725 39.6082 101.84 39.5782 101.957 39.5621C102.145 39.5363 102.316 39.5439 102.47 39.585C102.626 39.6234 102.763 39.6933 102.88 39.7945C102.999 39.8954 103.097 40.0268 103.174 40.1885C103.251 40.3479 103.304 40.5356 103.334 40.7518L103.646 43.0247L103.015 43.1112L102.703 40.8383C102.665 40.5588 102.575 40.3557 102.433 40.2292C102.291 40.1003 102.105 40.0516 101.874 40.0832C101.771 40.0974 101.675 40.1298 101.586 40.1802C101.499 40.228 101.426 40.292 101.365 40.3722C101.304 40.4523 101.26 40.5493 101.232 40.6632C101.207 40.7744 101.204 40.9005 101.223 41.0414L101.535 43.3143L100.904 43.4009L100.593 41.128C100.553 40.8414 100.466 40.6355 100.332 40.5103C100.197 40.3852 100.02 40.3378 99.7989 40.3681C99.6439 40.3893 99.5063 40.4513 99.3864 40.5539C99.2661 40.6542 99.1606 40.7836 99.0699 40.942L99.435 43.6025L98.8042 43.6891ZM105.119 41.9465C105.255 42.0857 105.396 42.1777 105.541 42.2225C105.686 42.2672 105.843 42.2779 106.012 42.2547C106.346 42.209 106.586 42.0552 106.732 41.7934C106.878 41.5316 106.92 41.1811 106.86 40.7418C106.828 40.5092 106.78 40.3124 106.715 40.1514C106.652 39.9901 106.574 39.8619 106.482 39.7668C106.39 39.6694 106.284 39.6038 106.164 39.5699C106.045 39.5361 105.913 39.529 105.77 39.5486C105.566 39.5767 105.393 39.6483 105.25 39.7636C105.111 39.8785 104.988 40.0306 104.882 40.2198L105.119 41.9465ZM104.791 39.7942C104.916 39.588 105.07 39.415 105.252 39.2751C105.433 39.1353 105.651 39.048 105.905 39.0131C106.112 38.9848 106.304 38.9991 106.482 39.0561C106.659 39.1107 106.817 39.2075 106.956 39.3464C107.094 39.483 107.211 39.6609 107.306 39.88C107.4 40.0992 107.468 40.3568 107.509 40.6528C107.545 40.9159 107.543 41.1663 107.504 41.4038C107.464 41.639 107.389 41.8492 107.278 42.0344C107.169 42.2169 107.025 42.3695 106.845 42.4922C106.668 42.6123 106.46 42.6888 106.22 42.7217C106.001 42.7517 105.809 42.741 105.641 42.6898C105.476 42.6359 105.324 42.5514 105.186 42.4363L105.403 44.015L104.772 44.1015L104.116 39.3232L104.494 39.2715C104.583 39.2592 104.644 39.2951 104.677 39.3791L104.791 39.7942ZM110.278 40.4774C109.99 40.5264 109.747 40.5838 109.548 40.6494C109.35 40.7124 109.191 40.7821 109.07 40.8586C108.951 40.9347 108.868 41.0167 108.82 41.1047C108.775 41.1923 108.759 41.2854 108.772 41.3841C108.785 41.4781 108.812 41.557 108.852 41.621C108.892 41.6849 108.94 41.7356 108.998 41.7732C109.058 41.808 109.125 41.8312 109.198 41.8427C109.273 41.8515 109.352 41.8502 109.434 41.839C109.545 41.8238 109.644 41.7994 109.733 41.7657C109.822 41.7296 109.903 41.6849 109.977 41.6317C110.053 41.5781 110.124 41.517 110.189 41.4482C110.256 41.3792 110.319 41.3023 110.38 41.2174L110.278 40.4774ZM108.052 39.2966C108.223 39.0792 108.416 38.9079 108.631 38.7827C108.846 38.6574 109.092 38.5758 109.369 38.5377C109.569 38.5103 109.751 38.5189 109.915 38.5634C110.079 38.6079 110.222 38.6816 110.344 38.7846C110.466 38.8875 110.565 39.0187 110.642 39.1781C110.719 39.3375 110.771 39.517 110.798 39.7167L111.112 42.0001L110.833 42.0383C110.772 42.0467 110.724 42.0438 110.688 42.0295C110.653 42.0129 110.621 41.9765 110.595 41.9203L110.478 41.5917C110.396 41.6915 110.315 41.7816 110.235 41.862C110.154 41.94 110.068 42.0093 109.976 42.0698C109.883 42.128 109.782 42.1766 109.673 42.2155C109.566 42.2565 109.444 42.2864 109.308 42.3051C109.17 42.3241 109.037 42.3232 108.909 42.3024C108.782 42.2792 108.667 42.2351 108.564 42.1702C108.465 42.1049 108.379 42.0172 108.309 41.9072C108.241 41.7945 108.196 41.6571 108.174 41.495C108.154 41.354 108.175 41.2136 108.234 41.0738C108.294 40.9316 108.404 40.798 108.564 40.6732C108.724 40.5483 108.939 40.435 109.21 40.3332C109.48 40.229 109.818 40.1444 110.223 40.0792L110.185 39.8008C110.147 39.5236 110.059 39.3227 109.919 39.1982C109.78 39.0714 109.595 39.0237 109.365 39.0553C109.21 39.0766 109.082 39.1145 108.982 39.1689C108.884 39.2207 108.799 39.2766 108.728 39.3365C108.66 39.3938 108.6 39.4463 108.549 39.494C108.5 39.539 108.449 39.5652 108.395 39.5726C108.352 39.5784 108.315 39.5729 108.281 39.5559C108.247 39.5366 108.218 39.512 108.192 39.482L108.052 39.2966ZM112.247 38.2075L112.737 41.7771L112.109 41.8632L111.62 38.2935L112.247 38.2075ZM112.227 37.0685C112.235 37.1296 112.23 37.1889 112.212 37.2465C112.195 37.3014 112.169 37.3529 112.133 37.401C112.098 37.4464 112.054 37.4847 112.001 37.516C111.95 37.5469 111.894 37.5665 111.833 37.5749C111.772 37.5833 111.713 37.5794 111.656 37.5634C111.601 37.547 111.551 37.5215 111.505 37.4871C111.46 37.4503 111.421 37.4076 111.391 37.3592C111.36 37.3084 111.34 37.2524 111.332 37.1913C111.324 37.1303 111.327 37.0711 111.343 37.0138C111.359 36.9542 111.384 36.9017 111.419 36.8563C111.453 36.8085 111.494 36.7694 111.543 36.7388C111.593 36.7079 111.649 36.6882 111.71 36.6798C111.772 36.6715 111.831 36.6753 111.888 36.6914C111.948 36.7071 112 36.7334 112.046 36.7702C112.094 36.8044 112.133 36.848 112.164 36.9012C112.198 36.9516 112.219 37.0074 112.227 37.0685ZM115.585 41.3863L115.095 37.8167L115.472 37.7649C115.561 37.7527 115.622 37.7885 115.655 37.8726L115.751 38.2328C115.861 38.0526 115.991 37.8996 116.141 37.7736C116.291 37.6477 116.474 37.5699 116.69 37.5402C116.93 37.5074 117.133 37.5477 117.299 37.6613C117.468 37.7746 117.601 37.9406 117.698 38.1595C117.732 38.0232 117.782 37.9026 117.849 37.7977C117.919 37.6924 118 37.6023 118.092 37.5274C118.185 37.4524 118.286 37.3931 118.395 37.3494C118.506 37.3055 118.62 37.2754 118.738 37.2593C118.926 37.2335 119.097 37.2411 119.251 37.2822C119.407 37.3207 119.543 37.3905 119.66 37.4917C119.779 37.5927 119.877 37.724 119.955 37.8857C120.032 38.0451 120.085 38.2329 120.114 38.449L120.426 40.7219L119.796 40.8084L119.484 38.5356C119.445 38.256 119.355 38.0529 119.213 37.9264C119.071 37.7975 118.885 37.7489 118.655 37.7805C118.552 37.7947 118.455 37.827 118.367 37.8775C118.28 37.9253 118.206 37.9893 118.145 38.0694C118.084 38.1496 118.04 38.2466 118.013 38.3604C117.987 38.4716 117.984 38.5977 118.004 38.7387L118.316 41.0115L117.685 41.0981L117.373 38.8252C117.334 38.5386 117.247 38.3327 117.112 38.2076C116.978 38.0824 116.8 38.035 116.579 38.0653C116.424 38.0866 116.287 38.1485 116.167 38.2511C116.047 38.3514 115.941 38.4808 115.85 38.6392L116.215 41.2998L115.585 41.3863ZM123.101 38.7177C122.813 38.7668 122.57 38.8241 122.37 38.8898C122.173 38.9527 122.014 39.0224 121.893 39.0989C121.774 39.175 121.691 39.2571 121.643 39.345C121.598 39.4326 121.582 39.5258 121.595 39.6244C121.608 39.7184 121.635 39.7973 121.674 39.8613C121.714 39.9252 121.763 39.976 121.821 40.0135C121.881 40.0484 121.947 40.0715 122.021 40.083C122.096 40.0918 122.175 40.0906 122.257 40.0793C122.368 40.0641 122.467 40.0397 122.556 40.006C122.644 39.9699 122.726 39.9253 122.8 39.872C122.876 39.8185 122.947 39.7573 123.011 39.6886C123.079 39.6195 123.142 39.5426 123.202 39.4577L123.101 38.7177ZM120.874 37.5369C121.046 37.3195 121.239 37.1482 121.454 37.023C121.669 36.8978 121.915 36.8161 122.192 36.7781C122.392 36.7507 122.574 36.7592 122.738 36.8037C122.902 36.8482 123.045 36.922 123.167 37.0249C123.288 37.1279 123.388 37.259 123.465 37.4184C123.542 37.5778 123.594 37.7573 123.621 37.957L123.934 40.2405L123.656 40.2787C123.595 40.287 123.547 40.2841 123.511 40.2698C123.475 40.2532 123.444 40.2168 123.417 40.1606L123.3 39.832C123.218 39.9318 123.137 40.0219 123.057 40.1023C122.977 40.1804 122.891 40.2496 122.799 40.3102C122.706 40.3683 122.605 40.4169 122.496 40.4559C122.389 40.4969 122.267 40.5267 122.131 40.5454C121.992 40.5644 121.859 40.5635 121.732 40.5427C121.604 40.5195 121.489 40.4755 121.387 40.4105C121.287 40.3452 121.202 40.2576 121.132 40.1475C121.064 40.0348 121.019 39.8974 120.997 39.7353C120.977 39.5944 120.997 39.454 121.057 39.3141C121.117 39.1719 121.226 39.0384 121.386 38.9135C121.546 38.7886 121.762 38.6753 122.033 38.5735C122.303 38.4694 122.641 38.3847 123.046 38.3195L123.008 38.0412C122.97 37.7639 122.881 37.5631 122.742 37.4386C122.603 37.3117 122.418 37.2641 122.188 37.2957C122.033 37.3169 121.905 37.3548 121.805 37.4092C121.707 37.461 121.622 37.5169 121.551 37.5769C121.483 37.6342 121.423 37.6867 121.372 37.7343C121.323 37.7793 121.271 37.8055 121.217 37.813C121.175 37.8188 121.137 37.8132 121.104 37.7962C121.07 37.7769 121.04 37.7523 121.015 37.7223L120.874 37.5369ZM125.07 36.9755C125.136 36.8779 125.207 36.7879 125.284 36.7055C125.362 36.6231 125.445 36.5507 125.535 36.4881C125.626 36.4229 125.724 36.3699 125.829 36.3293C125.935 36.2859 126.052 36.2555 126.179 36.2381C126.374 36.2114 126.55 36.2207 126.707 36.2662C126.866 36.309 127.003 36.3835 127.118 36.4898C127.235 36.5934 127.331 36.725 127.406 36.8847C127.48 37.0445 127.531 37.2253 127.559 37.4274L127.871 39.7002L127.24 39.7868L126.928 37.5139C126.891 37.2438 126.8 37.0432 126.656 36.9123C126.513 36.7787 126.316 36.7292 126.064 36.7637C125.879 36.7891 125.711 36.8576 125.561 36.9691C125.414 37.0803 125.282 37.2216 125.167 37.393L125.528 40.0218L124.897 40.1084L124.407 36.5387L124.784 36.487C124.873 36.4747 124.935 36.5106 124.968 36.5946L125.07 36.9755ZM130.548 37.6958C130.26 37.7448 130.017 37.8021 129.818 37.8678C129.621 37.9307 129.461 38.0005 129.34 38.0769C129.221 38.1531 129.138 38.2351 129.09 38.323C129.045 38.4106 129.029 38.5038 129.043 38.6024C129.055 38.6964 129.082 38.7754 129.122 38.8393C129.162 38.9032 129.21 38.954 129.268 38.9915C129.328 39.0264 129.395 39.0496 129.468 39.061C129.543 39.0698 129.622 39.0686 129.705 39.0573C129.815 39.0422 129.914 39.0177 130.003 38.984C130.092 38.9479 130.173 38.9033 130.247 38.85C130.323 38.7965 130.394 38.7353 130.459 38.6666C130.526 38.5976 130.589 38.5206 130.65 38.4358L130.548 37.6958ZM128.322 36.5149C128.493 36.2976 128.686 36.1263 128.901 36.001C129.116 35.8758 129.362 35.7941 129.639 35.7561C129.839 35.7287 130.021 35.7372 130.185 35.7817C130.349 35.8262 130.492 35.9 130.614 36.0029C130.736 36.1059 130.835 36.237 130.912 36.3964C130.989 36.5558 131.041 36.7353 131.068 36.935L131.382 39.2185L131.103 39.2567C131.042 39.2651 130.994 39.2621 130.959 39.2478C130.923 39.2312 130.891 39.1948 130.865 39.1387L130.748 38.81C130.666 38.9099 130.585 39 130.505 39.0803C130.424 39.1584 130.338 39.2276 130.246 39.2882C130.153 39.3463 130.052 39.3949 129.943 39.4339C129.836 39.4749 129.714 39.5047 129.578 39.5234C129.44 39.5424 129.307 39.5415 129.179 39.5207C129.052 39.4975 128.937 39.4535 128.834 39.3885C128.735 39.3233 128.65 39.2356 128.579 39.1256C128.511 39.0128 128.466 38.8754 128.444 38.7133C128.424 38.5724 128.445 38.432 128.504 38.2921C128.564 38.1499 128.674 38.0164 128.834 37.8915C128.994 37.7666 129.209 37.6533 129.48 37.5515C129.75 37.4474 130.088 37.3627 130.493 37.2976L130.455 37.0192C130.417 36.742 130.329 36.5411 130.189 36.4166C130.05 36.2897 129.865 36.2421 129.635 36.2737C129.48 36.295 129.352 36.3328 129.252 36.3873C129.154 36.439 129.069 36.4949 128.998 36.5549C128.93 36.6122 128.87 36.6647 128.819 36.7123C128.77 36.7574 128.719 36.7836 128.665 36.791C128.622 36.7968 128.585 36.7912 128.551 36.7743C128.517 36.7549 128.488 36.7303 128.462 36.7003L128.322 36.5149ZM134.358 35.9019C134.438 35.6421 134.55 35.4328 134.696 35.274C134.841 35.1128 135.033 35.016 135.27 34.9834C135.345 34.9731 135.418 34.9715 135.488 34.9786C135.561 34.9853 135.627 35.0026 135.686 35.0305L135.704 35.5054C135.698 35.5661 135.667 35.6003 135.61 35.608C135.578 35.6125 135.528 35.6121 135.463 35.6067C135.398 35.6013 135.325 35.6041 135.245 35.6151C135.132 35.6305 135.034 35.6609 134.949 35.706C134.867 35.7508 134.795 35.8109 134.733 35.8864C134.674 35.9592 134.622 36.0476 134.579 36.1516C134.538 36.253 134.504 36.3679 134.476 36.4962L134.785 38.7514L134.154 38.838L133.665 35.2683L134.024 35.219C134.092 35.2096 134.141 35.2161 134.17 35.2384C134.2 35.2607 134.223 35.3029 134.242 35.3651L134.358 35.9019ZM138.675 36.0025C138.655 35.8568 138.616 35.727 138.557 35.613C138.5 35.4963 138.426 35.4 138.334 35.324C138.244 35.2454 138.14 35.1903 138.021 35.1588C137.901 35.1249 137.77 35.1178 137.626 35.1375C137.326 35.1788 137.099 35.2996 136.947 35.5C136.797 35.6977 136.723 35.9545 136.723 36.2704L138.675 36.0025ZM139.412 37.6067C139.347 37.7113 139.266 37.8062 139.168 37.8915C139.069 37.9745 138.96 38.0468 138.842 38.1086C138.726 38.17 138.604 38.2203 138.475 38.2594C138.347 38.301 138.218 38.3306 138.089 38.3484C137.842 38.3822 137.608 38.3724 137.388 38.3188C137.17 38.2626 136.973 38.1651 136.799 38.0264C136.626 37.8849 136.481 37.7013 136.364 37.4757C136.247 37.25 136.167 36.9833 136.125 36.6755C136.091 36.4265 136.096 36.1888 136.142 35.9623C136.19 35.7356 136.275 35.5336 136.396 35.3566C136.518 35.1772 136.676 35.0286 136.87 34.911C137.064 34.791 137.291 34.7133 137.549 34.6778C137.763 34.6485 137.965 34.6578 138.156 34.7058C138.349 34.7512 138.52 34.8329 138.671 34.9511C138.823 35.0667 138.95 35.2191 139.053 35.4085C139.155 35.5955 139.224 35.8159 139.259 36.0696C139.272 36.1682 139.271 36.2355 139.254 36.2713C139.237 36.3071 139.2 36.329 139.141 36.337L136.755 36.6644C136.793 36.889 136.851 37.0809 136.928 37.2403C137.007 37.3994 137.104 37.5285 137.218 37.6278C137.332 37.7246 137.461 37.7919 137.605 37.8296C137.748 37.8649 137.905 37.871 138.074 37.8478C138.231 37.8262 138.364 37.79 138.472 37.7393C138.582 37.6859 138.675 37.6324 138.751 37.5789C138.828 37.5253 138.891 37.4772 138.94 37.4345C138.991 37.3892 139.037 37.3638 139.076 37.3583C139.128 37.3512 139.171 37.3657 139.205 37.4018L139.412 37.6067ZM140.233 32.7154L140.652 35.7706L140.814 35.7484C140.861 35.7419 140.899 35.7307 140.928 35.7148C140.959 35.6962 140.99 35.6645 141.019 35.6197L141.981 34.2563C142.009 34.2118 142.038 34.1766 142.071 34.1506C142.105 34.122 142.153 34.1035 142.214 34.0951L142.781 34.0172L141.659 35.5966C141.606 35.6852 141.547 35.7568 141.48 35.8114C141.526 35.8338 141.568 35.8615 141.606 35.8946C141.647 35.925 141.685 35.9616 141.722 36.0044L143.359 37.5748L142.799 37.6517C142.745 37.6591 142.697 37.6573 142.655 37.6464C142.614 37.6327 142.577 37.6044 142.542 37.5612L141.168 36.2599C141.126 36.2154 141.087 36.1885 141.05 36.1792C141.014 36.1673 140.962 36.1662 140.891 36.1759L140.711 36.2005L140.945 37.9061L140.315 37.9926L139.602 32.802L140.233 32.7154ZM143.058 32.9309C143.122 32.8528 143.193 32.7772 143.271 32.7042C143.352 32.6309 143.441 32.5636 143.538 32.5025C143.637 32.441 143.745 32.3891 143.861 32.3468C143.979 32.3018 144.109 32.2697 144.25 32.2503C144.436 32.2249 144.611 32.2284 144.776 32.2608C144.943 32.2929 145.091 32.3504 145.219 32.4333C145.348 32.5161 145.455 32.6235 145.54 32.7555C145.625 32.8874 145.68 33.0415 145.704 33.2176C145.728 33.3962 145.723 33.5538 145.686 33.6904C145.652 33.8267 145.601 33.9498 145.532 34.0598C145.466 34.167 145.389 34.2637 145.303 34.3498C145.219 34.4331 145.138 34.5123 145.063 34.5874C144.987 34.6624 144.923 34.7358 144.87 34.8076C144.82 34.8791 144.796 34.9543 144.797 35.0331L144.808 35.5809L144.378 35.6399L144.255 35.0608C144.231 34.9564 144.239 34.862 144.277 34.7777C144.316 34.6911 144.37 34.6082 144.441 34.5291C144.511 34.4477 144.59 34.3674 144.677 34.2885C144.764 34.2071 144.843 34.1197 144.914 34.0262C144.987 33.9323 145.045 33.8299 145.087 33.7188C145.129 33.6053 145.14 33.4758 145.12 33.3301C145.106 33.2291 145.073 33.1402 145.022 33.0635C144.971 32.9867 144.907 32.9248 144.832 32.8778C144.755 32.8284 144.668 32.7949 144.57 32.7773C144.474 32.7593 144.374 32.7576 144.268 32.7721C144.124 32.7918 144.004 32.8263 143.905 32.8757C143.809 32.9248 143.728 32.9754 143.664 33.0273C143.599 33.0793 143.547 33.1259 143.507 33.1673C143.47 33.2083 143.437 33.2308 143.409 33.2347C143.35 33.2427 143.3 33.222 143.26 33.1725L143.058 32.9309ZM144.323 37.0476C144.315 36.9865 144.317 36.9275 144.331 36.8706C144.347 36.8133 144.371 36.7622 144.403 36.7171C144.438 36.6716 144.481 36.6335 144.531 36.6026C144.582 36.5717 144.638 36.552 144.699 36.5436C144.76 36.5353 144.819 36.5391 144.877 36.5552C144.934 36.5713 144.985 36.5965 145.031 36.631C145.076 36.6654 145.114 36.7081 145.145 36.7589C145.176 36.8097 145.196 36.8656 145.204 36.9267C145.213 36.9901 145.209 37.0505 145.193 37.1077C145.177 37.1627 145.151 37.2128 145.117 37.2582C145.082 37.3036 145.04 37.3406 144.988 37.3692C144.938 37.4001 144.882 37.4197 144.821 37.4281C144.759 37.4365 144.7 37.4327 144.643 37.4166C144.586 37.4029 144.535 37.3788 144.49 37.3443C144.446 37.3095 144.41 37.2679 144.379 37.2195C144.35 37.1683 144.332 37.111 144.323 37.0476Z" fill="#7D7D7D"/>
</g>
<defs>
<filter id="filter0_d_1190_12029" x="0.403926" y="1.59277" width="200.068" height="70.5056" filterUnits="userSpaceOnUse" color-interpolation-filters="sRGB">
<feFlood flood-opacity="0" result="BackgroundImageFix"/>
<feColorMatrix in="SourceAlpha" type="matrix" values="0 0 0 0 0 0 0 0 0 0 0 0 0 0 0 0 0 0 127 0" result="hardAlpha"/>
<feOffset dy="2.18885"/>
<feGaussianBlur stdDeviation="1.09442"/>
<feComposite in2="hardAlpha" operator="out"/>
<feColorMatrix type="matrix" values="0 0 0 0 0 0 0 0 0 0 0 0 0 0 0 0 0 0 0.25 0"/>
<feBlend mode="normal" in2="BackgroundImageFix" result="effect1_dropShadow_1190_12029"/>
<feBlend mode="normal" in="SourceGraphic" in2="effect1_dropShadow_1190_12029" result="shape"/>
</filter>
<clipPath id="clip0_1190_12029">
<rect width="19.1524" height="19.1524" fill="white" transform="translate(16.1155 36.0107) rotate(-7.81387)"/>
</clipPath>
</defs>
</svg>
