<svg width="201" height="62" viewBox="0 0 201 62" fill="none" xmlns="http://www.w3.org/2000/svg">
<g filter="url(#filter0_d_1193_12056)">
<rect x="2" y="15.1953" width="194.807" height="43.2297" rx="12.5859" transform="rotate(-4.47365 2 15.1953)" fill="white" fill-opacity="0.94"/>
<rect x="2" y="15.1953" width="194.807" height="43.2297" rx="12.5859" transform="rotate(-4.47365 2 15.1953)" fill="white" fill-opacity="0.94"/>
<rect x="10.1072" y="20.5986" width="30.0967" height="30.6439" rx="7.66097" transform="rotate(-4.47365 10.1072 20.5986)" fill="#F88C3D"/>
<g clip-path="url(#clip0_1193_12056)">
<path d="M33.5047 37.8648L20.7753 38.8607L20.0284 29.3137L28.0638 28.685C27.9759 28.3797 27.8515 27.8131 27.9393 27.0939L19.9039 27.7225C19.0288 27.791 18.3687 28.5631 18.4372 29.4382L19.5576 43.7588L22.491 40.3274L33.6292 39.456C34.5044 39.3875 35.1644 38.6155 35.0959 37.7403L34.5344 30.5641C34.1004 30.9503 33.5799 31.2552 33.0005 31.4206L33.5047 37.8648Z" fill="white"/>
<path d="M32.0867 29.9712C33.4048 29.8681 34.3898 28.7159 34.2867 27.3977C34.1836 26.0795 33.0314 25.0945 31.7132 25.1977C30.395 25.3008 29.41 26.453 29.5132 27.7712C29.6163 29.0893 30.7685 30.0743 32.0867 29.9712Z" fill="white"/>
<path d="M28.4822 35.0559L22.1175 35.5539L22.242 37.1451L28.6067 36.6471L28.4822 35.0559Z" fill="white"/>
<path d="M31.4778 32.4202L21.9308 33.1672L22.0553 34.7583L31.6023 34.0114L31.4778 32.4202Z" fill="white"/>
<path d="M21.8685 32.3716L31.4156 31.6246L31.4094 31.5451C30.4311 31.4215 29.5602 30.9293 28.9282 30.2183L21.7441 30.7804L21.8685 32.3716Z" fill="white"/>
</g>
<path d="M52.3687 27.4951L51.6112 25.8383C51.5745 25.7651 51.5356 25.6777 51.4943 25.5763C51.4531 25.4749 51.4112 25.3652 51.3687 25.2472C51.3474 25.3702 51.3243 25.4861 51.2996 25.5951C51.2746 25.7017 51.2498 25.7952 51.2252 25.8756L50.7375 27.6227L52.3687 27.4951ZM54.2046 29.2995L53.467 29.3572C53.3842 29.3637 53.3153 29.3488 53.2601 29.3127C53.2048 29.2742 53.1617 29.2253 53.1309 29.1658L52.6661 28.1497L50.542 28.3159L50.2409 29.392C50.2262 29.4478 50.1935 29.5003 50.1426 29.5495C50.0918 29.5987 50.0261 29.6264 49.9458 29.6327L49.2011 29.6909L50.8176 24.4055L51.7892 24.3295L54.2046 29.2995ZM55.0714 23.93L55.4837 29.1994L54.6078 29.2679L54.1955 23.9985L55.0714 23.93ZM58.4351 26.2427C58.3264 26.1299 58.211 26.0533 58.0889 26.0129C57.9692 25.9724 57.842 25.9573 57.7072 25.9679C57.5748 25.9782 57.4574 26.0124 57.3549 26.0704C57.2524 26.1283 57.1673 26.2111 57.0996 26.3187C57.0317 26.4239 56.9838 26.5561 56.9558 26.7152C56.9276 26.872 56.9218 27.0556 56.9382 27.266C56.9549 27.4788 56.9856 27.6584 57.0303 27.8047C57.0773 27.9485 57.1363 28.0652 57.2076 28.1548C57.2786 28.242 57.3619 28.3032 57.4574 28.3386C57.5528 28.3715 57.6572 28.3836 57.7706 28.3747C57.9527 28.3605 58.1046 28.3105 58.2263 28.2249C58.348 28.1393 58.4602 28.0223 58.5627 27.8739L58.4351 26.2427ZM59.1107 23.614L59.523 28.8834L58.9875 28.9253C58.8717 28.9343 58.7942 28.8869 58.7552 28.7829L58.6532 28.4377C58.5198 28.617 58.3614 28.7661 58.1781 28.8851C57.9971 29.0039 57.7801 29.0732 57.5271 29.093C57.3286 29.1086 57.1433 29.0814 56.9713 29.0117C56.7994 28.9419 56.647 28.8337 56.5143 28.6871C56.3837 28.5379 56.2762 28.3501 56.1919 28.1236C56.1099 27.8969 56.0573 27.6347 56.034 27.3368C56.0129 27.0673 56.03 26.8138 56.0851 26.5764C56.1403 26.339 56.2297 26.1299 56.3535 25.9489C56.4773 25.768 56.6313 25.6227 56.8154 25.5132C56.9993 25.4013 57.2106 25.336 57.4494 25.3173C57.6527 25.3014 57.8289 25.3197 57.9781 25.3723C58.1273 25.4248 58.2629 25.501 58.3849 25.6009L58.2348 23.6825L59.1107 23.614ZM61.7153 24.9943C61.9848 24.9732 62.2329 24.9978 62.4596 25.068C62.6886 25.1381 62.8875 25.2474 63.0561 25.396C63.227 25.5443 63.3641 25.731 63.4674 25.956C63.5706 26.1811 63.6334 26.4366 63.6558 26.7226C63.6783 27.011 63.6561 27.2744 63.5891 27.5128C63.5222 27.7511 63.4159 27.958 63.2702 28.1335C63.127 28.3088 62.9477 28.4489 62.7323 28.5538C62.5193 28.6585 62.278 28.7213 62.0085 28.7424C61.7367 28.7637 61.4862 28.7393 61.2571 28.6692C61.0281 28.5991 60.828 28.4887 60.6568 28.338C60.488 28.1871 60.3508 27.9992 60.2452 27.7744C60.142 27.5494 60.0791 27.2926 60.0565 27.0042C60.0342 26.7182 60.0565 26.456 60.1234 26.2177C60.1928 25.9791 60.2992 25.7734 60.4426 25.6004C60.5884 25.4273 60.769 25.2883 60.9844 25.1834C61.1998 25.0786 61.4434 25.0155 61.7153 24.9943ZM61.9558 28.0687C62.2584 28.045 62.4738 27.9259 62.6021 27.7113C62.7328 27.4965 62.7828 27.1929 62.7521 26.8005C62.7214 26.408 62.6247 26.1147 62.462 25.9205C62.3017 25.7261 62.0703 25.6408 61.7677 25.6645C61.4604 25.6885 61.2404 25.8104 61.1077 26.0301C60.9772 26.2472 60.9273 26.5508 60.9578 26.9409C60.9883 27.3309 61.0849 27.6231 61.2476 27.8173C61.4124 28.0089 61.6485 28.0927 61.9558 28.0687ZM71.5029 22.7871L71.9041 27.9147L71.0637 27.9804L70.8045 24.6684C70.7942 24.5361 70.7901 24.3925 70.7922 24.2377L69.4704 27.2702C69.408 27.4155 69.3012 27.494 69.1499 27.5058L69.0151 27.5164C68.8638 27.5282 68.7461 27.4672 68.6619 27.3335L66.8659 24.5342C66.8791 24.6116 66.8911 24.688 66.9017 24.7633C66.9123 24.8386 66.9202 24.9081 66.9252 24.972L67.1843 28.284L66.3439 28.3497L65.9427 23.2221L66.6625 23.1658C66.7051 23.1625 66.7418 23.1608 66.7728 23.1608C66.8037 23.1607 66.8313 23.1645 66.8557 23.1721C66.8824 23.1795 66.9061 23.1931 66.9267 23.2129C66.9496 23.2325 66.9719 23.2593 66.9936 23.2933L68.7518 26.0207C68.7979 26.0932 68.8407 26.1683 68.8801 26.2461C68.9218 26.3237 68.9626 26.4038 69.0023 26.4863C69.0286 26.3962 69.0563 26.3096 69.0855 26.2265C69.1145 26.141 69.1461 26.0588 69.1804 25.98L70.4723 23.0212C70.4884 22.9842 70.5063 22.9543 70.5259 22.9313C70.5455 22.9084 70.5668 22.8913 70.5897 22.88C70.6149 22.8685 70.6428 22.8603 70.6734 22.8556C70.7039 22.8508 70.7405 22.8468 70.783 22.8434L71.5029 22.7871ZM74.6273 26.139C74.3753 26.1706 74.1643 26.2097 73.9943 26.2563C73.8241 26.3005 73.689 26.3515 73.5888 26.4093C73.4887 26.4671 73.4188 26.5308 73.379 26.6005C73.3393 26.6702 73.3225 26.7441 73.3286 26.8221C73.3406 26.9758 73.3941 27.0822 73.4891 27.1413C73.5865 27.2003 73.7085 27.2241 73.8551 27.2126C74.0347 27.1986 74.1871 27.1545 74.3121 27.0805C74.4393 27.004 74.5604 26.8946 74.6753 26.7524L74.6273 26.139ZM72.4968 24.718C72.8853 24.3023 73.3738 24.0714 73.9625 24.0253C74.1752 24.0087 74.3683 24.0293 74.5417 24.0871C74.7149 24.1425 74.8643 24.2283 74.99 24.3445C75.1154 24.4584 75.2145 24.5993 75.2871 24.7673C75.362 24.935 75.4076 25.1217 75.4236 25.3274L75.6034 27.6253L75.2063 27.6563C75.1235 27.6628 75.0588 27.656 75.012 27.6358C74.9651 27.6134 74.9256 27.5653 74.8937 27.4917L74.7952 27.2354C74.7094 27.3253 74.6253 27.4057 74.5429 27.4763C74.4602 27.5446 74.3732 27.6038 74.282 27.6537C74.1908 27.7037 74.0916 27.7435 73.9845 27.7733C73.88 27.8053 73.7627 27.8264 73.6327 27.8365C73.4791 27.8485 73.3356 27.8395 73.2025 27.8095C73.0691 27.7772 72.9519 27.7233 72.8509 27.648C72.7499 27.5726 72.6685 27.4755 72.6069 27.3566C72.5453 27.2378 72.5081 27.0968 72.4953 26.9337C72.4881 26.8415 72.4964 26.7493 72.5201 26.657C72.5436 26.5624 72.5864 26.4711 72.6485 26.383C72.7129 26.2947 72.7978 26.2095 72.9032 26.1276C73.0086 26.0456 73.1395 25.9711 73.296 25.9042C73.4549 25.837 73.6406 25.7785 73.8531 25.7286C74.0655 25.6763 74.3097 25.6358 74.5857 25.607L74.569 25.3943C74.55 25.1508 74.4839 24.9752 74.3708 24.8675C74.2576 24.7574 74.1028 24.7101 73.9066 24.7254C73.7648 24.7365 73.6479 24.7623 73.5559 24.8028C73.4663 24.8431 73.3877 24.8873 73.3201 24.9354C73.2523 24.9812 73.1902 25.0229 73.1337 25.0606C73.0795 25.0982 73.017 25.1197 72.9461 25.1252C72.8846 25.13 72.8314 25.1188 72.7864 25.0913C72.7413 25.0616 72.7041 25.0264 72.6747 24.9859L72.4968 24.718ZM77.0264 24.4885C77.1228 24.2621 77.2443 24.0814 77.3907 23.9462C77.5369 23.8087 77.7164 23.7316 77.9291 23.715C78.097 23.7019 78.2346 23.728 78.342 23.7933L78.3366 24.4538C78.3281 24.4972 78.3128 24.5293 78.2906 24.5501C78.2706 24.5683 78.2417 24.5789 78.2039 24.5819C78.1684 24.5846 78.1148 24.5829 78.0429 24.5766C77.9735 24.5702 77.9056 24.5695 77.8394 24.5747C77.7425 24.5823 77.6573 24.6032 77.5839 24.6375C77.5105 24.6718 77.4451 24.7185 77.3879 24.7777C77.3329 24.8343 77.2847 24.9023 77.2433 24.9817C77.2044 25.0608 77.1685 25.1505 77.1359 25.2505L77.3113 27.4916L76.4354 27.5602L76.1508 23.9219L76.6649 23.8817C76.7548 23.8747 76.8187 23.8863 76.8568 23.9166C76.8946 23.9446 76.9227 23.9995 76.941 24.0813L77.0264 24.4885ZM81.065 24.251C81.0443 24.2907 81.0216 24.3198 80.9969 24.3384C80.972 24.3546 80.9395 24.3643 80.8993 24.3674C80.8567 24.3707 80.8097 24.3625 80.7582 24.3428C80.7091 24.3228 80.6515 24.3012 80.5854 24.2778C80.5192 24.2521 80.4438 24.2306 80.3592 24.2134C80.277 24.1961 80.1803 24.1918 80.0692 24.2005C79.8966 24.214 79.7636 24.2612 79.67 24.3423C79.5788 24.4232 79.5378 24.5227 79.5471 24.6409C79.5532 24.7189 79.5832 24.7832 79.6371 24.8336C79.6932 24.8816 79.7642 24.9224 79.85 24.9561C79.9383 24.9897 80.0369 25.0188 80.1459 25.0436C80.2547 25.066 80.3649 25.0919 80.4766 25.1212C80.5907 25.1503 80.7028 25.1855 80.8131 25.2269C80.9232 25.2658 81.0226 25.3199 81.1112 25.389C81.2021 25.4557 81.2764 25.5391 81.3342 25.6392C81.3943 25.7391 81.4301 25.8624 81.4416 26.009C81.4553 26.1839 81.436 26.3483 81.3838 26.5023C81.3338 26.6536 81.2516 26.7885 81.1372 26.9069C81.0226 27.0229 80.8767 27.1187 80.6995 27.1944C80.5244 27.2676 80.3187 27.3134 80.0823 27.3319C79.957 27.3417 79.8332 27.3395 79.7107 27.3253C79.5909 27.3133 79.4738 27.2915 79.3596 27.26C79.2477 27.2283 79.1423 27.189 79.0435 27.142C78.9471 27.0949 78.8609 27.0422 78.785 26.9839L78.961 26.6347C78.9839 26.5925 79.0122 26.5594 79.046 26.5353C79.0798 26.5113 79.1239 26.4971 79.1782 26.4929C79.2326 26.4886 79.2846 26.5 79.3343 26.527C79.3864 26.5539 79.4457 26.5825 79.5123 26.613C79.5789 26.6435 79.656 26.6708 79.7435 26.6948C79.8333 26.7187 79.9445 26.7255 80.0769 26.7151C80.1809 26.707 80.2686 26.6882 80.34 26.6589C80.4136 26.6269 80.4725 26.589 80.5167 26.5451C80.5632 26.5011 80.595 26.4522 80.6122 26.3985C80.6316 26.3423 80.6391 26.2858 80.6346 26.2291C80.628 26.144 80.5965 26.0763 80.5403 26.026C80.4864 25.9755 80.4153 25.9335 80.327 25.8999C80.2412 25.8662 80.1426 25.8383 80.0315 25.816C79.9225 25.7913 79.8098 25.7644 79.6934 25.7355C79.5793 25.7063 79.466 25.6712 79.3533 25.63C79.2429 25.5864 79.1421 25.5288 79.0508 25.4575C78.962 25.3859 78.8871 25.2955 78.8262 25.1861C78.7677 25.0765 78.7322 24.9413 78.7196 24.7806C78.7079 24.6316 78.7264 24.4875 78.775 24.3481C78.8235 24.2087 78.9006 24.085 79.0064 23.9768C79.1142 23.8661 79.251 23.7745 79.4166 23.7021C79.5843 23.6271 79.7805 23.5809 80.0051 23.5633C80.2557 23.5437 80.487 23.5672 80.6992 23.6338C80.9113 23.7005 81.0912 23.7958 81.2389 23.9199L81.065 24.251ZM84.3669 24.6884C84.3581 24.5749 84.3332 24.4698 84.2923 24.3731C84.2536 24.2738 84.1994 24.1889 84.1297 24.1182C84.0599 24.0476 83.9737 23.9949 83.8711 23.9601C83.7707 23.9228 83.6554 23.9092 83.5254 23.9193C83.2725 23.9391 83.0784 24.0269 82.9431 24.1825C82.8101 24.338 82.7339 24.5497 82.7145 24.8176L84.3669 24.6884ZM82.7381 25.3474C82.7669 25.533 82.8126 25.6924 82.8754 25.8254C82.9379 25.9561 83.0153 26.063 83.1074 26.1462C83.1994 26.227 83.305 26.2854 83.4244 26.3212C83.5459 26.3545 83.6776 26.3656 83.8194 26.3545C83.9613 26.3434 84.0817 26.3173 84.1808 26.2763C84.2822 26.2351 84.3692 26.1914 84.4417 26.1453C84.5165 26.099 84.5811 26.0571 84.6352 26.0195C84.6917 25.9818 84.7472 25.9608 84.8015 25.9566C84.8748 25.9508 84.9313 25.9738 84.971 26.0254L85.2478 26.3248C85.1597 26.4459 85.0585 26.5501 84.944 26.6376C84.8294 26.7227 84.7077 26.794 84.579 26.8517C84.4525 26.9067 84.3214 26.9491 84.1858 26.9788C84.0525 27.0082 83.9221 27.0279 83.7944 27.0379C83.5414 27.0577 83.303 27.0347 83.079 26.969C82.8549 26.9009 82.656 26.7916 82.4825 26.6411C82.3088 26.4882 82.1664 26.2948 82.0554 26.0608C81.9441 25.8246 81.876 25.5468 81.8511 25.2277C81.8316 24.9795 81.8536 24.7435 81.917 24.5197C81.9801 24.2936 82.0799 24.0943 82.2163 23.9219C82.3548 23.7469 82.5279 23.6037 82.7357 23.4924C82.9457 23.3808 83.1867 23.3144 83.4586 23.2931C83.6879 23.2751 83.9023 23.2952 84.1019 23.3533C84.3015 23.4115 84.4766 23.506 84.6272 23.6369C84.7776 23.7655 84.8998 23.9295 84.9939 24.1291C85.0902 24.3261 85.1486 24.5558 85.1691 24.8183C85.1795 24.9506 85.1723 25.0416 85.1477 25.0911C85.1228 25.1382 85.0702 25.1649 84.9898 25.1712L82.7381 25.3474ZM86.563 23.5568C86.6306 23.4778 86.7022 23.4044 86.7777 23.3367C86.8555 23.2664 86.9376 23.2064 87.0241 23.1568C87.1128 23.1047 87.2082 23.0627 87.3104 23.031C87.4124 22.9968 87.5248 22.9749 87.6477 22.9653C87.8463 22.9498 88.0251 22.9703 88.1841 23.0268C88.343 23.081 88.478 23.1656 88.5893 23.2805C88.7028 23.393 88.7921 23.5323 88.8575 23.6984C88.925 23.862 88.9667 24.0454 88.9826 24.2487L89.1638 26.5643L88.2879 26.6328L88.1067 24.3173C88.0893 24.0951 88.0251 23.9276 87.914 23.815C87.8027 23.7 87.6431 23.6507 87.4351 23.667C87.2838 23.6788 87.1446 23.7242 87.0176 23.8031C86.8906 23.882 86.7726 23.9852 86.6636 24.1126L86.8695 26.7438L85.9936 26.8123L85.7089 23.1741L86.2444 23.1322C86.3579 23.1233 86.4365 23.1707 86.4803 23.2743L86.563 23.5568ZM92.0755 23.6107C91.9668 23.4979 91.8514 23.4213 91.7293 23.3809C91.6096 23.3404 91.4824 23.3253 91.3476 23.3359C91.2152 23.3462 91.0978 23.3804 90.9953 23.4384C90.8928 23.4963 90.8077 23.5791 90.74 23.6867C90.6721 23.7919 90.6242 23.9241 90.5962 24.0833C90.568 24.2401 90.5622 24.4237 90.5786 24.6341C90.5953 24.8468 90.626 25.0264 90.6707 25.1727C90.7177 25.3165 90.7767 25.4332 90.848 25.5228C90.919 25.61 91.0023 25.6712 91.0978 25.7066C91.1932 25.7395 91.2976 25.7516 91.411 25.7427C91.5931 25.7285 91.745 25.6785 91.8667 25.5929C91.9884 25.5073 92.1006 25.3903 92.2031 25.2419L92.0755 23.6107ZM92.7511 20.982L93.1634 26.2514L92.6279 26.2933C92.5121 26.3023 92.4346 26.2549 92.3956 26.1509L92.2936 25.8057C92.1602 25.985 92.0018 26.1341 91.8185 26.2531C91.6375 26.372 91.4205 26.4413 91.1676 26.461C90.969 26.4766 90.7837 26.4495 90.6118 26.3797C90.4398 26.3099 90.2874 26.2017 90.1547 26.0551C90.0241 25.9059 89.9166 25.7181 89.8323 25.4916C89.7503 25.2649 89.6977 25.0027 89.6744 24.7048C89.6533 24.4353 89.6704 24.1819 89.7255 23.9444C89.7807 23.707 89.8702 23.4979 89.9939 23.3169C90.1177 23.136 90.2717 22.9907 90.4558 22.8812C90.6397 22.7693 90.851 22.704 91.0898 22.6853C91.2931 22.6694 91.4693 22.6877 91.6185 22.7403C91.7677 22.7928 91.9033 22.869 92.0253 22.9689L91.8752 21.0505L92.7511 20.982ZM95.3557 22.3623C95.6252 22.3412 95.8733 22.3658 96.1 22.436C96.329 22.5061 96.5279 22.6154 96.6965 22.764C96.8674 22.9123 97.0045 23.099 97.1078 23.3241C97.211 23.5491 97.2738 23.8046 97.2962 24.0906C97.3187 24.3791 97.2965 24.6424 97.2296 24.8808C97.1626 25.1191 97.0563 25.326 96.9106 25.5015C96.7674 25.6769 96.5881 25.8169 96.3727 25.9218C96.1597 26.0265 95.9184 26.0893 95.6489 26.1104C95.3771 26.1317 95.1266 26.1073 94.8975 26.0372C94.6685 25.9671 94.4684 25.8567 94.2972 25.706C94.1284 25.5551 93.9912 25.3672 93.8856 25.1424C93.7824 24.9174 93.7195 24.6607 93.6969 24.3722C93.6746 24.0862 93.6969 23.824 93.7638 23.5857C93.8332 23.3472 93.9396 23.1414 94.083 22.9685C94.2288 22.7953 94.4094 22.6563 94.6248 22.5515C94.8402 22.4466 95.0838 22.3835 95.3557 22.3623ZM95.5962 25.4367C95.8988 25.413 96.1143 25.2939 96.2426 25.0793C96.3732 24.8645 96.4232 24.5609 96.3925 24.1685C96.3618 23.7761 96.2651 23.4827 96.1024 23.2885C95.9421 23.0941 95.7107 23.0088 95.4081 23.0325C95.1008 23.0565 94.8808 23.1784 94.7481 23.3981C94.6177 23.6152 94.5677 23.9188 94.5982 24.3089C94.6287 24.6989 94.7253 24.9911 94.888 25.1853C95.0528 25.3769 95.2889 25.4607 95.5962 25.4367Z" fill="black"/>
<path d="M53.1052 37.318C53.0867 37.3551 53.0652 37.3842 53.0407 37.4051C53.0183 37.4235 52.9894 37.4341 52.954 37.4369C52.9138 37.44 52.8649 37.4236 52.8074 37.3877C52.7499 37.3517 52.6779 37.3134 52.5915 37.2726C52.5072 37.2292 52.4056 37.192 52.2866 37.1608C52.17 37.1295 52.0301 37.1203 51.867 37.133C51.7134 37.145 51.5791 37.177 51.4642 37.2288C51.3515 37.278 51.2578 37.3412 51.1829 37.4185C51.1105 37.4955 51.0579 37.584 51.0253 37.6841C50.9925 37.7818 50.9805 37.8862 50.9892 37.9973C51.0003 38.1392 51.0438 38.2547 51.1198 38.3439C51.1979 38.4305 51.2963 38.5025 51.415 38.5598C51.536 38.6169 51.6705 38.6647 51.8186 38.7031C51.9689 38.7389 52.1217 38.7769 52.2771 38.817C52.4348 38.857 52.5884 38.9045 52.7377 38.9594C52.8893 39.0117 53.0257 39.0831 53.1469 39.1735C53.2706 39.2638 53.3723 39.3783 53.4521 39.5171C53.5343 39.6558 53.5836 39.8303 53.6001 40.0407C53.6175 40.2629 53.596 40.4751 53.5357 40.6772C53.4753 40.877 53.3774 41.0547 53.2421 41.2104C53.1092 41.3659 52.9396 41.4933 52.7333 41.5927C52.5293 41.6919 52.2926 41.7521 52.0231 41.7732C51.6922 41.799 51.3873 41.7634 51.1086 41.6663C50.8296 41.5668 50.5865 41.4229 50.3791 41.2346L50.5521 40.8928C50.569 40.8654 50.5898 40.8423 50.6145 40.8237C50.6414 40.8026 50.6714 40.7908 50.7045 40.7882C50.7352 40.7858 50.7705 40.7961 50.8104 40.8191C50.8524 40.8396 50.8997 40.8668 50.9523 40.9008C51.0049 40.9347 51.0649 40.9716 51.1323 41.0116C51.1996 41.0515 51.2749 41.0872 51.3583 41.1188C51.444 41.1501 51.5399 41.1747 51.6459 41.1926C51.7518 41.2081 51.8697 41.2108 51.9997 41.2006C52.1629 41.1878 52.3065 41.154 52.4306 41.0991C52.5548 41.0442 52.6574 40.9731 52.7386 40.8859C52.822 40.7961 52.8829 40.6927 52.9213 40.5755C52.9597 40.4583 52.9734 40.33 52.9625 40.1905C52.9505 40.0368 52.9052 39.9143 52.8267 39.8229C52.7504 39.729 52.6529 39.6534 52.5342 39.5961C52.4156 39.5388 52.2812 39.4934 52.1311 39.4599C51.9809 39.4241 51.8282 39.3885 51.6732 39.3531C51.5181 39.3152 51.3647 39.2702 51.2131 39.2178C51.0616 39.1654 50.9251 39.0929 50.8036 39.0001C50.6822 38.9073 50.5801 38.7881 50.4974 38.6423C50.4168 38.494 50.3677 38.3076 50.3501 38.083C50.3361 37.9033 50.3568 37.7269 50.4122 37.5537C50.47 37.3803 50.56 37.2234 50.6822 37.083C50.8068 36.9425 50.9629 36.8256 51.1507 36.7324C51.3408 36.639 51.5623 36.5825 51.8153 36.5627C52.0989 36.5405 52.3601 36.5652 52.5988 36.6369C52.8399 36.7085 53.0558 36.8224 53.2464 36.9787L53.1052 37.318ZM56.7626 39.144C56.7511 38.9974 56.7194 38.8655 56.6674 38.7483C56.6176 38.6285 56.5491 38.528 56.4619 38.4468C56.3768 38.3631 56.2757 38.302 56.1586 38.2636C56.0412 38.2228 55.9104 38.2081 55.7662 38.2194C55.4636 38.2431 55.2306 38.3505 55.0672 38.5417C54.9059 38.7303 54.8162 38.9823 54.7981 39.2977L56.7626 39.144ZM57.405 40.7884C57.3344 40.889 57.2475 40.9791 57.1443 41.0585C57.0409 41.1356 56.9283 41.2015 56.8066 41.2562C56.6871 41.3107 56.5621 41.3538 56.4314 41.3854C56.3008 41.4194 56.1705 41.4415 56.0405 41.4517C55.7923 41.4711 55.5598 41.4477 55.3429 41.3814C55.1282 41.3126 54.9377 41.2038 54.7715 41.0551C54.6074 40.9038 54.4735 40.7121 54.3697 40.48C54.2659 40.2479 54.2019 39.977 54.1777 39.6673C54.1581 39.4167 54.1776 39.1797 54.2362 38.9563C54.2972 38.7327 54.3936 38.5361 54.5254 38.3664C54.6571 38.1944 54.8234 38.0553 55.0244 37.9492C55.2252 37.8407 55.4556 37.7763 55.7157 37.756C55.9308 37.7391 56.1323 37.7602 56.32 37.8193C56.51 37.8758 56.6765 37.9674 56.8196 38.0941C56.9649 38.2184 57.0832 38.378 57.1746 38.573C57.2658 38.7657 57.3214 38.9896 57.3413 39.245C57.3491 39.3442 57.3437 39.4113 57.325 39.446C57.3063 39.4808 57.2674 39.5005 57.2083 39.5051L54.8076 39.6929C54.8325 39.9193 54.8786 40.1143 54.9461 40.2779C55.016 40.4413 55.105 40.5759 55.2132 40.6816C55.3212 40.7849 55.446 40.8596 55.5875 40.9056C55.7289 40.9492 55.8847 40.9644 56.0549 40.9511C56.2133 40.9387 56.3478 40.9103 56.4585 40.866C56.5714 40.8191 56.6675 40.7712 56.7469 40.7221C56.8263 40.6731 56.8919 40.6287 56.9435 40.589C56.9972 40.5468 57.0442 40.5241 57.0844 40.5209C57.1364 40.5168 57.1782 40.5338 57.2097 40.5718L57.405 40.7884ZM58.5096 35.9533L58.7502 39.0277L58.9133 39.0149C58.9606 39.0112 58.9991 39.0023 59.0289 38.9881C59.0609 38.9713 59.0931 38.9414 59.1254 38.8984L60.1649 37.5934C60.1949 37.5506 60.2268 37.5172 60.2606 37.4931C60.2965 37.4665 60.3453 37.4508 60.4067 37.446L60.9776 37.4014L59.7651 38.9126C59.7076 38.998 59.6439 39.066 59.5741 39.1166C59.6189 39.1417 59.6593 39.1718 59.6954 39.2071C59.7336 39.2397 59.7699 39.2785 59.8044 39.3234L61.3473 40.9866L60.7835 41.0307C60.7291 41.0349 60.6812 41.0303 60.6397 41.0169C60.6004 41.001 60.5647 40.9705 60.5327 40.9254L59.2367 39.5462C59.1974 39.4993 59.1594 39.4702 59.1228 39.4588C59.0884 39.4448 59.0358 39.4406 58.9649 39.4462L58.784 39.4603L58.9183 41.1766L58.2836 41.2263L57.8749 36.0029L58.5096 35.9533ZM64.0883 37.8822C64.1826 37.6275 64.3071 37.4251 64.4618 37.275C64.6164 37.1226 64.813 37.0371 65.0518 37.0184C65.1275 37.0125 65.2002 37.0151 65.2701 37.0263C65.3423 37.0373 65.407 37.0584 65.4641 37.0896L65.4549 37.5648C65.4453 37.625 65.4122 37.6573 65.3555 37.6618C65.3224 37.6644 65.2733 37.6611 65.2084 37.6519C65.1435 37.6427 65.0708 37.6412 64.9904 37.6475C64.877 37.6564 64.7766 37.6809 64.6894 37.721C64.6045 37.761 64.5292 37.8168 64.4634 37.8886C64.3999 37.9578 64.3435 38.043 64.2944 38.1444C64.2474 38.2432 64.2062 38.3558 64.1709 38.4823L64.3485 40.7517L63.7138 40.8014L63.4327 37.2093L63.7944 37.181C63.863 37.1756 63.9113 37.1849 63.9393 37.2089C63.9673 37.2328 63.9886 37.2764 64.003 37.3395L64.0883 37.8822ZM68.3918 38.2341C68.3803 38.0875 68.3486 37.9556 68.2966 37.8384C68.2468 37.7186 68.1783 37.6181 68.0911 37.5369C68.006 37.4532 67.9049 37.3922 67.7878 37.3537C67.6704 37.313 67.5396 37.2982 67.3954 37.3095C67.0928 37.3332 66.8598 37.4406 66.6964 37.6318C66.5351 37.8204 66.4454 38.0724 66.4273 38.3878L68.3918 38.2341ZM69.0342 39.8785C68.9636 39.9792 68.8767 40.0692 68.7735 40.1487C68.6701 40.2257 68.5575 40.2916 68.4357 40.3463C68.3163 40.4009 68.1913 40.444 68.0605 40.4756C67.93 40.5096 67.7997 40.5317 67.6697 40.5418C67.4215 40.5613 67.1889 40.5378 66.9721 40.4716C66.7574 40.4027 66.5669 40.294 66.4007 40.1452C66.2366 39.9939 66.1027 39.8022 65.9989 39.5701C65.8951 39.338 65.8311 39.0671 65.8069 38.7574C65.7873 38.5069 65.8068 38.2699 65.8654 38.0464C65.9264 37.8229 66.0228 37.6262 66.1546 37.4565C66.2863 37.2845 66.4526 37.1454 66.6536 37.0393C66.8544 36.9309 67.0848 36.8664 67.3449 36.8461C67.56 36.8293 67.7615 36.8504 67.9492 36.9094C68.1392 36.9659 68.3057 37.0575 68.4488 37.1843C68.5941 37.3085 68.7124 37.4681 68.8038 37.6631C68.895 37.8558 68.9506 38.0798 68.9705 38.3351C68.9783 38.4344 68.9728 38.5014 68.9542 38.5362C68.9355 38.5709 68.8966 38.5906 68.8375 38.5953L66.4368 38.7831C66.4617 39.0095 66.5078 39.2045 66.5753 39.3681C66.6452 39.5315 66.7342 39.666 66.8424 39.7717C66.9504 39.8751 67.0751 39.9497 67.2167 39.9957C67.3581 40.0394 67.5138 40.0546 67.6841 40.0412C67.8424 40.0288 67.977 40.0005 68.0877 39.9561C68.2006 39.9093 68.2967 39.8613 68.3761 39.8123C68.4555 39.7632 68.521 39.7189 68.5726 39.6792C68.6264 39.6369 68.6734 39.6142 68.7136 39.6111C68.7656 39.607 68.8074 39.6239 68.8389 39.6619L69.0342 39.8785ZM70.1388 35.0434L70.3794 38.1178L70.5425 38.1051C70.5898 38.1014 70.6283 38.0924 70.6581 38.0782C70.6901 38.0614 70.7222 38.0316 70.7546 37.9886L71.7941 36.6835C71.8241 36.6407 71.856 36.6073 71.8898 36.5833C71.9257 36.5567 71.9744 36.541 72.0359 36.5362L72.6068 36.4915L71.3943 38.0028C71.3368 38.0881 71.2731 38.1561 71.2033 38.2068C71.2481 38.2318 71.2885 38.262 71.3246 38.2972C71.3628 38.3299 71.3991 38.3687 71.4336 38.4135L72.9765 40.0767L72.4127 40.1208C72.3583 40.1251 72.3104 40.1205 72.2689 40.1071C72.2296 40.0911 72.1939 40.0606 72.1619 40.0156L70.8659 38.6363C70.8265 38.5895 70.7886 38.5603 70.752 38.5489C70.7176 38.535 70.665 38.5308 70.594 38.5363L70.4132 38.5505L70.5475 40.2667L69.9127 40.3164L69.5041 35.0931L70.1388 35.0434ZM73.5494 40.8953C73.5292 40.8802 73.515 40.8659 73.5068 40.8522C73.4986 40.8386 73.4937 40.8211 73.492 40.7999C73.4907 40.7833 73.4941 40.7664 73.5023 40.7491C73.5128 40.7316 73.5246 40.7153 73.5377 40.7C73.5593 40.6721 73.5862 40.6355 73.6183 40.5902C73.6528 40.5447 73.6866 40.4909 73.7198 40.4288C73.7532 40.3691 73.7825 40.3026 73.8077 40.2293C73.8354 40.1582 73.8533 40.083 73.8614 40.0039C73.8545 40.0068 73.8463 40.0086 73.8369 40.0094C73.8298 40.0099 73.8227 40.0105 73.8156 40.0111C73.6927 40.0207 73.5891 39.9883 73.5048 39.9141C73.4226 39.8372 73.3766 39.735 73.3666 39.6073C73.3579 39.4962 73.3883 39.3987 73.4579 39.3148C73.5298 39.2307 73.6296 39.1836 73.7572 39.1736C73.8281 39.1681 73.8918 39.1762 73.9482 39.1979C74.0046 39.2197 74.0524 39.2528 74.0916 39.2973C74.1329 39.3393 74.1654 39.3902 74.1892 39.4502C74.2127 39.5079 74.2272 39.5721 74.2328 39.643C74.2411 39.7494 74.2344 39.8617 74.2128 39.98C74.1933 40.0957 74.1583 40.2114 74.1079 40.3271C74.0601 40.445 73.9989 40.5604 73.9245 40.6733C73.8501 40.7861 73.7632 40.8916 73.6638 40.9898L73.5494 40.8953ZM76.9568 39.7653L76.6758 36.1731L77.0552 36.1435C77.1451 36.1364 77.204 36.1758 77.2322 36.2616L77.3071 36.6268C77.4267 36.4533 77.5652 36.3081 77.7226 36.1911C77.8799 36.0742 78.0673 36.0072 78.2848 35.9902C78.5259 35.9713 78.7262 36.0234 78.8857 36.1465C79.0476 36.2694 79.1705 36.443 79.2547 36.6671C79.2965 36.533 79.3539 36.4155 79.4269 36.3147C79.5022 36.2136 79.5883 36.1284 79.6852 36.059C79.782 35.9896 79.8861 35.9362 79.9973 35.899C80.1109 35.8616 80.2269 35.8382 80.3451 35.829C80.5342 35.8142 80.7044 35.8318 80.8558 35.8818C81.0094 35.9292 81.1415 36.0069 81.2522 36.1148C81.3653 36.2225 81.4557 36.3593 81.5234 36.5253C81.5909 36.6889 81.6331 36.8794 81.6502 37.0969L81.8291 39.3841L81.1944 39.4337L81.0154 37.1465C80.9934 36.8652 80.9153 36.6573 80.7811 36.5227C80.6467 36.3857 80.4636 36.3263 80.232 36.3444C80.128 36.3526 80.0301 36.3793 79.9385 36.4245C79.8491 36.4672 79.7717 36.5267 79.7064 36.6032C79.641 36.6797 79.5913 36.7739 79.5572 36.886C79.5254 36.9955 79.515 37.1212 79.5261 37.2631L79.705 39.5503L79.0703 39.5999L78.8913 37.3127C78.8688 37.0243 78.794 36.8137 78.6671 36.6809C78.5401 36.5482 78.3656 36.4905 78.1434 36.5079C77.9873 36.5201 77.8465 36.5739 77.7207 36.6694C77.5948 36.7625 77.4819 36.8855 77.3821 37.0384L77.5916 39.7156L76.9568 39.7653ZM84.0242 35.5411C84.2866 35.5206 84.5264 35.5458 84.7437 35.6168C84.9609 35.6879 85.1503 35.7979 85.3118 35.947C85.4733 36.0961 85.602 36.2823 85.698 36.5055C85.7961 36.7261 85.8562 36.9771 85.8782 37.2584C85.9004 37.5421 85.8802 37.8006 85.8176 38.0338C85.7573 38.2669 85.659 38.4696 85.5226 38.642C85.3863 38.8144 85.2163 38.9526 85.0128 39.0565C84.809 39.1581 84.576 39.2191 84.3136 39.2397C84.0488 39.2604 83.8067 39.2365 83.5873 39.168C83.37 39.097 83.1806 38.987 83.0191 38.8379C82.8576 38.6888 82.7278 38.5039 82.6297 38.2832C82.5339 38.0624 82.4749 37.8101 82.4527 37.5264C82.4307 37.2451 82.4498 36.9879 82.5101 36.7549C82.5725 36.5193 82.6719 36.3153 82.8083 36.1429C82.9446 35.9705 83.1146 35.8323 83.3181 35.7284C83.5241 35.6243 83.7594 35.5618 84.0242 35.5411ZM84.275 38.7468C84.6296 38.719 84.8851 38.5801 85.0416 38.33C85.1978 38.0775 85.2593 37.7386 85.226 37.313C85.1925 36.8851 85.079 36.5587 84.8854 36.3336C84.6917 36.1085 84.4176 36.0098 84.063 36.0376C83.8834 36.0516 83.7286 36.0947 83.5986 36.1667C83.471 36.2385 83.3669 36.3358 83.2861 36.4587C83.2077 36.5814 83.1527 36.7296 83.1211 36.9033C83.0917 37.0745 83.0853 37.2665 83.1019 37.4792C83.1352 37.9047 83.2487 38.23 83.4423 38.4551C83.6381 38.6777 83.9157 38.7749 84.275 38.7468ZM89.0954 35.8436C89.0785 35.8711 89.0612 35.8927 89.0434 35.9084C89.0256 35.924 89.0001 35.9332 88.967 35.9357C88.9316 35.9385 88.8914 35.9274 88.8467 35.9023C88.8017 35.8749 88.7459 35.846 88.6793 35.8155C88.6151 35.7849 88.5358 35.759 88.4413 35.7378C88.3491 35.7141 88.2368 35.7075 88.1044 35.7178C87.9271 35.7317 87.7736 35.7758 87.6438 35.8502C87.5139 35.9222 87.4074 36.0209 87.3245 36.1463C87.2439 36.2715 87.1865 36.4199 87.1524 36.5915C87.1206 36.7628 87.1128 36.9525 87.1291 37.1606C87.1461 37.3781 87.1861 37.57 87.2491 37.7363C87.3119 37.9003 87.3927 38.0366 87.4916 38.1454C87.5927 38.2517 87.7094 38.3306 87.8419 38.3821C87.9766 38.431 88.1243 38.4492 88.285 38.4366C88.4387 38.4246 88.5638 38.3969 88.6603 38.3537C88.7566 38.3081 88.8349 38.2604 88.8952 38.2104C88.9579 38.1604 89.0091 38.1159 89.0489 38.0771C89.0909 38.0358 89.1331 38.0134 89.1757 38.0101C89.2277 38.0061 89.2695 38.023 89.301 38.061L89.4963 38.2776C89.4259 38.3806 89.3437 38.4703 89.2498 38.5466C89.1558 38.6229 89.0528 38.6893 88.9407 38.7456C88.8307 38.7994 88.7139 38.8419 88.5903 38.8729C88.4667 38.904 88.3398 38.9246 88.2098 38.9348C87.9852 38.9524 87.7728 38.9274 87.5725 38.8598C87.3745 38.792 87.1985 38.6857 87.0444 38.5408C86.8902 38.3935 86.7639 38.2083 86.6656 37.9853C86.5673 37.7623 86.5067 37.5042 86.4837 37.2111C86.4628 36.9439 86.4802 36.694 86.5357 36.4613C86.5936 36.2285 86.6871 36.0249 86.8161 35.8507C86.9474 35.674 87.1134 35.5313 87.3143 35.4229C87.5174 35.3142 87.755 35.2492 88.0268 35.228C88.2798 35.2082 88.5052 35.2322 88.7032 35.2999C88.9033 35.3651 89.0837 35.4664 89.2443 35.6037L89.0954 35.8436ZM90.4464 33.4546L90.687 36.529L90.8501 36.5162C90.8974 36.5125 90.9359 36.5036 90.9657 36.4894C90.9977 36.4726 91.0299 36.4427 91.0622 36.3997L92.1018 35.0947C92.1317 35.0519 92.1636 35.0185 92.1974 34.9944C92.2334 34.9678 92.2821 34.9521 92.3435 34.9473L92.9144 34.9026L91.7019 36.4139C91.6444 36.4993 91.5807 36.5673 91.511 36.6179C91.5557 36.643 91.5961 36.6731 91.6322 36.7084C91.6704 36.741 91.7068 36.7798 91.7412 36.8247L93.2841 38.4879L92.7203 38.532C92.666 38.5362 92.618 38.5316 92.5765 38.5182C92.5372 38.5023 92.5016 38.4718 92.4695 38.4267L91.1735 37.0475C91.1342 37.0006 91.0962 36.9715 91.0596 36.9601C91.0253 36.9461 90.9726 36.9419 90.9017 36.9475L90.7208 36.9616L90.8551 38.6779L90.2204 38.7276L89.8117 33.5042L90.4464 33.4546ZM96.5017 34.622L96.7828 38.2141L96.4069 38.2435C96.317 38.2506 96.2569 38.2113 96.2264 38.1256L96.1465 37.743C96.004 37.9278 95.84 38.081 95.6544 38.2025C95.4687 38.3217 95.2506 38.3911 95 38.4107C94.8038 38.426 94.6275 38.4077 94.4712 38.3557C94.3171 38.3012 94.1846 38.2188 94.0737 38.1085C93.9628 37.9983 93.8748 37.8613 93.8096 37.6975C93.7469 37.5336 93.7075 37.3499 93.6916 37.1466L93.5124 34.8559L94.1436 34.8065L94.3228 37.0972C94.3441 37.3691 94.422 37.5747 94.5566 37.714C94.6935 37.8531 94.8897 37.9127 95.145 37.8927C95.3317 37.8781 95.5021 37.8208 95.656 37.7207C95.8121 37.6181 95.9526 37.4835 96.0775 37.3167L95.8705 34.6714L96.5017 34.622ZM98.3577 37.2204C98.4858 37.3673 98.6208 37.4674 98.7629 37.5205C98.905 37.5736 99.0612 37.5935 99.2314 37.5801C99.5671 37.5539 99.8154 37.4143 99.9764 37.1615C100.137 36.9087 100.201 36.5612 100.166 36.1192C100.148 35.8851 100.111 35.6859 100.055 35.5213C100.002 35.3566 99.9319 35.2241 99.8455 35.1239C99.759 35.0212 99.6571 34.9495 99.5397 34.9088C99.4224 34.868 99.2916 34.8532 99.1474 34.8645C98.9417 34.8806 98.7646 34.942 98.6159 35.0488C98.4697 35.1554 98.3383 35.3001 98.2218 35.4828L98.3577 37.2204ZM98.156 35.0527C98.2927 34.8541 98.4559 34.6903 98.6456 34.5613C98.8353 34.4323 99.0578 34.3578 99.3131 34.3378C99.5211 34.3215 99.7122 34.347 99.8864 34.4143C100.06 34.4791 100.212 34.585 100.343 34.7317C100.473 34.8762 100.579 35.0605 100.661 35.2848C100.743 35.5092 100.795 35.7703 100.818 36.0681C100.839 36.3329 100.823 36.5827 100.77 36.8176C100.717 37.0501 100.63 37.2555 100.508 37.4339C100.388 37.6097 100.236 37.7537 100.049 37.8658C99.8653 37.9753 99.6527 38.0395 99.4115 38.0584C99.1917 38.0756 98.9997 38.0538 98.8356 37.9929C98.6736 37.9294 98.5272 37.8362 98.3963 37.7133L98.5206 39.3019L97.8858 39.3516L97.5096 34.5431L97.889 34.5134C97.9789 34.5064 98.0379 34.5458 98.066 34.6316L98.156 35.0527ZM103.95 34.5637C104.022 34.4701 104.098 34.3844 104.18 34.3067C104.262 34.2289 104.349 34.1614 104.442 34.1042C104.538 34.0444 104.639 33.9973 104.745 33.9627C104.854 33.9257 104.972 33.9022 105.1 33.8922C105.296 33.8768 105.472 33.8964 105.626 33.951C105.782 34.0029 105.914 34.0853 106.023 34.1981C106.134 34.3084 106.222 34.4454 106.287 34.6092C106.352 34.773 106.393 34.9565 106.409 35.1598L106.588 37.447L105.953 37.4967L105.774 35.2095C105.753 34.9376 105.674 34.7321 105.537 34.593C105.402 34.4513 105.208 34.3903 104.955 34.4101C104.768 34.4247 104.597 34.4834 104.441 34.5859C104.287 34.6884 104.148 34.8218 104.023 34.9861L104.23 37.6315L103.595 37.6812L103.314 34.089L103.693 34.0593C103.783 34.0523 103.842 34.0917 103.87 34.1775L103.95 34.5637ZM110.285 33.5436L108.645 38.3528C108.628 38.4017 108.603 38.4417 108.573 38.4726C108.544 38.5034 108.497 38.5214 108.431 38.5266L107.962 38.5632L108.507 37.0863L106.76 33.8194L107.306 33.7767C107.36 33.7724 107.404 33.7833 107.437 33.8092C107.472 33.8326 107.497 33.8604 107.511 33.8926L108.649 36.0798C108.695 36.1761 108.735 36.2776 108.77 36.3844C108.794 36.2707 108.821 36.1627 108.851 36.0604L109.607 33.7286C109.618 33.6897 109.64 33.6571 109.671 33.6309C109.704 33.6021 109.742 33.5861 109.785 33.5827L110.285 33.5436ZM112.882 35.3277C112.592 35.3599 112.345 35.4029 112.142 35.4569C111.942 35.5082 111.779 35.5686 111.654 35.6378C111.53 35.7069 111.443 35.784 111.39 35.869C111.339 35.9538 111.318 36.0458 111.326 36.1451C111.333 36.2397 111.355 36.32 111.391 36.3862C111.427 36.4523 111.473 36.5058 111.528 36.5467C111.586 36.585 111.651 36.612 111.724 36.6277C111.799 36.6409 111.877 36.6443 111.96 36.6378C112.071 36.6291 112.172 36.6105 112.263 36.582C112.353 36.5512 112.437 36.5113 112.514 36.4625C112.593 36.4134 112.667 36.3565 112.736 36.2917C112.807 36.2267 112.875 36.1535 112.94 36.0723L112.882 35.3277ZM110.728 34.0191C110.911 33.8121 111.114 33.6524 111.336 33.5399C111.558 33.4274 111.808 33.3602 112.087 33.3384C112.288 33.3226 112.469 33.3418 112.63 33.3958C112.792 33.4498 112.93 33.5317 113.046 33.6416C113.161 33.7514 113.253 33.8882 113.32 34.0518C113.388 34.2154 113.43 34.3976 113.445 34.5986L113.625 36.8964L113.345 36.9183C113.283 36.9231 113.235 36.9174 113.201 36.901C113.166 36.8824 113.137 36.8442 113.113 36.7866L113.016 36.4517C112.928 36.5466 112.842 36.6318 112.758 36.7074C112.673 36.7806 112.583 36.8448 112.487 36.8998C112.391 36.9525 112.288 36.9951 112.176 37.0276C112.067 37.0623 111.944 37.085 111.807 37.0957C111.667 37.1067 111.535 37.098 111.409 37.0698C111.283 37.0392 111.171 36.9885 111.072 36.9177C110.976 36.8468 110.897 36.7543 110.833 36.6403C110.771 36.5239 110.734 36.384 110.722 36.2209C110.71 36.0791 110.739 35.9401 110.807 35.804C110.874 35.6655 110.992 35.5386 111.159 35.4232C111.326 35.3079 111.547 35.2073 111.824 35.1215C112.1 35.0333 112.442 34.9684 112.85 34.927L112.828 34.6468C112.806 34.3679 112.73 34.1622 112.598 34.0298C112.466 33.895 112.284 33.8367 112.053 33.8548C111.897 33.867 111.767 33.8974 111.664 33.9459C111.563 33.9919 111.475 34.0427 111.401 34.0985C111.329 34.1517 111.266 34.2006 111.213 34.2452C111.161 34.2873 111.108 34.3105 111.054 34.3147C111.012 34.318 110.974 34.3103 110.942 34.2914C110.909 34.2702 110.881 34.2438 110.857 34.2124L110.728 34.0191ZM116.982 35.7632C117.11 35.9102 117.245 36.0102 117.388 36.0633C117.532 36.1162 117.687 36.1362 117.853 36.1233C118.191 36.0968 118.44 35.9572 118.601 35.7043C118.762 35.4515 118.824 35.0887 118.787 34.6159C118.753 34.1762 118.647 33.8598 118.47 33.6667C118.296 33.4711 118.06 33.3848 117.765 33.4079C117.559 33.424 117.383 33.4853 117.237 33.5919C117.093 33.6983 116.963 33.8429 116.846 34.0256L116.982 35.7632ZM116.81 33.554C116.947 33.3672 117.106 33.2144 117.287 33.0956C117.471 32.9766 117.687 32.9074 117.935 32.888C118.145 32.8715 118.337 32.8969 118.512 32.9642C118.688 33.0312 118.841 33.137 118.972 33.2814C119.102 33.4234 119.206 33.6008 119.284 33.8135C119.365 34.026 119.416 34.2682 119.438 34.54C119.46 34.8308 119.446 35.0983 119.393 35.3427C119.341 35.587 119.254 35.7995 119.133 35.9803C119.014 36.1585 118.862 36.3023 118.678 36.4119C118.494 36.5191 118.282 36.582 118.043 36.6007C117.807 36.6192 117.604 36.5911 117.434 36.5164C117.266 36.4391 117.115 36.3236 116.982 36.1699L116.976 36.4987C116.964 36.59 116.913 36.6392 116.823 36.6462L116.415 36.6781L116.007 31.4548L116.641 31.4051L116.81 33.554ZM122.624 33.991C122.612 33.8445 122.581 33.7126 122.529 33.5953C122.479 33.4755 122.41 33.3751 122.323 33.2939C122.238 33.2102 122.137 33.1491 122.02 33.1107C121.903 33.0699 121.772 33.0552 121.628 33.0665C121.325 33.0901 121.092 33.1976 120.929 33.3887C120.767 33.5774 120.678 33.8294 120.659 34.1447L122.624 33.991ZM123.266 35.6355C123.196 35.7361 123.109 35.8262 123.006 35.9056C122.902 35.9827 122.79 36.0486 122.668 36.1033C122.548 36.1578 122.423 36.2009 122.293 36.2325C122.162 36.2665 122.032 36.2886 121.902 36.2988C121.654 36.3182 121.421 36.2948 121.204 36.2285C120.99 36.1597 120.799 36.0509 120.633 35.9022C120.469 35.7509 120.335 35.5592 120.231 35.3271C120.127 35.095 120.063 34.8241 120.039 34.5144C120.019 34.2638 120.039 34.0268 120.098 33.8034C120.159 33.5798 120.255 33.3832 120.387 33.2135C120.518 33.0414 120.685 32.9024 120.886 32.7963C121.087 32.6878 121.317 32.6234 121.577 32.603C121.792 32.5862 121.994 32.6073 122.181 32.6664C122.371 32.7228 122.538 32.8145 122.681 32.9412C122.826 33.0654 122.945 33.2251 123.036 33.4201C123.127 33.6127 123.183 33.8367 123.203 34.092C123.21 34.1913 123.205 34.2583 123.186 34.2931C123.168 34.3279 123.129 34.3476 123.07 34.3522L120.669 34.54C120.694 34.7664 120.74 34.9614 120.807 35.125C120.877 35.2884 120.966 35.423 121.075 35.5287C121.183 35.632 121.307 35.7067 121.449 35.7527C121.59 35.7963 121.746 35.8115 121.916 35.7982C122.075 35.7858 122.209 35.7574 122.32 35.7131C122.433 35.6662 122.529 35.6182 122.608 35.5692C122.688 35.5202 122.753 35.4758 122.805 35.4361C122.859 35.3938 122.906 35.3711 122.946 35.368C122.998 35.3639 123.04 35.3809 123.071 35.4188L123.266 35.6355ZM124.389 30.799L124.797 36.0223L124.166 36.0717L123.758 30.8484L124.389 30.799ZM128.501 32.1184L128.782 35.7105L128.406 35.74C128.316 35.747 128.256 35.7077 128.226 35.6221L128.146 35.2394C128.003 35.4242 127.839 35.5774 127.654 35.6989C127.468 35.8181 127.25 35.8875 126.999 35.9071C126.803 35.9225 126.627 35.9041 126.47 35.8522C126.316 35.7976 126.184 35.7152 126.073 35.605C125.962 35.4947 125.874 35.3577 125.809 35.1939C125.746 35.03 125.707 34.8463 125.691 34.643L125.512 32.3523L126.143 32.3029L126.322 34.5936C126.343 34.8655 126.421 35.0711 126.556 35.2104C126.693 35.3495 126.889 35.4091 127.144 35.3891C127.331 35.3745 127.501 35.3172 127.655 35.2172C127.811 35.1146 127.952 34.9799 128.077 34.8131L127.87 32.1678L128.501 32.1184ZM129.79 35.6317L129.509 32.0395L129.888 32.0099C129.978 32.0028 130.037 32.0422 130.065 32.128L130.14 32.4932C130.26 32.3197 130.398 32.1745 130.556 32.0575C130.713 31.9406 130.9 31.8736 131.118 31.8566C131.359 31.8377 131.559 31.8898 131.719 32.0129C131.881 32.1358 132.004 32.3094 132.088 32.5335C132.129 32.3994 132.187 32.2819 132.26 32.1811C132.335 32.08 132.421 31.9948 132.518 31.9254C132.615 31.856 132.719 31.8027 132.83 31.7654C132.944 31.728 133.06 31.7046 133.178 31.6954C133.367 31.6806 133.537 31.6982 133.689 31.7482C133.842 31.7956 133.974 31.8733 134.085 31.9812C134.198 32.0889 134.289 32.2257 134.356 32.3917C134.424 32.5553 134.466 32.7458 134.483 32.9633L134.662 35.2505L134.027 35.3002L133.848 33.013C133.826 32.7316 133.748 32.5237 133.614 32.3891C133.48 32.2521 133.297 32.1927 133.065 32.2109C132.961 32.219 132.863 32.2457 132.772 32.2909C132.682 32.3336 132.605 32.3931 132.539 32.4696C132.474 32.5461 132.424 32.6404 132.39 32.7524C132.358 32.862 132.348 32.9876 132.359 33.1295L132.538 35.4167L131.903 35.4663L131.724 33.1791C131.702 32.8907 131.627 32.6801 131.5 32.5474C131.373 32.4146 131.199 32.3569 130.976 32.3743C130.82 32.3865 130.679 32.4403 130.554 32.5358C130.428 32.6289 130.315 32.7519 130.215 32.9048L130.425 35.582L129.79 35.6317ZM137.836 31.3881L138.138 35.2461C138.149 35.3904 138.14 35.5254 138.112 35.6513C138.084 35.7795 138.032 35.893 137.957 35.9917C137.881 36.0903 137.781 36.1708 137.655 36.233C137.531 36.2973 137.38 36.3365 137.2 36.3506C137.124 36.3565 137.054 36.356 136.989 36.3492C136.925 36.3424 136.859 36.3297 136.794 36.311L136.792 35.9686C136.795 35.947 136.802 35.9298 136.813 35.9171C136.822 35.9069 136.835 35.8998 136.854 35.896C136.873 35.8922 136.898 35.889 136.928 35.8866C136.957 35.8868 136.994 35.8851 137.039 35.8816C137.223 35.8671 137.351 35.8131 137.422 35.7196C137.493 35.6284 137.521 35.487 137.506 35.2955L137.205 31.4374L137.836 31.3881ZM137.879 30.2501C137.884 30.3116 137.875 30.3705 137.853 30.427C137.834 30.4808 137.804 30.5307 137.765 30.5766C137.728 30.6199 137.683 30.6555 137.631 30.6834C137.578 30.7113 137.521 30.7277 137.46 30.7325C137.398 30.7373 137.339 30.73 137.283 30.7106C137.229 30.691 137.181 30.6627 137.137 30.6257C137.094 30.5863 137.058 30.5415 137.031 30.4913C137.003 30.4388 136.986 30.3818 136.982 30.3203C136.977 30.2589 136.984 30.2 137.003 30.1438C137.023 30.0852 137.051 30.0343 137.088 29.9909C137.125 29.9452 137.168 29.9085 137.218 29.8808C137.271 29.8529 137.328 29.8366 137.389 29.8318C137.451 29.827 137.51 29.8342 137.566 29.8536C137.622 29.873 137.672 29.9024 137.715 29.9418C137.761 29.9787 137.798 30.0246 137.826 30.0794C137.856 30.1318 137.874 30.1887 137.879 30.2501ZM140.981 33.1292C140.691 33.1614 140.445 33.2045 140.242 33.2584C140.042 33.3097 139.879 33.3701 139.753 33.4393C139.63 33.5084 139.542 33.5855 139.489 33.6705C139.439 33.7553 139.418 33.8473 139.425 33.9466C139.433 34.0412 139.455 34.1215 139.491 34.1877C139.527 34.2538 139.573 34.3073 139.628 34.3482C139.686 34.3865 139.751 34.4135 139.824 34.4292C139.898 34.4424 139.977 34.4458 140.06 34.4393C140.171 34.4306 140.272 34.412 140.362 34.3835C140.453 34.3527 140.536 34.3128 140.613 34.264C140.693 34.2149 140.767 34.158 140.835 34.0932C140.907 34.0282 140.975 33.9551 141.04 33.8739L140.981 33.1292ZM138.827 31.8207C139.011 31.6136 139.214 31.4539 139.436 31.3414C139.658 31.2289 139.908 31.1617 140.187 31.1399C140.388 31.1242 140.569 31.1433 140.73 31.1973C140.891 31.2513 141.03 31.3332 141.145 31.4431C141.261 31.5529 141.353 31.6897 141.42 31.8533C141.488 32.0169 141.529 32.1991 141.545 32.4001L141.725 34.6979L141.445 34.7198C141.383 34.7246 141.335 34.7189 141.301 34.7026C141.266 34.6839 141.237 34.6457 141.213 34.5881L141.116 34.2532C141.028 34.3481 140.942 34.4333 140.857 34.5089C140.773 34.5821 140.683 34.6463 140.587 34.7013C140.491 34.754 140.387 34.7966 140.276 34.8291C140.167 34.8638 140.044 34.8865 139.907 34.8972C139.767 34.9082 139.634 34.8995 139.509 34.8713C139.382 34.8407 139.27 34.7901 139.172 34.7193C139.076 34.6483 138.996 34.5558 138.933 34.4419C138.871 34.3254 138.834 34.1856 138.821 34.0224C138.81 33.8806 138.839 33.7416 138.906 33.6055C138.974 33.467 139.091 33.3401 139.258 33.2247C139.425 33.1094 139.647 33.0088 139.923 32.923C140.199 32.8348 140.542 32.7699 140.95 32.7285L140.928 32.4483C140.906 32.1694 140.829 31.9637 140.698 31.8313C140.566 31.6965 140.384 31.6382 140.152 31.6563C139.996 31.6685 139.867 31.6989 139.764 31.7474C139.663 31.7934 139.575 31.8442 139.501 31.9C139.429 31.9532 139.366 32.0021 139.312 32.0467C139.261 32.0888 139.208 32.112 139.154 32.1162C139.111 32.1195 139.074 32.1118 139.041 32.0929C139.009 32.0717 138.981 32.0453 138.957 32.0139L138.827 31.8207ZM144.82 31.7015C144.689 31.5523 144.553 31.4524 144.411 31.4017C144.269 31.3486 144.113 31.3287 143.942 31.342C143.609 31.3681 143.362 31.5075 143.201 31.7603C143.04 32.0132 142.977 32.3606 143.011 32.8027C143.03 33.0367 143.065 33.2361 143.119 33.4008C143.172 33.5631 143.242 33.6956 143.328 33.7983C143.415 33.8985 143.516 33.9691 143.634 34.0098C143.751 34.0506 143.882 34.0653 144.026 34.0541C144.234 34.0378 144.411 33.9763 144.558 33.8698C144.706 33.763 144.839 33.6182 144.955 33.4355L144.82 31.7015ZM145.256 29.1663L145.665 34.3896L145.289 34.419C145.199 34.4261 145.139 34.3868 145.109 34.3012L145.018 33.8694C144.878 34.0659 144.715 34.2285 144.528 34.3573C144.341 34.4861 144.118 34.5606 143.86 34.5808C143.655 34.5969 143.465 34.5725 143.291 34.5076C143.117 34.4403 142.965 34.3345 142.834 34.1901C142.704 34.0457 142.598 33.8613 142.516 33.637C142.435 33.4127 142.382 33.1516 142.359 32.8537C142.338 32.589 142.354 32.3403 142.407 32.1078C142.46 31.873 142.547 31.6664 142.666 31.4882C142.785 31.31 142.937 31.1662 143.121 31.0566C143.307 30.9445 143.521 30.879 143.762 30.8602C143.982 30.843 144.173 30.8661 144.335 30.9295C144.499 30.9904 144.647 31.0823 144.781 31.205L144.625 29.2157L145.256 29.1663ZM147.055 30.6668L147.336 34.2589L146.704 34.3083L146.423 30.7162L147.055 30.6668ZM147.101 29.5286C147.106 29.5901 147.097 29.649 147.076 29.7054C147.056 29.7593 147.027 29.8091 146.987 29.855C146.95 29.8984 146.904 29.9341 146.85 29.9621C146.797 29.99 146.74 30.0064 146.679 30.0112C146.617 30.016 146.558 30.0087 146.502 29.9893C146.448 29.9698 146.4 29.9414 146.356 29.9044C146.313 29.865 146.277 29.8202 146.249 29.7701C146.222 29.7175 146.205 29.6605 146.2 29.5991C146.196 29.5376 146.203 29.4788 146.222 29.4225C146.241 29.364 146.27 29.313 146.307 29.2697C146.343 29.224 146.387 29.1873 146.437 29.1596C146.49 29.1317 146.547 29.1153 146.608 29.1105C146.67 29.1057 146.728 29.113 146.785 29.1324C146.843 29.1516 146.894 29.1809 146.938 29.2203C146.984 29.2571 147.02 29.303 147.048 29.3579C147.079 29.4102 147.096 29.4671 147.101 29.5286Z" fill="#7D7D7D"/>
</g>
<defs>
<filter id="filter0_d_1193_12056" x="0.753779" y="0.943359" width="200.078" height="60.7849" filterUnits="userSpaceOnUse" color-interpolation-filters="sRGB">
<feFlood flood-opacity="0" result="BackgroundImageFix"/>
<feColorMatrix in="SourceAlpha" type="matrix" values="0 0 0 0 0 0 0 0 0 0 0 0 0 0 0 0 0 0 127 0" result="hardAlpha"/>
<feOffset dy="2.18885"/>
<feGaussianBlur stdDeviation="1.09442"/>
<feComposite in2="hardAlpha" operator="out"/>
<feColorMatrix type="matrix" values="0 0 0 0 0 0 0 0 0 0 0 0 0 0 0 0 0 0 0.25 0"/>
<feBlend mode="normal" in2="BackgroundImageFix" result="effect1_dropShadow_1193_12056"/>
<feBlend mode="normal" in="SourceGraphic" in2="effect1_dropShadow_1193_12056" result="shape"/>
</filter>
<clipPath id="clip0_1193_12056">
<rect width="19.1524" height="19.1524" fill="white" transform="translate(16.5349 25.585) rotate(-4.47365)"/>
</clipPath>
</defs>
</svg>
