<svg width="168" height="174" viewBox="0 0 168 174" fill="none" xmlns="http://www.w3.org/2000/svg">
<g filter="url(#filter0_d_1134_12234)">
<circle cx="84" cy="80" r="80" fill="#FDFDFD"/>
</g>
<path d="M154.901 72.0988C154.901 72.0988 164.397 73.1389 159.785 90.9562L137.219 88.2881C137.219 88.2429 147.575 69.9734 154.901 72.0988Z" fill="#FDFDFD"/>
<path d="M159.785 91.2722L137.174 88.6042C137.083 88.6042 136.993 88.5137 136.948 88.4233C136.902 88.3328 136.902 88.1972 136.948 88.1067C137.4 87.338 147.53 69.7015 154.991 71.7817C156.845 72.1435 158.428 73.2288 159.468 74.8116C161.82 78.2032 162.046 83.675 160.101 91.0461C160.056 91.1818 159.92 91.2722 159.785 91.2722ZM137.716 88.0163L159.558 90.5939C161.774 81.8209 160.463 77.344 158.925 75.1734C158.021 73.7263 156.529 72.7314 154.855 72.4148H154.81C148.434 70.5608 139.299 85.303 137.716 88.0163Z" fill="#231F20"/>
<path d="M135.32 106.874C135.32 106.874 139.706 107.507 143.912 93.6694C148.117 79.8316 145.449 72.4605 154.901 72.144L125.1 68.2549C125.1 68.2097 118.407 104.342 135.32 106.874Z" fill="#FDFDFD"/>
<path d="M135.41 107.19H135.274C132.245 106.738 129.531 105.065 127.813 102.532C124.693 98.191 123.246 91.0912 123.517 81.4138C123.653 76.9821 124.06 72.5504 124.783 68.1639C124.828 67.983 124.964 67.8926 125.145 67.8926L154.946 71.7816C155.127 71.8268 155.217 71.9625 155.217 72.1434C155.172 72.2791 155.082 72.4147 154.946 72.4147C148.615 72.6408 147.982 76.1229 146.716 82.9966C146.128 86.6143 145.268 90.1868 144.228 93.7141C140.339 106.512 136.224 107.19 135.41 107.19ZM135.365 106.557C135.455 106.557 139.571 106.783 143.595 93.5784C144.635 90.0964 145.449 86.5239 146.037 82.9514C147.123 76.8917 147.801 73.1835 152.368 72.1434L125.326 68.5709C124.874 71.3294 121.527 92.674 128.31 102.171C129.938 104.522 132.516 106.105 135.365 106.557Z" fill="#231F20"/>
<path d="M137.852 12.8584C137.852 12.8584 145.404 14.1246 143.686 25.2943C141.515 38.9965 130.843 86.0721 130.617 96.6087C130.391 107.145 135.365 106.874 135.365 106.874L66.0855 99.6838C66.0855 99.6838 62.8296 97.0157 69.9294 69.928C77.0291 42.8403 83.541 19.6416 87.2944 17.8328C91.093 16.0239 137.852 12.8584 137.852 12.8584Z" fill="#FDFDFD"/>
<path d="M135.32 107.145C135.139 107.145 135.003 107.145 134.822 107.1L66.0403 99.9546C65.9951 99.9546 65.9046 99.9094 65.8594 99.8642C65.4976 99.5928 62.6487 96.3369 69.6128 69.7918C77.7527 38.815 83.4958 19.2341 87.1588 17.5157C90.9574 15.7068 135.908 12.6318 137.807 12.4961H137.897C137.988 12.4961 145.766 13.9432 143.957 25.2938C143.143 30.3134 141.289 39.6742 139.073 50.437C135.32 68.9326 131.024 89.9154 130.888 96.563C130.752 101.944 132.019 104.386 133.149 105.472C133.601 105.969 134.234 106.286 134.867 106.466L135.365 106.512C135.546 106.512 135.681 106.693 135.636 106.873C135.636 107.009 135.501 107.145 135.365 107.145H135.32ZM66.2212 99.3667L133.104 106.286C132.968 106.195 132.878 106.06 132.742 105.969C130.978 104.251 130.164 101.085 130.3 96.563C130.481 89.8702 134.732 68.8874 138.485 50.3465C140.701 39.5386 142.555 30.2229 143.369 25.2033C144.997 14.8024 138.44 13.2649 137.852 13.1292C136.269 13.2196 91.093 16.3851 87.4753 18.1036C83.6767 19.9124 76.6221 45.8244 70.2459 69.9727C67.3969 80.8711 65.8594 89.1014 65.6785 94.4828C65.5428 98.0101 66.0403 99.0954 66.2212 99.3667Z" fill="#231F20"/>
<path d="M81.913 11.4111C81.913 11.4111 74.0897 11.0493 72.2809 20.8624C71.286 26.3794 60.5233 70.787 60.5233 70.787L112.211 82.0471C124.467 82.5898 127.451 25.5654 127.451 25.5654C127.451 25.5654 127.406 12.8129 137.852 12.8129C137.852 12.8581 88.4702 10.0544 81.913 11.4111Z" fill="#FCCF5C"/>
<path d="M112.392 82.3638H112.211L60.478 71.1036C60.3876 71.1036 60.3423 71.0132 60.2971 70.968C60.2519 70.8775 60.2519 70.7871 60.2519 70.7419C60.3423 70.2897 71.0146 26.2891 72.0095 20.8173C73.7731 11.2303 81.2799 11.0946 81.913 11.0946C88.5606 9.78321 135.862 12.4061 137.897 12.5417C138.078 12.5417 138.214 12.6774 138.214 12.8583C138.214 13.0392 138.078 13.1748 137.897 13.1748C135.274 13.1748 133.104 14.034 131.431 15.662C127.858 19.2345 127.813 25.5203 127.813 25.6108C127.632 27.9171 124.647 82.3638 112.392 82.3638ZM60.885 70.561L112.257 81.7307C117.05 82.002 121.12 72.3246 124.105 53.9647C126.366 39.946 127.135 25.7012 127.135 25.5655C127.135 25.2942 127.135 18.9632 130.933 15.2098C131.973 14.1697 133.239 13.4009 134.641 12.9939C123.607 12.4061 87.4753 10.5972 82.0035 11.7277C81.9582 11.7277 81.9582 11.7277 81.913 11.7277C81.5965 11.7277 74.3158 11.5016 72.5974 20.9077C71.6477 26.1534 61.8347 66.5815 60.885 70.561Z" fill="#231F20"/>
<path d="M112.211 82.0478C112.211 82.0478 101.132 80.6007 103.665 68.1647L54.2827 64.2305L58.5335 77.7969L112.211 82.0478Z" fill="#FDFDFD"/>
<path d="M112.211 82.3635L58.4883 78.1127C58.3526 78.1127 58.2622 78.0222 58.2169 77.8865L53.9661 64.3201C53.9209 64.2296 53.9661 64.094 54.0113 64.0488C54.0566 63.9583 54.1922 63.9131 54.2827 63.9131L103.665 67.8474C103.755 67.8474 103.845 67.8926 103.891 67.983C103.936 68.0735 103.981 68.1639 103.936 68.2544C103.167 72.0982 103.619 75.2637 105.338 77.6152C107.825 81.0973 112.211 81.7304 112.257 81.7304C112.438 81.7756 112.528 81.9113 112.528 82.0922C112.483 82.2278 112.347 82.3635 112.211 82.3635ZM58.7596 77.4796L109.272 81.459C107.508 80.6903 105.971 79.5145 104.84 77.9318C103.077 75.4898 102.579 72.2791 103.258 68.4352L54.6897 64.5462L58.7596 77.4796Z" fill="#231F20"/>
<path d="M120.623 95.614L70.3815 91.2727C70.2007 91.2727 70.065 91.0918 70.1102 90.911C70.1102 90.7301 70.2911 90.5944 70.472 90.6396L120.668 94.9809C120.849 95.0261 120.939 95.1618 120.939 95.3427C120.894 95.4783 120.758 95.614 120.623 95.614Z" fill="#D1D3D4"/>
<path d="M117.321 88.7856L67.0803 84.4443C66.8994 84.4443 66.7638 84.2634 66.809 84.1278C66.809 83.9469 66.9447 83.8112 67.1256 83.8564L117.321 88.1977C117.502 88.1977 117.638 88.3786 117.593 88.5595C117.638 88.6499 117.502 88.7856 117.321 88.7856Z" fill="#D1D3D4"/>
<path d="M82.4105 59.3904L75.6273 58.7573C75.5368 58.7573 75.4464 58.7121 75.4012 58.6216C75.3559 58.5764 75.3107 58.486 75.356 58.3955L76.6674 47.9041C76.6674 47.7232 76.8483 47.5876 77.0291 47.6328L83.7672 48.2659C83.8576 48.2659 83.948 48.3111 83.9933 48.4016C84.0385 48.4468 84.0837 48.5372 84.0385 48.6277L82.7271 59.1191C82.7271 59.2547 82.5914 59.3904 82.4105 59.3904ZM76.0343 58.1242L82.1392 58.7121L83.3602 48.8538L77.2553 48.2659L76.0343 58.1242Z" fill="#D1D3D4"/>
<path d="M83.3149 52.111L76.5317 51.4779C76.3508 51.4779 76.2151 51.297 76.2604 51.1161L76.6673 47.8602C76.6673 47.6793 76.8482 47.5436 77.0291 47.5888L83.7671 48.2219C83.8576 48.2219 83.948 48.2672 83.9932 48.3576C84.0385 48.4028 84.0837 48.4933 84.0385 48.5837L83.6315 51.8397C83.6315 51.9753 83.4958 52.111 83.3149 52.111ZM76.9387 50.8448L83.0436 51.4327L83.3601 48.8098L77.2552 48.2219L76.9387 50.8448Z" fill="#D1D3D4"/>
<path d="M92.4949 60.3407L85.7117 59.7076C85.5308 59.7076 85.3951 59.5267 85.4403 59.3458L87.7919 40.4432C87.7919 40.2623 87.9727 40.1719 88.1084 40.1719L94.8464 40.8502C94.9369 40.8502 95.0273 40.8954 95.0725 40.9406C95.1178 40.9859 95.163 41.0763 95.1178 41.1667L92.7662 60.0694C92.7662 60.2502 92.6306 60.3407 92.4949 60.3407ZM86.1187 59.0745L92.2236 59.6624L94.4847 41.3929L88.3797 40.805L86.1187 59.0745Z" fill="#D1D3D4"/>
<path d="M94.349 45.4176L87.5657 44.7845C87.3849 44.7845 87.2492 44.6036 87.2944 44.4227L87.7918 40.4432C87.7918 40.2623 87.9727 40.1719 88.1084 40.1719L94.8464 40.8502C94.9368 40.8502 95.0273 40.8954 95.0725 40.9406C95.1177 40.9859 95.163 41.0763 95.1177 41.1667L94.6203 45.1462C94.6203 45.3271 94.4846 45.4176 94.349 45.4176ZM87.9727 44.1966L94.0776 44.7845L94.4846 41.4381L88.3797 40.8502L87.9727 44.1966Z" fill="#D1D3D4"/>
<path d="M102.534 61.3355L95.796 60.7024C95.7056 60.7024 95.6152 60.6571 95.5699 60.5667C95.5247 60.5215 95.4795 60.431 95.5247 60.3406L100.092 23.2137C100.092 23.0328 100.273 22.8971 100.454 22.9424L107.192 23.5755C107.282 23.5755 107.373 23.6207 107.418 23.7111C107.463 23.7564 107.508 23.8468 107.463 23.9372L102.851 61.0189C102.851 61.1998 102.715 61.3355 102.534 61.3355ZM96.1578 60.0693L102.263 60.6571L106.785 24.1633L100.68 23.5755L96.1578 60.0693Z" fill="#D1D3D4"/>
<path d="M106.604 28.7307L99.8208 28.0976C99.7303 28.0976 99.6399 28.0524 99.5947 27.962C99.5494 27.9167 99.5042 27.8263 99.5494 27.7358L100.092 23.2137C100.092 23.0328 100.273 22.8971 100.454 22.9424L107.192 23.5755C107.282 23.5755 107.373 23.6207 107.418 23.7111C107.463 23.7564 107.508 23.8468 107.463 23.9372L106.921 28.4594C106.875 28.6403 106.74 28.7759 106.604 28.7307ZM100.183 27.5097L106.287 28.0976L106.785 24.2086L100.68 23.6207L100.183 27.5097Z" fill="#D1D3D4"/>
<path d="M112.573 62.2848L105.79 61.6517C105.7 61.6517 105.609 61.6064 105.564 61.516C105.519 61.4708 105.474 61.3803 105.519 61.2899L107.056 48.7635C107.056 48.5826 107.237 48.4922 107.373 48.4922L114.111 49.1253C114.201 49.1253 114.292 49.1705 114.337 49.261C114.382 49.3062 114.427 49.3966 114.382 49.4871L112.845 62.0134C112.89 62.1943 112.754 62.2848 112.573 62.2848ZM106.197 61.0638L112.302 61.6517L113.794 49.7584L107.689 49.1705L106.197 61.0638Z" fill="#D1D3D4"/>
<path d="M113.613 54.1908L106.83 53.5577C106.74 53.5577 106.649 53.5125 106.604 53.422C106.559 53.3768 106.514 53.2864 106.559 53.1959L107.101 48.8094C107.101 48.6285 107.282 48.5381 107.418 48.5381L114.156 49.1712C114.246 49.1712 114.337 49.2164 114.382 49.3069C114.427 49.3521 114.473 49.4425 114.427 49.533L113.885 53.9194C113.885 54.0551 113.749 54.1908 113.613 54.1908ZM107.237 52.9246L113.342 53.5125L113.794 49.7591L107.689 49.1712L107.237 52.9246Z" fill="#D1D3D4"/>
<path d="M116.462 62.6925L72.8235 58.4417C72.6426 58.4417 72.5069 58.2608 72.5522 58.0799C72.5522 57.899 72.733 57.7633 72.8687 57.8086L116.462 62.0594C116.643 62.0594 116.779 62.2403 116.734 62.4212C116.734 62.5568 116.598 62.6925 116.462 62.6925Z" fill="#D1D3D4"/>
<path d="M123.155 30.3594L112.392 29.3646C112.211 29.3646 112.076 29.2289 112.076 29.048C112.076 28.8671 112.211 28.7314 112.392 28.7314H112.438L123.2 29.7263C123.381 29.7263 123.517 29.9072 123.472 30.0881C123.472 30.2238 123.336 30.3594 123.155 30.3594Z" fill="#D1D3D4"/>
<path d="M122.974 33.0274L112.212 32.0325C112.031 32.0325 111.895 31.8968 111.895 31.716C111.895 31.5351 112.031 31.3994 112.212 31.3994H112.257L123.019 32.3943C123.2 32.3943 123.336 32.5752 123.291 32.7108C123.291 32.8917 123.155 33.0274 122.974 33.0274Z" fill="#D1D3D4"/>
<path d="M122.793 35.6504L112.031 34.6556C111.85 34.6556 111.714 34.5651 111.669 34.3842C111.669 34.2033 111.759 34.0677 111.94 34.0225C111.985 34.0225 111.985 34.0225 112.031 34.0225L122.793 35.0173C122.974 35.0626 123.065 35.1982 123.065 35.3791C123.065 35.56 122.929 35.6504 122.793 35.6504Z" fill="#D1D3D4"/>
<path d="M119.99 38.091L111.85 37.3675C111.669 37.3675 111.533 37.1866 111.578 37.0057C111.578 36.8248 111.759 36.6891 111.94 36.7344L120.08 37.4579C120.261 37.5031 120.351 37.6388 120.351 37.8197C120.261 37.9553 120.125 38.091 119.99 38.091Z" fill="#D1D3D4"/>
<path d="M94.1229 24.5257L78.4762 23.2142C78.3858 23.2142 78.2953 23.169 78.2501 23.0786C78.2049 22.9881 78.1597 22.8977 78.2049 22.8072L79.5615 17.0189C79.6068 16.838 79.7876 16.7476 79.9233 16.7928C80.059 16.838 80.1946 17.0189 80.1494 17.1545L78.8832 22.5811L94.1681 23.8926C94.349 23.9378 94.4394 24.0734 94.4394 24.2543C94.3942 24.39 94.2585 24.5257 94.1229 24.5257Z" fill="#D1D3D4"/>
<path d="M79.652 22.7166C79.4711 22.7166 79.3354 22.581 79.3354 22.4001C79.3354 22.3097 79.3807 22.2192 79.4711 22.174C80.6921 21.2243 81.9583 20.4104 83.3602 19.732C83.8124 19.4607 84.3098 19.325 84.8525 19.4155C85.3499 19.5964 85.8021 19.9129 86.0735 20.3651C86.2543 20.6817 86.5257 20.953 86.8874 21.0887C87.3397 21.2696 87.8823 20.9982 88.3798 20.7269C90.0982 19.8225 92.0427 18.7824 93.2637 17.1092C93.3541 16.9735 93.535 16.9283 93.7159 17.0187C93.8516 17.1092 93.8968 17.2901 93.8063 17.4709C93.8063 17.4709 93.8063 17.5162 93.7611 17.5162C92.4497 19.2798 90.46 20.3651 88.6511 21.3148C88.018 21.6313 87.3397 21.9479 86.6613 21.7218C86.2091 21.4957 85.8473 21.1791 85.576 20.7721C85.3951 20.4556 85.0786 20.1842 84.7168 20.0486C84.355 20.0034 83.948 20.0938 83.6315 20.3199C82.3201 20.9982 81.0539 21.767 79.8781 22.6714C79.7877 22.6714 79.7424 22.7166 79.652 22.7166Z" fill="#D1D3D4"/>
<path d="M85.5308 47.2287L87.9275 46.46L90.8217 55.3234C91.0026 55.9565 90.686 56.5896 90.0529 56.8157L89.9173 56.8609C89.2841 57.0418 88.651 56.7253 88.4249 56.0922L85.5308 47.2287Z" fill="#FDFDFD"/>
<path d="M89.5555 57.177C89.3294 57.177 89.1033 57.1318 88.8772 56.9961C88.5154 56.8152 88.2441 56.4987 88.1536 56.1369L85.2594 47.2735C85.2142 47.183 85.2142 47.0926 85.2594 47.0473C85.3047 46.9569 85.3499 46.9117 85.4403 46.8665L87.8371 46.0977C88.018 46.0525 88.1988 46.1429 88.2441 46.2786L91.1382 55.142C91.4096 55.9108 90.9574 56.77 90.1886 57.0413L90.0529 57.0865C89.872 57.177 89.7364 57.177 89.5555 57.177ZM85.9378 47.4091L88.7415 56.0012C88.8772 56.4534 89.3746 56.6795 89.8268 56.5439L89.9625 56.4987C90.4147 56.363 90.6408 55.8656 90.5051 55.4133L87.7014 46.8665L85.9378 47.4091Z" fill="#231F20"/>
<path d="M86.0366 38.2375L82.2127 39.4932L85.0628 48.1721L88.8866 46.9164L86.0366 38.2375Z" fill="#FDFDFD"/>
<path d="M85.0333 48.494C84.8977 48.494 84.762 48.4036 84.7168 48.2679L81.8678 39.5854C81.8226 39.4949 81.8226 39.4045 81.8678 39.3592C81.9131 39.2688 81.9583 39.2236 82.0487 39.1784L85.8926 37.9122C86.0734 37.8669 86.2543 37.9574 86.2996 38.093L89.1485 46.7756C89.1937 46.866 89.1937 46.9565 89.1485 47.0017C89.1033 47.0921 89.0581 47.1374 88.9676 47.1826L85.1238 48.4488C85.1238 48.494 85.0786 48.494 85.0333 48.494ZM82.5914 39.721L85.2595 47.8157L88.4702 46.7304L85.8473 38.6357L82.5914 39.721Z" fill="#231F20"/>
<path d="M88.3797 53.7856L89.5103 53.4238C90.279 53.1977 91.0478 53.6047 91.3191 54.3283L95.3891 66.719C95.6152 67.4877 95.2082 68.2565 94.4846 68.5278L93.3541 68.8896C92.5853 69.1157 91.8166 68.7087 91.5452 67.9852L87.4753 55.5945C87.204 54.8257 87.611 54.0117 88.3797 53.7856Z" fill="#FDFDFD"/>
<path d="M92.9019 69.251C92.1331 69.251 91.5 68.7535 91.2287 68.0752L87.1587 55.6845C86.8422 54.7801 87.3396 53.7852 88.2441 53.4687L89.3746 53.1069C90.279 52.7903 91.2739 53.2878 91.5905 54.2374L95.6604 66.6281C95.9769 67.5326 95.4795 68.5274 94.5299 68.844L93.3993 69.2058C93.2637 69.2058 93.0828 69.251 92.9019 69.251ZM89.9625 53.6043C89.8268 53.6043 89.7364 53.6043 89.6007 53.6496L88.4702 54.0113C88.1988 54.1018 87.9727 54.2827 87.8371 54.554C87.7014 54.8253 87.6562 55.1419 87.7918 55.4132L91.8618 67.8039C92.0427 68.3918 92.6758 68.7083 93.2636 68.5274L94.3942 68.1657C94.9821 67.9848 95.2986 67.3517 95.1177 66.7638L91.0478 54.3731C90.9573 54.1018 90.7765 53.8757 90.5051 53.74C90.3242 53.6496 90.1434 53.6043 89.9625 53.6043Z" fill="#231F20"/>
<path d="M83.4054 47.3637C89.3245 47.3637 94.1229 42.5653 94.1229 36.6462C94.1229 30.7271 89.3245 25.9287 83.4054 25.9287C77.4863 25.9287 72.6879 30.7271 72.6879 36.6462C72.6879 42.5653 77.4863 47.3637 83.4054 47.3637Z" fill="#FDFDFD"/>
<path d="M83.4053 47.68C77.3004 47.68 72.326 42.7509 72.326 36.6008C72.326 30.4959 77.2552 25.5215 83.4053 25.5215C89.5102 25.5215 94.4846 30.4506 94.4846 36.6008C94.4846 41.3942 91.4095 45.6451 86.8874 47.1374C85.7116 47.4992 84.5359 47.68 83.4053 47.68ZM83.4053 26.245C77.6622 26.245 73.0044 30.9028 73.0044 36.646C73.0044 42.3891 77.6622 47.0469 83.4053 47.0469C89.1485 47.0469 93.8063 42.3891 93.8063 36.646C93.8063 35.5607 93.6254 34.4753 93.3088 33.39C91.8618 29.1392 87.8823 26.245 83.4053 26.245Z" fill="#231F20"/>
<path d="M92.0025 38.0471C92.7706 33.3137 89.5362 28.8506 84.7782 28.0784C80.0202 27.3062 75.5403 30.5174 74.7721 35.2507C74.0039 39.9841 77.2383 44.4473 81.9963 45.2195C86.7544 45.9917 91.2343 42.7805 92.0025 38.0471Z" fill="#FDFDFD"/>
<path d="M83.4054 45.6902C78.431 45.6902 74.3611 41.6655 74.3159 36.6911C74.3159 31.7167 78.3406 27.6468 83.3149 27.6016C87.2492 27.6016 90.7313 30.134 91.9523 33.8421C93.4898 38.5904 90.9122 43.7004 86.1639 45.238C85.2595 45.5093 84.355 45.6902 83.4054 45.6902ZM83.4054 28.2799C78.7928 28.2799 75.0394 32.0333 75.0394 36.6911C75.0394 41.3037 78.7928 45.0571 83.4506 45.0571C88.0632 45.0571 91.8166 41.3037 91.8166 36.6459C91.8166 35.7414 91.6809 34.8822 91.4096 34.023C90.2791 30.5862 87.0231 28.2347 83.4054 28.2799Z" fill="#231F20"/>
<path d="M58.443 65.5412C60.1162 62.1948 62.4225 59.2102 65.2262 56.723C69.7032 52.8339 72.4165 50.0302 71.0146 49.2614C69.6127 48.4927 64.9549 51.7938 64.9549 51.7938L68.2108 37.9561C68.2108 37.9561 60.7041 43.9705 58.4882 48.357C56.2724 52.7435 51.9311 61.9235 51.9311 61.9235L58.443 65.5412Z" fill="#FDFDFD"/>
<path d="M58.4429 65.8587C58.3977 65.8587 58.3525 65.8587 58.3073 65.8135L51.7502 62.1958C51.6145 62.1053 51.5693 61.9245 51.6145 61.7888C51.6597 61.6983 56.001 52.5636 58.1716 48.2223C60.3423 43.881 67.6681 38.0022 67.9847 37.7309C68.0751 37.6405 68.256 37.6405 68.3465 37.7309C68.4821 37.8214 68.5274 37.957 68.4821 38.0927L65.4071 51.1165C66.8542 50.1668 69.884 48.3128 71.1502 49.0363C71.4668 49.172 71.6476 49.4885 71.6929 49.8051C71.8285 50.9808 70.0197 53.061 65.4523 57.0405C62.6938 59.4825 60.4327 62.4671 58.7595 65.7683C58.7143 65.8587 58.6691 65.9039 58.5786 65.9492L58.4429 65.8587ZM52.2928 61.7888L58.3073 65.1352C59.9805 61.8792 62.2868 58.9398 65.0001 56.4979C66.5376 55.1864 71.1954 51.1617 71.0145 49.8051C71.0145 49.6694 70.9241 49.579 70.7884 49.5337C69.884 49.0363 66.7637 50.8452 65.0453 52.0662C64.9096 52.1566 64.6835 52.1114 64.5931 51.9757C64.5479 51.8853 64.5026 51.7948 64.5479 51.7044L67.5777 38.8162C65.6332 40.4442 60.4327 45.0568 58.6691 48.4936C56.7697 52.3827 53.0164 60.2513 52.2928 61.7888Z" fill="#231F20"/>
<path d="M57.9456 29.9528C55.7297 29.9528 53.9208 28.1439 53.9208 25.928C53.9208 23.7122 55.7297 21.9033 57.9456 21.9033C60.1614 21.9033 61.9703 23.7122 61.9703 25.928C61.9251 28.1439 60.1614 29.9528 57.9456 29.9528ZM57.9456 22.5816C56.0915 22.5816 54.5539 24.074 54.5539 25.928C54.5539 27.7821 56.0463 29.3197 57.9003 29.3197C59.7544 29.3197 61.292 27.8273 61.292 25.9733C61.3372 24.074 59.7996 22.5816 57.9456 22.5816Z" fill="#231F20"/>
<path d="M31.4457 41.891C29.7725 41.8457 28.1445 41.5292 26.2 41.3935C24.4364 41.2579 22.1301 40.5795 22.0848 38.7707C22.0396 37.2331 23.8937 35.9669 23.4867 34.4746C23.3511 34.0676 23.1249 33.7059 22.8536 33.3893C17.5627 26.2443 18.7837 16.2051 25.7026 10.5976C25.2051 10.7785 24.6625 10.2811 24.6173 9.73844C24.6173 9.19578 24.8434 8.69834 25.2051 8.29135C26.4261 6.75382 28.3254 5.89461 30.1795 5.26151C36.1488 3.31698 42.7511 3.49787 48.7656 5.26151C53.4234 6.61815 58.9856 10.3263 58.3978 15.9338C58.1717 17.9688 56.5889 19.9133 54.5539 20.0037C53.5138 26.0182 50.3483 30.1334 46.414 34.4746C43.746 37.4592 40.3996 39.7203 36.6462 41.1222C34.973 41.7553 33.2094 41.9814 31.4457 41.891Z" fill="#FCCF5C"/>
<path d="M32.1693 42.2527C31.9432 42.2527 31.6718 42.2527 31.4457 42.2527C30.4508 42.2075 29.5012 42.0718 28.4611 41.9814C27.7376 41.891 26.9688 41.8005 26.2 41.7101C23.4867 41.484 21.8135 40.3986 21.7683 38.7707C21.8135 38.0019 22.0849 37.2331 22.5823 36.6C22.9893 35.8765 23.3963 35.2434 23.2154 34.5651C23.0797 34.2485 22.8988 33.932 22.6727 33.6606L22.6275 33.5702C17.3818 26.5156 18.4219 16.6121 24.979 10.8238L24.9338 10.7785C24.572 10.5524 24.3459 10.1907 24.3007 9.78366C24.3007 9.15056 24.5268 8.56268 24.9338 8.11046C26.3357 6.34682 28.5515 5.48761 30.0439 4.99017C35.7418 3.13609 42.4346 3.13609 48.856 4.99017C54.1469 6.5277 59.257 10.5524 58.6691 16.0242C58.443 18.014 56.9507 20.0942 54.78 20.3655C53.6495 26.6061 50.2579 30.7212 46.5949 34.746C43.8816 37.7758 40.49 40.0821 36.6914 41.484C35.2896 41.9814 33.752 42.2527 32.1693 42.2527ZM31.4909 41.5744C33.2094 41.6649 34.9278 41.4387 36.5558 40.8509C40.2639 39.4942 43.5651 37.2331 46.1879 34.2937C50.5744 29.5003 53.2877 25.6112 54.2374 20.0037C54.2826 19.8681 54.373 19.7324 54.5539 19.7324C56.4985 19.642 57.9003 17.6974 58.0812 15.9338C58.6239 10.869 53.7852 7.07036 48.6751 5.57805C42.3893 3.72397 35.8322 3.72397 30.27 5.53283C28.8229 6.03027 26.7427 6.84426 25.4313 8.47223C25.1147 8.78878 24.9338 9.241 24.9338 9.69321C24.979 9.91932 25.0695 10.1002 25.2504 10.2359C25.3408 10.3263 25.4765 10.3263 25.6121 10.2811C25.793 10.2359 25.9739 10.3263 26.0191 10.462C26.0644 10.5976 26.0191 10.7333 25.9287 10.8238C19.1455 16.2956 17.9245 26.1539 23.125 33.1632L23.1702 33.2536C23.4415 33.5702 23.6676 33.9772 23.8033 34.3842C24.0746 35.3338 23.5772 36.1478 23.125 36.9166C22.718 37.4592 22.4919 38.0924 22.4014 38.7255C22.4466 40.5795 25.3408 40.9413 26.2452 41.0317C27.0592 41.077 27.828 41.2126 28.5515 41.3031C29.5464 41.3935 30.4961 41.5292 31.4909 41.5744Z" fill="#231F20"/>
<path d="M56.1819 28.8213C56.1819 28.8213 60.478 35.8759 59.4831 37.2777C58.4882 38.6796 55.3679 37.5943 55.3679 37.5943" fill="#FDFDFD"/>
<path d="M57.629 38.2729C56.815 38.2729 56.0462 38.1373 55.2775 37.8659C55.0966 37.8207 55.0061 37.6398 55.0966 37.4589C55.187 37.278 55.3227 37.1876 55.5036 37.278C56.3176 37.5494 58.5334 38.0468 59.257 37.0519C59.8448 36.1927 57.6742 31.8062 55.9558 28.9573C55.8653 28.8216 55.9106 28.5955 56.0915 28.5051C56.2271 28.4146 56.408 28.4598 56.4984 28.5955C57.222 29.8165 60.8397 35.9214 59.7544 37.4137C59.257 38.092 58.443 38.2729 57.629 38.2729Z" fill="#231F20"/>
<path d="M55.5488 19.6424C58.3525 22.1296 57.3125 27.1039 57.1768 30.3599C56.9507 34.9273 56.6341 39.4946 56.2271 44.062C55.9558 46.9562 48.449 46.7301 47.1376 45.8257L47.8611 57.3119L32.3049 50.6644L33.2998 41.2131C33.2998 41.2131 38.4098 41.4392 41.5753 35.6508C44.7409 29.8625 44.8313 17.0195 44.8313 17.0195C44.8313 17.0195 52.8355 17.2456 55.5488 19.6424Z" fill="#FDFDFD"/>
<path d="M47.9064 57.628C47.8612 57.628 47.8159 57.628 47.7707 57.5827L32.2145 50.9352C32.0788 50.8899 31.9884 50.7543 32.0336 50.6186L33.0285 41.1673C33.0285 40.9864 33.2094 40.896 33.345 40.896C33.5259 40.896 38.3194 41.0316 41.304 35.4694C44.3791 29.8167 44.5148 17.1094 44.5148 16.9738C44.5148 16.8833 44.56 16.7929 44.6052 16.7477C44.6504 16.7024 44.7409 16.6572 44.8313 16.6572C45.1479 16.6572 52.926 16.9286 55.7297 19.4157C58.1717 21.5864 57.8551 25.4754 57.5838 28.5957C57.5386 29.2288 57.4933 29.8167 57.4481 30.3594C57.222 34.9267 56.9055 39.5393 56.4985 44.0615C56.4533 44.6042 56.1367 45.4181 54.8705 46.006C52.7903 46.9557 49.0369 46.8652 47.4542 46.3226L48.1777 57.3114C48.2229 57.4471 48.0873 57.5827 47.9064 57.628ZM32.6667 50.4377L47.5446 56.814L46.8211 45.8251C46.8211 45.6895 46.8663 45.599 47.002 45.5086C47.0924 45.4634 47.2281 45.4634 47.3185 45.5086C48.1777 46.0965 52.4285 46.413 54.6444 45.4181C55.4132 45.0564 55.8654 44.6041 55.9106 44.0163C56.3176 39.4941 56.6341 34.8815 56.8602 30.3141C56.9055 29.7715 56.9507 29.1384 56.9959 28.5053C57.2672 25.5207 57.5386 21.8125 55.3679 19.868C53.0616 17.833 46.6854 17.3808 45.1931 17.2903C45.1479 19.3705 44.8313 30.4046 41.9371 35.7407C39.1786 40.8508 34.8374 41.3934 33.6616 41.4839L32.6667 50.4377Z" fill="#231F20"/>
<path d="M56.2724 40.6696C56.2724 40.6696 52.6546 42.7046 50.891 38.9512L56.2724 40.6696Z" fill="#FDFDFD"/>
<path d="M54.0565 41.5289C53.6495 41.5289 53.2877 41.4837 52.926 41.348C51.8406 40.9863 50.9814 40.1271 50.5744 39.087C50.484 38.9061 50.5744 38.7252 50.7101 38.68C50.891 38.5895 51.0719 38.68 51.1171 38.8156C51.4789 39.7201 52.2024 40.3984 53.1068 40.7602C54.5539 41.2124 56.0462 40.3984 56.0915 40.3984C56.2271 40.3079 56.4532 40.3984 56.4985 40.534C56.5437 40.6697 56.4985 40.8506 56.3628 40.941C55.6845 41.3028 54.8705 41.5289 54.0565 41.5289Z" fill="#231F20"/>
<path d="M37.3245 31.1743C37.1437 31.1743 37.008 31.0386 37.008 30.8577C37.008 30.8125 37.008 30.8125 37.008 30.7673C37.6411 28.5514 38.0933 28.5062 38.2742 28.5062C38.636 28.461 53.6947 26.6069 61.6085 25.6572C61.7894 25.6572 61.9251 25.7477 61.9703 25.9286C61.9703 26.1094 61.8799 26.2451 61.699 26.2903C60.7945 26.3808 39.6761 29.0036 38.4099 29.1393C38.0933 29.682 37.822 30.3151 37.6863 30.9482C37.5959 31.0838 37.4602 31.1743 37.3245 31.1743Z" fill="#231F20"/>
<path d="M47.2732 31.4C47.3184 30.2695 46.6853 29.1842 46.0975 28.1893C45.6905 27.4205 45.1478 26.697 44.5147 26.0639C43.8816 25.4308 42.9772 25.1142 42.0727 25.2047C41.304 25.3855 40.6257 25.883 40.2187 26.5613C39.8117 27.2396 39.5856 28.0084 39.5856 28.8224C39.3142 32.3044 40.897 35.6961 43.7459 37.6858L43.5198 37.4145" fill="#FDFDFD"/>
<path d="M43.7912 38.0019C43.746 38.0019 43.6555 38.0019 43.6103 37.9566C40.6257 35.8764 38.9977 32.3944 39.269 28.7767C39.3142 27.9174 39.5404 27.1035 39.9926 26.3799C40.4448 25.6111 41.1683 25.0685 42.0728 24.8876C43.0676 24.7519 44.0625 25.1137 44.786 25.792C45.4644 26.4251 46.007 27.1939 46.414 28.0079C46.9567 28.9575 47.635 30.0881 47.635 31.3543C47.635 31.5352 47.4993 31.6708 47.3185 31.6708C47.1376 31.6708 47.0019 31.5352 47.0019 31.3543C47.0471 30.269 46.414 29.1837 45.8714 28.3244C45.4644 27.5557 44.9669 26.8773 44.3338 26.2442C43.746 25.6564 42.9772 25.385 42.1632 25.4755C41.4849 25.6111 40.897 26.0634 40.5352 26.6965C40.1735 27.3296 39.9473 28.0531 39.9021 28.8219C39.676 31.9874 41.0327 35.1077 43.5198 37.0974C43.6103 37.0974 43.746 37.1426 43.7912 37.1879L44.0173 37.4592C44.1077 37.5949 44.1077 37.7757 43.9721 37.9114C43.9721 37.9566 43.8816 38.0019 43.7912 38.0019Z" fill="#231F20"/>
<path d="M54.9886 26.8336C55.3382 26.8281 55.6102 26.0948 55.5961 25.1958C55.582 24.2968 55.2871 23.5725 54.9375 23.5779C54.5879 23.5834 54.3159 24.3167 54.33 25.2157C54.3441 26.1147 54.639 26.8391 54.9886 26.8336Z" fill="#231F20"/>
<path d="M11.8648 131.294C11.8648 131.294 6.75473 72.9578 15.2112 61.0193C23.6676 49.0808 44.4695 47.1815 54.0565 54.8691C63.6434 62.5568 70.9693 131.836 70.9693 131.836C70.9693 131.836 39.1786 151.688 11.8648 131.294Z" fill="#FCCF5C"/>
<path d="M34.277 51.0801C41.417 50.1166 48.6259 51.4404 53.2994 54.916L53.7438 55.2588C54.838 56.1362 55.9617 57.9576 57.0758 60.5791C58.1808 63.179 59.2458 66.4914 60.2604 70.2686C62.289 77.8211 64.1009 87.183 65.6149 96.3174C67.1284 105.449 68.3422 114.343 69.1783 120.954C69.5964 124.259 69.9204 126.994 70.1393 128.901C70.2487 129.855 70.3314 130.603 70.3873 131.111C70.4078 131.297 70.4241 131.452 70.4371 131.572C70.4108 131.588 70.3832 131.605 70.3531 131.623C70.1179 131.761 69.7667 131.961 69.3102 132.21C68.3971 132.708 67.0597 133.399 65.3688 134.164C61.9857 135.696 57.1933 137.526 51.5563 138.724C40.3313 141.108 25.7975 140.976 12.3434 131.024C12.3344 130.918 12.3229 130.774 12.3082 130.595C12.2729 130.165 12.2213 129.534 12.1598 128.726C12.0367 127.109 11.8712 124.787 11.6979 121.962C11.3513 116.311 10.9769 108.655 10.8668 100.627C10.7567 92.597 10.9104 84.2067 11.6178 77.0859C11.9715 73.5253 12.4636 70.2917 13.1256 67.585C13.7898 64.8695 14.616 62.7244 15.6188 61.3086C19.7439 55.4849 26.9136 52.0738 34.277 51.0801Z" stroke="black" stroke-opacity="0.53"/>
<path d="M81.913 73.2304L82.32 70.0649C82.32 69.9292 82.5461 60.1614 83.4053 59.3926C84.2645 58.6238 95.1629 50.7101 95.9316 51.7954C96.7004 52.8807 95.1629 54.9157 95.1629 54.9157C95.1629 54.9157 97.7405 54.6443 97.4692 56.1819C97.1979 57.7194 95.6603 59.2569 95.6603 59.2569C95.6603 59.2569 97.2431 58.0812 97.4692 59.7544C97.6048 60.7493 97.1978 61.6989 96.4291 62.332C96.4291 62.332 98.7354 61.2919 98.2379 63.2364C97.7405 65.181 92.0878 70.0197 92.0878 70.0197L91.4095 74.1801L81.913 73.2304Z" fill="#FDFDFD"/>
<path d="M91.4095 74.541L81.8677 73.5461H81.8225C81.5512 73.5009 81.5512 73.5009 81.9129 70.6067L82.0034 70.0641C82.0034 70.0189 82.1843 60.1153 83.1791 59.2109C83.8575 58.623 93.8966 51.2067 95.7507 51.4328C95.9316 51.4328 96.0673 51.5232 96.1577 51.6589C96.7908 52.5633 96.1577 53.8748 95.7507 54.6435C96.3838 54.6435 97.0169 54.8244 97.4692 55.2314C97.7405 55.5027 97.8309 55.9097 97.7405 56.3167C97.5596 57.1759 97.1526 57.9447 96.6552 58.623C96.7908 58.623 96.9265 58.623 97.0622 58.7135C97.4691 58.9396 97.7405 59.3466 97.7405 59.7988C97.8309 60.5223 97.6953 61.2459 97.3335 61.8338C97.65 61.7885 98.0118 61.879 98.2831 62.0599C98.5997 62.3312 98.6901 62.7834 98.5093 63.4165C98.0118 65.3158 93.0827 69.6571 92.3591 70.2902L91.6808 74.3601C91.726 74.4506 91.5903 74.541 91.4095 74.541ZM82.2747 72.9583L91.1834 73.9079L91.8165 70.0189C91.8165 69.9284 91.8617 69.8832 91.9069 69.838C93.4444 68.4813 97.5596 64.6827 97.9214 63.1904C98.0118 62.8286 98.0118 62.6025 97.9214 62.5121C97.6953 62.3312 96.9717 62.5121 96.5647 62.693C96.4291 62.7834 96.203 62.7382 96.1125 62.5573C96.0221 62.4216 96.0673 62.1955 96.2482 62.1051C96.9265 61.5624 97.2883 60.7032 97.1526 59.844C97.1074 59.6179 97.0622 59.3466 96.836 59.2561C96.5195 59.1205 95.9768 59.437 95.8412 59.5727C95.7055 59.6631 95.5246 59.6631 95.4342 59.5275C95.2985 59.3918 95.2985 59.2109 95.4342 59.0752C95.4342 59.0752 96.8813 57.5829 97.1526 56.1811C97.1978 56.0002 97.1526 55.7741 97.0169 55.6384C96.61 55.2314 95.5246 55.2314 95.1629 55.2766C95.0272 55.2766 94.9367 55.2314 94.8463 55.0957C94.8011 55.0053 94.8011 54.8696 94.8463 54.734C95.2533 54.2365 96.1125 52.699 95.6151 51.9755C94.5298 51.6137 84.6714 58.6683 83.5409 59.6179C82.9078 60.251 82.5913 68.4361 82.5913 70.0641C82.5913 70.0641 82.546 70.3354 82.5008 70.6972C82.5008 71.2851 82.3199 72.4156 82.2747 72.9583Z" fill="#231F20"/>
<path d="M54.0565 53.9141C54.0565 53.9141 60.2066 57.6222 64.8192 66.1691C69.4318 74.716 76.7577 101.939 76.7577 101.939L80.2398 68.9276L93.7158 71.9575C93.7158 71.9575 94.8463 120.118 82.953 125.5C71.0598 130.881 43 77.5 43 77.5L54.0565 53.9141Z" fill="#FCCF5C"/>
<path d="M54.2627 54.6494C54.4087 54.7504 54.5869 54.8762 54.792 55.0283C55.4265 55.499 56.3241 56.2175 57.3652 57.2002C59.4479 59.1659 62.1025 62.1883 64.3789 66.4062C66.657 70.6274 69.6282 79.5187 72.04 87.4053C73.2427 91.338 74.3014 95.0051 75.0596 97.6885C75.4386 99.03 75.7431 100.126 75.9521 100.886C76.0566 101.266 76.1368 101.562 76.1914 101.763C76.2187 101.863 76.24 101.94 76.2539 101.991L76.2734 102.064C76.2739 102.066 76.2742 102.068 76.2744 102.068V102.069L77.2549 101.992L80.6777 69.5381L93.2227 72.3584C93.2234 72.404 93.2248 72.4535 93.2256 72.5068C93.2309 72.8594 93.2374 73.3781 93.2412 74.04C93.2489 75.3641 93.2469 77.2626 93.207 79.5576C93.1273 84.1489 92.8972 90.3238 92.2969 96.6631C91.696 103.007 90.7257 109.495 89.1729 114.721C88.3963 117.334 87.4796 119.613 86.4023 121.396C85.3228 123.181 84.106 124.429 82.7471 125.044C81.4533 125.629 79.8824 125.446 78.0439 124.534C76.2072 123.624 74.1791 122.022 72.0439 119.914C67.7773 115.702 63.1771 109.568 58.9316 103.239C54.6899 96.9164 50.817 90.4233 48.0039 85.5088C46.5977 83.0521 45.4571 80.9905 44.668 79.5439C44.2734 78.8207 43.9666 78.2508 43.7588 77.8623C43.6761 77.7078 43.6093 77.5818 43.5586 77.4863L54.2627 54.6494Z" stroke="black" stroke-opacity="0.64"/>
<path d="M29.049 53.377L30.5865 48.3574L50.7101 50.3019L51.8858 54.9145C51.8858 54.9145 41.3492 59.8889 29.049 53.377Z" fill="#FDFDFD"/>
<path d="M42.2537 57.0401C37.5958 57.0401 33.0285 55.8643 28.9133 53.6485C28.7776 53.558 28.7324 53.4224 28.7776 53.2867L30.3152 48.2671C30.3604 48.1315 30.4961 48.041 30.6317 48.041L50.7553 49.9855C50.891 49.9855 50.9814 50.076 51.0266 50.2117L52.2024 54.8242C52.2476 54.9599 52.1572 55.1408 52.0215 55.186C51.9763 55.2312 48.042 57.0401 42.2537 57.0401ZM29.4107 53.1963C40.3544 58.8942 49.8961 55.3669 51.4789 54.7338L50.4388 50.6186L30.7674 48.7193L29.4107 53.1963Z" fill="#231F20"/>
<path d="M84.0837 41.2578V42.4788C84.0837 42.6144 83.948 42.7501 83.8123 42.7501H82.4105C82.2748 42.7501 82.1391 42.6596 82.1391 42.4788V41.3482C81.5965 41.303 81.0538 41.2126 80.5112 41.1221C80.3755 41.0769 80.2851 40.9864 80.2851 40.8508V39.5846C80.2851 39.4489 80.3755 39.3585 80.5112 39.3585H80.5564C81.099 39.4037 82.3652 39.4941 82.9984 39.4941C83.9028 39.4941 84.1741 39.1776 84.1741 38.5897C84.1741 38.2279 83.9932 38.0018 83.3149 37.5948L81.5513 36.5547C80.3755 35.8312 80.0137 35.0624 80.0137 34.1128C80.0137 32.937 80.5564 31.9874 82.1844 31.716V30.6307C82.1844 30.495 82.32 30.3594 82.4557 30.3594H83.8576C83.9932 30.3594 84.1289 30.495 84.1289 30.6307V31.6708C84.762 31.716 85.3951 31.8065 85.983 31.8969C86.1186 31.9421 86.2091 32.0326 86.2091 32.123V33.3892C86.2091 33.5249 86.1186 33.6153 85.983 33.6153H85.9378C85.1238 33.5249 84.0837 33.4797 83.2245 33.4797C82.5009 33.4797 82.2296 33.7058 82.2296 34.158C82.2296 34.4745 82.4105 34.7006 83.0888 35.0624L84.7168 35.9668C86.0282 36.6904 86.4804 37.5044 86.4804 38.5897C86.4804 39.7202 85.8473 40.896 84.0837 41.2578Z" fill="#FCCF5C"/>
<defs>
<filter id="filter0_d_1134_12234" x="0" y="0" width="168" height="174" filterUnits="userSpaceOnUse" color-interpolation-filters="sRGB">
<feFlood flood-opacity="0" result="BackgroundImageFix"/>
<feColorMatrix in="SourceAlpha" type="matrix" values="0 0 0 0 0 0 0 0 0 0 0 0 0 0 0 0 0 0 127 0" result="hardAlpha"/>
<feOffset dy="10"/>
<feGaussianBlur stdDeviation="2"/>
<feComposite in2="hardAlpha" operator="out"/>
<feColorMatrix type="matrix" values="0 0 0 0 0 0 0 0 0 0 0 0 0 0 0 0 0 0 0.1 0"/>
<feBlend mode="normal" in2="BackgroundImageFix" result="effect1_dropShadow_1134_12234"/>
<feBlend mode="normal" in="SourceGraphic" in2="effect1_dropShadow_1134_12234" result="shape"/>
</filter>
</defs>
</svg>
