<svg width="313" height="178" viewBox="0 0 313 178" fill="none" xmlns="http://www.w3.org/2000/svg">
<g filter="url(#filter0_d_1134_12233)">
<rect x="10" y="6" width="293" height="158" rx="69" fill="#FDFDFD"/>
</g>
<path d="M270.1 69.1002C270.1 96.5502 247.85 118.8 220.4 118.8C192.95 118.8 170.7 96.5502 170.7 69.1002C170.7 41.6502 192.95 19.4002 220.4 19.4002C247.7 19.2502 270 41.3002 270.1 68.6002C270.1 68.7502 270.1 68.9502 270.1 69.1002Z" fill="#FDFDFD"/>
<path d="M220.35 19.4004C247.8 19.4004 270.05 41.6504 270.05 69.1004C270.05 96.5504 247.8 118.8 220.35 118.8C192.9 118.8 170.65 96.5504 170.65 69.1004C170.65 41.6504 192.9 19.4004 220.35 19.4004ZM220.35 18.6504C192.5 18.7004 169.95 41.2504 169.9 69.1004C170.2 96.9504 193 119.3 220.85 119.05C248.3 118.8 270.5 96.6004 270.8 69.1004C270.8 41.2504 248.2 18.7004 220.35 18.6504Z" fill="#231F20"/>
<path d="M238.5 62.0501C238.5 62.0501 239.3 40.3501 238.5 38.7501C237.7 37.1501 199.2 29.6001 199.55 30.5501C199.9 31.5001 201.3 34.4501 201.3 34.4501L196.2 35.8501L201.4 38.5501L196.25 40.9001L203.05 44.1501L203.55 62.6501L238.5 62.0501Z" fill="#FCCF5C"/>
<path d="M203.5 63.0507C203.3 63.0507 203.15 62.9007 203.15 62.7007L202.65 44.4007L196.05 41.2507C195.85 41.1507 195.8 40.9507 195.9 40.7507C195.95 40.7007 196 40.6007 196.05 40.6007L200.55 38.5507L196.05 36.2007C195.9 36.1507 195.85 36.0007 195.85 35.8507C195.85 35.7007 195.95 35.6007 196.1 35.5507L200.8 34.3007C200.4 33.4507 199.55 31.5507 199.25 30.7507C199.2 30.5507 199.3 30.3507 199.45 30.2507C200.65 29.7007 219.15 33.5007 219.3 33.5507C227.9 35.3007 238.3 37.6507 238.8 38.6507C239.6 40.2507 238.9 59.9007 238.85 62.1507C238.85 62.3507 238.7 62.5007 238.5 62.5007L203.5 63.0507ZM197.05 40.9007L203.15 43.8007C203.25 43.8507 203.35 44.0007 203.35 44.1007L203.85 62.2507L238.15 61.6007C238.45 52.9007 238.7 39.9007 238.15 38.8007C237.7 38.3007 231.5 36.6007 219.05 34.0507C209.25 32.0507 201.8 30.8007 200.05 30.7007C200.55 31.9007 201.6 34.1507 201.6 34.2007C201.65 34.3007 201.65 34.4007 201.6 34.5007C201.55 34.6007 201.45 34.6507 201.35 34.7007L197.15 35.8507L201.5 38.1007C201.6 38.1507 201.7 38.3007 201.7 38.4507C201.7 38.6007 201.6 38.7007 201.5 38.7507L197.05 40.9007Z" fill="#231F20"/>
<path d="M259.25 100.051C251 110.401 239 117.051 225.85 118.501C222.2 118.901 218.55 118.901 214.9 118.501C201.75 117.051 189.7 110.401 181.5 100.051C187.5 95.9008 195.3 91.5008 204.15 88.9008C214.75 85.6008 226.05 85.6008 236.65 88.9008C245.5 91.5508 253.25 95.9008 259.25 100.051Z" fill="#FCCF5C"/>
<path d="M232.6 62.8502C233.55 56.9502 243.35 55.5002 242.85 62.4502C242.7 64.8502 241.9 67.3002 240.25 69.0002C238.6 70.7002 235.85 71.5002 233.65 70.5502" fill="#FDFDFD"/>
<path d="M235.7 71.3C234.95 71.3 234.2 71.15 233.5 70.85C233.3 70.75 233.25 70.55 233.3 70.35C233.4 70.15 233.6 70.1 233.8 70.15C235.75 71 238.3 70.4 240 68.7C241.85 66.8 242.4 64.25 242.5 62.4C242.65 60 241.5 58.4 239.35 58.15C236.75 57.85 233.45 59.7 232.95 62.85C232.9 63.05 232.75 63.2 232.55 63.15C232.35 63.1 232.2 62.95 232.25 62.75C232.8 59.2 236.5 57.1 239.45 57.45C241.45 57.65 243.45 59.1 243.25 62.45C243.1 64.4 242.55 67.2 240.55 69.2C239.25 70.55 237.5 71.3 235.7 71.3Z" fill="#231F20"/>
<path d="M208.15 62.8502C207.2 56.9502 197.4 55.5002 197.9 62.4502C198.05 64.8502 198.85 67.3002 200.5 69.0002C202.15 70.7002 204.9 71.5002 207.1 70.5502" fill="#FDFDFD"/>
<path d="M205 71.3008C203.2 71.2508 201.45 70.5508 200.2 69.2508C198.2 67.2008 197.6 64.4508 197.5 62.5008C197.25 59.1508 199.3 57.7008 201.3 57.5008C204.25 57.1508 207.95 59.2508 208.5 62.8008C208.5 63.0008 208.35 63.1508 208.15 63.2008C207.95 63.2008 207.8 63.1008 207.75 62.9008C207.25 59.7508 203.95 57.9008 201.35 58.2008C199.2 58.4508 198.05 60.0508 198.2 62.4508C198.35 64.3008 198.85 66.9008 200.7 68.7508C202.4 70.5008 204.95 71.1008 206.9 70.2008C207.1 70.1008 207.3 70.2008 207.4 70.3508C207.5 70.5508 207.4 70.7508 207.2 70.8008C206.55 71.1508 205.8 71.3008 205 71.3008Z" fill="#231F20"/>
<path d="M209.45 92.4002C209.45 92.4002 212.1 98.2002 219.85 98.2002C227.6 98.2002 230.75 92.4002 230.75 92.4002L229.7 69.7002H210.5L209.45 92.4002Z" fill="#FDFDFD"/>
<path d="M219.85 98.5008C211.95 98.5008 209.15 92.5508 209.1 92.5008C209.1 92.4508 209.05 92.4008 209.05 92.3508L210.1 69.6508C210.1 69.4508 210.25 69.3008 210.45 69.3008H229.65C229.85 69.3008 230 69.4508 230 69.6508L231.05 92.3508C231.05 92.4008 231.05 92.5008 231 92.5508C228.6 96.3508 224.4 98.6008 219.85 98.5008ZM209.8 92.3008C210.15 93.0008 212.8 97.8008 219.85 97.8008C224.05 97.9008 228.05 95.8008 230.35 92.3008L229.35 70.0508H210.85L209.8 92.3008Z" fill="#231F20"/>
<path d="M210.5 79.4C211.85 81.55 214.05 83.25 216.3 84.5C220.1 86.6 225.8 88.95 230.4 88.25L229.65 78.65C226.25 79.05 222.85 79.1 219.45 78.7C216.45 78.45 213.4 78.15 210.65 77C210.2 76.8 209.9 78.45 210.5 79.4Z" fill="#231F20"/>
<path d="M228.65 88.7004C224 88.7004 218.95 86.3004 216.15 84.7504C213.35 83.2004 211.4 81.4504 210.2 79.5504C209.65 78.7004 209.75 77.3504 210.15 76.8504C210.3 76.6504 210.6 76.6004 210.8 76.7004C213.55 77.8504 216.7 78.1504 219.5 78.4004C222.85 78.8004 226.25 78.7504 229.6 78.3504C229.7 78.3504 229.8 78.3504 229.85 78.4004C229.9 78.4504 229.95 78.5504 230 78.6504L230.75 88.2504C230.75 88.4504 230.65 88.6004 230.45 88.6004C229.85 88.7004 229.25 88.7004 228.65 88.7004ZM210.65 77.4004C210.45 78.0004 210.5 78.6504 210.8 79.2504C211.95 81.1004 213.85 82.7504 216.5 84.2004C219.55 85.9004 225.25 88.5504 230.05 87.9504L229.35 79.0504C226.05 79.4004 222.75 79.4004 219.45 79.0504C216.65 78.8004 213.45 78.5504 210.65 77.4004Z" fill="#231F20"/>
<path d="M219.6 80.9004H221.2C228.7 80.9004 234.75 74.8504 234.75 67.3504V45.9004H206.1V67.3504C206.05 74.8504 212.1 80.9004 219.6 80.9004Z" fill="#FDFDFD"/>
<path d="M234.7 45.9002V67.3502C234.7 74.8502 228.65 80.9002 221.15 80.9002H219.55C212.05 80.9002 206 74.8502 206 67.3502V45.9002H234.7ZM234.7 45.2002H206.05C205.65 45.2002 205.3 45.5002 205.3 45.9002V67.3502C205.3 75.2502 211.7 81.6002 219.55 81.6002H221.15C229.05 81.6002 235.4 75.2002 235.4 67.3502V45.9002C235.45 45.5002 235.1 45.2002 234.7 45.2002Z" fill="#231F20"/>
<path d="M220.6 67.5C219.95 67.5 219.3 67.45 218.65 67.4C218.4 67.35 218.15 67.2 218 66.95C217 65.3 219.65 58.2 220.2 56.75C220.25 56.55 220.5 56.45 220.65 56.55C220.85 56.6 220.95 56.85 220.85 57C219.65 60.15 218 65.5 218.6 66.55C218.6 66.6 218.65 66.65 218.7 66.65C220 66.8 221.25 66.8 222.55 66.65C222.75 66.6 222.9 66.75 222.95 66.95C223 67.15 222.85 67.35 222.65 67.35C221.95 67.45 221.3 67.5 220.6 67.5Z" fill="#231F20"/>
<path d="M243.95 113.15H243.9C243.7 113.15 243.55 112.95 243.6 112.75L245.3 99.7999C245.35 99.5999 245.5 99.4499 245.7 99.4999C245.9 99.5499 246.05 99.6999 246 99.8999L244.3 112.85C244.3 113 244.15 113.15 243.95 113.15Z" fill="#231F20"/>
<path d="M196.8 113.15C196.6 113.15 196.45 113 196.45 112.85L194.75 99.8999C194.75 99.6999 194.85 99.4999 195.05 99.4999C195.25 99.4499 195.45 99.5999 195.45 99.7999L197.15 112.75C197.2 112.95 197.05 113.15 196.85 113.15H196.8Z" fill="#231F20"/>
<path d="M143.15 69.1002C143.15 96.5502 120.9 118.8 93.45 118.8C66 118.8 43.75 96.5502 43.75 69.1002C43.75 41.6502 66 19.4002 93.45 19.4002C120.75 19.2502 143.05 41.3002 143.15 68.6002C143.15 68.7502 143.15 68.9502 143.15 69.1002Z" fill="#FDFDFD"/>
<path d="M93.45 19.4004C120.9 19.4004 143.15 41.6504 143.15 69.1004C143.15 96.5504 120.9 118.8 93.45 118.8C66 118.8 43.75 96.5504 43.75 69.1004C43.7 41.6504 65.95 19.4004 93.45 19.4004ZM93.45 18.6504C65.6 18.7004 43.05 41.2504 43 69.1004C43 96.9504 65.6 119.55 93.45 119.55C121.3 119.25 143.65 96.4504 143.4 68.6004C143.1 41.1504 120.9 18.9504 93.45 18.6504Z" fill="#231F20"/>
<path d="M65.45 83.9006C65.45 55.4506 69.3 32.3506 93.15 32.3506C117 32.3506 120.85 55.4506 120.85 83.9006H65.45Z" fill="#FCCF5C"/>
<path d="M120.85 84.3008H65.45C65.25 84.3008 65.1 84.1508 65.1 83.9508C65.1 72.3508 65.65 57.7008 70.05 47.3508C74.45 37.0008 82 32.0508 93.2 32.0508C117.85 32.0508 121.3 57.0008 121.3 83.9508C121.25 84.1008 121.05 84.3008 120.85 84.3008ZM65.8 83.5508H120.5C120.5 72.0508 119.9 57.7008 115.6 47.6008C111.35 37.6008 104 32.7008 93.15 32.7008C82.3 32.7008 74.9 37.5508 70.7 47.6008C66.4 57.7008 65.8 72.1008 65.8 83.5508Z" fill="#231F20"/>
<path d="M132.3 100.05C124.05 110.4 112.05 117.05 98.9 118.5C95.25 118.9 91.6001 118.9 87.9501 118.5C74.8001 117.05 62.75 110.4 54.55 100.05C60.55 95.9002 68.35 91.5002 77.2 88.9002C82.45 87.3002 87.9501 86.4502 93.4501 86.4502C98.9501 86.5002 104.45 87.3002 109.7 88.9002C118.55 91.5502 126.35 95.9002 132.3 100.05Z" fill="#FCCF5C"/>
<path d="M105.65 62.8502C106.6 56.9502 116.4 55.5002 115.9 62.4502C115.75 64.8502 114.95 67.3002 113.3 69.0002C111.65 70.7002 108.9 71.5002 106.75 70.5502" fill="#FDFDFD"/>
<path d="M108.8 71.3002C108.05 71.3002 107.3 71.1502 106.6 70.8502C106.4 70.7502 106.35 70.5502 106.4 70.3502C106.45 70.1502 106.7 70.1002 106.9 70.1502C108.85 71.0002 111.4 70.4002 113.1 68.7002C114.95 66.8002 115.5 64.2502 115.6 62.4002C115.75 60.0002 114.6 58.4002 112.45 58.1502C109.85 57.8502 106.55 59.7002 106.05 62.8502C106 63.0502 105.8 63.1502 105.6 63.1002C105.4 63.0502 105.3 62.9002 105.3 62.7002C105.85 59.1502 109.55 57.0502 112.5 57.4002C114.5 57.6002 116.5 59.0502 116.3 62.4002C116.15 64.3502 115.6 67.1502 113.6 69.1502C112.3 70.5502 110.6 71.3002 108.8 71.3002Z" fill="#231F20"/>
<path d="M81.2 62.8502C80.25 56.9502 70.45 55.5002 70.95 62.4502C71.1 64.8502 71.9 67.3002 73.55 69.0002C75.2 70.7002 77.95 71.5002 80.15 70.5502" fill="#FDFDFD"/>
<path d="M78.1 71.3008C76.3 71.2508 74.55 70.5508 73.3 69.2508C71.3 67.2008 70.7 64.4508 70.6 62.5008C70.35 59.1508 72.4 57.7008 74.4 57.5008C77.35 57.1508 81.05 59.2508 81.6 62.8008C81.65 63.0008 81.5 63.2008 81.3 63.2008C81.1 63.2508 80.9 63.1008 80.9 62.9008C80.4 59.7508 77.1 57.9008 74.5 58.2008C72.35 58.4508 71.2 60.0508 71.35 62.4508C71.45 64.3008 72 66.9008 73.85 68.7508C75.55 70.5008 78.1 71.1008 80 70.2008C80.2 70.1008 80.4 70.2008 80.5 70.4008C80.6 70.6008 80.5 70.8008 80.3 70.9008C79.6 71.1508 78.85 71.3008 78.1 71.3008Z" fill="#231F20"/>
<path d="M84.4 92.4002C84.4 92.4002 86.6 98.2002 92.95 98.2002C98.05 98.2002 101.9 92.4002 101.9 92.4002L101.05 69.7002H85.3L84.4 92.4002Z" fill="#FDFDFD"/>
<path d="M92.95 98.5008C86.4 98.5008 84.1 92.5508 84.05 92.5008C84.05 92.4508 84.05 92.4008 84.05 92.3508L84.9 69.6508C84.9 69.4508 85.05 69.3008 85.25 69.3008H101.05C101.25 69.3008 101.4 69.4508 101.4 69.6508L102.25 92.3508C102.25 92.4508 102.25 92.5008 102.2 92.5508C102.05 92.8008 98.15 98.5008 92.95 98.5008ZM84.8 92.3008C85.05 92.9508 87.25 97.8008 93 97.8008C97.5 97.8008 101.05 93.0008 101.6 92.2508L100.75 70.0008H85.65L84.8 92.3008Z" fill="#231F20"/>
<path d="M85.25 79.4C86.4 81.5 88.05 83.25 90 84.5C93.1 86.6 97.8 88.95 101.6 88.25L101 78.65C98.25 79.05 95.4 79.1 92.65 78.7C90.2 78.45 87.65 78.15 85.45 77C85 76.8 84.8 78.45 85.25 79.4Z" fill="#231F20"/>
<path d="M100.2 88.7005C96.35 88.7005 92.15 86.3005 89.85 84.7505C87.8 83.4505 86.1 81.6505 84.95 79.5505C84.5 78.6505 84.6 77.2005 85 76.8005C85.15 76.6505 85.4 76.6005 85.6 76.7005C87.8 77.8505 90.4 78.1005 92.7 78.3505C95.45 78.7505 98.25 78.7005 100.95 78.3005C101.15 78.2505 101.35 78.4005 101.35 78.6005C101.35 78.6005 101.35 78.6005 101.35 78.6505L101.95 88.2505C101.95 88.4005 101.85 88.6005 101.65 88.6005C101.2 88.7005 100.7 88.7005 100.2 88.7005ZM85.45 77.4005C85.3 78.0005 85.35 78.6505 85.6 79.2005C86.7 81.2005 88.3 82.9505 90.25 84.1505C92.7 85.8005 97.35 88.4505 101.3 87.9005L100.75 79.0005C98.05 79.3505 95.35 79.3505 92.65 79.0005C90.3 78.8005 87.75 78.5505 85.45 77.4005Z" fill="#231F20"/>
<path d="M107.75 56.0504V67.3504C107.75 74.8504 101.7 80.9004 94.2 80.9004H92.6C85.1 80.9004 79.05 74.8504 79.05 67.3504V56.0004C79.05 56.0004 83.7 54.6004 88.55 45.1504C98.15 56.1504 107.75 56.0504 107.75 56.0504Z" fill="#FDFDFD"/>
<path d="M94.2 81.25H92.6C84.95 81.25 78.7 75 78.7 67.35V56C78.7 55.85 78.8 55.7 78.95 55.65C79 55.65 83.55 54.15 88.25 44.95C88.3 44.85 88.4 44.75 88.55 44.75C88.65 44.75 88.8 44.8 88.85 44.85C98.15 55.6 107.55 55.7 107.75 55.7C107.85 55.7 107.95 55.75 108 55.8C108.05 55.85 108.1 55.95 108.1 56.05V67.35C108.1 75.05 101.9 81.25 94.2 81.25ZM79.45 56.2V67.35C79.45 74.65 85.35 80.5 92.65 80.55H94.25C101.55 80.55 107.4 74.65 107.45 67.35V56.4C105.6 56.3 97.25 55.35 88.75 45.7C84.5 53.7 80.5 55.8 79.45 56.2Z" fill="#231F20"/>
<path d="M93.65 67.5C93 67.5 92.35 67.45 91.7 67.4C91.45 67.35 91.2 67.2 91.05 66.95C90.05 65.3 92.7 58.2 93.25 56.75C93.3 56.55 93.5 56.45 93.7 56.5C93.9 56.55 94 56.75 93.95 56.95V57C92.75 60.15 91.1 65.5 91.7 66.55C91.75 66.6 91.8 66.65 91.8 66.65C93.1 66.8 94.35 66.8 95.65 66.65C95.85 66.6 96.05 66.75 96.05 66.95C96.1 67.15 95.95 67.35 95.75 67.35C95.05 67.45 94.35 67.5 93.65 67.5Z" fill="#231F20"/>
<path d="M117 113.15H116.95C116.75 113.1 116.6 112.95 116.65 112.75L118.4 99.7999C118.45 99.5999 118.6 99.4499 118.8 99.4999C119 99.5499 119.15 99.6999 119.1 99.8999L117.4 112.85C117.35 113 117.2 113.15 117 113.15Z" fill="#231F20"/>
<path d="M69.85 113.15C69.65 113.15 69.5 113 69.5 112.85L67.8 99.8999C67.75 99.6999 67.9 99.4999 68.1 99.4999C68.3 99.4499 68.5 99.5999 68.5 99.7999L70.2 112.75C70.25 112.95 70.1 113.15 69.9 113.15C69.9 113.15 69.9 113.15 69.85 113.15Z" fill="#231F20"/>
<path d="M53.1 131.399H133.75C138.1 131.399 141.65 134.949 141.65 139.299V141.099C141.65 145.449 138.1 148.999 133.75 148.999H53.1C48.75 148.999 45.2 145.449 45.2 141.099V139.299C45.2 134.949 48.75 131.399 53.1 131.399Z" fill="#FCCF5C"/>
<path d="M133.75 149.35H53.1C48.55 149.35 44.85 145.65 44.85 141.1V139.3C44.85 134.75 48.55 131.05 53.1 131.05H133.75C138.3 131.05 142 134.75 142 139.3V141.1C142 145.65 138.3 149.35 133.75 149.35ZM53.1 131.75C48.95 131.75 45.55 135.1 45.55 139.3V141.1C45.55 145.25 48.95 148.65 53.1 148.65H133.75C137.9 148.65 141.3 145.25 141.3 141.1V139.3C141.3 135.15 137.9 131.75 133.75 131.75H53.1Z" fill="#D1D3D4"/>
<path d="M124.9 144.8H61.95C61.75 144.8 61.6 144.65 61.6 144.45C61.6 144.25 61.75 144.1 61.95 144.1H124.9C125.1 144.1 125.25 144.25 125.25 144.45C125.25 144.65 125.1 144.8 124.9 144.8Z" fill="#D1D3D4"/>
<path d="M180.05 131.399H260.7C265.05 131.399 268.6 134.949 268.6 139.299V141.099C268.6 145.449 265.05 148.999 260.7 148.999H180.05C175.7 148.999 172.15 145.449 172.15 141.099V139.299C172.15 134.949 175.7 131.399 180.05 131.399Z" fill="#FCCF5C"/>
<path d="M260.7 149.35H180.05C175.5 149.35 171.8 145.65 171.8 141.1V139.3C171.8 134.75 175.5 131.05 180.05 131.05H260.7C265.25 131.05 268.95 134.75 268.95 139.3V141.1C268.95 145.65 265.25 149.35 260.7 149.35ZM180.05 131.75C175.9 131.75 172.5 135.1 172.5 139.3V141.1C172.5 145.25 175.9 148.65 180.05 148.65H260.7C264.85 148.65 268.25 145.25 268.25 141.1V139.3C268.25 135.15 264.85 131.75 260.7 131.75H180.05Z" fill="#D1D3D4"/>
<path d="M251.85 144.8H188.9C188.7 144.8 188.55 144.65 188.55 144.45C188.55 144.25 188.7 144.1 188.9 144.1H251.85C252.05 144.1 252.2 144.25 252.2 144.45C252.2 144.65 252.05 144.8 251.85 144.8Z" fill="#D1D3D4"/>
<path d="M124.4 121.6C131.911 121.6 138 115.511 138 108C138 100.489 131.911 94.4004 124.4 94.4004C116.889 94.4004 110.8 100.489 110.8 108C110.8 115.511 116.889 121.6 124.4 121.6Z" fill="#FDFDFD"/>
<path d="M124.4 94.4004C131.9 94.4004 138 100.5 138 108C138 115.5 131.9 121.6 124.4 121.6C116.9 121.6 110.8 115.5 110.8 108C110.8 100.5 116.9 94.4004 124.4 94.4004ZM124.4 93.6504C116.5 93.6504 110.05 100.05 110.05 108C110.05 115.9 116.45 122.35 124.4 122.35C132.3 122.35 138.75 115.95 138.75 108C138.75 100.1 132.3 93.6504 124.4 93.6504Z" fill="#231F20"/>
<path d="M131.6 106.7H125.7V100.8C125.7 100.3 125.3 99.9004 124.8 99.9004H123.95C123.45 99.9004 123.05 100.3 123.05 100.8V106.7H117.15C116.65 106.7 116.25 107.1 116.25 107.6V108.45C116.25 108.95 116.65 109.35 117.15 109.35H123.05V115.25C123.05 115.75 123.45 116.15 123.95 116.15H124.8C125.3 116.15 125.7 115.75 125.7 115.25V109.35H131.6C132.1 109.35 132.5 108.95 132.5 108.45V107.6C132.5 107.1 132.1 106.7 131.6 106.7Z" fill="#D1D3D4"/>
<path d="M252.45 121.6C259.961 121.6 266.05 115.511 266.05 108C266.05 100.489 259.961 94.4004 252.45 94.4004C244.939 94.4004 238.85 100.489 238.85 108C238.85 115.511 244.939 121.6 252.45 121.6Z" fill="#FDFDFD"/>
<path d="M252.45 94.4004C259.95 94.4004 266.05 100.5 266.05 108C266.05 115.5 259.95 121.6 252.45 121.6C244.95 121.6 238.85 115.5 238.85 108C238.85 100.5 244.95 94.4004 252.45 94.4004ZM252.45 93.6504C244.55 93.6504 238.1 100.05 238.1 108C238.1 115.95 244.5 122.35 252.45 122.35C260.35 122.35 266.8 115.95 266.8 108C266.75 100.1 260.35 93.7004 252.45 93.6504Z" fill="#231F20"/>
<path d="M259.65 106.7H253.75V100.8C253.75 100.3 253.35 99.9004 252.85 99.9004H252C251.5 99.9004 251.1 100.3 251.1 100.8V106.7H245.2C244.7 106.7 244.3 107.1 244.3 107.6V108.45C244.3 108.95 244.7 109.35 245.2 109.35H251.1V115.25C251.1 115.75 251.5 116.15 252 116.15H252.85C253.35 116.15 253.75 115.75 253.75 115.25V109.35H259.65C260.15 109.35 260.55 108.95 260.55 108.45V107.6C260.55 107.1 260.15 106.7 259.65 106.7Z" fill="#D1D3D4"/>
<defs>
<filter id="filter0_d_1134_12233" x="0" y="0" width="313" height="178" filterUnits="userSpaceOnUse" color-interpolation-filters="sRGB">
<feFlood flood-opacity="0" result="BackgroundImageFix"/>
<feColorMatrix in="SourceAlpha" type="matrix" values="0 0 0 0 0 0 0 0 0 0 0 0 0 0 0 0 0 0 127 0" result="hardAlpha"/>
<feOffset dy="4"/>
<feGaussianBlur stdDeviation="5"/>
<feComposite in2="hardAlpha" operator="out"/>
<feColorMatrix type="matrix" values="0 0 0 0 0 0 0 0 0 0 0 0 0 0 0 0 0 0 0.1 0"/>
<feBlend mode="normal" in2="BackgroundImageFix" result="effect1_dropShadow_1134_12233"/>
<feBlend mode="normal" in="SourceGraphic" in2="effect1_dropShadow_1134_12233" result="shape"/>
</filter>
</defs>
</svg>
