<svg width="168" height="174" viewBox="0 0 168 174" fill="none" xmlns="http://www.w3.org/2000/svg">
<g filter="url(#filter0_d_1134_12232)">
<circle cx="84" cy="80" r="80" fill="#FAFAFA"/>
</g>
<path d="M45.0415 127.203C45.0415 127.203 52.144 111.088 54.0023 104.816C55.8605 98.5445 55.3237 79.8487 55.3237 79.8487L60.4441 66.9482C60.4441 66.9482 96.4523 38.8451 106.941 32.7719C117.43 26.6988 130.065 17.2517 133.782 19.3554C137.498 21.4592 136.838 26.0637 132.46 30.6682C130.685 32.5735 128.249 34.5581 126.762 36.6222C125.564 38.3291 124.037 43.6083 125.482 45.5136C127.216 47.7762 131.717 44.4816 134.154 46.7044C135.434 47.8556 135.351 49.9196 134.484 51.428C133.617 52.9363 132.213 53.9684 130.85 55.0798C127.299 58.0172 124.284 61.7087 121.476 65.2414C118.586 68.8932 120.238 74.0534 120.485 78.261C120.774 83.3418 121.518 89.4546 119.99 94.4163C117.595 102.395 103.514 112.239 97.402 117.28C91.2906 122.321 86.1701 139.111 86.1701 139.111L45.0415 127.203Z" fill="#FDFDFD"/>
<path d="M86.1702 139.428C86.1289 139.428 86.0876 139.428 86.0876 139.428L44.959 127.52C44.8764 127.48 44.7938 127.441 44.7525 127.361C44.7112 127.282 44.7112 127.203 44.7525 127.123C44.8351 126.964 51.8551 110.968 53.672 104.776C55.4889 98.5834 54.9521 80.0861 54.9521 79.9274C54.9521 79.8877 54.9521 79.848 54.9934 79.8083L60.1138 66.9078C60.1551 66.8681 60.1551 66.8284 60.1964 66.7887C60.5681 66.5109 96.3285 38.6062 106.735 32.5727C109.377 31.0643 112.144 29.2781 114.869 27.5713C123.5 22.1333 130.974 17.4494 133.906 19.1165C135.269 19.831 136.177 21.1012 136.425 22.5699C136.796 24.9912 135.475 27.9682 132.667 30.9453C132.048 31.6201 131.346 32.2552 130.644 32.93C129.322 34.1208 128.083 35.4307 127.01 36.8596C125.812 38.5665 124.408 43.687 125.73 45.3938C126.473 46.3464 127.877 46.148 129.446 45.8701C131.098 45.5923 132.997 45.3144 134.36 46.5449C135.805 47.8548 135.64 50.1173 134.773 51.6257C133.988 52.9753 132.791 53.9676 131.593 54.96L131.098 55.3966C127.588 58.334 124.573 61.9858 121.807 65.5185C119.659 68.2177 120.114 71.7901 120.568 75.2832C120.692 76.3549 120.816 77.3473 120.898 78.3396C120.94 79.1335 120.981 79.9274 121.063 80.7609C121.353 85.2463 121.683 90.3271 120.403 94.6141C118.379 101.362 108.097 109.46 101.284 114.778C99.9623 115.811 98.7235 116.803 97.7325 117.597C91.7862 122.519 86.6244 139.111 86.5832 139.27C86.5419 139.349 86.5006 139.428 86.418 139.468C86.2941 139.428 86.2528 139.428 86.1702 139.428ZM45.4958 127.004L85.9637 138.714C86.707 136.332 91.4971 121.765 97.1957 117.041C98.1867 116.207 99.4668 115.255 100.747 114.183C107.478 108.904 117.677 100.886 119.659 94.3362C120.898 90.1684 120.568 85.1272 120.279 80.7212C120.238 79.8877 120.155 79.0938 120.114 78.2999C120.072 77.3473 119.949 76.3549 119.783 75.2832C119.37 71.8695 118.875 67.9795 121.146 65.0819C123.954 61.5095 127.01 57.8179 130.561 54.8409L131.057 54.4043C132.213 53.4516 133.369 52.499 134.112 51.2685C134.856 49.9586 135.021 48.0533 133.823 46.9419C132.708 45.9495 131.057 46.1877 129.487 46.4655C127.836 46.7434 126.101 46.9815 125.11 45.7113C123.5 43.6473 125.152 38.1298 126.39 36.4627C127.505 35.0337 128.744 33.6841 130.107 32.4536C130.809 31.7788 131.511 31.104 132.13 30.4689C134.773 27.6904 136.053 24.8324 135.723 22.6493C135.516 21.3791 134.69 20.2677 133.534 19.6326C130.933 18.1639 122.922 23.205 115.158 28.0476C112.433 29.7545 109.666 31.501 107.024 33.049C96.9066 38.9237 62.4263 65.7964 60.6506 67.1857L55.5715 79.967C55.6128 81.3563 56.067 98.8216 54.2501 104.974C52.5984 110.65 46.4869 124.702 45.4958 127.004Z" fill="#231F20"/>
<path d="M79.811 2.64258H125.647C127.505 2.64258 128.992 4.07155 128.992 5.85777V100.051C128.992 101.837 127.505 103.266 125.647 103.266H79.811C77.9528 103.266 76.4662 101.837 76.4662 100.051V5.85777C76.4662 4.11125 77.9941 2.64258 79.811 2.64258Z" fill="#FDFDFD"/>
<path d="M125.647 103.585H79.8109C77.7875 103.585 76.1357 101.997 76.1357 100.052V5.85892C76.1357 3.91392 77.7875 2.32617 79.8109 2.32617H125.647C127.67 2.32617 129.322 3.91392 129.322 5.85892V100.052C129.322 101.997 127.67 103.585 125.647 103.585ZM79.8109 2.96127C78.1591 2.96127 76.7964 4.27117 76.7964 5.85892V100.052C76.7964 101.64 78.1591 102.95 79.8109 102.95H125.647C127.299 102.95 128.661 101.64 128.661 100.052V5.85892C128.661 4.27117 127.299 2.96127 125.647 2.96127H79.8109Z" fill="#231F20"/>
<path d="M126.349 11.7334H79.3567V89.1759H126.349V11.7334Z" fill="#FCCF5C"/>
<path d="M107.767 100.528H98.8474C97.526 100.528 96.4524 99.4959 96.4524 98.2257V94.9311C96.4524 93.6609 97.526 92.6289 98.8474 92.6289H107.767C109.088 92.6289 110.162 93.6609 110.162 94.9311V98.2257C110.121 99.4959 109.088 100.528 107.767 100.528ZM98.8061 93.264C97.8564 93.264 97.0718 94.0182 97.0718 94.9311V98.2257C97.0718 99.1387 97.8564 99.8929 98.8061 99.8929H107.726C108.675 99.8929 109.46 99.1387 109.46 98.2257V94.9311C109.46 94.0182 108.675 93.264 107.726 93.264H98.8061Z" fill="#D1D3D4"/>
<path d="M106.652 7.4868H93.2726C93.1074 7.4868 92.9423 7.32799 92.9423 7.16918C92.9423 7.01037 93.1074 6.85156 93.2726 6.85156H106.652C106.817 6.85156 106.982 7.01037 106.982 7.16918C106.982 7.32799 106.817 7.4868 106.652 7.4868Z" fill="#D1D3D4"/>
<path d="M110.327 7.32762H108.51C108.345 7.32762 108.18 7.16881 108.221 6.9703C108.221 6.81149 108.345 6.69238 108.51 6.69238H110.327C110.492 6.69238 110.657 6.85119 110.616 7.0497C110.616 7.20851 110.492 7.28792 110.327 7.32762Z" fill="#D1D3D4"/>
<path d="M123.954 46.7035C123.293 49.6805 125.234 52.6178 128.331 53.2529C128.992 53.4117 129.694 53.4117 130.355 53.3323C131.387 53.1736 132.378 52.7766 133.245 52.1415C134.814 51.0301 135.805 49.3233 135.971 47.4577C136.136 44.4409 133.493 41.7814 130.396 41.4242C127.547 41.1067 124.532 44.1631 123.954 46.7035Z" fill="#FDFDFD"/>
<path d="M129.57 53.6893C126.225 53.6893 123.5 51.1092 123.5 47.894C123.5 47.4574 123.541 47.0605 123.624 46.6238C124.243 43.8453 127.464 40.7491 130.478 41.1064C133.906 41.5033 136.507 44.3613 136.342 47.4574C136.177 49.4421 135.103 51.2283 133.452 52.3794C132.543 53.0145 131.511 53.4511 130.396 53.6099C130.148 53.6893 129.859 53.6893 129.57 53.6893ZM129.983 41.7018C127.464 41.7018 124.78 44.3613 124.243 46.7826C123.624 49.6009 125.482 52.3397 128.372 52.9748C128.992 53.0939 129.653 53.1336 130.313 53.0542C131.304 52.8954 132.254 52.5382 133.039 51.9428C134.525 50.9107 135.516 49.2833 135.64 47.4971C135.805 44.7582 133.369 42.1384 130.355 41.7812C130.272 41.7018 130.148 41.7018 129.983 41.7018Z" fill="#231F20"/>
<path d="M121.931 66.3126C121.187 67.3447 120.939 68.6546 121.311 69.8851C121.6 70.5996 122.096 71.2347 122.674 71.711C124.243 73.14 126.39 74.172 128.538 73.8544C129.859 73.656 131.056 72.9812 132.13 72.2667C134.03 71.0362 135.847 69.4087 136.466 67.305C137.374 64.2486 135.062 59.7235 131.304 60.1998C128.248 60.557 123.541 63.8913 121.931 66.3126Z" fill="#FDFDFD"/>
<path d="M127.753 74.2512C125.936 74.2512 124.078 73.4573 122.426 71.9886C121.807 71.4726 121.311 70.7978 120.981 70.0436C120.568 68.7338 120.816 67.3048 121.6 66.1934C123.293 63.6927 128.083 60.3187 131.263 59.9217C132.832 59.763 134.36 60.3584 135.351 61.5492C136.796 63.1766 137.292 65.3598 136.796 67.4636C136.26 69.3292 134.814 70.9566 132.337 72.5841C131.304 73.2588 130.024 74.013 128.579 74.2115C128.331 74.2115 128.042 74.2115 127.753 74.2512ZM122.178 66.5109C121.476 67.4636 121.27 68.6941 121.6 69.8055C121.889 70.4803 122.344 71.036 122.88 71.5123C124.615 73.1001 126.638 73.8146 128.496 73.5764C129.776 73.3779 130.974 72.7031 131.965 72.0283C134.319 70.4803 135.681 68.9322 136.177 67.2254C136.631 65.3598 136.136 63.3751 134.856 61.9064C134.03 60.8744 132.708 60.3584 131.346 60.5171C128.372 60.8744 123.748 64.169 122.178 66.5109Z" fill="#231F20"/>
<path d="M123.83 79.1732C123.087 79.6495 122.509 80.2846 122.055 81.0388C121.105 82.7059 121.435 84.8891 122.633 86.3974C123.913 87.8661 125.73 88.8188 127.753 88.9775C130.107 89.2554 132.461 88.5409 134.236 87.0325C136.012 85.4845 136.796 83.1822 136.301 80.9197C134.856 75.1244 127.588 76.5534 123.83 79.1732Z" fill="#FDFDFD"/>
<path d="M128.661 89.2943C128.331 89.2943 128.001 89.2943 127.67 89.2546C125.606 89.0959 123.665 88.1035 122.343 86.5555C121.022 84.8883 120.774 82.5464 121.724 80.8396C122.178 80.0854 122.839 79.4106 123.624 78.8946C126.142 77.1084 130.272 75.8778 133.204 76.9496C134.938 77.545 136.094 78.8946 136.59 80.8396C137.127 83.1815 136.301 85.6425 134.443 87.27C132.832 88.6195 130.809 89.334 128.661 89.2943ZM123.995 79.4106C123.293 79.8869 122.715 80.4823 122.302 81.1571C121.476 82.6258 121.683 84.6899 122.88 86.1585C124.078 87.5875 125.853 88.4608 127.753 88.6195C130.024 88.8974 132.295 88.2226 133.988 86.7539C135.681 85.2853 136.425 83.1021 135.97 80.9586C135.557 79.2121 134.525 78.061 132.997 77.545C130.231 76.5923 126.39 77.7434 123.995 79.4106Z" fill="#231F20"/>
<path d="M47.1062 112.119L51.8137 103.188L96.2045 120.296L91.208 128.036L47.1062 112.119Z" fill="#FCCF5C"/>
<path d="M94.8006 125.496L46.6933 107.872L30.2997 132.562L83.0319 151.734L94.8006 125.496Z" fill="#231F20"/>
<path d="M83.0318 152.051C82.9905 152.051 82.9492 152.051 82.9079 152.051L30.217 132.839C30.0518 132.799 29.9692 132.601 30.0105 132.442C30.0105 132.402 30.0105 132.402 30.0518 132.363L46.4042 107.673C46.4868 107.554 46.6519 107.514 46.7758 107.554L94.8831 125.178C94.9657 125.218 95.0483 125.257 95.0483 125.337C95.0896 125.416 95.0896 125.496 95.0483 125.575L83.2795 151.852C83.2795 152.011 83.1557 152.051 83.0318 152.051ZM30.7951 132.402L82.8253 151.336L94.3876 125.654L46.8171 108.229L30.7951 132.402Z" fill="#231F20"/>
<path d="M55.4062 80.4042C55.4062 80.4042 55.7366 53.4124 58.9988 48.0935C62.261 42.7745 72.6258 20.2284 75.3924 20.0697C78.1591 19.9109 81.0084 28.0481 78.5721 35.2724C77.1268 39.5593 75.0621 43.5684 72.3367 47.2202C72.3367 47.2202 80.4716 55.5559 76.0532 70.5204" fill="#FDFDFD"/>
<path d="M55.4062 80.7215C55.241 80.7215 55.0758 80.5627 55.0758 80.4039C55.0758 79.2925 55.4475 53.2931 58.7097 47.9344C59.7007 46.307 61.3525 43.0521 63.2933 39.3209C69.1157 27.9685 73.4103 19.9106 75.3511 19.7916C76.0531 19.7519 76.8376 20.1885 77.4983 20.9824C79.6043 23.6022 80.7193 29.8738 78.861 35.3912C77.4158 39.5987 75.3924 43.6078 72.7496 47.2199C73.9471 48.5695 80.3889 56.9052 76.3421 70.5996C76.3008 70.7583 76.0944 70.8774 75.9292 70.798C75.764 70.7583 75.6401 70.5599 75.7227 70.4011C77.9939 62.7799 76.8789 56.9449 75.5575 53.3725C74.1122 49.5222 72.1301 47.4184 72.0889 47.4184C71.965 47.2993 71.965 47.1405 72.0476 47.0215C74.7317 43.4093 76.7963 39.4003 78.2003 35.153C80.0173 29.8341 78.9436 23.8006 76.9202 21.2999C76.5486 20.8633 75.9705 20.3076 75.3511 20.3473C73.6167 20.4267 67.5052 32.4142 63.8301 39.5193C61.8893 43.2903 60.2375 46.5451 59.2465 48.1726C56.0669 53.3725 55.6952 80.0864 55.6952 80.3642C55.7365 80.5627 55.5713 80.7215 55.4062 80.7215Z" fill="#231F20"/>
<path d="M46.8585 129.108C48.7514 129.108 50.2859 127.633 50.2859 125.813C50.2859 123.994 48.7514 122.519 46.8585 122.519C44.9656 122.519 43.4312 123.994 43.4312 125.813C43.4312 127.633 44.9656 129.108 46.8585 129.108Z" fill="#FDFDFD"/>
<defs>
<filter id="filter0_d_1134_12232" x="0" y="0" width="168" height="174" filterUnits="userSpaceOnUse" color-interpolation-filters="sRGB">
<feFlood flood-opacity="0" result="BackgroundImageFix"/>
<feColorMatrix in="SourceAlpha" type="matrix" values="0 0 0 0 0 0 0 0 0 0 0 0 0 0 0 0 0 0 127 0" result="hardAlpha"/>
<feOffset dy="10"/>
<feGaussianBlur stdDeviation="2"/>
<feComposite in2="hardAlpha" operator="out"/>
<feColorMatrix type="matrix" values="0 0 0 0 0 0 0 0 0 0 0 0 0 0 0 0 0 0 0.1 0"/>
<feBlend mode="normal" in2="BackgroundImageFix" result="effect1_dropShadow_1134_12232"/>
<feBlend mode="normal" in="SourceGraphic" in2="effect1_dropShadow_1134_12232" result="shape"/>
</filter>
</defs>
</svg>
