<svg width="599" height="698" viewBox="0 0 599 698" fill="none" xmlns="http://www.w3.org/2000/svg">
<path d="M299.168 277.538C280.997 255.601 308.067 253.163 323.874 254.687H506.776L598.028 354.401V523.915L431.463 698H58.4854C-19.9356 689.691 -2.8806 633.324 15.4495 606.18L97.935 523.915H310.724C444.613 532.225 436.644 414.645 397.194 384.731L299.168 277.538Z" fill="#FCCF5C"/>
<path d="M190.781 290.834C157.309 203.417 215.885 171.315 249.358 166.191L473.702 164.529C475.695 164.113 491.634 151.649 538.655 105.947C580.991 64.7972 563.759 9.55596 534.67 1.66191L170.06 0L4.29199 173.669V341.522L92.3562 435.42C125.164 435.143 204.25 434.755 258.124 435.42C311.999 436.084 301.824 414.092 290.003 403.012L190.781 290.834Z" fill="#FCCF5C"/>
</svg>
